G04 #@! TF.FileFunction,Legend,Bot*
%FSLAX46Y46*%
G04 Gerber Fmt 4.6, Leading zero omitted, Abs format (unit mm)*
G04 Created by KiCad (PCBNEW 4.0.6) date 12/28/17 16:00:03*
%MOMM*%
%LPD*%
G01*
G04 APERTURE LIST*
%ADD10C,0.100000*%
%ADD11C,0.120000*%
%ADD12C,0.150000*%
%ADD13R,1.200000X1.300000*%
%ADD14R,3.900000X3.900000*%
%ADD15O,5.400000X4.400000*%
%ADD16R,1.300000X1.200000*%
%ADD17O,4.400000X3.900000*%
%ADD18R,1.400000X1.650000*%
%ADD19R,1.650000X1.400000*%
%ADD20R,1.100000X1.000000*%
%ADD21R,1.000000X1.100000*%
%ADD22R,1.700000X1.100000*%
%ADD23R,1.100000X1.700000*%
%ADD24C,2.200000*%
%ADD25C,3.400000*%
%ADD26R,2.200000X2.200000*%
%ADD27R,2.100000X2.100000*%
%ADD28O,2.100000X2.100000*%
G04 APERTURE END LIST*
D10*
D11*
X55189000Y-180596000D02*
X56119000Y-180596000D01*
X58349000Y-180596000D02*
X57419000Y-180596000D01*
X58349000Y-180596000D02*
X58349000Y-182756000D01*
X55189000Y-180596000D02*
X55189000Y-182056000D01*
X92454000Y-171902000D02*
X92454000Y-172832000D01*
X92454000Y-175062000D02*
X92454000Y-174132000D01*
X92454000Y-175062000D02*
X90294000Y-175062000D01*
X92454000Y-171902000D02*
X90994000Y-171902000D01*
X84780000Y-167896000D02*
X85710000Y-167896000D01*
X87940000Y-167896000D02*
X87010000Y-167896000D01*
X87940000Y-167896000D02*
X87940000Y-170056000D01*
X84780000Y-167896000D02*
X84780000Y-169356000D01*
X74547000Y-121229000D02*
X74547000Y-122159000D01*
X74547000Y-124389000D02*
X74547000Y-123459000D01*
X74547000Y-124389000D02*
X72387000Y-124389000D01*
X74547000Y-121229000D02*
X73087000Y-121229000D01*
X88273000Y-183300000D02*
X89273000Y-183300000D01*
X89273000Y-185000000D02*
X88273000Y-185000000D01*
X93353000Y-180252000D02*
X94353000Y-180252000D01*
X94353000Y-181952000D02*
X93353000Y-181952000D01*
X93638000Y-170172000D02*
X93638000Y-169172000D01*
X95338000Y-169172000D02*
X95338000Y-170172000D01*
X91606000Y-161536000D02*
X91606000Y-160536000D01*
X93306000Y-160536000D02*
X93306000Y-161536000D01*
X86733000Y-161505000D02*
X85733000Y-161505000D01*
X85733000Y-159805000D02*
X86733000Y-159805000D01*
X85082000Y-158838000D02*
X84082000Y-158838000D01*
X84082000Y-157138000D02*
X85082000Y-157138000D01*
X87718000Y-148534500D02*
X87718000Y-149534500D01*
X86018000Y-149534500D02*
X86018000Y-148534500D01*
X63158000Y-126103000D02*
X63158000Y-125103000D01*
X64858000Y-125103000D02*
X64858000Y-126103000D01*
X68080000Y-129071000D02*
X69080000Y-129071000D01*
X69080000Y-130771000D02*
X68080000Y-130771000D01*
X76970000Y-128944000D02*
X77970000Y-128944000D01*
X77970000Y-130644000D02*
X76970000Y-130644000D01*
X81368000Y-123198000D02*
X81368000Y-124198000D01*
X79668000Y-124198000D02*
X79668000Y-123198000D01*
X58412000Y-169633000D02*
X57412000Y-169633000D01*
X57412000Y-167933000D02*
X58412000Y-167933000D01*
X56761000Y-153377000D02*
X55761000Y-153377000D01*
X55761000Y-151677000D02*
X56761000Y-151677000D01*
X80610000Y-109938200D02*
X79410000Y-109938200D01*
X80610000Y-108088200D02*
X80610000Y-109938200D01*
X79410000Y-108088200D02*
X79410000Y-109938200D01*
X83658000Y-165488000D02*
X82458000Y-165488000D01*
X83658000Y-163638000D02*
X83658000Y-165488000D01*
X82458000Y-163638000D02*
X82458000Y-165488000D01*
X80299000Y-163188000D02*
X81499000Y-163188000D01*
X80299000Y-165038000D02*
X80299000Y-163188000D01*
X81499000Y-165038000D02*
X81499000Y-163188000D01*
X75191000Y-119034000D02*
X75191000Y-120234000D01*
X73341000Y-119034000D02*
X75191000Y-119034000D01*
X73341000Y-120234000D02*
X75191000Y-120234000D01*
X84337000Y-182407000D02*
X84337000Y-183607000D01*
X86097000Y-183607000D02*
X86097000Y-182407000D01*
X90669000Y-180686000D02*
X90669000Y-179486000D01*
X88909000Y-179486000D02*
X88909000Y-180686000D01*
X93253000Y-178807000D02*
X94453000Y-178807000D01*
X94453000Y-177047000D02*
X93253000Y-177047000D01*
X91856000Y-187570000D02*
X93056000Y-187570000D01*
X93056000Y-185810000D02*
X91856000Y-185810000D01*
X86706000Y-171713000D02*
X85506000Y-171713000D01*
X85506000Y-173473000D02*
X86706000Y-173473000D01*
X89653000Y-144872000D02*
X89653000Y-143672000D01*
X87893000Y-143672000D02*
X87893000Y-144872000D01*
X93336000Y-166335000D02*
X93336000Y-165135000D01*
X91576000Y-165135000D02*
X91576000Y-166335000D01*
X91602000Y-149851000D02*
X92802000Y-149851000D01*
X92802000Y-148091000D02*
X91602000Y-148091000D01*
X89627000Y-162696000D02*
X88427000Y-162696000D01*
X88427000Y-164456000D02*
X89627000Y-164456000D01*
X84039000Y-152028000D02*
X82839000Y-152028000D01*
X82839000Y-153788000D02*
X84039000Y-153788000D01*
X83049000Y-172304000D02*
X83049000Y-171104000D01*
X81289000Y-171104000D02*
X81289000Y-172304000D01*
X83384500Y-146529500D02*
X83384500Y-147729500D01*
X85144500Y-147729500D02*
X85144500Y-146529500D01*
X66811000Y-125257000D02*
X66811000Y-126457000D01*
X68571000Y-126457000D02*
X68571000Y-125257000D01*
X67980000Y-133722000D02*
X69180000Y-133722000D01*
X69180000Y-131962000D02*
X67980000Y-131962000D01*
X81144000Y-119091000D02*
X81144000Y-117891000D01*
X79384000Y-117891000D02*
X79384000Y-119091000D01*
X68361000Y-122546000D02*
X69561000Y-122546000D01*
X69561000Y-120786000D02*
X68361000Y-120786000D01*
X76971000Y-123098000D02*
X76971000Y-124298000D01*
X78731000Y-124298000D02*
X78731000Y-123098000D01*
X76800000Y-131708000D02*
X75600000Y-131708000D01*
X75600000Y-133468000D02*
X76800000Y-133468000D01*
X57439000Y-167123000D02*
X58639000Y-167123000D01*
X58639000Y-165363000D02*
X57439000Y-165363000D01*
X60570000Y-187163000D02*
X60570000Y-185963000D01*
X58810000Y-185963000D02*
X58810000Y-187163000D01*
X57439000Y-155820000D02*
X58639000Y-155820000D01*
X58639000Y-154060000D02*
X57439000Y-154060000D01*
X56760000Y-187036000D02*
X56760000Y-185836000D01*
X55000000Y-185836000D02*
X55000000Y-187036000D01*
X120113500Y-173727000D02*
X121313500Y-173727000D01*
X121313500Y-171967000D02*
X120113500Y-171967000D01*
X72891000Y-118202000D02*
X72891000Y-117002000D01*
X74741000Y-118202000D02*
X72891000Y-118202000D01*
X74741000Y-117002000D02*
X72891000Y-117002000D01*
D12*
X59683638Y-182335419D02*
X59778876Y-182287800D01*
X59874114Y-182192562D01*
X60016971Y-182049705D01*
X60112210Y-182002086D01*
X60207448Y-182002086D01*
X60159829Y-182240181D02*
X60255067Y-182192562D01*
X60350305Y-182097324D01*
X60397924Y-181906848D01*
X60397924Y-181573514D01*
X60350305Y-181383038D01*
X60255067Y-181287800D01*
X60159829Y-181240181D01*
X59969352Y-181240181D01*
X59874114Y-181287800D01*
X59778876Y-181383038D01*
X59731257Y-181573514D01*
X59731257Y-181906848D01*
X59778876Y-182097324D01*
X59874114Y-182192562D01*
X59969352Y-182240181D01*
X60159829Y-182240181D01*
X58874114Y-181573514D02*
X58874114Y-182240181D01*
X59112210Y-181192562D02*
X59350305Y-181906848D01*
X58731257Y-181906848D01*
X91281238Y-171642019D02*
X91376476Y-171594400D01*
X91471714Y-171499162D01*
X91614571Y-171356305D01*
X91709810Y-171308686D01*
X91805048Y-171308686D01*
X91757429Y-171546781D02*
X91852667Y-171499162D01*
X91947905Y-171403924D01*
X91995524Y-171213448D01*
X91995524Y-170880114D01*
X91947905Y-170689638D01*
X91852667Y-170594400D01*
X91757429Y-170546781D01*
X91566952Y-170546781D01*
X91471714Y-170594400D01*
X91376476Y-170689638D01*
X91328857Y-170880114D01*
X91328857Y-171213448D01*
X91376476Y-171403924D01*
X91471714Y-171499162D01*
X91566952Y-171546781D01*
X91757429Y-171546781D01*
X90376476Y-171546781D02*
X90947905Y-171546781D01*
X90662191Y-171546781D02*
X90662191Y-170546781D01*
X90757429Y-170689638D01*
X90852667Y-170784876D01*
X90947905Y-170832495D01*
X84494619Y-168840162D02*
X84447000Y-168744924D01*
X84351762Y-168649686D01*
X84208905Y-168506829D01*
X84161286Y-168411590D01*
X84161286Y-168316352D01*
X84399381Y-168363971D02*
X84351762Y-168268733D01*
X84256524Y-168173495D01*
X84066048Y-168125876D01*
X83732714Y-168125876D01*
X83542238Y-168173495D01*
X83447000Y-168268733D01*
X83399381Y-168363971D01*
X83399381Y-168554448D01*
X83447000Y-168649686D01*
X83542238Y-168744924D01*
X83732714Y-168792543D01*
X84066048Y-168792543D01*
X84256524Y-168744924D01*
X84351762Y-168649686D01*
X84399381Y-168554448D01*
X84399381Y-168363971D01*
X83494619Y-169173495D02*
X83447000Y-169221114D01*
X83399381Y-169316352D01*
X83399381Y-169554448D01*
X83447000Y-169649686D01*
X83494619Y-169697305D01*
X83589857Y-169744924D01*
X83685095Y-169744924D01*
X83827952Y-169697305D01*
X84399381Y-169125876D01*
X84399381Y-169744924D01*
X73882238Y-125856619D02*
X73977476Y-125809000D01*
X74072714Y-125713762D01*
X74215571Y-125570905D01*
X74310810Y-125523286D01*
X74406048Y-125523286D01*
X74358429Y-125761381D02*
X74453667Y-125713762D01*
X74548905Y-125618524D01*
X74596524Y-125428048D01*
X74596524Y-125094714D01*
X74548905Y-124904238D01*
X74453667Y-124809000D01*
X74358429Y-124761381D01*
X74167952Y-124761381D01*
X74072714Y-124809000D01*
X73977476Y-124904238D01*
X73929857Y-125094714D01*
X73929857Y-125428048D01*
X73977476Y-125618524D01*
X74072714Y-125713762D01*
X74167952Y-125761381D01*
X74358429Y-125761381D01*
X73596524Y-124761381D02*
X72977476Y-124761381D01*
X73310810Y-125142333D01*
X73167952Y-125142333D01*
X73072714Y-125189952D01*
X73025095Y-125237571D01*
X72977476Y-125332810D01*
X72977476Y-125570905D01*
X73025095Y-125666143D01*
X73072714Y-125713762D01*
X73167952Y-125761381D01*
X73453667Y-125761381D01*
X73548905Y-125713762D01*
X73596524Y-125666143D01*
X91581266Y-184430943D02*
X91628885Y-184478562D01*
X91771742Y-184526181D01*
X91866980Y-184526181D01*
X92009838Y-184478562D01*
X92105076Y-184383324D01*
X92152695Y-184288086D01*
X92200314Y-184097610D01*
X92200314Y-183954752D01*
X92152695Y-183764276D01*
X92105076Y-183669038D01*
X92009838Y-183573800D01*
X91866980Y-183526181D01*
X91771742Y-183526181D01*
X91628885Y-183573800D01*
X91581266Y-183621419D01*
X90628885Y-184526181D02*
X91200314Y-184526181D01*
X90914600Y-184526181D02*
X90914600Y-183526181D01*
X91009838Y-183669038D01*
X91105076Y-183764276D01*
X91200314Y-183811895D01*
X94883266Y-183110143D02*
X94930885Y-183157762D01*
X95073742Y-183205381D01*
X95168980Y-183205381D01*
X95311838Y-183157762D01*
X95407076Y-183062524D01*
X95454695Y-182967286D01*
X95502314Y-182776810D01*
X95502314Y-182633952D01*
X95454695Y-182443476D01*
X95407076Y-182348238D01*
X95311838Y-182253000D01*
X95168980Y-182205381D01*
X95073742Y-182205381D01*
X94930885Y-182253000D01*
X94883266Y-182300619D01*
X94502314Y-182300619D02*
X94454695Y-182253000D01*
X94359457Y-182205381D01*
X94121361Y-182205381D01*
X94026123Y-182253000D01*
X93978504Y-182300619D01*
X93930885Y-182395857D01*
X93930885Y-182491095D01*
X93978504Y-182633952D01*
X94549933Y-183205381D01*
X93930885Y-183205381D01*
X94654666Y-172442143D02*
X94702285Y-172489762D01*
X94845142Y-172537381D01*
X94940380Y-172537381D01*
X95083238Y-172489762D01*
X95178476Y-172394524D01*
X95226095Y-172299286D01*
X95273714Y-172108810D01*
X95273714Y-171965952D01*
X95226095Y-171775476D01*
X95178476Y-171680238D01*
X95083238Y-171585000D01*
X94940380Y-171537381D01*
X94845142Y-171537381D01*
X94702285Y-171585000D01*
X94654666Y-171632619D01*
X94321333Y-171537381D02*
X93702285Y-171537381D01*
X94035619Y-171918333D01*
X93892761Y-171918333D01*
X93797523Y-171965952D01*
X93749904Y-172013571D01*
X93702285Y-172108810D01*
X93702285Y-172346905D01*
X93749904Y-172442143D01*
X93797523Y-172489762D01*
X93892761Y-172537381D01*
X94178476Y-172537381D01*
X94273714Y-172489762D01*
X94321333Y-172442143D01*
X92673466Y-159081743D02*
X92721085Y-159129362D01*
X92863942Y-159176981D01*
X92959180Y-159176981D01*
X93102038Y-159129362D01*
X93197276Y-159034124D01*
X93244895Y-158938886D01*
X93292514Y-158748410D01*
X93292514Y-158605552D01*
X93244895Y-158415076D01*
X93197276Y-158319838D01*
X93102038Y-158224600D01*
X92959180Y-158176981D01*
X92863942Y-158176981D01*
X92721085Y-158224600D01*
X92673466Y-158272219D01*
X91816323Y-158510314D02*
X91816323Y-159176981D01*
X92054419Y-158129362D02*
X92292514Y-158843648D01*
X91673466Y-158843648D01*
X89142866Y-161139143D02*
X89190485Y-161186762D01*
X89333342Y-161234381D01*
X89428580Y-161234381D01*
X89571438Y-161186762D01*
X89666676Y-161091524D01*
X89714295Y-160996286D01*
X89761914Y-160805810D01*
X89761914Y-160662952D01*
X89714295Y-160472476D01*
X89666676Y-160377238D01*
X89571438Y-160282000D01*
X89428580Y-160234381D01*
X89333342Y-160234381D01*
X89190485Y-160282000D01*
X89142866Y-160329619D01*
X88238104Y-160234381D02*
X88714295Y-160234381D01*
X88761914Y-160710571D01*
X88714295Y-160662952D01*
X88619057Y-160615333D01*
X88380961Y-160615333D01*
X88285723Y-160662952D01*
X88238104Y-160710571D01*
X88190485Y-160805810D01*
X88190485Y-161043905D01*
X88238104Y-161139143D01*
X88285723Y-161186762D01*
X88380961Y-161234381D01*
X88619057Y-161234381D01*
X88714295Y-161186762D01*
X88761914Y-161139143D01*
X87441066Y-158395943D02*
X87488685Y-158443562D01*
X87631542Y-158491181D01*
X87726780Y-158491181D01*
X87869638Y-158443562D01*
X87964876Y-158348324D01*
X88012495Y-158253086D01*
X88060114Y-158062610D01*
X88060114Y-157919752D01*
X88012495Y-157729276D01*
X87964876Y-157634038D01*
X87869638Y-157538800D01*
X87726780Y-157491181D01*
X87631542Y-157491181D01*
X87488685Y-157538800D01*
X87441066Y-157586419D01*
X86583923Y-157491181D02*
X86774400Y-157491181D01*
X86869638Y-157538800D01*
X86917257Y-157586419D01*
X87012495Y-157729276D01*
X87060114Y-157919752D01*
X87060114Y-158300705D01*
X87012495Y-158395943D01*
X86964876Y-158443562D01*
X86869638Y-158491181D01*
X86679161Y-158491181D01*
X86583923Y-158443562D01*
X86536304Y-158395943D01*
X86488685Y-158300705D01*
X86488685Y-158062610D01*
X86536304Y-157967371D01*
X86583923Y-157919752D01*
X86679161Y-157872133D01*
X86869638Y-157872133D01*
X86964876Y-157919752D01*
X87012495Y-157967371D01*
X87060114Y-158062610D01*
X87060066Y-151868143D02*
X87107685Y-151915762D01*
X87250542Y-151963381D01*
X87345780Y-151963381D01*
X87488638Y-151915762D01*
X87583876Y-151820524D01*
X87631495Y-151725286D01*
X87679114Y-151534810D01*
X87679114Y-151391952D01*
X87631495Y-151201476D01*
X87583876Y-151106238D01*
X87488638Y-151011000D01*
X87345780Y-150963381D01*
X87250542Y-150963381D01*
X87107685Y-151011000D01*
X87060066Y-151058619D01*
X86726733Y-150963381D02*
X86060066Y-150963381D01*
X86488638Y-151963381D01*
X64225466Y-123597943D02*
X64273085Y-123645562D01*
X64415942Y-123693181D01*
X64511180Y-123693181D01*
X64654038Y-123645562D01*
X64749276Y-123550324D01*
X64796895Y-123455086D01*
X64844514Y-123264610D01*
X64844514Y-123121752D01*
X64796895Y-122931276D01*
X64749276Y-122836038D01*
X64654038Y-122740800D01*
X64511180Y-122693181D01*
X64415942Y-122693181D01*
X64273085Y-122740800D01*
X64225466Y-122788419D01*
X63654038Y-123121752D02*
X63749276Y-123074133D01*
X63796895Y-123026514D01*
X63844514Y-122931276D01*
X63844514Y-122883657D01*
X63796895Y-122788419D01*
X63749276Y-122740800D01*
X63654038Y-122693181D01*
X63463561Y-122693181D01*
X63368323Y-122740800D01*
X63320704Y-122788419D01*
X63273085Y-122883657D01*
X63273085Y-122931276D01*
X63320704Y-123026514D01*
X63368323Y-123074133D01*
X63463561Y-123121752D01*
X63654038Y-123121752D01*
X63749276Y-123169371D01*
X63796895Y-123216990D01*
X63844514Y-123312229D01*
X63844514Y-123502705D01*
X63796895Y-123597943D01*
X63749276Y-123645562D01*
X63654038Y-123693181D01*
X63463561Y-123693181D01*
X63368323Y-123645562D01*
X63320704Y-123597943D01*
X63273085Y-123502705D01*
X63273085Y-123312229D01*
X63320704Y-123216990D01*
X63368323Y-123169371D01*
X63463561Y-123121752D01*
X65851066Y-130252743D02*
X65898685Y-130300362D01*
X66041542Y-130347981D01*
X66136780Y-130347981D01*
X66279638Y-130300362D01*
X66374876Y-130205124D01*
X66422495Y-130109886D01*
X66470114Y-129919410D01*
X66470114Y-129776552D01*
X66422495Y-129586076D01*
X66374876Y-129490838D01*
X66279638Y-129395600D01*
X66136780Y-129347981D01*
X66041542Y-129347981D01*
X65898685Y-129395600D01*
X65851066Y-129443219D01*
X65374876Y-130347981D02*
X65184400Y-130347981D01*
X65089161Y-130300362D01*
X65041542Y-130252743D01*
X64946304Y-130109886D01*
X64898685Y-129919410D01*
X64898685Y-129538457D01*
X64946304Y-129443219D01*
X64993923Y-129395600D01*
X65089161Y-129347981D01*
X65279638Y-129347981D01*
X65374876Y-129395600D01*
X65422495Y-129443219D01*
X65470114Y-129538457D01*
X65470114Y-129776552D01*
X65422495Y-129871790D01*
X65374876Y-129919410D01*
X65279638Y-129967029D01*
X65089161Y-129967029D01*
X64993923Y-129919410D01*
X64946304Y-129871790D01*
X64898685Y-129776552D01*
X78112857Y-128651143D02*
X78160476Y-128698762D01*
X78303333Y-128746381D01*
X78398571Y-128746381D01*
X78541429Y-128698762D01*
X78636667Y-128603524D01*
X78684286Y-128508286D01*
X78731905Y-128317810D01*
X78731905Y-128174952D01*
X78684286Y-127984476D01*
X78636667Y-127889238D01*
X78541429Y-127794000D01*
X78398571Y-127746381D01*
X78303333Y-127746381D01*
X78160476Y-127794000D01*
X78112857Y-127841619D01*
X77160476Y-128746381D02*
X77731905Y-128746381D01*
X77446191Y-128746381D02*
X77446191Y-127746381D01*
X77541429Y-127889238D01*
X77636667Y-127984476D01*
X77731905Y-128032095D01*
X76541429Y-127746381D02*
X76446190Y-127746381D01*
X76350952Y-127794000D01*
X76303333Y-127841619D01*
X76255714Y-127936857D01*
X76208095Y-128127333D01*
X76208095Y-128365429D01*
X76255714Y-128555905D01*
X76303333Y-128651143D01*
X76350952Y-128698762D01*
X76446190Y-128746381D01*
X76541429Y-128746381D01*
X76636667Y-128698762D01*
X76684286Y-128651143D01*
X76731905Y-128555905D01*
X76779524Y-128365429D01*
X76779524Y-128127333D01*
X76731905Y-127936857D01*
X76684286Y-127841619D01*
X76636667Y-127794000D01*
X76541429Y-127746381D01*
X81643457Y-126493543D02*
X81691076Y-126541162D01*
X81833933Y-126588781D01*
X81929171Y-126588781D01*
X82072029Y-126541162D01*
X82167267Y-126445924D01*
X82214886Y-126350686D01*
X82262505Y-126160210D01*
X82262505Y-126017352D01*
X82214886Y-125826876D01*
X82167267Y-125731638D01*
X82072029Y-125636400D01*
X81929171Y-125588781D01*
X81833933Y-125588781D01*
X81691076Y-125636400D01*
X81643457Y-125684019D01*
X80691076Y-126588781D02*
X81262505Y-126588781D01*
X80976791Y-126588781D02*
X80976791Y-125588781D01*
X81072029Y-125731638D01*
X81167267Y-125826876D01*
X81262505Y-125874495D01*
X79738695Y-126588781D02*
X80310124Y-126588781D01*
X80024410Y-126588781D02*
X80024410Y-125588781D01*
X80119648Y-125731638D01*
X80214886Y-125826876D01*
X80310124Y-125874495D01*
X58656457Y-170867343D02*
X58704076Y-170914962D01*
X58846933Y-170962581D01*
X58942171Y-170962581D01*
X59085029Y-170914962D01*
X59180267Y-170819724D01*
X59227886Y-170724486D01*
X59275505Y-170534010D01*
X59275505Y-170391152D01*
X59227886Y-170200676D01*
X59180267Y-170105438D01*
X59085029Y-170010200D01*
X58942171Y-169962581D01*
X58846933Y-169962581D01*
X58704076Y-170010200D01*
X58656457Y-170057819D01*
X57704076Y-170962581D02*
X58275505Y-170962581D01*
X57989791Y-170962581D02*
X57989791Y-169962581D01*
X58085029Y-170105438D01*
X58180267Y-170200676D01*
X58275505Y-170248295D01*
X57323124Y-170057819D02*
X57275505Y-170010200D01*
X57180267Y-169962581D01*
X56942171Y-169962581D01*
X56846933Y-170010200D01*
X56799314Y-170057819D01*
X56751695Y-170153057D01*
X56751695Y-170248295D01*
X56799314Y-170391152D01*
X57370743Y-170962581D01*
X56751695Y-170962581D01*
X56802257Y-151106143D02*
X56849876Y-151153762D01*
X56992733Y-151201381D01*
X57087971Y-151201381D01*
X57230829Y-151153762D01*
X57326067Y-151058524D01*
X57373686Y-150963286D01*
X57421305Y-150772810D01*
X57421305Y-150629952D01*
X57373686Y-150439476D01*
X57326067Y-150344238D01*
X57230829Y-150249000D01*
X57087971Y-150201381D01*
X56992733Y-150201381D01*
X56849876Y-150249000D01*
X56802257Y-150296619D01*
X55849876Y-151201381D02*
X56421305Y-151201381D01*
X56135591Y-151201381D02*
X56135591Y-150201381D01*
X56230829Y-150344238D01*
X56326067Y-150439476D01*
X56421305Y-150487095D01*
X55516543Y-150201381D02*
X54897495Y-150201381D01*
X55230829Y-150582333D01*
X55087971Y-150582333D01*
X54992733Y-150629952D01*
X54945114Y-150677571D01*
X54897495Y-150772810D01*
X54897495Y-151010905D01*
X54945114Y-151106143D01*
X54992733Y-151153762D01*
X55087971Y-151201381D01*
X55373686Y-151201381D01*
X55468924Y-151153762D01*
X55516543Y-151106143D01*
X81884781Y-108202505D02*
X80884781Y-108202505D01*
X80884781Y-108440600D01*
X80932400Y-108583458D01*
X81027638Y-108678696D01*
X81122876Y-108726315D01*
X81313352Y-108773934D01*
X81456210Y-108773934D01*
X81646686Y-108726315D01*
X81741924Y-108678696D01*
X81837162Y-108583458D01*
X81884781Y-108440600D01*
X81884781Y-108202505D01*
X81884781Y-109726315D02*
X81884781Y-109154886D01*
X81884781Y-109440600D02*
X80884781Y-109440600D01*
X81027638Y-109345362D01*
X81122876Y-109250124D01*
X81170495Y-109154886D01*
X84810381Y-163599905D02*
X83810381Y-163599905D01*
X83810381Y-163838000D01*
X83858000Y-163980858D01*
X83953238Y-164076096D01*
X84048476Y-164123715D01*
X84238952Y-164171334D01*
X84381810Y-164171334D01*
X84572286Y-164123715D01*
X84667524Y-164076096D01*
X84762762Y-163980858D01*
X84810381Y-163838000D01*
X84810381Y-163599905D01*
X83905619Y-164552286D02*
X83858000Y-164599905D01*
X83810381Y-164695143D01*
X83810381Y-164933239D01*
X83858000Y-165028477D01*
X83905619Y-165076096D01*
X84000857Y-165123715D01*
X84096095Y-165123715D01*
X84238952Y-165076096D01*
X84810381Y-164504667D01*
X84810381Y-165123715D01*
X80051381Y-163599905D02*
X79051381Y-163599905D01*
X79051381Y-163838000D01*
X79099000Y-163980858D01*
X79194238Y-164076096D01*
X79289476Y-164123715D01*
X79479952Y-164171334D01*
X79622810Y-164171334D01*
X79813286Y-164123715D01*
X79908524Y-164076096D01*
X80003762Y-163980858D01*
X80051381Y-163838000D01*
X80051381Y-163599905D01*
X79051381Y-164504667D02*
X79051381Y-165123715D01*
X79432333Y-164790381D01*
X79432333Y-164933239D01*
X79479952Y-165028477D01*
X79527571Y-165076096D01*
X79622810Y-165123715D01*
X79860905Y-165123715D01*
X79956143Y-165076096D01*
X80003762Y-165028477D01*
X80051381Y-164933239D01*
X80051381Y-164647524D01*
X80003762Y-164552286D01*
X79956143Y-164504667D01*
X77065095Y-118181381D02*
X77065095Y-117181381D01*
X76827000Y-117181381D01*
X76684142Y-117229000D01*
X76588904Y-117324238D01*
X76541285Y-117419476D01*
X76493666Y-117609952D01*
X76493666Y-117752810D01*
X76541285Y-117943286D01*
X76588904Y-118038524D01*
X76684142Y-118133762D01*
X76827000Y-118181381D01*
X77065095Y-118181381D01*
X75636523Y-117514714D02*
X75636523Y-118181381D01*
X75874619Y-117133762D02*
X76112714Y-117848048D01*
X75493666Y-117848048D01*
X85307466Y-181147981D02*
X85640800Y-180671790D01*
X85878895Y-181147981D02*
X85878895Y-180147981D01*
X85497942Y-180147981D01*
X85402704Y-180195600D01*
X85355085Y-180243219D01*
X85307466Y-180338457D01*
X85307466Y-180481314D01*
X85355085Y-180576552D01*
X85402704Y-180624171D01*
X85497942Y-180671790D01*
X85878895Y-180671790D01*
X84355085Y-181147981D02*
X84926514Y-181147981D01*
X84640800Y-181147981D02*
X84640800Y-180147981D01*
X84736038Y-180290838D01*
X84831276Y-180386076D01*
X84926514Y-180433695D01*
X88591381Y-179919334D02*
X88115190Y-179586000D01*
X88591381Y-179347905D02*
X87591381Y-179347905D01*
X87591381Y-179728858D01*
X87639000Y-179824096D01*
X87686619Y-179871715D01*
X87781857Y-179919334D01*
X87924714Y-179919334D01*
X88019952Y-179871715D01*
X88067571Y-179824096D01*
X88115190Y-179728858D01*
X88115190Y-179347905D01*
X87686619Y-180300286D02*
X87639000Y-180347905D01*
X87591381Y-180443143D01*
X87591381Y-180681239D01*
X87639000Y-180776477D01*
X87686619Y-180824096D01*
X87781857Y-180871715D01*
X87877095Y-180871715D01*
X88019952Y-180824096D01*
X88591381Y-180252667D01*
X88591381Y-180871715D01*
X94705466Y-176779181D02*
X95038800Y-176302990D01*
X95276895Y-176779181D02*
X95276895Y-175779181D01*
X94895942Y-175779181D01*
X94800704Y-175826800D01*
X94753085Y-175874419D01*
X94705466Y-175969657D01*
X94705466Y-176112514D01*
X94753085Y-176207752D01*
X94800704Y-176255371D01*
X94895942Y-176302990D01*
X95276895Y-176302990D01*
X94372133Y-175779181D02*
X93753085Y-175779181D01*
X94086419Y-176160133D01*
X93943561Y-176160133D01*
X93848323Y-176207752D01*
X93800704Y-176255371D01*
X93753085Y-176350610D01*
X93753085Y-176588705D01*
X93800704Y-176683943D01*
X93848323Y-176731562D01*
X93943561Y-176779181D01*
X94229276Y-176779181D01*
X94324514Y-176731562D01*
X94372133Y-176683943D01*
X89955666Y-187243981D02*
X90289000Y-186767790D01*
X90527095Y-187243981D02*
X90527095Y-186243981D01*
X90146142Y-186243981D01*
X90050904Y-186291600D01*
X90003285Y-186339219D01*
X89955666Y-186434457D01*
X89955666Y-186577314D01*
X90003285Y-186672552D01*
X90050904Y-186720171D01*
X90146142Y-186767790D01*
X90527095Y-186767790D01*
X89098523Y-186577314D02*
X89098523Y-187243981D01*
X89336619Y-186196362D02*
X89574714Y-186910648D01*
X88955666Y-186910648D01*
X86272666Y-174695381D02*
X86606000Y-174219190D01*
X86844095Y-174695381D02*
X86844095Y-173695381D01*
X86463142Y-173695381D01*
X86367904Y-173743000D01*
X86320285Y-173790619D01*
X86272666Y-173885857D01*
X86272666Y-174028714D01*
X86320285Y-174123952D01*
X86367904Y-174171571D01*
X86463142Y-174219190D01*
X86844095Y-174219190D01*
X85367904Y-173695381D02*
X85844095Y-173695381D01*
X85891714Y-174171571D01*
X85844095Y-174123952D01*
X85748857Y-174076333D01*
X85510761Y-174076333D01*
X85415523Y-174123952D01*
X85367904Y-174171571D01*
X85320285Y-174266810D01*
X85320285Y-174504905D01*
X85367904Y-174600143D01*
X85415523Y-174647762D01*
X85510761Y-174695381D01*
X85748857Y-174695381D01*
X85844095Y-174647762D01*
X85891714Y-174600143D01*
X88914266Y-147010381D02*
X89247600Y-146534190D01*
X89485695Y-147010381D02*
X89485695Y-146010381D01*
X89104742Y-146010381D01*
X89009504Y-146058000D01*
X88961885Y-146105619D01*
X88914266Y-146200857D01*
X88914266Y-146343714D01*
X88961885Y-146438952D01*
X89009504Y-146486571D01*
X89104742Y-146534190D01*
X89485695Y-146534190D01*
X88057123Y-146010381D02*
X88247600Y-146010381D01*
X88342838Y-146058000D01*
X88390457Y-146105619D01*
X88485695Y-146248476D01*
X88533314Y-146438952D01*
X88533314Y-146819905D01*
X88485695Y-146915143D01*
X88438076Y-146962762D01*
X88342838Y-147010381D01*
X88152361Y-147010381D01*
X88057123Y-146962762D01*
X88009504Y-146915143D01*
X87961885Y-146819905D01*
X87961885Y-146581810D01*
X88009504Y-146486571D01*
X88057123Y-146438952D01*
X88152361Y-146391333D01*
X88342838Y-146391333D01*
X88438076Y-146438952D01*
X88485695Y-146486571D01*
X88533314Y-146581810D01*
X92648066Y-168422581D02*
X92981400Y-167946390D01*
X93219495Y-168422581D02*
X93219495Y-167422581D01*
X92838542Y-167422581D01*
X92743304Y-167470200D01*
X92695685Y-167517819D01*
X92648066Y-167613057D01*
X92648066Y-167755914D01*
X92695685Y-167851152D01*
X92743304Y-167898771D01*
X92838542Y-167946390D01*
X93219495Y-167946390D01*
X92314733Y-167422581D02*
X91648066Y-167422581D01*
X92076638Y-168422581D01*
X92368666Y-147773381D02*
X92702000Y-147297190D01*
X92940095Y-147773381D02*
X92940095Y-146773381D01*
X92559142Y-146773381D01*
X92463904Y-146821000D01*
X92416285Y-146868619D01*
X92368666Y-146963857D01*
X92368666Y-147106714D01*
X92416285Y-147201952D01*
X92463904Y-147249571D01*
X92559142Y-147297190D01*
X92940095Y-147297190D01*
X91797238Y-147201952D02*
X91892476Y-147154333D01*
X91940095Y-147106714D01*
X91987714Y-147011476D01*
X91987714Y-146963857D01*
X91940095Y-146868619D01*
X91892476Y-146821000D01*
X91797238Y-146773381D01*
X91606761Y-146773381D01*
X91511523Y-146821000D01*
X91463904Y-146868619D01*
X91416285Y-146963857D01*
X91416285Y-147011476D01*
X91463904Y-147106714D01*
X91511523Y-147154333D01*
X91606761Y-147201952D01*
X91797238Y-147201952D01*
X91892476Y-147249571D01*
X91940095Y-147297190D01*
X91987714Y-147392429D01*
X91987714Y-147582905D01*
X91940095Y-147678143D01*
X91892476Y-147725762D01*
X91797238Y-147773381D01*
X91606761Y-147773381D01*
X91511523Y-147725762D01*
X91463904Y-147678143D01*
X91416285Y-147582905D01*
X91416285Y-147392429D01*
X91463904Y-147297190D01*
X91511523Y-147249571D01*
X91606761Y-147201952D01*
X88609466Y-165628581D02*
X88942800Y-165152390D01*
X89180895Y-165628581D02*
X89180895Y-164628581D01*
X88799942Y-164628581D01*
X88704704Y-164676200D01*
X88657085Y-164723819D01*
X88609466Y-164819057D01*
X88609466Y-164961914D01*
X88657085Y-165057152D01*
X88704704Y-165104771D01*
X88799942Y-165152390D01*
X89180895Y-165152390D01*
X88133276Y-165628581D02*
X87942800Y-165628581D01*
X87847561Y-165580962D01*
X87799942Y-165533343D01*
X87704704Y-165390486D01*
X87657085Y-165200010D01*
X87657085Y-164819057D01*
X87704704Y-164723819D01*
X87752323Y-164676200D01*
X87847561Y-164628581D01*
X88038038Y-164628581D01*
X88133276Y-164676200D01*
X88180895Y-164723819D01*
X88228514Y-164819057D01*
X88228514Y-165057152D01*
X88180895Y-165152390D01*
X88133276Y-165200010D01*
X88038038Y-165247629D01*
X87847561Y-165247629D01*
X87752323Y-165200010D01*
X87704704Y-165152390D01*
X87657085Y-165057152D01*
X84081857Y-155010381D02*
X84415191Y-154534190D01*
X84653286Y-155010381D02*
X84653286Y-154010381D01*
X84272333Y-154010381D01*
X84177095Y-154058000D01*
X84129476Y-154105619D01*
X84081857Y-154200857D01*
X84081857Y-154343714D01*
X84129476Y-154438952D01*
X84177095Y-154486571D01*
X84272333Y-154534190D01*
X84653286Y-154534190D01*
X83129476Y-155010381D02*
X83700905Y-155010381D01*
X83415191Y-155010381D02*
X83415191Y-154010381D01*
X83510429Y-154153238D01*
X83605667Y-154248476D01*
X83700905Y-154296095D01*
X82510429Y-154010381D02*
X82415190Y-154010381D01*
X82319952Y-154058000D01*
X82272333Y-154105619D01*
X82224714Y-154200857D01*
X82177095Y-154391333D01*
X82177095Y-154629429D01*
X82224714Y-154819905D01*
X82272333Y-154915143D01*
X82319952Y-154962762D01*
X82415190Y-155010381D01*
X82510429Y-155010381D01*
X82605667Y-154962762D01*
X82653286Y-154915143D01*
X82700905Y-154819905D01*
X82748524Y-154629429D01*
X82748524Y-154391333D01*
X82700905Y-154200857D01*
X82653286Y-154105619D01*
X82605667Y-154058000D01*
X82510429Y-154010381D01*
X80971381Y-171061143D02*
X80495190Y-170727809D01*
X80971381Y-170489714D02*
X79971381Y-170489714D01*
X79971381Y-170870667D01*
X80019000Y-170965905D01*
X80066619Y-171013524D01*
X80161857Y-171061143D01*
X80304714Y-171061143D01*
X80399952Y-171013524D01*
X80447571Y-170965905D01*
X80495190Y-170870667D01*
X80495190Y-170489714D01*
X80971381Y-172013524D02*
X80971381Y-171442095D01*
X80971381Y-171727809D02*
X79971381Y-171727809D01*
X80114238Y-171632571D01*
X80209476Y-171537333D01*
X80257095Y-171442095D01*
X80971381Y-172965905D02*
X80971381Y-172394476D01*
X80971381Y-172680190D02*
X79971381Y-172680190D01*
X80114238Y-172584952D01*
X80209476Y-172489714D01*
X80257095Y-172394476D01*
X84894657Y-145435581D02*
X85227991Y-144959390D01*
X85466086Y-145435581D02*
X85466086Y-144435581D01*
X85085133Y-144435581D01*
X84989895Y-144483200D01*
X84942276Y-144530819D01*
X84894657Y-144626057D01*
X84894657Y-144768914D01*
X84942276Y-144864152D01*
X84989895Y-144911771D01*
X85085133Y-144959390D01*
X85466086Y-144959390D01*
X83942276Y-145435581D02*
X84513705Y-145435581D01*
X84227991Y-145435581D02*
X84227991Y-144435581D01*
X84323229Y-144578438D01*
X84418467Y-144673676D01*
X84513705Y-144721295D01*
X83561324Y-144530819D02*
X83513705Y-144483200D01*
X83418467Y-144435581D01*
X83180371Y-144435581D01*
X83085133Y-144483200D01*
X83037514Y-144530819D01*
X82989895Y-144626057D01*
X82989895Y-144721295D01*
X83037514Y-144864152D01*
X83608943Y-145435581D01*
X82989895Y-145435581D01*
X68460857Y-124074181D02*
X68794191Y-123597990D01*
X69032286Y-124074181D02*
X69032286Y-123074181D01*
X68651333Y-123074181D01*
X68556095Y-123121800D01*
X68508476Y-123169419D01*
X68460857Y-123264657D01*
X68460857Y-123407514D01*
X68508476Y-123502752D01*
X68556095Y-123550371D01*
X68651333Y-123597990D01*
X69032286Y-123597990D01*
X67508476Y-124074181D02*
X68079905Y-124074181D01*
X67794191Y-124074181D02*
X67794191Y-123074181D01*
X67889429Y-123217038D01*
X67984667Y-123312276D01*
X68079905Y-123359895D01*
X67175143Y-123074181D02*
X66556095Y-123074181D01*
X66889429Y-123455133D01*
X66746571Y-123455133D01*
X66651333Y-123502752D01*
X66603714Y-123550371D01*
X66556095Y-123645610D01*
X66556095Y-123883705D01*
X66603714Y-123978943D01*
X66651333Y-124026562D01*
X66746571Y-124074181D01*
X67032286Y-124074181D01*
X67127524Y-124026562D01*
X67175143Y-123978943D01*
X66124057Y-133395981D02*
X66457391Y-132919790D01*
X66695486Y-133395981D02*
X66695486Y-132395981D01*
X66314533Y-132395981D01*
X66219295Y-132443600D01*
X66171676Y-132491219D01*
X66124057Y-132586457D01*
X66124057Y-132729314D01*
X66171676Y-132824552D01*
X66219295Y-132872171D01*
X66314533Y-132919790D01*
X66695486Y-132919790D01*
X65171676Y-133395981D02*
X65743105Y-133395981D01*
X65457391Y-133395981D02*
X65457391Y-132395981D01*
X65552629Y-132538838D01*
X65647867Y-132634076D01*
X65743105Y-132681695D01*
X64314533Y-132729314D02*
X64314533Y-133395981D01*
X64552629Y-132348362D02*
X64790724Y-133062648D01*
X64171676Y-133062648D01*
X80957657Y-116657381D02*
X81290991Y-116181190D01*
X81529086Y-116657381D02*
X81529086Y-115657381D01*
X81148133Y-115657381D01*
X81052895Y-115705000D01*
X81005276Y-115752619D01*
X80957657Y-115847857D01*
X80957657Y-115990714D01*
X81005276Y-116085952D01*
X81052895Y-116133571D01*
X81148133Y-116181190D01*
X81529086Y-116181190D01*
X80005276Y-116657381D02*
X80576705Y-116657381D01*
X80290991Y-116657381D02*
X80290991Y-115657381D01*
X80386229Y-115800238D01*
X80481467Y-115895476D01*
X80576705Y-115943095D01*
X79100514Y-115657381D02*
X79576705Y-115657381D01*
X79624324Y-116133571D01*
X79576705Y-116085952D01*
X79481467Y-116038333D01*
X79243371Y-116038333D01*
X79148133Y-116085952D01*
X79100514Y-116133571D01*
X79052895Y-116228810D01*
X79052895Y-116466905D01*
X79100514Y-116562143D01*
X79148133Y-116609762D01*
X79243371Y-116657381D01*
X79481467Y-116657381D01*
X79576705Y-116609762D01*
X79624324Y-116562143D01*
X69680057Y-120492781D02*
X70013391Y-120016590D01*
X70251486Y-120492781D02*
X70251486Y-119492781D01*
X69870533Y-119492781D01*
X69775295Y-119540400D01*
X69727676Y-119588019D01*
X69680057Y-119683257D01*
X69680057Y-119826114D01*
X69727676Y-119921352D01*
X69775295Y-119968971D01*
X69870533Y-120016590D01*
X70251486Y-120016590D01*
X68727676Y-120492781D02*
X69299105Y-120492781D01*
X69013391Y-120492781D02*
X69013391Y-119492781D01*
X69108629Y-119635638D01*
X69203867Y-119730876D01*
X69299105Y-119778495D01*
X67870533Y-119492781D02*
X68061010Y-119492781D01*
X68156248Y-119540400D01*
X68203867Y-119588019D01*
X68299105Y-119730876D01*
X68346724Y-119921352D01*
X68346724Y-120302305D01*
X68299105Y-120397543D01*
X68251486Y-120445162D01*
X68156248Y-120492781D01*
X67965771Y-120492781D01*
X67870533Y-120445162D01*
X67822914Y-120397543D01*
X67775295Y-120302305D01*
X67775295Y-120064210D01*
X67822914Y-119968971D01*
X67870533Y-119921352D01*
X67965771Y-119873733D01*
X68156248Y-119873733D01*
X68251486Y-119921352D01*
X68299105Y-119968971D01*
X68346724Y-120064210D01*
X78214457Y-126385581D02*
X78547791Y-125909390D01*
X78785886Y-126385581D02*
X78785886Y-125385581D01*
X78404933Y-125385581D01*
X78309695Y-125433200D01*
X78262076Y-125480819D01*
X78214457Y-125576057D01*
X78214457Y-125718914D01*
X78262076Y-125814152D01*
X78309695Y-125861771D01*
X78404933Y-125909390D01*
X78785886Y-125909390D01*
X77262076Y-126385581D02*
X77833505Y-126385581D01*
X77547791Y-126385581D02*
X77547791Y-125385581D01*
X77643029Y-125528438D01*
X77738267Y-125623676D01*
X77833505Y-125671295D01*
X76928743Y-125385581D02*
X76262076Y-125385581D01*
X76690648Y-126385581D01*
X76842857Y-134690381D02*
X77176191Y-134214190D01*
X77414286Y-134690381D02*
X77414286Y-133690381D01*
X77033333Y-133690381D01*
X76938095Y-133738000D01*
X76890476Y-133785619D01*
X76842857Y-133880857D01*
X76842857Y-134023714D01*
X76890476Y-134118952D01*
X76938095Y-134166571D01*
X77033333Y-134214190D01*
X77414286Y-134214190D01*
X75890476Y-134690381D02*
X76461905Y-134690381D01*
X76176191Y-134690381D02*
X76176191Y-133690381D01*
X76271429Y-133833238D01*
X76366667Y-133928476D01*
X76461905Y-133976095D01*
X75319048Y-134118952D02*
X75414286Y-134071333D01*
X75461905Y-134023714D01*
X75509524Y-133928476D01*
X75509524Y-133880857D01*
X75461905Y-133785619D01*
X75414286Y-133738000D01*
X75319048Y-133690381D01*
X75128571Y-133690381D01*
X75033333Y-133738000D01*
X74985714Y-133785619D01*
X74938095Y-133880857D01*
X74938095Y-133928476D01*
X74985714Y-134023714D01*
X75033333Y-134071333D01*
X75128571Y-134118952D01*
X75319048Y-134118952D01*
X75414286Y-134166571D01*
X75461905Y-134214190D01*
X75509524Y-134309429D01*
X75509524Y-134499905D01*
X75461905Y-134595143D01*
X75414286Y-134642762D01*
X75319048Y-134690381D01*
X75128571Y-134690381D01*
X75033333Y-134642762D01*
X74985714Y-134595143D01*
X74938095Y-134499905D01*
X74938095Y-134309429D01*
X74985714Y-134214190D01*
X75033333Y-134166571D01*
X75128571Y-134118952D01*
X58681857Y-165045381D02*
X59015191Y-164569190D01*
X59253286Y-165045381D02*
X59253286Y-164045381D01*
X58872333Y-164045381D01*
X58777095Y-164093000D01*
X58729476Y-164140619D01*
X58681857Y-164235857D01*
X58681857Y-164378714D01*
X58729476Y-164473952D01*
X58777095Y-164521571D01*
X58872333Y-164569190D01*
X59253286Y-164569190D01*
X57729476Y-165045381D02*
X58300905Y-165045381D01*
X58015191Y-165045381D02*
X58015191Y-164045381D01*
X58110429Y-164188238D01*
X58205667Y-164283476D01*
X58300905Y-164331095D01*
X57253286Y-165045381D02*
X57062810Y-165045381D01*
X56967571Y-164997762D01*
X56919952Y-164950143D01*
X56824714Y-164807286D01*
X56777095Y-164616810D01*
X56777095Y-164235857D01*
X56824714Y-164140619D01*
X56872333Y-164093000D01*
X56967571Y-164045381D01*
X57158048Y-164045381D01*
X57253286Y-164093000D01*
X57300905Y-164140619D01*
X57348524Y-164235857D01*
X57348524Y-164473952D01*
X57300905Y-164569190D01*
X57253286Y-164616810D01*
X57158048Y-164664429D01*
X56967571Y-164664429D01*
X56872333Y-164616810D01*
X56824714Y-164569190D01*
X56777095Y-164473952D01*
X61767981Y-185843943D02*
X61291790Y-185510609D01*
X61767981Y-185272514D02*
X60767981Y-185272514D01*
X60767981Y-185653467D01*
X60815600Y-185748705D01*
X60863219Y-185796324D01*
X60958457Y-185843943D01*
X61101314Y-185843943D01*
X61196552Y-185796324D01*
X61244171Y-185748705D01*
X61291790Y-185653467D01*
X61291790Y-185272514D01*
X60863219Y-186224895D02*
X60815600Y-186272514D01*
X60767981Y-186367752D01*
X60767981Y-186605848D01*
X60815600Y-186701086D01*
X60863219Y-186748705D01*
X60958457Y-186796324D01*
X61053695Y-186796324D01*
X61196552Y-186748705D01*
X61767981Y-186177276D01*
X61767981Y-186796324D01*
X60767981Y-187415371D02*
X60767981Y-187510610D01*
X60815600Y-187605848D01*
X60863219Y-187653467D01*
X60958457Y-187701086D01*
X61148933Y-187748705D01*
X61387029Y-187748705D01*
X61577505Y-187701086D01*
X61672743Y-187653467D01*
X61720362Y-187605848D01*
X61767981Y-187510610D01*
X61767981Y-187415371D01*
X61720362Y-187320133D01*
X61672743Y-187272514D01*
X61577505Y-187224895D01*
X61387029Y-187177276D01*
X61148933Y-187177276D01*
X60958457Y-187224895D01*
X60863219Y-187272514D01*
X60815600Y-187320133D01*
X60767981Y-187415371D01*
X61704457Y-155443181D02*
X62037791Y-154966990D01*
X62275886Y-155443181D02*
X62275886Y-154443181D01*
X61894933Y-154443181D01*
X61799695Y-154490800D01*
X61752076Y-154538419D01*
X61704457Y-154633657D01*
X61704457Y-154776514D01*
X61752076Y-154871752D01*
X61799695Y-154919371D01*
X61894933Y-154966990D01*
X62275886Y-154966990D01*
X61323505Y-154538419D02*
X61275886Y-154490800D01*
X61180648Y-154443181D01*
X60942552Y-154443181D01*
X60847314Y-154490800D01*
X60799695Y-154538419D01*
X60752076Y-154633657D01*
X60752076Y-154728895D01*
X60799695Y-154871752D01*
X61371124Y-155443181D01*
X60752076Y-155443181D01*
X59799695Y-155443181D02*
X60371124Y-155443181D01*
X60085410Y-155443181D02*
X60085410Y-154443181D01*
X60180648Y-154586038D01*
X60275886Y-154681276D01*
X60371124Y-154728895D01*
X58008781Y-185843943D02*
X57532590Y-185510609D01*
X58008781Y-185272514D02*
X57008781Y-185272514D01*
X57008781Y-185653467D01*
X57056400Y-185748705D01*
X57104019Y-185796324D01*
X57199257Y-185843943D01*
X57342114Y-185843943D01*
X57437352Y-185796324D01*
X57484971Y-185748705D01*
X57532590Y-185653467D01*
X57532590Y-185272514D01*
X57104019Y-186224895D02*
X57056400Y-186272514D01*
X57008781Y-186367752D01*
X57008781Y-186605848D01*
X57056400Y-186701086D01*
X57104019Y-186748705D01*
X57199257Y-186796324D01*
X57294495Y-186796324D01*
X57437352Y-186748705D01*
X58008781Y-186177276D01*
X58008781Y-186796324D01*
X57104019Y-187177276D02*
X57056400Y-187224895D01*
X57008781Y-187320133D01*
X57008781Y-187558229D01*
X57056400Y-187653467D01*
X57104019Y-187701086D01*
X57199257Y-187748705D01*
X57294495Y-187748705D01*
X57437352Y-187701086D01*
X58008781Y-187129657D01*
X58008781Y-187748705D01*
X125788657Y-173350181D02*
X126121991Y-172873990D01*
X126360086Y-173350181D02*
X126360086Y-172350181D01*
X125979133Y-172350181D01*
X125883895Y-172397800D01*
X125836276Y-172445419D01*
X125788657Y-172540657D01*
X125788657Y-172683514D01*
X125836276Y-172778752D01*
X125883895Y-172826371D01*
X125979133Y-172873990D01*
X126360086Y-172873990D01*
X125407705Y-172445419D02*
X125360086Y-172397800D01*
X125264848Y-172350181D01*
X125026752Y-172350181D01*
X124931514Y-172397800D01*
X124883895Y-172445419D01*
X124836276Y-172540657D01*
X124836276Y-172635895D01*
X124883895Y-172778752D01*
X125455324Y-173350181D01*
X124836276Y-173350181D01*
X124502943Y-172350181D02*
X123883895Y-172350181D01*
X124217229Y-172731133D01*
X124074371Y-172731133D01*
X123979133Y-172778752D01*
X123931514Y-172826371D01*
X123883895Y-172921610D01*
X123883895Y-173159705D01*
X123931514Y-173254943D01*
X123979133Y-173302562D01*
X124074371Y-173350181D01*
X124360086Y-173350181D01*
X124455324Y-173302562D01*
X124502943Y-173254943D01*
X137572333Y-174394762D02*
X137429476Y-174442381D01*
X137191380Y-174442381D01*
X137096142Y-174394762D01*
X137048523Y-174347143D01*
X137000904Y-174251905D01*
X137000904Y-174156667D01*
X137048523Y-174061429D01*
X137096142Y-174013810D01*
X137191380Y-173966190D01*
X137381857Y-173918571D01*
X137477095Y-173870952D01*
X137524714Y-173823333D01*
X137572333Y-173728095D01*
X137572333Y-173632857D01*
X137524714Y-173537619D01*
X137477095Y-173490000D01*
X137381857Y-173442381D01*
X137143761Y-173442381D01*
X137000904Y-173490000D01*
X136572333Y-173442381D02*
X136572333Y-174251905D01*
X136524714Y-174347143D01*
X136477095Y-174394762D01*
X136381857Y-174442381D01*
X136191380Y-174442381D01*
X136096142Y-174394762D01*
X136048523Y-174347143D01*
X136000904Y-174251905D01*
X136000904Y-173442381D01*
X135572333Y-174394762D02*
X135429476Y-174442381D01*
X135191380Y-174442381D01*
X135096142Y-174394762D01*
X135048523Y-174347143D01*
X135000904Y-174251905D01*
X135000904Y-174156667D01*
X135048523Y-174061429D01*
X135096142Y-174013810D01*
X135191380Y-173966190D01*
X135381857Y-173918571D01*
X135477095Y-173870952D01*
X135524714Y-173823333D01*
X135572333Y-173728095D01*
X135572333Y-173632857D01*
X135524714Y-173537619D01*
X135477095Y-173490000D01*
X135381857Y-173442381D01*
X135143761Y-173442381D01*
X135000904Y-173490000D01*
X134715190Y-173442381D02*
X134143761Y-173442381D01*
X134429476Y-174442381D02*
X134429476Y-173442381D01*
X133858047Y-174156667D02*
X133381856Y-174156667D01*
X133953285Y-174442381D02*
X133619952Y-173442381D01*
X133286618Y-174442381D01*
X132953285Y-174442381D02*
X132953285Y-173442381D01*
X132477095Y-174442381D02*
X132477095Y-173442381D01*
X131905666Y-174442381D01*
X131905666Y-173442381D01*
X130905666Y-174442381D02*
X131477095Y-174442381D01*
X131191381Y-174442381D02*
X131191381Y-173442381D01*
X131286619Y-173585238D01*
X131381857Y-173680476D01*
X131477095Y-173728095D01*
X125705905Y-184618381D02*
X125134476Y-184618381D01*
X125420191Y-185618381D02*
X125420191Y-184618381D01*
X124610667Y-184618381D02*
X124420190Y-184618381D01*
X124324952Y-184666000D01*
X124229714Y-184761238D01*
X124182095Y-184951714D01*
X124182095Y-185285048D01*
X124229714Y-185475524D01*
X124324952Y-185570762D01*
X124420190Y-185618381D01*
X124610667Y-185618381D01*
X124705905Y-185570762D01*
X124801143Y-185475524D01*
X124848762Y-185285048D01*
X124848762Y-184951714D01*
X124801143Y-184761238D01*
X124705905Y-184666000D01*
X124610667Y-184618381D01*
X123753524Y-185618381D02*
X123753524Y-184618381D01*
X123182095Y-185618381D01*
X123182095Y-184618381D01*
X122705905Y-185094571D02*
X122372571Y-185094571D01*
X122229714Y-185618381D02*
X122705905Y-185618381D01*
X122705905Y-184618381D01*
X122229714Y-184618381D01*
X121277333Y-185618381D02*
X121848762Y-185618381D01*
X121563048Y-185618381D02*
X121563048Y-184618381D01*
X121658286Y-184761238D01*
X121753524Y-184856476D01*
X121848762Y-184904095D01*
X115934714Y-173442381D02*
X115601381Y-174442381D01*
X115268047Y-173442381D01*
X114744238Y-173442381D02*
X114553761Y-173442381D01*
X114458523Y-173490000D01*
X114363285Y-173585238D01*
X114315666Y-173775714D01*
X114315666Y-174109048D01*
X114363285Y-174299524D01*
X114458523Y-174394762D01*
X114553761Y-174442381D01*
X114744238Y-174442381D01*
X114839476Y-174394762D01*
X114934714Y-174299524D01*
X114982333Y-174109048D01*
X114982333Y-173775714D01*
X114934714Y-173585238D01*
X114839476Y-173490000D01*
X114744238Y-173442381D01*
X113410904Y-174442381D02*
X113887095Y-174442381D01*
X113887095Y-173442381D01*
X113077571Y-173442381D02*
X113077571Y-174251905D01*
X113029952Y-174347143D01*
X112982333Y-174394762D01*
X112887095Y-174442381D01*
X112696618Y-174442381D01*
X112601380Y-174394762D01*
X112553761Y-174347143D01*
X112506142Y-174251905D01*
X112506142Y-173442381D01*
X112029952Y-174442381D02*
X112029952Y-173442381D01*
X111696618Y-174156667D01*
X111363285Y-173442381D01*
X111363285Y-174442381D01*
X110887095Y-173918571D02*
X110553761Y-173918571D01*
X110410904Y-174442381D02*
X110887095Y-174442381D01*
X110887095Y-173442381D01*
X110410904Y-173442381D01*
X109458523Y-174442381D02*
X110029952Y-174442381D01*
X109744238Y-174442381D02*
X109744238Y-173442381D01*
X109839476Y-173585238D01*
X109934714Y-173680476D01*
X110029952Y-173728095D01*
X77090495Y-120289581D02*
X77090495Y-119289581D01*
X76852400Y-119289581D01*
X76709542Y-119337200D01*
X76614304Y-119432438D01*
X76566685Y-119527676D01*
X76519066Y-119718152D01*
X76519066Y-119861010D01*
X76566685Y-120051486D01*
X76614304Y-120146724D01*
X76709542Y-120241962D01*
X76852400Y-120289581D01*
X77090495Y-120289581D01*
X75614304Y-119289581D02*
X76090495Y-119289581D01*
X76138114Y-119765771D01*
X76090495Y-119718152D01*
X75995257Y-119670533D01*
X75757161Y-119670533D01*
X75661923Y-119718152D01*
X75614304Y-119765771D01*
X75566685Y-119861010D01*
X75566685Y-120099105D01*
X75614304Y-120194343D01*
X75661923Y-120241962D01*
X75757161Y-120289581D01*
X75995257Y-120289581D01*
X76090495Y-120241962D01*
X76138114Y-120194343D01*
X127602381Y-175728405D02*
X126602381Y-175728405D01*
X126602381Y-175966500D01*
X126650000Y-176109358D01*
X126745238Y-176204596D01*
X126840476Y-176252215D01*
X127030952Y-176299834D01*
X127173810Y-176299834D01*
X127364286Y-176252215D01*
X127459524Y-176204596D01*
X127554762Y-176109358D01*
X127602381Y-175966500D01*
X127602381Y-175728405D01*
X126602381Y-177156977D02*
X126602381Y-176966500D01*
X126650000Y-176871262D01*
X126697619Y-176823643D01*
X126840476Y-176728405D01*
X127030952Y-176680786D01*
X127411905Y-176680786D01*
X127507143Y-176728405D01*
X127554762Y-176776024D01*
X127602381Y-176871262D01*
X127602381Y-177061739D01*
X127554762Y-177156977D01*
X127507143Y-177204596D01*
X127411905Y-177252215D01*
X127173810Y-177252215D01*
X127078571Y-177204596D01*
X127030952Y-177156977D01*
X126983333Y-177061739D01*
X126983333Y-176871262D01*
X127030952Y-176776024D01*
X127078571Y-176728405D01*
X127173810Y-176680786D01*
%LPC*%
D13*
X57719000Y-182356000D03*
X55819000Y-182356000D03*
X56769000Y-180356000D03*
D14*
X74422000Y-114046000D03*
X74422000Y-108046000D03*
X69722000Y-111046000D03*
D15*
X77447000Y-155447000D03*
X77447000Y-139447000D03*
X90447000Y-139447000D03*
X90424000Y-155447000D03*
X72540000Y-159513000D03*
X72540000Y-175513000D03*
X59540000Y-175513000D03*
X59563000Y-159513000D03*
D16*
X90694000Y-174432000D03*
X90694000Y-172532000D03*
X92694000Y-173482000D03*
D13*
X87310000Y-169656000D03*
X85410000Y-169656000D03*
X86360000Y-167656000D03*
D16*
X72787000Y-123759000D03*
X72787000Y-121859000D03*
X74787000Y-122809000D03*
D17*
X69557000Y-182344000D03*
X75057000Y-182344000D03*
X80557000Y-182344000D03*
X69557000Y-186944000D03*
X75057000Y-186944000D03*
X80557000Y-186944000D03*
X69557000Y-191544000D03*
X75057000Y-191544000D03*
X80557000Y-191544000D03*
D18*
X89773000Y-184150000D03*
X87773000Y-184150000D03*
X94853000Y-181102000D03*
X92853000Y-181102000D03*
D19*
X94488000Y-168672000D03*
X94488000Y-170672000D03*
X92456000Y-160036000D03*
X92456000Y-162036000D03*
D18*
X85233000Y-160655000D03*
X87233000Y-160655000D03*
X83582000Y-157988000D03*
X85582000Y-157988000D03*
D19*
X86868000Y-150034500D03*
X86868000Y-148034500D03*
X64008000Y-124603000D03*
X64008000Y-126603000D03*
D18*
X69580000Y-129921000D03*
X67580000Y-129921000D03*
X78470000Y-129794000D03*
X76470000Y-129794000D03*
D19*
X80518000Y-124698000D03*
X80518000Y-122698000D03*
D18*
X56912000Y-168783000D03*
X58912000Y-168783000D03*
X55261000Y-152527000D03*
X57261000Y-152527000D03*
D20*
X80010000Y-108088200D03*
X80010000Y-109488200D03*
X83058000Y-163638000D03*
X83058000Y-165038000D03*
X80899000Y-165038000D03*
X80899000Y-163638000D03*
D21*
X73341000Y-119634000D03*
X74741000Y-119634000D03*
D22*
X85217000Y-183957000D03*
X85217000Y-182057000D03*
X89789000Y-179136000D03*
X89789000Y-181036000D03*
D23*
X94803000Y-177927000D03*
X92903000Y-177927000D03*
X93406000Y-186690000D03*
X91506000Y-186690000D03*
X85156000Y-172593000D03*
X87056000Y-172593000D03*
D22*
X88773000Y-143322000D03*
X88773000Y-145222000D03*
X92456000Y-164785000D03*
X92456000Y-166685000D03*
D23*
X93152000Y-148971000D03*
X91252000Y-148971000D03*
X88077000Y-163576000D03*
X89977000Y-163576000D03*
X82489000Y-152908000D03*
X84389000Y-152908000D03*
D22*
X82169000Y-170754000D03*
X82169000Y-172654000D03*
X84264500Y-148079500D03*
X84264500Y-146179500D03*
X67691000Y-126807000D03*
X67691000Y-124907000D03*
D23*
X69530000Y-132842000D03*
X67630000Y-132842000D03*
D22*
X80264000Y-117541000D03*
X80264000Y-119441000D03*
D23*
X69911000Y-121666000D03*
X68011000Y-121666000D03*
D22*
X77851000Y-124648000D03*
X77851000Y-122748000D03*
D23*
X75250000Y-132588000D03*
X77150000Y-132588000D03*
X58989000Y-166243000D03*
X57089000Y-166243000D03*
D22*
X59690000Y-185613000D03*
X59690000Y-187513000D03*
D23*
X58989000Y-154940000D03*
X57089000Y-154940000D03*
D22*
X55880000Y-185486000D03*
X55880000Y-187386000D03*
D23*
X121663500Y-172847000D03*
X119763500Y-172847000D03*
D24*
X131652000Y-183324500D03*
X134152000Y-183324500D03*
X136652000Y-183324500D03*
D25*
X129752000Y-176324500D03*
X138552000Y-176324500D03*
D24*
X120857000Y-192087500D03*
X123357000Y-192087500D03*
X125857000Y-192087500D03*
D25*
X118957000Y-185087500D03*
X127757000Y-185087500D03*
D24*
X110062000Y-183578500D03*
X112562000Y-183578500D03*
X115062000Y-183578500D03*
D25*
X108162000Y-176578500D03*
X116962000Y-176578500D03*
D21*
X74741000Y-117602000D03*
X73341000Y-117602000D03*
D26*
X123190000Y-175196500D03*
D24*
X123190000Y-177736500D03*
D27*
X142494000Y-189484000D03*
D28*
X142494000Y-186944000D03*
X142494000Y-184404000D03*
X142494000Y-181864000D03*
X142494000Y-179324000D03*
X142494000Y-176784000D03*
D27*
X104267000Y-189484000D03*
D28*
X104267000Y-186944000D03*
X104267000Y-184404000D03*
X104267000Y-181864000D03*
X104267000Y-179324000D03*
X104267000Y-176784000D03*
D27*
X94107000Y-133096000D03*
D28*
X94107000Y-130556000D03*
X94107000Y-128016000D03*
X94107000Y-125476000D03*
X94107000Y-122936000D03*
X94107000Y-120396000D03*
D27*
X56007000Y-133096000D03*
D28*
X56007000Y-130556000D03*
X56007000Y-128016000D03*
X56007000Y-125476000D03*
X56007000Y-122936000D03*
X56007000Y-120396000D03*
M02*
