G04 #@! TF.FileFunction,Copper,L1,Top,Signal*
%FSLAX46Y46*%
G04 Gerber Fmt 4.6, Leading zero omitted, Abs format (unit mm)*
G04 Created by KiCad (PCBNEW 4.0.6) date 12/30/17 00:01:55*
%MOMM*%
%LPD*%
G01*
G04 APERTURE LIST*
%ADD10C,0.100000*%
%ADD11C,0.150000*%
%ADD12C,3.000000*%
%ADD13R,1.700000X1.700000*%
%ADD14O,1.700000X1.700000*%
%ADD15C,0.600000*%
%ADD16C,0.500000*%
G04 APERTURE END LIST*
D10*
D11*
X96012000Y-188849000D02*
X96012000Y-110871000D01*
X61087000Y-195834000D02*
X89027000Y-195834000D01*
X61087000Y-188849000D02*
X54102000Y-188849000D01*
X54102000Y-110871000D02*
X54102000Y-188849000D01*
X89027000Y-103886000D02*
X61087000Y-103886000D01*
X96139000Y-197802500D02*
X54102000Y-197802500D01*
X96139000Y-197802500D02*
X96012000Y-197802500D01*
X96139000Y-219900500D02*
X96139000Y-197802500D01*
X54102000Y-219900500D02*
X54102000Y-197929500D01*
X54102000Y-197802500D02*
X54102000Y-197929500D01*
X54178200Y-219875100D02*
X96189800Y-219875100D01*
X61087000Y-110871000D02*
X54102000Y-110871000D01*
X61087000Y-103886000D02*
X61087000Y-110871000D01*
X89027000Y-110871000D02*
X96012000Y-110871000D01*
X89027000Y-103886000D02*
X89027000Y-110871000D01*
X89027000Y-188849000D02*
X89027000Y-195834000D01*
X96012000Y-188849000D02*
X89027000Y-188849000D01*
X61087000Y-188849000D02*
X61087000Y-195834000D01*
D12*
X81492000Y-202232500D03*
X90292000Y-202232500D03*
X70697000Y-210995500D03*
X79497000Y-210995500D03*
X59902000Y-202486500D03*
X68702000Y-202486500D03*
D13*
X94234000Y-215392000D03*
D14*
X94234000Y-212852000D03*
X94234000Y-210312000D03*
X94234000Y-207772000D03*
X94234000Y-205232000D03*
X94234000Y-202692000D03*
D13*
X56007000Y-215392000D03*
D14*
X56007000Y-212852000D03*
X56007000Y-210312000D03*
X56007000Y-207772000D03*
X56007000Y-205232000D03*
X56007000Y-202692000D03*
D13*
X94107000Y-133096000D03*
D14*
X94107000Y-130556000D03*
X94107000Y-128016000D03*
X94107000Y-125476000D03*
X94107000Y-122936000D03*
X94107000Y-120396000D03*
D13*
X56007000Y-133096000D03*
D14*
X56007000Y-130556000D03*
X56007000Y-128016000D03*
X56007000Y-125476000D03*
X56007000Y-122936000D03*
X56007000Y-120396000D03*
D15*
X62738000Y-172669200D03*
X79070200Y-172643800D03*
X88900000Y-117856000D03*
X82042000Y-121031000D03*
X70993000Y-125222000D03*
X72009000Y-131699000D03*
X59055000Y-133096000D03*
X59029600Y-120446800D03*
X59055000Y-127990600D03*
X88900000Y-122047000D03*
X60579000Y-152654000D03*
X79603600Y-152019000D03*
X90957400Y-130556000D03*
X81661000Y-130556000D03*
X61087000Y-168783000D03*
X67437000Y-168783000D03*
X90881200Y-128016000D03*
X81026000Y-127990600D03*
X80619600Y-133096000D03*
X90957400Y-133096000D03*
X65659000Y-183769000D03*
X65659000Y-177546000D03*
X64008000Y-118440200D03*
X64008000Y-120929400D03*
X69723000Y-146177000D03*
X81534000Y-146177000D03*
D16*
X79044800Y-172669200D02*
X62738000Y-172669200D01*
X79070200Y-172643800D02*
X79044800Y-172669200D01*
X82042000Y-121031000D02*
X85217000Y-117856000D01*
X85217000Y-117856000D02*
X88900000Y-117856000D01*
X70993000Y-130683000D02*
X70993000Y-125222000D01*
X72009000Y-131699000D02*
X70993000Y-130683000D01*
X59055000Y-133096000D02*
X59055000Y-127990600D01*
X59055000Y-127990600D02*
X59029600Y-120446800D01*
X88900000Y-122047000D02*
X88900000Y-117856000D01*
X61214000Y-152019000D02*
X79603600Y-152019000D01*
X60579000Y-152654000D02*
X61214000Y-152019000D01*
X90957400Y-130556000D02*
X81661000Y-130556000D01*
X67437000Y-168783000D02*
X61087000Y-168783000D01*
X81026000Y-127990600D02*
X90881200Y-128016000D01*
X90957400Y-133096000D02*
X80619600Y-133096000D01*
X65659000Y-183769000D02*
X65659000Y-177546000D01*
X64008000Y-120929400D02*
X64008000Y-118440200D01*
X81534000Y-146177000D02*
X69723000Y-146177000D01*
M02*
