G04 #@! TF.FileFunction,Copper,L1,Top,Signal*
%FSLAX46Y46*%
G04 Gerber Fmt 4.6, Leading zero omitted, Abs format (unit mm)*
G04 Created by KiCad (PCBNEW 4.0.7) date 01/20/18 14:01:03*
%MOMM*%
%LPD*%
G01*
G04 APERTURE LIST*
%ADD10C,0.100000*%
%ADD11C,0.150000*%
%ADD12R,3.500000X3.500000*%
%ADD13O,5.000000X4.000000*%
%ADD14O,4.000000X3.500000*%
%ADD15C,1.800000*%
%ADD16C,3.000000*%
%ADD17R,1.800000X1.800000*%
%ADD18R,1.700000X1.700000*%
%ADD19O,1.700000X1.700000*%
%ADD20C,0.600000*%
%ADD21C,0.500000*%
G04 APERTURE END LIST*
D10*
D11*
X96012000Y-188849000D02*
X96012000Y-110871000D01*
X61087000Y-195834000D02*
X89027000Y-195834000D01*
X61087000Y-188849000D02*
X54102000Y-188849000D01*
X54102000Y-110871000D02*
X54102000Y-188849000D01*
X89027000Y-103886000D02*
X61087000Y-103886000D01*
X96139000Y-197802500D02*
X54102000Y-197802500D01*
X96139000Y-197802500D02*
X96012000Y-197802500D01*
X96139000Y-219900500D02*
X96139000Y-197802500D01*
X54102000Y-219900500D02*
X54102000Y-197929500D01*
X54102000Y-197802500D02*
X54102000Y-197929500D01*
X54178200Y-219875100D02*
X96189800Y-219875100D01*
X61087000Y-110871000D02*
X54102000Y-110871000D01*
X61087000Y-103886000D02*
X61087000Y-110871000D01*
X89027000Y-110871000D02*
X96012000Y-110871000D01*
X89027000Y-103886000D02*
X89027000Y-110871000D01*
X89027000Y-188849000D02*
X89027000Y-195834000D01*
X96012000Y-188849000D02*
X89027000Y-188849000D01*
X61087000Y-188849000D02*
X61087000Y-195834000D01*
D12*
X74422000Y-114046000D03*
X74422000Y-108046000D03*
X69722000Y-111046000D03*
D13*
X79110700Y-155447000D03*
X79110700Y-139447000D03*
X92110700Y-139447000D03*
X92087700Y-155447000D03*
X71092200Y-159538400D03*
X71092200Y-175538400D03*
X58092200Y-175538400D03*
X58115200Y-159538400D03*
D14*
X69557000Y-182344000D03*
X75057000Y-182344000D03*
X80557000Y-182344000D03*
X69557000Y-186944000D03*
X75057000Y-186944000D03*
X80557000Y-186944000D03*
X69557000Y-191544000D03*
X75057000Y-191544000D03*
X80557000Y-191544000D03*
D15*
X83392000Y-209232500D03*
X85892000Y-209232500D03*
X88392000Y-209232500D03*
D16*
X81492000Y-202232500D03*
X90292000Y-202232500D03*
D15*
X72597000Y-217995500D03*
X75097000Y-217995500D03*
X77597000Y-217995500D03*
D16*
X70697000Y-210995500D03*
X79497000Y-210995500D03*
D15*
X61802000Y-209486500D03*
X64302000Y-209486500D03*
X66802000Y-209486500D03*
D16*
X59902000Y-202486500D03*
X68702000Y-202486500D03*
D17*
X74930000Y-201104500D03*
D15*
X74930000Y-203644500D03*
D18*
X94234000Y-215392000D03*
D19*
X94234000Y-212852000D03*
X94234000Y-210312000D03*
X94234000Y-207772000D03*
X94234000Y-205232000D03*
X94234000Y-202692000D03*
D18*
X56007000Y-215392000D03*
D19*
X56007000Y-212852000D03*
X56007000Y-210312000D03*
X56007000Y-207772000D03*
X56007000Y-205232000D03*
X56007000Y-202692000D03*
D18*
X94107000Y-133096000D03*
D19*
X94107000Y-130556000D03*
X94107000Y-128016000D03*
X94107000Y-125476000D03*
X94107000Y-122936000D03*
X94107000Y-120396000D03*
D18*
X56007000Y-133096000D03*
D19*
X56007000Y-130556000D03*
X56007000Y-128016000D03*
X56007000Y-125476000D03*
X56007000Y-122936000D03*
X56007000Y-120396000D03*
D20*
X62738000Y-172669200D03*
X79070200Y-172643800D03*
X88900000Y-117856000D03*
X81534000Y-119824500D03*
X70739000Y-124904500D03*
X72898000Y-131572000D03*
X59055000Y-133096000D03*
X59029600Y-120446800D03*
X59055000Y-127990600D03*
X88900000Y-122047000D03*
X61341000Y-180098700D03*
X61366400Y-173570900D03*
X60579000Y-152654000D03*
X79603600Y-152019000D03*
X90957400Y-130556000D03*
X81661000Y-130556000D03*
X61087000Y-168783000D03*
X65709800Y-168783000D03*
X90881200Y-128016000D03*
X81534000Y-128016000D03*
X90893900Y-133096000D03*
X80556100Y-133096000D03*
X70358000Y-149352000D03*
X73202800Y-149352000D03*
X64008000Y-120929400D03*
X64008000Y-118440200D03*
X69723000Y-146177000D03*
X80835500Y-146177000D03*
D21*
X72898000Y-131572000D02*
X72898000Y-127063500D01*
X72898000Y-127063500D02*
X70739000Y-124904500D01*
X79044800Y-172669200D02*
X62738000Y-172669200D01*
X79070200Y-172643800D02*
X79044800Y-172669200D01*
X81534000Y-119824500D02*
X85217000Y-117856000D01*
X85217000Y-117856000D02*
X88900000Y-117856000D01*
X59055000Y-133096000D02*
X59055000Y-127990600D01*
X59055000Y-127990600D02*
X59029600Y-120446800D01*
X88900000Y-122047000D02*
X88900000Y-117856000D01*
X61341000Y-173596300D02*
X61341000Y-180098700D01*
X61366400Y-173570900D02*
X61341000Y-173596300D01*
X61214000Y-152019000D02*
X79603600Y-152019000D01*
X60579000Y-152654000D02*
X61214000Y-152019000D01*
X90957400Y-130556000D02*
X81661000Y-130556000D01*
X65709800Y-168783000D02*
X61087000Y-168783000D01*
X81534000Y-128016000D02*
X90881200Y-128016000D01*
X90893900Y-133096000D02*
X80556100Y-133096000D01*
X73202800Y-149352000D02*
X70358000Y-149352000D01*
X64008000Y-120929400D02*
X64008000Y-118440200D01*
X80835500Y-146177000D02*
X69723000Y-146177000D01*
M02*
