M48
;DRILL file {KiCad 4.0.6} date 12/28/17 16:00:06
;FORMAT={-:-/ absolute / inch / decimal}
FMAT,2
INCH,TZ
T1C0.016
T2C0.035
T3C0.039
T4C0.079
T5C0.079
%
G90
G05
M72
T1
X2.324Y-4.742
X2.325Y-5.039
X2.325Y-5.24
X2.385Y-6.01
X2.405Y-6.645
X2.47Y-6.798
X2.52Y-4.663
X2.52Y-4.761
X2.585Y-6.99
X2.585Y-7.235
X2.655Y-6.645
X2.745Y-5.755
X2.795Y-4.93
X2.835Y-5.185
X3.113Y-6.797
X3.134Y-5.985
X3.174Y-5.24
X3.19Y-5.039
X3.21Y-5.755
X3.215Y-5.14
X3.23Y-4.765
X3.5Y-4.64
X3.5Y-4.805
X3.578Y-5.04
X3.581Y-5.14
X3.581Y-5.24
T2
X4.85Y-6.8975
X4.85Y-6.9975
T3
X2.205Y-4.74
X2.205Y-4.84
X2.205Y-4.94
X2.205Y-5.04
X2.205Y-5.14
X2.205Y-5.24
X3.705Y-4.74
X3.705Y-4.84
X3.705Y-4.94
X3.705Y-5.04
X3.705Y-5.14
X3.705Y-5.24
X4.105Y-6.96
X4.105Y-7.06
X4.105Y-7.16
X4.105Y-7.26
X4.105Y-7.36
X4.105Y-7.46
X4.3331Y-7.2275
X4.4316Y-7.2275
X4.53Y-7.2275
X4.7581Y-7.5625
X4.8566Y-7.5625
X4.955Y-7.5625
X5.1831Y-7.2175
X5.2816Y-7.2175
X5.38Y-7.2175
X5.61Y-6.96
X5.61Y-7.06
X5.61Y-7.16
X5.61Y-7.26
X5.61Y-7.36
X5.61Y-7.46
T4
X2.3441Y-6.91
X2.345Y-6.28
X2.7385Y-7.1789
X2.7385Y-7.36
X2.7385Y-7.5411
X2.8559Y-6.28
X2.8559Y-6.91
X2.955Y-7.1789
X2.955Y-7.36
X2.955Y-7.5411
X3.0491Y-5.49
X3.0491Y-6.12
X3.1715Y-7.1789
X3.1715Y-7.36
X3.1715Y-7.5411
X3.56Y-6.12
X3.5609Y-5.49
T5
X4.2583Y-6.9519
X4.6048Y-6.9519
X4.6833Y-7.2869
X5.0298Y-7.2869
X5.1083Y-6.9419
X5.4548Y-6.9419
T3
X2.745Y-4.3325G85X2.745Y-4.4113
G05
X2.9694Y-4.2538G85X2.8906Y-4.2538
G05
X2.9694Y-4.49G85X2.8906Y-4.49
G05
T0
M30
