G04 #@! TF.FileFunction,Legend,Bot*
%FSLAX46Y46*%
G04 Gerber Fmt 4.6, Leading zero omitted, Abs format (unit mm)*
G04 Created by KiCad (PCBNEW 4.0.7) date 01/20/18 14:01:03*
%MOMM*%
%LPD*%
G01*
G04 APERTURE LIST*
%ADD10C,0.100000*%
%ADD11C,0.150000*%
%ADD12C,0.120000*%
%ADD13R,1.200000X1.300000*%
%ADD14R,3.900000X3.900000*%
%ADD15O,5.400000X4.400000*%
%ADD16R,1.300000X1.200000*%
%ADD17O,4.400000X3.900000*%
%ADD18C,2.200000*%
%ADD19C,3.400000*%
%ADD20R,2.200000X2.200000*%
%ADD21R,2.100000X2.100000*%
%ADD22O,2.100000X2.100000*%
%ADD23R,0.850000X1.000000*%
%ADD24R,1.000000X0.850000*%
%ADD25R,1.650000X1.900000*%
%ADD26R,1.900000X1.650000*%
%ADD27R,1.700000X1.900000*%
%ADD28R,1.900000X1.700000*%
G04 APERTURE END LIST*
D10*
D11*
X96012000Y-188849000D02*
X96012000Y-110871000D01*
X61087000Y-195834000D02*
X89027000Y-195834000D01*
X61087000Y-188849000D02*
X54102000Y-188849000D01*
X54102000Y-110871000D02*
X54102000Y-188849000D01*
X89027000Y-103886000D02*
X61087000Y-103886000D01*
X96139000Y-197802500D02*
X54102000Y-197802500D01*
X96139000Y-197802500D02*
X96012000Y-197802500D01*
X96139000Y-219900500D02*
X96139000Y-197802500D01*
X54102000Y-219900500D02*
X54102000Y-197929500D01*
X54102000Y-197802500D02*
X54102000Y-197929500D01*
X54178200Y-219875100D02*
X96189800Y-219875100D01*
X61087000Y-110871000D02*
X54102000Y-110871000D01*
X61087000Y-103886000D02*
X61087000Y-110871000D01*
X89027000Y-110871000D02*
X96012000Y-110871000D01*
X89027000Y-103886000D02*
X89027000Y-110871000D01*
X89027000Y-188849000D02*
X89027000Y-195834000D01*
X96012000Y-188849000D02*
X89027000Y-188849000D01*
X61087000Y-188849000D02*
X61087000Y-195834000D01*
D12*
X55189000Y-180596000D02*
X56119000Y-180596000D01*
X58349000Y-180596000D02*
X57419000Y-180596000D01*
X58349000Y-180596000D02*
X58349000Y-182756000D01*
X55189000Y-180596000D02*
X55189000Y-182056000D01*
X92454000Y-171902000D02*
X92454000Y-172832000D01*
X92454000Y-175062000D02*
X92454000Y-174132000D01*
X92454000Y-175062000D02*
X90294000Y-175062000D01*
X92454000Y-171902000D02*
X90994000Y-171902000D01*
X84780000Y-167896000D02*
X85710000Y-167896000D01*
X87940000Y-167896000D02*
X87010000Y-167896000D01*
X87940000Y-167896000D02*
X87940000Y-170056000D01*
X84780000Y-167896000D02*
X84780000Y-169356000D01*
X74547000Y-121229000D02*
X74547000Y-122159000D01*
X74547000Y-124389000D02*
X74547000Y-123459000D01*
X74547000Y-124389000D02*
X72387000Y-124389000D01*
X74547000Y-121229000D02*
X73087000Y-121229000D01*
X81114000Y-111736000D02*
X79414000Y-111736000D01*
X79414000Y-111736000D02*
X79414000Y-109186000D01*
X81114000Y-111736000D02*
X81114000Y-109186000D01*
X85178000Y-165838000D02*
X83478000Y-165838000D01*
X83478000Y-165838000D02*
X83478000Y-163288000D01*
X85178000Y-165838000D02*
X85178000Y-163288000D01*
X80684000Y-162838000D02*
X82384000Y-162838000D01*
X82384000Y-162838000D02*
X82384000Y-165388000D01*
X80684000Y-162838000D02*
X80684000Y-165388000D01*
X75541000Y-118784000D02*
X75541000Y-120484000D01*
X75541000Y-120484000D02*
X72991000Y-120484000D01*
X75541000Y-118784000D02*
X72991000Y-118784000D01*
X72541000Y-118452000D02*
X72541000Y-116752000D01*
X72541000Y-116752000D02*
X75091000Y-116752000D01*
X72541000Y-118452000D02*
X75091000Y-118452000D01*
X87859500Y-179570000D02*
X87859500Y-178570000D01*
X89559500Y-178570000D02*
X89559500Y-179570000D01*
X92210000Y-180252000D02*
X93210000Y-180252000D01*
X93210000Y-181952000D02*
X92210000Y-181952000D01*
X93638000Y-170172000D02*
X93638000Y-169172000D01*
X95338000Y-169172000D02*
X95338000Y-170172000D01*
X91352000Y-145534000D02*
X91352000Y-144534000D01*
X93052000Y-144534000D02*
X93052000Y-145534000D01*
X91114500Y-161441500D02*
X90114500Y-161441500D01*
X90114500Y-159741500D02*
X91114500Y-159741500D01*
X87368000Y-159409500D02*
X86368000Y-159409500D01*
X86368000Y-157709500D02*
X87368000Y-157709500D01*
X83510500Y-148311500D02*
X84510500Y-148311500D01*
X84510500Y-150011500D02*
X83510500Y-150011500D01*
X63158000Y-126103000D02*
X63158000Y-125103000D01*
X64858000Y-125103000D02*
X64858000Y-126103000D01*
X67953000Y-129007500D02*
X68953000Y-129007500D01*
X68953000Y-130707500D02*
X67953000Y-130707500D01*
X76970000Y-128944000D02*
X77970000Y-128944000D01*
X77970000Y-130644000D02*
X76970000Y-130644000D01*
X82384000Y-122690000D02*
X82384000Y-123690000D01*
X80684000Y-123690000D02*
X80684000Y-122690000D01*
X58983500Y-169633000D02*
X57983500Y-169633000D01*
X57983500Y-167933000D02*
X58983500Y-167933000D01*
X56857000Y-150122000D02*
X56857000Y-151122000D01*
X55157000Y-151122000D02*
X55157000Y-150122000D01*
X86351000Y-181765500D02*
X86351000Y-180565500D01*
X84591000Y-180565500D02*
X84591000Y-181765500D01*
X86706000Y-174316500D02*
X85506000Y-174316500D01*
X85506000Y-176076500D02*
X86706000Y-176076500D01*
X92110000Y-178553000D02*
X93310000Y-178553000D01*
X93310000Y-176793000D02*
X92110000Y-176793000D01*
X90078000Y-187570000D02*
X91278000Y-187570000D01*
X91278000Y-185810000D02*
X90078000Y-185810000D01*
X86706000Y-171713000D02*
X85506000Y-171713000D01*
X85506000Y-173473000D02*
X86706000Y-173473000D01*
X87404500Y-142122000D02*
X86204500Y-142122000D01*
X86204500Y-143882000D02*
X87404500Y-143882000D01*
X93082000Y-150523500D02*
X93082000Y-149323500D01*
X91322000Y-149323500D02*
X91322000Y-150523500D01*
X88718500Y-147037500D02*
X88718500Y-148237500D01*
X90478500Y-148237500D02*
X90478500Y-147037500D01*
X91151000Y-163267500D02*
X89951000Y-163267500D01*
X89951000Y-165027500D02*
X91151000Y-165027500D01*
X84648600Y-151139000D02*
X83448600Y-151139000D01*
X83448600Y-152899000D02*
X84648600Y-152899000D01*
X83049000Y-172304000D02*
X83049000Y-171104000D01*
X81289000Y-171104000D02*
X81289000Y-172304000D01*
X83283500Y-147057000D02*
X84483500Y-147057000D01*
X84483500Y-145297000D02*
X83283500Y-145297000D01*
X66176000Y-125257000D02*
X66176000Y-126457000D01*
X67936000Y-126457000D02*
X67936000Y-125257000D01*
X67980000Y-134674500D02*
X69180000Y-134674500D01*
X69180000Y-132914500D02*
X67980000Y-132914500D01*
X79874000Y-118519500D02*
X79874000Y-117319500D01*
X78114000Y-117319500D02*
X78114000Y-118519500D01*
X67726000Y-122546000D02*
X68926000Y-122546000D01*
X68926000Y-120786000D02*
X67726000Y-120786000D01*
X78114000Y-122590000D02*
X78114000Y-123790000D01*
X79874000Y-123790000D02*
X79874000Y-122590000D01*
X78070000Y-132216000D02*
X76870000Y-132216000D01*
X76870000Y-133976000D02*
X78070000Y-133976000D01*
X58010500Y-167123000D02*
X59210500Y-167123000D01*
X59210500Y-165363000D02*
X58010500Y-165363000D01*
X63465000Y-181428500D02*
X62265000Y-181428500D01*
X62265000Y-183188500D02*
X63465000Y-183188500D01*
X58645500Y-155820000D02*
X59845500Y-155820000D01*
X59845500Y-154060000D02*
X58645500Y-154060000D01*
X59972500Y-184921000D02*
X58772500Y-184921000D01*
X58772500Y-186681000D02*
X59972500Y-186681000D01*
X71853500Y-199635000D02*
X73053500Y-199635000D01*
X73053500Y-197875000D02*
X71853500Y-197875000D01*
D11*
X56927738Y-179490619D02*
X57022976Y-179443000D01*
X57118214Y-179347762D01*
X57261071Y-179204905D01*
X57356310Y-179157286D01*
X57451548Y-179157286D01*
X57403929Y-179395381D02*
X57499167Y-179347762D01*
X57594405Y-179252524D01*
X57642024Y-179062048D01*
X57642024Y-178728714D01*
X57594405Y-178538238D01*
X57499167Y-178443000D01*
X57403929Y-178395381D01*
X57213452Y-178395381D01*
X57118214Y-178443000D01*
X57022976Y-178538238D01*
X56975357Y-178728714D01*
X56975357Y-179062048D01*
X57022976Y-179252524D01*
X57118214Y-179347762D01*
X57213452Y-179395381D01*
X57403929Y-179395381D01*
X56118214Y-178728714D02*
X56118214Y-179395381D01*
X56356310Y-178347762D02*
X56594405Y-179062048D01*
X55975357Y-179062048D01*
X91281238Y-171642019D02*
X91376476Y-171594400D01*
X91471714Y-171499162D01*
X91614571Y-171356305D01*
X91709810Y-171308686D01*
X91805048Y-171308686D01*
X91757429Y-171546781D02*
X91852667Y-171499162D01*
X91947905Y-171403924D01*
X91995524Y-171213448D01*
X91995524Y-170880114D01*
X91947905Y-170689638D01*
X91852667Y-170594400D01*
X91757429Y-170546781D01*
X91566952Y-170546781D01*
X91471714Y-170594400D01*
X91376476Y-170689638D01*
X91328857Y-170880114D01*
X91328857Y-171213448D01*
X91376476Y-171403924D01*
X91471714Y-171499162D01*
X91566952Y-171546781D01*
X91757429Y-171546781D01*
X90376476Y-171546781D02*
X90947905Y-171546781D01*
X90662191Y-171546781D02*
X90662191Y-170546781D01*
X90757429Y-170689638D01*
X90852667Y-170784876D01*
X90947905Y-170832495D01*
X89185738Y-169457619D02*
X89280976Y-169410000D01*
X89376214Y-169314762D01*
X89519071Y-169171905D01*
X89614310Y-169124286D01*
X89709548Y-169124286D01*
X89661929Y-169362381D02*
X89757167Y-169314762D01*
X89852405Y-169219524D01*
X89900024Y-169029048D01*
X89900024Y-168695714D01*
X89852405Y-168505238D01*
X89757167Y-168410000D01*
X89661929Y-168362381D01*
X89471452Y-168362381D01*
X89376214Y-168410000D01*
X89280976Y-168505238D01*
X89233357Y-168695714D01*
X89233357Y-169029048D01*
X89280976Y-169219524D01*
X89376214Y-169314762D01*
X89471452Y-169362381D01*
X89661929Y-169362381D01*
X88852405Y-168457619D02*
X88804786Y-168410000D01*
X88709548Y-168362381D01*
X88471452Y-168362381D01*
X88376214Y-168410000D01*
X88328595Y-168457619D01*
X88280976Y-168552857D01*
X88280976Y-168648095D01*
X88328595Y-168790952D01*
X88900024Y-169362381D01*
X88280976Y-169362381D01*
X73882238Y-125856619D02*
X73977476Y-125809000D01*
X74072714Y-125713762D01*
X74215571Y-125570905D01*
X74310810Y-125523286D01*
X74406048Y-125523286D01*
X74358429Y-125761381D02*
X74453667Y-125713762D01*
X74548905Y-125618524D01*
X74596524Y-125428048D01*
X74596524Y-125094714D01*
X74548905Y-124904238D01*
X74453667Y-124809000D01*
X74358429Y-124761381D01*
X74167952Y-124761381D01*
X74072714Y-124809000D01*
X73977476Y-124904238D01*
X73929857Y-125094714D01*
X73929857Y-125428048D01*
X73977476Y-125618524D01*
X74072714Y-125713762D01*
X74167952Y-125761381D01*
X74358429Y-125761381D01*
X73596524Y-124761381D02*
X72977476Y-124761381D01*
X73310810Y-125142333D01*
X73167952Y-125142333D01*
X73072714Y-125189952D01*
X73025095Y-125237571D01*
X72977476Y-125332810D01*
X72977476Y-125570905D01*
X73025095Y-125666143D01*
X73072714Y-125713762D01*
X73167952Y-125761381D01*
X73453667Y-125761381D01*
X73548905Y-125713762D01*
X73596524Y-125666143D01*
X89312333Y-200302762D02*
X89169476Y-200350381D01*
X88931380Y-200350381D01*
X88836142Y-200302762D01*
X88788523Y-200255143D01*
X88740904Y-200159905D01*
X88740904Y-200064667D01*
X88788523Y-199969429D01*
X88836142Y-199921810D01*
X88931380Y-199874190D01*
X89121857Y-199826571D01*
X89217095Y-199778952D01*
X89264714Y-199731333D01*
X89312333Y-199636095D01*
X89312333Y-199540857D01*
X89264714Y-199445619D01*
X89217095Y-199398000D01*
X89121857Y-199350381D01*
X88883761Y-199350381D01*
X88740904Y-199398000D01*
X88312333Y-199350381D02*
X88312333Y-200159905D01*
X88264714Y-200255143D01*
X88217095Y-200302762D01*
X88121857Y-200350381D01*
X87931380Y-200350381D01*
X87836142Y-200302762D01*
X87788523Y-200255143D01*
X87740904Y-200159905D01*
X87740904Y-199350381D01*
X87312333Y-200302762D02*
X87169476Y-200350381D01*
X86931380Y-200350381D01*
X86836142Y-200302762D01*
X86788523Y-200255143D01*
X86740904Y-200159905D01*
X86740904Y-200064667D01*
X86788523Y-199969429D01*
X86836142Y-199921810D01*
X86931380Y-199874190D01*
X87121857Y-199826571D01*
X87217095Y-199778952D01*
X87264714Y-199731333D01*
X87312333Y-199636095D01*
X87312333Y-199540857D01*
X87264714Y-199445619D01*
X87217095Y-199398000D01*
X87121857Y-199350381D01*
X86883761Y-199350381D01*
X86740904Y-199398000D01*
X86455190Y-199350381D02*
X85883761Y-199350381D01*
X86169476Y-200350381D02*
X86169476Y-199350381D01*
X85598047Y-200064667D02*
X85121856Y-200064667D01*
X85693285Y-200350381D02*
X85359952Y-199350381D01*
X85026618Y-200350381D01*
X84693285Y-200350381D02*
X84693285Y-199350381D01*
X84217095Y-200350381D02*
X84217095Y-199350381D01*
X83645666Y-200350381D01*
X83645666Y-199350381D01*
X82645666Y-200350381D02*
X83217095Y-200350381D01*
X82931381Y-200350381D02*
X82931381Y-199350381D01*
X83026619Y-199493238D01*
X83121857Y-199588476D01*
X83217095Y-199636095D01*
X77445905Y-210526381D02*
X76874476Y-210526381D01*
X77160191Y-211526381D02*
X77160191Y-210526381D01*
X76350667Y-210526381D02*
X76160190Y-210526381D01*
X76064952Y-210574000D01*
X75969714Y-210669238D01*
X75922095Y-210859714D01*
X75922095Y-211193048D01*
X75969714Y-211383524D01*
X76064952Y-211478762D01*
X76160190Y-211526381D01*
X76350667Y-211526381D01*
X76445905Y-211478762D01*
X76541143Y-211383524D01*
X76588762Y-211193048D01*
X76588762Y-210859714D01*
X76541143Y-210669238D01*
X76445905Y-210574000D01*
X76350667Y-210526381D01*
X75493524Y-211526381D02*
X75493524Y-210526381D01*
X74922095Y-211526381D01*
X74922095Y-210526381D01*
X74445905Y-211002571D02*
X74112571Y-211002571D01*
X73969714Y-211526381D02*
X74445905Y-211526381D01*
X74445905Y-210526381D01*
X73969714Y-210526381D01*
X73017333Y-211526381D02*
X73588762Y-211526381D01*
X73303048Y-211526381D02*
X73303048Y-210526381D01*
X73398286Y-210669238D01*
X73493524Y-210764476D01*
X73588762Y-210812095D01*
X67674714Y-199350381D02*
X67341381Y-200350381D01*
X67008047Y-199350381D01*
X66484238Y-199350381D02*
X66293761Y-199350381D01*
X66198523Y-199398000D01*
X66103285Y-199493238D01*
X66055666Y-199683714D01*
X66055666Y-200017048D01*
X66103285Y-200207524D01*
X66198523Y-200302762D01*
X66293761Y-200350381D01*
X66484238Y-200350381D01*
X66579476Y-200302762D01*
X66674714Y-200207524D01*
X66722333Y-200017048D01*
X66722333Y-199683714D01*
X66674714Y-199493238D01*
X66579476Y-199398000D01*
X66484238Y-199350381D01*
X65150904Y-200350381D02*
X65627095Y-200350381D01*
X65627095Y-199350381D01*
X64817571Y-199350381D02*
X64817571Y-200159905D01*
X64769952Y-200255143D01*
X64722333Y-200302762D01*
X64627095Y-200350381D01*
X64436618Y-200350381D01*
X64341380Y-200302762D01*
X64293761Y-200255143D01*
X64246142Y-200159905D01*
X64246142Y-199350381D01*
X63769952Y-200350381D02*
X63769952Y-199350381D01*
X63436618Y-200064667D01*
X63103285Y-199350381D01*
X63103285Y-200350381D01*
X62627095Y-199826571D02*
X62293761Y-199826571D01*
X62150904Y-200350381D02*
X62627095Y-200350381D01*
X62627095Y-199350381D01*
X62150904Y-199350381D01*
X61198523Y-200350381D02*
X61769952Y-200350381D01*
X61484238Y-200350381D02*
X61484238Y-199350381D01*
X61579476Y-199493238D01*
X61674714Y-199588476D01*
X61769952Y-199636095D01*
X75858595Y-206763881D02*
X75858595Y-205763881D01*
X75620500Y-205763881D01*
X75477642Y-205811500D01*
X75382404Y-205906738D01*
X75334785Y-206001976D01*
X75287166Y-206192452D01*
X75287166Y-206335310D01*
X75334785Y-206525786D01*
X75382404Y-206621024D01*
X75477642Y-206716262D01*
X75620500Y-206763881D01*
X75858595Y-206763881D01*
X74430023Y-205763881D02*
X74620500Y-205763881D01*
X74715738Y-205811500D01*
X74763357Y-205859119D01*
X74858595Y-206001976D01*
X74906214Y-206192452D01*
X74906214Y-206573405D01*
X74858595Y-206668643D01*
X74810976Y-206716262D01*
X74715738Y-206763881D01*
X74525261Y-206763881D01*
X74430023Y-206716262D01*
X74382404Y-206668643D01*
X74334785Y-206573405D01*
X74334785Y-206335310D01*
X74382404Y-206240071D01*
X74430023Y-206192452D01*
X74525261Y-206144833D01*
X74715738Y-206144833D01*
X74810976Y-206192452D01*
X74858595Y-206240071D01*
X74906214Y-206335310D01*
X80875095Y-107322881D02*
X80875095Y-106322881D01*
X80637000Y-106322881D01*
X80494142Y-106370500D01*
X80398904Y-106465738D01*
X80351285Y-106560976D01*
X80303666Y-106751452D01*
X80303666Y-106894310D01*
X80351285Y-107084786D01*
X80398904Y-107180024D01*
X80494142Y-107275262D01*
X80637000Y-107322881D01*
X80875095Y-107322881D01*
X79351285Y-107322881D02*
X79922714Y-107322881D01*
X79637000Y-107322881D02*
X79637000Y-106322881D01*
X79732238Y-106465738D01*
X79827476Y-106560976D01*
X79922714Y-106608595D01*
X87161595Y-164726881D02*
X87161595Y-163726881D01*
X86923500Y-163726881D01*
X86780642Y-163774500D01*
X86685404Y-163869738D01*
X86637785Y-163964976D01*
X86590166Y-164155452D01*
X86590166Y-164298310D01*
X86637785Y-164488786D01*
X86685404Y-164584024D01*
X86780642Y-164679262D01*
X86923500Y-164726881D01*
X87161595Y-164726881D01*
X86209214Y-163822119D02*
X86161595Y-163774500D01*
X86066357Y-163726881D01*
X85828261Y-163726881D01*
X85733023Y-163774500D01*
X85685404Y-163822119D01*
X85637785Y-163917357D01*
X85637785Y-164012595D01*
X85685404Y-164155452D01*
X86256833Y-164726881D01*
X85637785Y-164726881D01*
X80049595Y-164790381D02*
X80049595Y-163790381D01*
X79811500Y-163790381D01*
X79668642Y-163838000D01*
X79573404Y-163933238D01*
X79525785Y-164028476D01*
X79478166Y-164218952D01*
X79478166Y-164361810D01*
X79525785Y-164552286D01*
X79573404Y-164647524D01*
X79668642Y-164742762D01*
X79811500Y-164790381D01*
X80049595Y-164790381D01*
X79144833Y-163790381D02*
X78525785Y-163790381D01*
X78859119Y-164171333D01*
X78716261Y-164171333D01*
X78621023Y-164218952D01*
X78573404Y-164266571D01*
X78525785Y-164361810D01*
X78525785Y-164599905D01*
X78573404Y-164695143D01*
X78621023Y-164742762D01*
X78716261Y-164790381D01*
X79001976Y-164790381D01*
X79097214Y-164742762D01*
X79144833Y-164695143D01*
X72112095Y-118054381D02*
X72112095Y-117054381D01*
X71874000Y-117054381D01*
X71731142Y-117102000D01*
X71635904Y-117197238D01*
X71588285Y-117292476D01*
X71540666Y-117482952D01*
X71540666Y-117625810D01*
X71588285Y-117816286D01*
X71635904Y-117911524D01*
X71731142Y-118006762D01*
X71874000Y-118054381D01*
X72112095Y-118054381D01*
X70683523Y-117387714D02*
X70683523Y-118054381D01*
X70921619Y-117006762D02*
X71159714Y-117721048D01*
X70540666Y-117721048D01*
X72112095Y-120022881D02*
X72112095Y-119022881D01*
X71874000Y-119022881D01*
X71731142Y-119070500D01*
X71635904Y-119165738D01*
X71588285Y-119260976D01*
X71540666Y-119451452D01*
X71540666Y-119594310D01*
X71588285Y-119784786D01*
X71635904Y-119880024D01*
X71731142Y-119975262D01*
X71874000Y-120022881D01*
X72112095Y-120022881D01*
X70635904Y-119022881D02*
X71112095Y-119022881D01*
X71159714Y-119499071D01*
X71112095Y-119451452D01*
X71016857Y-119403833D01*
X70778761Y-119403833D01*
X70683523Y-119451452D01*
X70635904Y-119499071D01*
X70588285Y-119594310D01*
X70588285Y-119832405D01*
X70635904Y-119927643D01*
X70683523Y-119975262D01*
X70778761Y-120022881D01*
X71016857Y-120022881D01*
X71112095Y-119975262D01*
X71159714Y-119927643D01*
X88812666Y-182411643D02*
X88860285Y-182459262D01*
X89003142Y-182506881D01*
X89098380Y-182506881D01*
X89241238Y-182459262D01*
X89336476Y-182364024D01*
X89384095Y-182268786D01*
X89431714Y-182078310D01*
X89431714Y-181935452D01*
X89384095Y-181744976D01*
X89336476Y-181649738D01*
X89241238Y-181554500D01*
X89098380Y-181506881D01*
X89003142Y-181506881D01*
X88860285Y-181554500D01*
X88812666Y-181602119D01*
X87860285Y-182506881D02*
X88431714Y-182506881D01*
X88146000Y-182506881D02*
X88146000Y-181506881D01*
X88241238Y-181649738D01*
X88336476Y-181744976D01*
X88431714Y-181792595D01*
X92876666Y-179709143D02*
X92924285Y-179756762D01*
X93067142Y-179804381D01*
X93162380Y-179804381D01*
X93305238Y-179756762D01*
X93400476Y-179661524D01*
X93448095Y-179566286D01*
X93495714Y-179375810D01*
X93495714Y-179232952D01*
X93448095Y-179042476D01*
X93400476Y-178947238D01*
X93305238Y-178852000D01*
X93162380Y-178804381D01*
X93067142Y-178804381D01*
X92924285Y-178852000D01*
X92876666Y-178899619D01*
X92495714Y-178899619D02*
X92448095Y-178852000D01*
X92352857Y-178804381D01*
X92114761Y-178804381D01*
X92019523Y-178852000D01*
X91971904Y-178899619D01*
X91924285Y-178994857D01*
X91924285Y-179090095D01*
X91971904Y-179232952D01*
X92543333Y-179804381D01*
X91924285Y-179804381D01*
X94654666Y-167108143D02*
X94702285Y-167155762D01*
X94845142Y-167203381D01*
X94940380Y-167203381D01*
X95083238Y-167155762D01*
X95178476Y-167060524D01*
X95226095Y-166965286D01*
X95273714Y-166774810D01*
X95273714Y-166631952D01*
X95226095Y-166441476D01*
X95178476Y-166346238D01*
X95083238Y-166251000D01*
X94940380Y-166203381D01*
X94845142Y-166203381D01*
X94702285Y-166251000D01*
X94654666Y-166298619D01*
X94321333Y-166203381D02*
X93702285Y-166203381D01*
X94035619Y-166584333D01*
X93892761Y-166584333D01*
X93797523Y-166631952D01*
X93749904Y-166679571D01*
X93702285Y-166774810D01*
X93702285Y-167012905D01*
X93749904Y-167108143D01*
X93797523Y-167155762D01*
X93892761Y-167203381D01*
X94178476Y-167203381D01*
X94273714Y-167155762D01*
X94321333Y-167108143D01*
X94337166Y-144057643D02*
X94384785Y-144105262D01*
X94527642Y-144152881D01*
X94622880Y-144152881D01*
X94765738Y-144105262D01*
X94860976Y-144010024D01*
X94908595Y-143914786D01*
X94956214Y-143724310D01*
X94956214Y-143581452D01*
X94908595Y-143390976D01*
X94860976Y-143295738D01*
X94765738Y-143200500D01*
X94622880Y-143152881D01*
X94527642Y-143152881D01*
X94384785Y-143200500D01*
X94337166Y-143248119D01*
X93480023Y-143486214D02*
X93480023Y-144152881D01*
X93718119Y-143105262D02*
X93956214Y-143819548D01*
X93337166Y-143819548D01*
X90781166Y-162698643D02*
X90828785Y-162746262D01*
X90971642Y-162793881D01*
X91066880Y-162793881D01*
X91209738Y-162746262D01*
X91304976Y-162651024D01*
X91352595Y-162555786D01*
X91400214Y-162365310D01*
X91400214Y-162222452D01*
X91352595Y-162031976D01*
X91304976Y-161936738D01*
X91209738Y-161841500D01*
X91066880Y-161793881D01*
X90971642Y-161793881D01*
X90828785Y-161841500D01*
X90781166Y-161889119D01*
X89876404Y-161793881D02*
X90352595Y-161793881D01*
X90400214Y-162270071D01*
X90352595Y-162222452D01*
X90257357Y-162174833D01*
X90019261Y-162174833D01*
X89924023Y-162222452D01*
X89876404Y-162270071D01*
X89828785Y-162365310D01*
X89828785Y-162603405D01*
X89876404Y-162698643D01*
X89924023Y-162746262D01*
X90019261Y-162793881D01*
X90257357Y-162793881D01*
X90352595Y-162746262D01*
X90400214Y-162698643D01*
X87034666Y-160666643D02*
X87082285Y-160714262D01*
X87225142Y-160761881D01*
X87320380Y-160761881D01*
X87463238Y-160714262D01*
X87558476Y-160619024D01*
X87606095Y-160523786D01*
X87653714Y-160333310D01*
X87653714Y-160190452D01*
X87606095Y-159999976D01*
X87558476Y-159904738D01*
X87463238Y-159809500D01*
X87320380Y-159761881D01*
X87225142Y-159761881D01*
X87082285Y-159809500D01*
X87034666Y-159857119D01*
X86177523Y-159761881D02*
X86368000Y-159761881D01*
X86463238Y-159809500D01*
X86510857Y-159857119D01*
X86606095Y-159999976D01*
X86653714Y-160190452D01*
X86653714Y-160571405D01*
X86606095Y-160666643D01*
X86558476Y-160714262D01*
X86463238Y-160761881D01*
X86272761Y-160761881D01*
X86177523Y-160714262D01*
X86129904Y-160666643D01*
X86082285Y-160571405D01*
X86082285Y-160333310D01*
X86129904Y-160238071D01*
X86177523Y-160190452D01*
X86272761Y-160142833D01*
X86463238Y-160142833D01*
X86558476Y-160190452D01*
X86606095Y-160238071D01*
X86653714Y-160333310D01*
X80875166Y-149645643D02*
X80922785Y-149693262D01*
X81065642Y-149740881D01*
X81160880Y-149740881D01*
X81303738Y-149693262D01*
X81398976Y-149598024D01*
X81446595Y-149502786D01*
X81494214Y-149312310D01*
X81494214Y-149169452D01*
X81446595Y-148978976D01*
X81398976Y-148883738D01*
X81303738Y-148788500D01*
X81160880Y-148740881D01*
X81065642Y-148740881D01*
X80922785Y-148788500D01*
X80875166Y-148836119D01*
X80541833Y-148740881D02*
X79875166Y-148740881D01*
X80303738Y-149740881D01*
X64174666Y-123039143D02*
X64222285Y-123086762D01*
X64365142Y-123134381D01*
X64460380Y-123134381D01*
X64603238Y-123086762D01*
X64698476Y-122991524D01*
X64746095Y-122896286D01*
X64793714Y-122705810D01*
X64793714Y-122562952D01*
X64746095Y-122372476D01*
X64698476Y-122277238D01*
X64603238Y-122182000D01*
X64460380Y-122134381D01*
X64365142Y-122134381D01*
X64222285Y-122182000D01*
X64174666Y-122229619D01*
X63603238Y-122562952D02*
X63698476Y-122515333D01*
X63746095Y-122467714D01*
X63793714Y-122372476D01*
X63793714Y-122324857D01*
X63746095Y-122229619D01*
X63698476Y-122182000D01*
X63603238Y-122134381D01*
X63412761Y-122134381D01*
X63317523Y-122182000D01*
X63269904Y-122229619D01*
X63222285Y-122324857D01*
X63222285Y-122372476D01*
X63269904Y-122467714D01*
X63317523Y-122515333D01*
X63412761Y-122562952D01*
X63603238Y-122562952D01*
X63698476Y-122610571D01*
X63746095Y-122658190D01*
X63793714Y-122753429D01*
X63793714Y-122943905D01*
X63746095Y-123039143D01*
X63698476Y-123086762D01*
X63603238Y-123134381D01*
X63412761Y-123134381D01*
X63317523Y-123086762D01*
X63269904Y-123039143D01*
X63222285Y-122943905D01*
X63222285Y-122753429D01*
X63269904Y-122658190D01*
X63317523Y-122610571D01*
X63412761Y-122562952D01*
X68746666Y-132183143D02*
X68794285Y-132230762D01*
X68937142Y-132278381D01*
X69032380Y-132278381D01*
X69175238Y-132230762D01*
X69270476Y-132135524D01*
X69318095Y-132040286D01*
X69365714Y-131849810D01*
X69365714Y-131706952D01*
X69318095Y-131516476D01*
X69270476Y-131421238D01*
X69175238Y-131326000D01*
X69032380Y-131278381D01*
X68937142Y-131278381D01*
X68794285Y-131326000D01*
X68746666Y-131373619D01*
X68270476Y-132278381D02*
X68080000Y-132278381D01*
X67984761Y-132230762D01*
X67937142Y-132183143D01*
X67841904Y-132040286D01*
X67794285Y-131849810D01*
X67794285Y-131468857D01*
X67841904Y-131373619D01*
X67889523Y-131326000D01*
X67984761Y-131278381D01*
X68175238Y-131278381D01*
X68270476Y-131326000D01*
X68318095Y-131373619D01*
X68365714Y-131468857D01*
X68365714Y-131706952D01*
X68318095Y-131802190D01*
X68270476Y-131849810D01*
X68175238Y-131897429D01*
X67984761Y-131897429D01*
X67889523Y-131849810D01*
X67841904Y-131802190D01*
X67794285Y-131706952D01*
X78112857Y-128401143D02*
X78160476Y-128448762D01*
X78303333Y-128496381D01*
X78398571Y-128496381D01*
X78541429Y-128448762D01*
X78636667Y-128353524D01*
X78684286Y-128258286D01*
X78731905Y-128067810D01*
X78731905Y-127924952D01*
X78684286Y-127734476D01*
X78636667Y-127639238D01*
X78541429Y-127544000D01*
X78398571Y-127496381D01*
X78303333Y-127496381D01*
X78160476Y-127544000D01*
X78112857Y-127591619D01*
X77160476Y-128496381D02*
X77731905Y-128496381D01*
X77446191Y-128496381D02*
X77446191Y-127496381D01*
X77541429Y-127639238D01*
X77636667Y-127734476D01*
X77731905Y-127782095D01*
X76541429Y-127496381D02*
X76446190Y-127496381D01*
X76350952Y-127544000D01*
X76303333Y-127591619D01*
X76255714Y-127686857D01*
X76208095Y-127877333D01*
X76208095Y-128115429D01*
X76255714Y-128305905D01*
X76303333Y-128401143D01*
X76350952Y-128448762D01*
X76446190Y-128496381D01*
X76541429Y-128496381D01*
X76636667Y-128448762D01*
X76684286Y-128401143D01*
X76731905Y-128305905D01*
X76779524Y-128115429D01*
X76779524Y-127877333D01*
X76731905Y-127686857D01*
X76684286Y-127591619D01*
X76636667Y-127544000D01*
X76541429Y-127496381D01*
X82303857Y-126531643D02*
X82351476Y-126579262D01*
X82494333Y-126626881D01*
X82589571Y-126626881D01*
X82732429Y-126579262D01*
X82827667Y-126484024D01*
X82875286Y-126388786D01*
X82922905Y-126198310D01*
X82922905Y-126055452D01*
X82875286Y-125864976D01*
X82827667Y-125769738D01*
X82732429Y-125674500D01*
X82589571Y-125626881D01*
X82494333Y-125626881D01*
X82351476Y-125674500D01*
X82303857Y-125722119D01*
X81351476Y-126626881D02*
X81922905Y-126626881D01*
X81637191Y-126626881D02*
X81637191Y-125626881D01*
X81732429Y-125769738D01*
X81827667Y-125864976D01*
X81922905Y-125912595D01*
X80399095Y-126626881D02*
X80970524Y-126626881D01*
X80684810Y-126626881D02*
X80684810Y-125626881D01*
X80780048Y-125769738D01*
X80875286Y-125864976D01*
X80970524Y-125912595D01*
X59126357Y-170890143D02*
X59173976Y-170937762D01*
X59316833Y-170985381D01*
X59412071Y-170985381D01*
X59554929Y-170937762D01*
X59650167Y-170842524D01*
X59697786Y-170747286D01*
X59745405Y-170556810D01*
X59745405Y-170413952D01*
X59697786Y-170223476D01*
X59650167Y-170128238D01*
X59554929Y-170033000D01*
X59412071Y-169985381D01*
X59316833Y-169985381D01*
X59173976Y-170033000D01*
X59126357Y-170080619D01*
X58173976Y-170985381D02*
X58745405Y-170985381D01*
X58459691Y-170985381D02*
X58459691Y-169985381D01*
X58554929Y-170128238D01*
X58650167Y-170223476D01*
X58745405Y-170271095D01*
X57793024Y-170080619D02*
X57745405Y-170033000D01*
X57650167Y-169985381D01*
X57412071Y-169985381D01*
X57316833Y-170033000D01*
X57269214Y-170080619D01*
X57221595Y-170175857D01*
X57221595Y-170271095D01*
X57269214Y-170413952D01*
X57840643Y-170985381D01*
X57221595Y-170985381D01*
X57094357Y-147931143D02*
X57141976Y-147978762D01*
X57284833Y-148026381D01*
X57380071Y-148026381D01*
X57522929Y-147978762D01*
X57618167Y-147883524D01*
X57665786Y-147788286D01*
X57713405Y-147597810D01*
X57713405Y-147454952D01*
X57665786Y-147264476D01*
X57618167Y-147169238D01*
X57522929Y-147074000D01*
X57380071Y-147026381D01*
X57284833Y-147026381D01*
X57141976Y-147074000D01*
X57094357Y-147121619D01*
X56141976Y-148026381D02*
X56713405Y-148026381D01*
X56427691Y-148026381D02*
X56427691Y-147026381D01*
X56522929Y-147169238D01*
X56618167Y-147264476D01*
X56713405Y-147312095D01*
X55808643Y-147026381D02*
X55189595Y-147026381D01*
X55522929Y-147407333D01*
X55380071Y-147407333D01*
X55284833Y-147454952D01*
X55237214Y-147502571D01*
X55189595Y-147597810D01*
X55189595Y-147835905D01*
X55237214Y-147931143D01*
X55284833Y-147978762D01*
X55380071Y-148026381D01*
X55665786Y-148026381D01*
X55761024Y-147978762D01*
X55808643Y-147931143D01*
X85637666Y-184729381D02*
X85971000Y-184253190D01*
X86209095Y-184729381D02*
X86209095Y-183729381D01*
X85828142Y-183729381D01*
X85732904Y-183777000D01*
X85685285Y-183824619D01*
X85637666Y-183919857D01*
X85637666Y-184062714D01*
X85685285Y-184157952D01*
X85732904Y-184205571D01*
X85828142Y-184253190D01*
X86209095Y-184253190D01*
X84685285Y-184729381D02*
X85256714Y-184729381D01*
X84971000Y-184729381D02*
X84971000Y-183729381D01*
X85066238Y-183872238D01*
X85161476Y-183967476D01*
X85256714Y-184015095D01*
X86272666Y-177348881D02*
X86606000Y-176872690D01*
X86844095Y-177348881D02*
X86844095Y-176348881D01*
X86463142Y-176348881D01*
X86367904Y-176396500D01*
X86320285Y-176444119D01*
X86272666Y-176539357D01*
X86272666Y-176682214D01*
X86320285Y-176777452D01*
X86367904Y-176825071D01*
X86463142Y-176872690D01*
X86844095Y-176872690D01*
X85891714Y-176444119D02*
X85844095Y-176396500D01*
X85748857Y-176348881D01*
X85510761Y-176348881D01*
X85415523Y-176396500D01*
X85367904Y-176444119D01*
X85320285Y-176539357D01*
X85320285Y-176634595D01*
X85367904Y-176777452D01*
X85939333Y-177348881D01*
X85320285Y-177348881D01*
X92876666Y-176425381D02*
X93210000Y-175949190D01*
X93448095Y-176425381D02*
X93448095Y-175425381D01*
X93067142Y-175425381D01*
X92971904Y-175473000D01*
X92924285Y-175520619D01*
X92876666Y-175615857D01*
X92876666Y-175758714D01*
X92924285Y-175853952D01*
X92971904Y-175901571D01*
X93067142Y-175949190D01*
X93448095Y-175949190D01*
X92543333Y-175425381D02*
X91924285Y-175425381D01*
X92257619Y-175806333D01*
X92114761Y-175806333D01*
X92019523Y-175853952D01*
X91971904Y-175901571D01*
X91924285Y-175996810D01*
X91924285Y-176234905D01*
X91971904Y-176330143D01*
X92019523Y-176377762D01*
X92114761Y-176425381D01*
X92400476Y-176425381D01*
X92495714Y-176377762D01*
X92543333Y-176330143D01*
X90844666Y-185442381D02*
X91178000Y-184966190D01*
X91416095Y-185442381D02*
X91416095Y-184442381D01*
X91035142Y-184442381D01*
X90939904Y-184490000D01*
X90892285Y-184537619D01*
X90844666Y-184632857D01*
X90844666Y-184775714D01*
X90892285Y-184870952D01*
X90939904Y-184918571D01*
X91035142Y-184966190D01*
X91416095Y-184966190D01*
X89987523Y-184775714D02*
X89987523Y-185442381D01*
X90225619Y-184394762D02*
X90463714Y-185109048D01*
X89844666Y-185109048D01*
X86272666Y-174745381D02*
X86606000Y-174269190D01*
X86844095Y-174745381D02*
X86844095Y-173745381D01*
X86463142Y-173745381D01*
X86367904Y-173793000D01*
X86320285Y-173840619D01*
X86272666Y-173935857D01*
X86272666Y-174078714D01*
X86320285Y-174173952D01*
X86367904Y-174221571D01*
X86463142Y-174269190D01*
X86844095Y-174269190D01*
X85367904Y-173745381D02*
X85844095Y-173745381D01*
X85891714Y-174221571D01*
X85844095Y-174173952D01*
X85748857Y-174126333D01*
X85510761Y-174126333D01*
X85415523Y-174173952D01*
X85367904Y-174221571D01*
X85320285Y-174316810D01*
X85320285Y-174554905D01*
X85367904Y-174650143D01*
X85415523Y-174697762D01*
X85510761Y-174745381D01*
X85748857Y-174745381D01*
X85844095Y-174697762D01*
X85891714Y-174650143D01*
X86971166Y-141739881D02*
X87304500Y-141263690D01*
X87542595Y-141739881D02*
X87542595Y-140739881D01*
X87161642Y-140739881D01*
X87066404Y-140787500D01*
X87018785Y-140835119D01*
X86971166Y-140930357D01*
X86971166Y-141073214D01*
X87018785Y-141168452D01*
X87066404Y-141216071D01*
X87161642Y-141263690D01*
X87542595Y-141263690D01*
X86114023Y-140739881D02*
X86304500Y-140739881D01*
X86399738Y-140787500D01*
X86447357Y-140835119D01*
X86542595Y-140977976D01*
X86590214Y-141168452D01*
X86590214Y-141549405D01*
X86542595Y-141644643D01*
X86494976Y-141692262D01*
X86399738Y-141739881D01*
X86209261Y-141739881D01*
X86114023Y-141692262D01*
X86066404Y-141644643D01*
X86018785Y-141549405D01*
X86018785Y-141311310D01*
X86066404Y-141216071D01*
X86114023Y-141168452D01*
X86209261Y-141120833D01*
X86399738Y-141120833D01*
X86494976Y-141168452D01*
X86542595Y-141216071D01*
X86590214Y-141311310D01*
X94273666Y-151836381D02*
X94607000Y-151360190D01*
X94845095Y-151836381D02*
X94845095Y-150836381D01*
X94464142Y-150836381D01*
X94368904Y-150884000D01*
X94321285Y-150931619D01*
X94273666Y-151026857D01*
X94273666Y-151169714D01*
X94321285Y-151264952D01*
X94368904Y-151312571D01*
X94464142Y-151360190D01*
X94845095Y-151360190D01*
X93940333Y-150836381D02*
X93273666Y-150836381D01*
X93702238Y-151836381D01*
X89828666Y-151201381D02*
X90162000Y-150725190D01*
X90400095Y-151201381D02*
X90400095Y-150201381D01*
X90019142Y-150201381D01*
X89923904Y-150249000D01*
X89876285Y-150296619D01*
X89828666Y-150391857D01*
X89828666Y-150534714D01*
X89876285Y-150629952D01*
X89923904Y-150677571D01*
X90019142Y-150725190D01*
X90400095Y-150725190D01*
X89257238Y-150629952D02*
X89352476Y-150582333D01*
X89400095Y-150534714D01*
X89447714Y-150439476D01*
X89447714Y-150391857D01*
X89400095Y-150296619D01*
X89352476Y-150249000D01*
X89257238Y-150201381D01*
X89066761Y-150201381D01*
X88971523Y-150249000D01*
X88923904Y-150296619D01*
X88876285Y-150391857D01*
X88876285Y-150439476D01*
X88923904Y-150534714D01*
X88971523Y-150582333D01*
X89066761Y-150629952D01*
X89257238Y-150629952D01*
X89352476Y-150677571D01*
X89400095Y-150725190D01*
X89447714Y-150820429D01*
X89447714Y-151010905D01*
X89400095Y-151106143D01*
X89352476Y-151153762D01*
X89257238Y-151201381D01*
X89066761Y-151201381D01*
X88971523Y-151153762D01*
X88923904Y-151106143D01*
X88876285Y-151010905D01*
X88876285Y-150820429D01*
X88923904Y-150725190D01*
X88971523Y-150677571D01*
X89066761Y-150629952D01*
X90717666Y-166299881D02*
X91051000Y-165823690D01*
X91289095Y-166299881D02*
X91289095Y-165299881D01*
X90908142Y-165299881D01*
X90812904Y-165347500D01*
X90765285Y-165395119D01*
X90717666Y-165490357D01*
X90717666Y-165633214D01*
X90765285Y-165728452D01*
X90812904Y-165776071D01*
X90908142Y-165823690D01*
X91289095Y-165823690D01*
X90241476Y-166299881D02*
X90051000Y-166299881D01*
X89955761Y-166252262D01*
X89908142Y-166204643D01*
X89812904Y-166061786D01*
X89765285Y-165871310D01*
X89765285Y-165490357D01*
X89812904Y-165395119D01*
X89860523Y-165347500D01*
X89955761Y-165299881D01*
X90146238Y-165299881D01*
X90241476Y-165347500D01*
X90289095Y-165395119D01*
X90336714Y-165490357D01*
X90336714Y-165728452D01*
X90289095Y-165823690D01*
X90241476Y-165871310D01*
X90146238Y-165918929D01*
X89955761Y-165918929D01*
X89860523Y-165871310D01*
X89812904Y-165823690D01*
X89765285Y-165728452D01*
X84691457Y-154171381D02*
X85024791Y-153695190D01*
X85262886Y-154171381D02*
X85262886Y-153171381D01*
X84881933Y-153171381D01*
X84786695Y-153219000D01*
X84739076Y-153266619D01*
X84691457Y-153361857D01*
X84691457Y-153504714D01*
X84739076Y-153599952D01*
X84786695Y-153647571D01*
X84881933Y-153695190D01*
X85262886Y-153695190D01*
X83739076Y-154171381D02*
X84310505Y-154171381D01*
X84024791Y-154171381D02*
X84024791Y-153171381D01*
X84120029Y-153314238D01*
X84215267Y-153409476D01*
X84310505Y-153457095D01*
X83120029Y-153171381D02*
X83024790Y-153171381D01*
X82929552Y-153219000D01*
X82881933Y-153266619D01*
X82834314Y-153361857D01*
X82786695Y-153552333D01*
X82786695Y-153790429D01*
X82834314Y-153980905D01*
X82881933Y-154076143D01*
X82929552Y-154123762D01*
X83024790Y-154171381D01*
X83120029Y-154171381D01*
X83215267Y-154123762D01*
X83262886Y-154076143D01*
X83310505Y-153980905D01*
X83358124Y-153790429D01*
X83358124Y-153552333D01*
X83310505Y-153361857D01*
X83262886Y-153266619D01*
X83215267Y-153219000D01*
X83120029Y-153171381D01*
X80398857Y-170759381D02*
X80732191Y-170283190D01*
X80970286Y-170759381D02*
X80970286Y-169759381D01*
X80589333Y-169759381D01*
X80494095Y-169807000D01*
X80446476Y-169854619D01*
X80398857Y-169949857D01*
X80398857Y-170092714D01*
X80446476Y-170187952D01*
X80494095Y-170235571D01*
X80589333Y-170283190D01*
X80970286Y-170283190D01*
X79446476Y-170759381D02*
X80017905Y-170759381D01*
X79732191Y-170759381D02*
X79732191Y-169759381D01*
X79827429Y-169902238D01*
X79922667Y-169997476D01*
X80017905Y-170045095D01*
X78494095Y-170759381D02*
X79065524Y-170759381D01*
X78779810Y-170759381D02*
X78779810Y-169759381D01*
X78875048Y-169902238D01*
X78970286Y-169997476D01*
X79065524Y-170045095D01*
X82557857Y-144787881D02*
X82891191Y-144311690D01*
X83129286Y-144787881D02*
X83129286Y-143787881D01*
X82748333Y-143787881D01*
X82653095Y-143835500D01*
X82605476Y-143883119D01*
X82557857Y-143978357D01*
X82557857Y-144121214D01*
X82605476Y-144216452D01*
X82653095Y-144264071D01*
X82748333Y-144311690D01*
X83129286Y-144311690D01*
X81605476Y-144787881D02*
X82176905Y-144787881D01*
X81891191Y-144787881D02*
X81891191Y-143787881D01*
X81986429Y-143930738D01*
X82081667Y-144025976D01*
X82176905Y-144073595D01*
X81224524Y-143883119D02*
X81176905Y-143835500D01*
X81081667Y-143787881D01*
X80843571Y-143787881D01*
X80748333Y-143835500D01*
X80700714Y-143883119D01*
X80653095Y-143978357D01*
X80653095Y-144073595D01*
X80700714Y-144216452D01*
X81272143Y-144787881D01*
X80653095Y-144787881D01*
X70111857Y-127833381D02*
X70445191Y-127357190D01*
X70683286Y-127833381D02*
X70683286Y-126833381D01*
X70302333Y-126833381D01*
X70207095Y-126881000D01*
X70159476Y-126928619D01*
X70111857Y-127023857D01*
X70111857Y-127166714D01*
X70159476Y-127261952D01*
X70207095Y-127309571D01*
X70302333Y-127357190D01*
X70683286Y-127357190D01*
X69159476Y-127833381D02*
X69730905Y-127833381D01*
X69445191Y-127833381D02*
X69445191Y-126833381D01*
X69540429Y-126976238D01*
X69635667Y-127071476D01*
X69730905Y-127119095D01*
X68826143Y-126833381D02*
X68207095Y-126833381D01*
X68540429Y-127214333D01*
X68397571Y-127214333D01*
X68302333Y-127261952D01*
X68254714Y-127309571D01*
X68207095Y-127404810D01*
X68207095Y-127642905D01*
X68254714Y-127738143D01*
X68302333Y-127785762D01*
X68397571Y-127833381D01*
X68683286Y-127833381D01*
X68778524Y-127785762D01*
X68826143Y-127738143D01*
X70238857Y-136088381D02*
X70572191Y-135612190D01*
X70810286Y-136088381D02*
X70810286Y-135088381D01*
X70429333Y-135088381D01*
X70334095Y-135136000D01*
X70286476Y-135183619D01*
X70238857Y-135278857D01*
X70238857Y-135421714D01*
X70286476Y-135516952D01*
X70334095Y-135564571D01*
X70429333Y-135612190D01*
X70810286Y-135612190D01*
X69286476Y-136088381D02*
X69857905Y-136088381D01*
X69572191Y-136088381D02*
X69572191Y-135088381D01*
X69667429Y-135231238D01*
X69762667Y-135326476D01*
X69857905Y-135374095D01*
X68429333Y-135421714D02*
X68429333Y-136088381D01*
X68667429Y-135040762D02*
X68905524Y-135755048D01*
X68286476Y-135755048D01*
X79636857Y-115387381D02*
X79970191Y-114911190D01*
X80208286Y-115387381D02*
X80208286Y-114387381D01*
X79827333Y-114387381D01*
X79732095Y-114435000D01*
X79684476Y-114482619D01*
X79636857Y-114577857D01*
X79636857Y-114720714D01*
X79684476Y-114815952D01*
X79732095Y-114863571D01*
X79827333Y-114911190D01*
X80208286Y-114911190D01*
X78684476Y-115387381D02*
X79255905Y-115387381D01*
X78970191Y-115387381D02*
X78970191Y-114387381D01*
X79065429Y-114530238D01*
X79160667Y-114625476D01*
X79255905Y-114673095D01*
X77779714Y-114387381D02*
X78255905Y-114387381D01*
X78303524Y-114863571D01*
X78255905Y-114815952D01*
X78160667Y-114768333D01*
X77922571Y-114768333D01*
X77827333Y-114815952D01*
X77779714Y-114863571D01*
X77732095Y-114958810D01*
X77732095Y-115196905D01*
X77779714Y-115292143D01*
X77827333Y-115339762D01*
X77922571Y-115387381D01*
X78160667Y-115387381D01*
X78255905Y-115339762D01*
X78303524Y-115292143D01*
X68968857Y-120418381D02*
X69302191Y-119942190D01*
X69540286Y-120418381D02*
X69540286Y-119418381D01*
X69159333Y-119418381D01*
X69064095Y-119466000D01*
X69016476Y-119513619D01*
X68968857Y-119608857D01*
X68968857Y-119751714D01*
X69016476Y-119846952D01*
X69064095Y-119894571D01*
X69159333Y-119942190D01*
X69540286Y-119942190D01*
X68016476Y-120418381D02*
X68587905Y-120418381D01*
X68302191Y-120418381D02*
X68302191Y-119418381D01*
X68397429Y-119561238D01*
X68492667Y-119656476D01*
X68587905Y-119704095D01*
X67159333Y-119418381D02*
X67349810Y-119418381D01*
X67445048Y-119466000D01*
X67492667Y-119513619D01*
X67587905Y-119656476D01*
X67635524Y-119846952D01*
X67635524Y-120227905D01*
X67587905Y-120323143D01*
X67540286Y-120370762D01*
X67445048Y-120418381D01*
X67254571Y-120418381D01*
X67159333Y-120370762D01*
X67111714Y-120323143D01*
X67064095Y-120227905D01*
X67064095Y-119989810D01*
X67111714Y-119894571D01*
X67159333Y-119846952D01*
X67254571Y-119799333D01*
X67445048Y-119799333D01*
X67540286Y-119846952D01*
X67587905Y-119894571D01*
X67635524Y-119989810D01*
X79573357Y-126690381D02*
X79906691Y-126214190D01*
X80144786Y-126690381D02*
X80144786Y-125690381D01*
X79763833Y-125690381D01*
X79668595Y-125738000D01*
X79620976Y-125785619D01*
X79573357Y-125880857D01*
X79573357Y-126023714D01*
X79620976Y-126118952D01*
X79668595Y-126166571D01*
X79763833Y-126214190D01*
X80144786Y-126214190D01*
X78620976Y-126690381D02*
X79192405Y-126690381D01*
X78906691Y-126690381D02*
X78906691Y-125690381D01*
X79001929Y-125833238D01*
X79097167Y-125928476D01*
X79192405Y-125976095D01*
X78287643Y-125690381D02*
X77620976Y-125690381D01*
X78049548Y-126690381D01*
X78112857Y-135248381D02*
X78446191Y-134772190D01*
X78684286Y-135248381D02*
X78684286Y-134248381D01*
X78303333Y-134248381D01*
X78208095Y-134296000D01*
X78160476Y-134343619D01*
X78112857Y-134438857D01*
X78112857Y-134581714D01*
X78160476Y-134676952D01*
X78208095Y-134724571D01*
X78303333Y-134772190D01*
X78684286Y-134772190D01*
X77160476Y-135248381D02*
X77731905Y-135248381D01*
X77446191Y-135248381D02*
X77446191Y-134248381D01*
X77541429Y-134391238D01*
X77636667Y-134486476D01*
X77731905Y-134534095D01*
X76589048Y-134676952D02*
X76684286Y-134629333D01*
X76731905Y-134581714D01*
X76779524Y-134486476D01*
X76779524Y-134438857D01*
X76731905Y-134343619D01*
X76684286Y-134296000D01*
X76589048Y-134248381D01*
X76398571Y-134248381D01*
X76303333Y-134296000D01*
X76255714Y-134343619D01*
X76208095Y-134438857D01*
X76208095Y-134486476D01*
X76255714Y-134581714D01*
X76303333Y-134629333D01*
X76398571Y-134676952D01*
X76589048Y-134676952D01*
X76684286Y-134724571D01*
X76731905Y-134772190D01*
X76779524Y-134867429D01*
X76779524Y-135057905D01*
X76731905Y-135153143D01*
X76684286Y-135200762D01*
X76589048Y-135248381D01*
X76398571Y-135248381D01*
X76303333Y-135200762D01*
X76255714Y-135153143D01*
X76208095Y-135057905D01*
X76208095Y-134867429D01*
X76255714Y-134772190D01*
X76303333Y-134724571D01*
X76398571Y-134676952D01*
X59253357Y-164995381D02*
X59586691Y-164519190D01*
X59824786Y-164995381D02*
X59824786Y-163995381D01*
X59443833Y-163995381D01*
X59348595Y-164043000D01*
X59300976Y-164090619D01*
X59253357Y-164185857D01*
X59253357Y-164328714D01*
X59300976Y-164423952D01*
X59348595Y-164471571D01*
X59443833Y-164519190D01*
X59824786Y-164519190D01*
X58300976Y-164995381D02*
X58872405Y-164995381D01*
X58586691Y-164995381D02*
X58586691Y-163995381D01*
X58681929Y-164138238D01*
X58777167Y-164233476D01*
X58872405Y-164281095D01*
X57824786Y-164995381D02*
X57634310Y-164995381D01*
X57539071Y-164947762D01*
X57491452Y-164900143D01*
X57396214Y-164757286D01*
X57348595Y-164566810D01*
X57348595Y-164185857D01*
X57396214Y-164090619D01*
X57443833Y-164043000D01*
X57539071Y-163995381D01*
X57729548Y-163995381D01*
X57824786Y-164043000D01*
X57872405Y-164090619D01*
X57920024Y-164185857D01*
X57920024Y-164423952D01*
X57872405Y-164519190D01*
X57824786Y-164566810D01*
X57729548Y-164614429D01*
X57539071Y-164614429D01*
X57443833Y-164566810D01*
X57396214Y-164519190D01*
X57348595Y-164423952D01*
X63507857Y-180982881D02*
X63841191Y-180506690D01*
X64079286Y-180982881D02*
X64079286Y-179982881D01*
X63698333Y-179982881D01*
X63603095Y-180030500D01*
X63555476Y-180078119D01*
X63507857Y-180173357D01*
X63507857Y-180316214D01*
X63555476Y-180411452D01*
X63603095Y-180459071D01*
X63698333Y-180506690D01*
X64079286Y-180506690D01*
X63126905Y-180078119D02*
X63079286Y-180030500D01*
X62984048Y-179982881D01*
X62745952Y-179982881D01*
X62650714Y-180030500D01*
X62603095Y-180078119D01*
X62555476Y-180173357D01*
X62555476Y-180268595D01*
X62603095Y-180411452D01*
X63174524Y-180982881D01*
X62555476Y-180982881D01*
X61936429Y-179982881D02*
X61841190Y-179982881D01*
X61745952Y-180030500D01*
X61698333Y-180078119D01*
X61650714Y-180173357D01*
X61603095Y-180363833D01*
X61603095Y-180601929D01*
X61650714Y-180792405D01*
X61698333Y-180887643D01*
X61745952Y-180935262D01*
X61841190Y-180982881D01*
X61936429Y-180982881D01*
X62031667Y-180935262D01*
X62079286Y-180887643D01*
X62126905Y-180792405D01*
X62174524Y-180601929D01*
X62174524Y-180363833D01*
X62126905Y-180173357D01*
X62079286Y-180078119D01*
X62031667Y-180030500D01*
X61936429Y-179982881D01*
X59888357Y-153692381D02*
X60221691Y-153216190D01*
X60459786Y-153692381D02*
X60459786Y-152692381D01*
X60078833Y-152692381D01*
X59983595Y-152740000D01*
X59935976Y-152787619D01*
X59888357Y-152882857D01*
X59888357Y-153025714D01*
X59935976Y-153120952D01*
X59983595Y-153168571D01*
X60078833Y-153216190D01*
X60459786Y-153216190D01*
X59507405Y-152787619D02*
X59459786Y-152740000D01*
X59364548Y-152692381D01*
X59126452Y-152692381D01*
X59031214Y-152740000D01*
X58983595Y-152787619D01*
X58935976Y-152882857D01*
X58935976Y-152978095D01*
X58983595Y-153120952D01*
X59555024Y-153692381D01*
X58935976Y-153692381D01*
X57983595Y-153692381D02*
X58555024Y-153692381D01*
X58269310Y-153692381D02*
X58269310Y-152692381D01*
X58364548Y-152835238D01*
X58459786Y-152930476D01*
X58555024Y-152978095D01*
X60015357Y-188158381D02*
X60348691Y-187682190D01*
X60586786Y-188158381D02*
X60586786Y-187158381D01*
X60205833Y-187158381D01*
X60110595Y-187206000D01*
X60062976Y-187253619D01*
X60015357Y-187348857D01*
X60015357Y-187491714D01*
X60062976Y-187586952D01*
X60110595Y-187634571D01*
X60205833Y-187682190D01*
X60586786Y-187682190D01*
X59634405Y-187253619D02*
X59586786Y-187206000D01*
X59491548Y-187158381D01*
X59253452Y-187158381D01*
X59158214Y-187206000D01*
X59110595Y-187253619D01*
X59062976Y-187348857D01*
X59062976Y-187444095D01*
X59110595Y-187586952D01*
X59682024Y-188158381D01*
X59062976Y-188158381D01*
X58682024Y-187253619D02*
X58634405Y-187206000D01*
X58539167Y-187158381D01*
X58301071Y-187158381D01*
X58205833Y-187206000D01*
X58158214Y-187253619D01*
X58110595Y-187348857D01*
X58110595Y-187444095D01*
X58158214Y-187586952D01*
X58729643Y-188158381D01*
X58110595Y-188158381D01*
X77604857Y-199270881D02*
X77938191Y-198794690D01*
X78176286Y-199270881D02*
X78176286Y-198270881D01*
X77795333Y-198270881D01*
X77700095Y-198318500D01*
X77652476Y-198366119D01*
X77604857Y-198461357D01*
X77604857Y-198604214D01*
X77652476Y-198699452D01*
X77700095Y-198747071D01*
X77795333Y-198794690D01*
X78176286Y-198794690D01*
X77223905Y-198366119D02*
X77176286Y-198318500D01*
X77081048Y-198270881D01*
X76842952Y-198270881D01*
X76747714Y-198318500D01*
X76700095Y-198366119D01*
X76652476Y-198461357D01*
X76652476Y-198556595D01*
X76700095Y-198699452D01*
X77271524Y-199270881D01*
X76652476Y-199270881D01*
X76319143Y-198270881D02*
X75700095Y-198270881D01*
X76033429Y-198651833D01*
X75890571Y-198651833D01*
X75795333Y-198699452D01*
X75747714Y-198747071D01*
X75700095Y-198842310D01*
X75700095Y-199080405D01*
X75747714Y-199175643D01*
X75795333Y-199223262D01*
X75890571Y-199270881D01*
X76176286Y-199270881D01*
X76271524Y-199223262D01*
X76319143Y-199175643D01*
%LPC*%
D13*
X57719000Y-182356000D03*
X55819000Y-182356000D03*
X56769000Y-180356000D03*
D14*
X74422000Y-114046000D03*
X74422000Y-108046000D03*
X69722000Y-111046000D03*
D15*
X79110700Y-155447000D03*
X79110700Y-139447000D03*
X92110700Y-139447000D03*
X92087700Y-155447000D03*
X71092200Y-159538400D03*
X71092200Y-175538400D03*
X58092200Y-175538400D03*
X58115200Y-159538400D03*
D16*
X90694000Y-174432000D03*
X90694000Y-172532000D03*
X92694000Y-173482000D03*
D13*
X87310000Y-169656000D03*
X85410000Y-169656000D03*
X86360000Y-167656000D03*
D16*
X72787000Y-123759000D03*
X72787000Y-121859000D03*
X74787000Y-122809000D03*
D17*
X69557000Y-182344000D03*
X75057000Y-182344000D03*
X80557000Y-182344000D03*
X69557000Y-186944000D03*
X75057000Y-186944000D03*
X80557000Y-186944000D03*
X69557000Y-191544000D03*
X75057000Y-191544000D03*
X80557000Y-191544000D03*
D18*
X83392000Y-209232500D03*
X85892000Y-209232500D03*
X88392000Y-209232500D03*
D19*
X81492000Y-202232500D03*
X90292000Y-202232500D03*
D18*
X72597000Y-217995500D03*
X75097000Y-217995500D03*
X77597000Y-217995500D03*
D19*
X70697000Y-210995500D03*
X79497000Y-210995500D03*
D18*
X61802000Y-209486500D03*
X64302000Y-209486500D03*
X66802000Y-209486500D03*
D19*
X59902000Y-202486500D03*
X68702000Y-202486500D03*
D20*
X74930000Y-201104500D03*
D18*
X74930000Y-203644500D03*
D21*
X94234000Y-215392000D03*
D22*
X94234000Y-212852000D03*
X94234000Y-210312000D03*
X94234000Y-207772000D03*
X94234000Y-205232000D03*
X94234000Y-202692000D03*
D21*
X56007000Y-215392000D03*
D22*
X56007000Y-212852000D03*
X56007000Y-210312000D03*
X56007000Y-207772000D03*
X56007000Y-205232000D03*
X56007000Y-202692000D03*
D21*
X94107000Y-133096000D03*
D22*
X94107000Y-130556000D03*
X94107000Y-128016000D03*
X94107000Y-125476000D03*
X94107000Y-122936000D03*
X94107000Y-120396000D03*
D21*
X56007000Y-133096000D03*
D22*
X56007000Y-130556000D03*
X56007000Y-128016000D03*
X56007000Y-125476000D03*
X56007000Y-122936000D03*
X56007000Y-120396000D03*
D23*
X80264000Y-111286000D03*
X80264000Y-109186000D03*
X84328000Y-165388000D03*
X84328000Y-163288000D03*
X81534000Y-163288000D03*
X81534000Y-165388000D03*
D24*
X75091000Y-119634000D03*
X72991000Y-119634000D03*
X72991000Y-117602000D03*
X75091000Y-117602000D03*
D25*
X88709500Y-177820000D03*
X88709500Y-180320000D03*
D26*
X93960000Y-181102000D03*
X91460000Y-181102000D03*
D25*
X94488000Y-168422000D03*
X94488000Y-170922000D03*
X92202000Y-143784000D03*
X92202000Y-146284000D03*
D26*
X89364500Y-160591500D03*
X91864500Y-160591500D03*
X85618000Y-158559500D03*
X88118000Y-158559500D03*
X85260500Y-149161500D03*
X82760500Y-149161500D03*
D25*
X64008000Y-124353000D03*
X64008000Y-126853000D03*
D26*
X69703000Y-129857500D03*
X67203000Y-129857500D03*
X78720000Y-129794000D03*
X76220000Y-129794000D03*
D25*
X81534000Y-124440000D03*
X81534000Y-121940000D03*
D26*
X57233500Y-168783000D03*
X59733500Y-168783000D03*
D25*
X56007000Y-151872000D03*
X56007000Y-149372000D03*
D27*
X85471000Y-179815500D03*
X85471000Y-182515500D03*
D28*
X84756000Y-175196500D03*
X87456000Y-175196500D03*
X94060000Y-177673000D03*
X91360000Y-177673000D03*
X92028000Y-186690000D03*
X89328000Y-186690000D03*
X84756000Y-172593000D03*
X87456000Y-172593000D03*
X85454500Y-143002000D03*
X88154500Y-143002000D03*
D27*
X92202000Y-148573500D03*
X92202000Y-151273500D03*
X89598500Y-148987500D03*
X89598500Y-146287500D03*
D28*
X89201000Y-164147500D03*
X91901000Y-164147500D03*
X82698600Y-152019000D03*
X85398600Y-152019000D03*
D27*
X82169000Y-170354000D03*
X82169000Y-173054000D03*
D28*
X85233500Y-146177000D03*
X82533500Y-146177000D03*
D27*
X67056000Y-127207000D03*
X67056000Y-124507000D03*
D28*
X69930000Y-133794500D03*
X67230000Y-133794500D03*
D27*
X78994000Y-116569500D03*
X78994000Y-119269500D03*
D28*
X69676000Y-121666000D03*
X66976000Y-121666000D03*
D27*
X78994000Y-124540000D03*
X78994000Y-121840000D03*
D28*
X76120000Y-133096000D03*
X78820000Y-133096000D03*
X59960500Y-166243000D03*
X57260500Y-166243000D03*
X61515000Y-182308500D03*
X64215000Y-182308500D03*
X60595500Y-154940000D03*
X57895500Y-154940000D03*
X58022500Y-185801000D03*
X60722500Y-185801000D03*
X73803500Y-198755000D03*
X71103500Y-198755000D03*
M02*
