M48
;DRILL file {KiCad 4.0.6} date 12/30/17 00:01:58
;FORMAT={-:-/ absolute / metric / decimal}
FMAT,2
METRIC,TZ
T1C0.400
T2C0.900
T3C1.000
T4C2.000
T5C2.000
%
G90
G05
M71
T1
X59.03Y-120.447
X59.055Y-127.991
X59.055Y-133.096
X60.579Y-152.654
X61.087Y-168.783
X62.738Y-172.669
X64.008Y-118.44
X64.008Y-120.929
X65.659Y-177.546
X65.659Y-183.769
X67.437Y-168.783
X69.723Y-146.177
X70.993Y-125.222
X72.009Y-131.699
X79.07Y-172.644
X79.604Y-152.019
X80.62Y-133.096
X81.026Y-127.991
X81.534Y-146.177
X81.661Y-130.556
X82.042Y-121.031
X88.9Y-117.856
X88.9Y-122.047
X90.881Y-128.016
X90.957Y-130.556
X90.957Y-133.096
T2
X74.93Y-201.105
X74.93Y-203.644
T3
X56.007Y-120.396
X56.007Y-122.936
X56.007Y-125.476
X56.007Y-128.016
X56.007Y-130.556
X56.007Y-133.096
X56.007Y-202.692
X56.007Y-205.232
X56.007Y-207.772
X56.007Y-210.312
X56.007Y-212.852
X56.007Y-215.392
X61.802Y-209.486
X64.302Y-209.486
X66.802Y-209.486
X72.597Y-217.995
X75.097Y-217.995
X77.597Y-217.995
X83.392Y-209.232
X85.892Y-209.232
X88.392Y-209.232
X94.107Y-120.396
X94.107Y-122.936
X94.107Y-125.476
X94.107Y-128.016
X94.107Y-130.556
X94.107Y-133.096
X94.234Y-202.692
X94.234Y-205.232
X94.234Y-207.772
X94.234Y-210.312
X94.234Y-212.852
X94.234Y-215.392
T4
X59.54Y-175.513
X59.563Y-159.513
X69.557Y-182.344
X69.557Y-186.944
X69.557Y-191.544
X72.54Y-159.513
X72.54Y-175.513
X75.057Y-182.344
X75.057Y-186.944
X75.057Y-191.544
X77.447Y-139.447
X77.447Y-155.447
X80.557Y-182.344
X80.557Y-186.944
X80.557Y-191.544
X90.424Y-155.447
X90.447Y-139.447
T5
X59.902Y-202.486
X68.702Y-202.486
X70.697Y-210.995
X79.497Y-210.995
X81.492Y-202.232
X90.292Y-202.232
T3
X69.722Y-110.046G85X69.722Y-112.046
G05
X75.422Y-108.046G85X73.422Y-108.046
G05
X75.422Y-114.046G85X73.422Y-114.046
G05
T0
M30
