G04 #@! TF.FileFunction,Soldermask,Top*
%FSLAX46Y46*%
G04 Gerber Fmt 4.6, Leading zero omitted, Abs format (unit mm)*
G04 Created by KiCad (PCBNEW 4.0.6) date 12/28/17 16:00:03*
%MOMM*%
%LPD*%
G01*
G04 APERTURE LIST*
%ADD10C,0.100000*%
%ADD11R,3.900000X3.900000*%
%ADD12O,5.400000X4.400000*%
%ADD13O,4.400000X3.900000*%
%ADD14C,2.200000*%
%ADD15C,3.400000*%
%ADD16R,2.200000X2.200000*%
%ADD17R,2.100000X2.100000*%
%ADD18O,2.100000X2.100000*%
G04 APERTURE END LIST*
D10*
D11*
X74422000Y-114046000D03*
X74422000Y-108046000D03*
X69722000Y-111046000D03*
D12*
X77447000Y-155447000D03*
X77447000Y-139447000D03*
X90447000Y-139447000D03*
X90424000Y-155447000D03*
X72540000Y-159513000D03*
X72540000Y-175513000D03*
X59540000Y-175513000D03*
X59563000Y-159513000D03*
D13*
X69557000Y-182344000D03*
X75057000Y-182344000D03*
X80557000Y-182344000D03*
X69557000Y-186944000D03*
X75057000Y-186944000D03*
X80557000Y-186944000D03*
X69557000Y-191544000D03*
X75057000Y-191544000D03*
X80557000Y-191544000D03*
D14*
X131652000Y-183324500D03*
X134152000Y-183324500D03*
X136652000Y-183324500D03*
D15*
X129752000Y-176324500D03*
X138552000Y-176324500D03*
D14*
X120857000Y-192087500D03*
X123357000Y-192087500D03*
X125857000Y-192087500D03*
D15*
X118957000Y-185087500D03*
X127757000Y-185087500D03*
D14*
X110062000Y-183578500D03*
X112562000Y-183578500D03*
X115062000Y-183578500D03*
D15*
X108162000Y-176578500D03*
X116962000Y-176578500D03*
D16*
X123190000Y-175196500D03*
D14*
X123190000Y-177736500D03*
D17*
X142494000Y-189484000D03*
D18*
X142494000Y-186944000D03*
X142494000Y-184404000D03*
X142494000Y-181864000D03*
X142494000Y-179324000D03*
X142494000Y-176784000D03*
D17*
X104267000Y-189484000D03*
D18*
X104267000Y-186944000D03*
X104267000Y-184404000D03*
X104267000Y-181864000D03*
X104267000Y-179324000D03*
X104267000Y-176784000D03*
D17*
X94107000Y-133096000D03*
D18*
X94107000Y-130556000D03*
X94107000Y-128016000D03*
X94107000Y-125476000D03*
X94107000Y-122936000D03*
X94107000Y-120396000D03*
D17*
X56007000Y-133096000D03*
D18*
X56007000Y-130556000D03*
X56007000Y-128016000D03*
X56007000Y-125476000D03*
X56007000Y-122936000D03*
X56007000Y-120396000D03*
M02*
