G04 #@! TF.FileFunction,Soldermask,Bot*
%FSLAX46Y46*%
G04 Gerber Fmt 4.6, Leading zero omitted, Abs format (unit mm)*
G04 Created by KiCad (PCBNEW 4.0.6) date 12/28/17 16:00:03*
%MOMM*%
%LPD*%
G01*
G04 APERTURE LIST*
%ADD10C,0.100000*%
%ADD11R,1.200000X1.300000*%
%ADD12R,3.900000X3.900000*%
%ADD13O,5.400000X4.400000*%
%ADD14R,1.300000X1.200000*%
%ADD15O,4.400000X3.900000*%
%ADD16R,1.400000X1.650000*%
%ADD17R,1.650000X1.400000*%
%ADD18R,1.100000X1.000000*%
%ADD19R,1.000000X1.100000*%
%ADD20R,1.700000X1.100000*%
%ADD21R,1.100000X1.700000*%
%ADD22C,2.200000*%
%ADD23C,3.400000*%
%ADD24R,2.200000X2.200000*%
%ADD25R,2.100000X2.100000*%
%ADD26O,2.100000X2.100000*%
G04 APERTURE END LIST*
D10*
D11*
X57719000Y-182356000D03*
X55819000Y-182356000D03*
X56769000Y-180356000D03*
D12*
X74422000Y-114046000D03*
X74422000Y-108046000D03*
X69722000Y-111046000D03*
D13*
X77447000Y-155447000D03*
X77447000Y-139447000D03*
X90447000Y-139447000D03*
X90424000Y-155447000D03*
X72540000Y-159513000D03*
X72540000Y-175513000D03*
X59540000Y-175513000D03*
X59563000Y-159513000D03*
D14*
X90694000Y-174432000D03*
X90694000Y-172532000D03*
X92694000Y-173482000D03*
D11*
X87310000Y-169656000D03*
X85410000Y-169656000D03*
X86360000Y-167656000D03*
D14*
X72787000Y-123759000D03*
X72787000Y-121859000D03*
X74787000Y-122809000D03*
D15*
X69557000Y-182344000D03*
X75057000Y-182344000D03*
X80557000Y-182344000D03*
X69557000Y-186944000D03*
X75057000Y-186944000D03*
X80557000Y-186944000D03*
X69557000Y-191544000D03*
X75057000Y-191544000D03*
X80557000Y-191544000D03*
D16*
X89773000Y-184150000D03*
X87773000Y-184150000D03*
X94853000Y-181102000D03*
X92853000Y-181102000D03*
D17*
X94488000Y-168672000D03*
X94488000Y-170672000D03*
X92456000Y-160036000D03*
X92456000Y-162036000D03*
D16*
X85233000Y-160655000D03*
X87233000Y-160655000D03*
X83582000Y-157988000D03*
X85582000Y-157988000D03*
D17*
X86868000Y-150034500D03*
X86868000Y-148034500D03*
X64008000Y-124603000D03*
X64008000Y-126603000D03*
D16*
X69580000Y-129921000D03*
X67580000Y-129921000D03*
X78470000Y-129794000D03*
X76470000Y-129794000D03*
D17*
X80518000Y-124698000D03*
X80518000Y-122698000D03*
D16*
X56912000Y-168783000D03*
X58912000Y-168783000D03*
X55261000Y-152527000D03*
X57261000Y-152527000D03*
D18*
X80010000Y-108088200D03*
X80010000Y-109488200D03*
X83058000Y-163638000D03*
X83058000Y-165038000D03*
X80899000Y-165038000D03*
X80899000Y-163638000D03*
D19*
X73341000Y-119634000D03*
X74741000Y-119634000D03*
D20*
X85217000Y-183957000D03*
X85217000Y-182057000D03*
X89789000Y-179136000D03*
X89789000Y-181036000D03*
D21*
X94803000Y-177927000D03*
X92903000Y-177927000D03*
X93406000Y-186690000D03*
X91506000Y-186690000D03*
X85156000Y-172593000D03*
X87056000Y-172593000D03*
D20*
X88773000Y-143322000D03*
X88773000Y-145222000D03*
X92456000Y-164785000D03*
X92456000Y-166685000D03*
D21*
X93152000Y-148971000D03*
X91252000Y-148971000D03*
X88077000Y-163576000D03*
X89977000Y-163576000D03*
X82489000Y-152908000D03*
X84389000Y-152908000D03*
D20*
X82169000Y-170754000D03*
X82169000Y-172654000D03*
X84264500Y-148079500D03*
X84264500Y-146179500D03*
X67691000Y-126807000D03*
X67691000Y-124907000D03*
D21*
X69530000Y-132842000D03*
X67630000Y-132842000D03*
D20*
X80264000Y-117541000D03*
X80264000Y-119441000D03*
D21*
X69911000Y-121666000D03*
X68011000Y-121666000D03*
D20*
X77851000Y-124648000D03*
X77851000Y-122748000D03*
D21*
X75250000Y-132588000D03*
X77150000Y-132588000D03*
X58989000Y-166243000D03*
X57089000Y-166243000D03*
D20*
X59690000Y-185613000D03*
X59690000Y-187513000D03*
D21*
X58989000Y-154940000D03*
X57089000Y-154940000D03*
D20*
X55880000Y-185486000D03*
X55880000Y-187386000D03*
D21*
X121663500Y-172847000D03*
X119763500Y-172847000D03*
D22*
X131652000Y-183324500D03*
X134152000Y-183324500D03*
X136652000Y-183324500D03*
D23*
X129752000Y-176324500D03*
X138552000Y-176324500D03*
D22*
X120857000Y-192087500D03*
X123357000Y-192087500D03*
X125857000Y-192087500D03*
D23*
X118957000Y-185087500D03*
X127757000Y-185087500D03*
D22*
X110062000Y-183578500D03*
X112562000Y-183578500D03*
X115062000Y-183578500D03*
D23*
X108162000Y-176578500D03*
X116962000Y-176578500D03*
D19*
X74741000Y-117602000D03*
X73341000Y-117602000D03*
D24*
X123190000Y-175196500D03*
D22*
X123190000Y-177736500D03*
D25*
X142494000Y-189484000D03*
D26*
X142494000Y-186944000D03*
X142494000Y-184404000D03*
X142494000Y-181864000D03*
X142494000Y-179324000D03*
X142494000Y-176784000D03*
D25*
X104267000Y-189484000D03*
D26*
X104267000Y-186944000D03*
X104267000Y-184404000D03*
X104267000Y-181864000D03*
X104267000Y-179324000D03*
X104267000Y-176784000D03*
D25*
X94107000Y-133096000D03*
D26*
X94107000Y-130556000D03*
X94107000Y-128016000D03*
X94107000Y-125476000D03*
X94107000Y-122936000D03*
X94107000Y-120396000D03*
D25*
X56007000Y-133096000D03*
D26*
X56007000Y-130556000D03*
X56007000Y-128016000D03*
X56007000Y-125476000D03*
X56007000Y-122936000D03*
X56007000Y-120396000D03*
M02*
