G04 #@! TF.FileFunction,Copper,L2,Bot,Signal*
%FSLAX46Y46*%
G04 Gerber Fmt 4.6, Leading zero omitted, Abs format (unit mm)*
G04 Created by KiCad (PCBNEW 4.0.6) date 12/28/17 16:00:03*
%MOMM*%
%LPD*%
G01*
G04 APERTURE LIST*
%ADD10C,0.100000*%
%ADD11R,0.800000X0.900000*%
%ADD12R,3.500000X3.500000*%
%ADD13O,5.000000X4.000000*%
%ADD14R,0.900000X0.800000*%
%ADD15O,4.000000X3.500000*%
%ADD16R,1.000000X1.250000*%
%ADD17R,1.250000X1.000000*%
%ADD18R,0.700000X0.600000*%
%ADD19R,0.600000X0.700000*%
%ADD20R,1.300000X0.700000*%
%ADD21R,0.700000X1.300000*%
%ADD22C,1.800000*%
%ADD23C,3.000000*%
%ADD24R,1.800000X1.800000*%
%ADD25R,1.700000X1.700000*%
%ADD26O,1.700000X1.700000*%
%ADD27C,0.600000*%
%ADD28C,0.500000*%
%ADD29C,0.250000*%
G04 APERTURE END LIST*
D10*
D11*
X57719000Y-182356000D03*
X55819000Y-182356000D03*
X56769000Y-180356000D03*
D12*
X74422000Y-114046000D03*
X74422000Y-108046000D03*
X69722000Y-111046000D03*
D13*
X77447000Y-155447000D03*
X77447000Y-139447000D03*
X90447000Y-139447000D03*
X90424000Y-155447000D03*
X72540000Y-159513000D03*
X72540000Y-175513000D03*
X59540000Y-175513000D03*
X59563000Y-159513000D03*
D14*
X90694000Y-174432000D03*
X90694000Y-172532000D03*
X92694000Y-173482000D03*
D11*
X87310000Y-169656000D03*
X85410000Y-169656000D03*
X86360000Y-167656000D03*
D14*
X72787000Y-123759000D03*
X72787000Y-121859000D03*
X74787000Y-122809000D03*
D15*
X69557000Y-182344000D03*
X75057000Y-182344000D03*
X80557000Y-182344000D03*
X69557000Y-186944000D03*
X75057000Y-186944000D03*
X80557000Y-186944000D03*
X69557000Y-191544000D03*
X75057000Y-191544000D03*
X80557000Y-191544000D03*
D16*
X89773000Y-184150000D03*
X87773000Y-184150000D03*
X94853000Y-181102000D03*
X92853000Y-181102000D03*
D17*
X94488000Y-168672000D03*
X94488000Y-170672000D03*
X92456000Y-160036000D03*
X92456000Y-162036000D03*
D16*
X85233000Y-160655000D03*
X87233000Y-160655000D03*
X83582000Y-157988000D03*
X85582000Y-157988000D03*
D17*
X86868000Y-150034500D03*
X86868000Y-148034500D03*
X64008000Y-124603000D03*
X64008000Y-126603000D03*
D16*
X69580000Y-129921000D03*
X67580000Y-129921000D03*
X78470000Y-129794000D03*
X76470000Y-129794000D03*
D17*
X80518000Y-124698000D03*
X80518000Y-122698000D03*
D16*
X56912000Y-168783000D03*
X58912000Y-168783000D03*
X55261000Y-152527000D03*
X57261000Y-152527000D03*
D18*
X80010000Y-108088200D03*
X80010000Y-109488200D03*
X83058000Y-163638000D03*
X83058000Y-165038000D03*
X80899000Y-165038000D03*
X80899000Y-163638000D03*
D19*
X73341000Y-119634000D03*
X74741000Y-119634000D03*
D20*
X85217000Y-183957000D03*
X85217000Y-182057000D03*
X89789000Y-179136000D03*
X89789000Y-181036000D03*
D21*
X94803000Y-177927000D03*
X92903000Y-177927000D03*
X93406000Y-186690000D03*
X91506000Y-186690000D03*
X85156000Y-172593000D03*
X87056000Y-172593000D03*
D20*
X88773000Y-143322000D03*
X88773000Y-145222000D03*
X92456000Y-164785000D03*
X92456000Y-166685000D03*
D21*
X93152000Y-148971000D03*
X91252000Y-148971000D03*
X88077000Y-163576000D03*
X89977000Y-163576000D03*
X82489000Y-152908000D03*
X84389000Y-152908000D03*
D20*
X82169000Y-170754000D03*
X82169000Y-172654000D03*
X84264500Y-148079500D03*
X84264500Y-146179500D03*
X67691000Y-126807000D03*
X67691000Y-124907000D03*
D21*
X69530000Y-132842000D03*
X67630000Y-132842000D03*
D20*
X80264000Y-117541000D03*
X80264000Y-119441000D03*
D21*
X69911000Y-121666000D03*
X68011000Y-121666000D03*
D20*
X77851000Y-124648000D03*
X77851000Y-122748000D03*
D21*
X75250000Y-132588000D03*
X77150000Y-132588000D03*
X58989000Y-166243000D03*
X57089000Y-166243000D03*
D20*
X59690000Y-185613000D03*
X59690000Y-187513000D03*
D21*
X58989000Y-154940000D03*
X57089000Y-154940000D03*
D20*
X55880000Y-185486000D03*
X55880000Y-187386000D03*
D21*
X121663500Y-172847000D03*
X119763500Y-172847000D03*
D22*
X131652000Y-183324500D03*
X134152000Y-183324500D03*
X136652000Y-183324500D03*
D23*
X129752000Y-176324500D03*
X138552000Y-176324500D03*
D22*
X120857000Y-192087500D03*
X123357000Y-192087500D03*
X125857000Y-192087500D03*
D23*
X118957000Y-185087500D03*
X127757000Y-185087500D03*
D22*
X110062000Y-183578500D03*
X112562000Y-183578500D03*
X115062000Y-183578500D03*
D23*
X108162000Y-176578500D03*
X116962000Y-176578500D03*
D19*
X74741000Y-117602000D03*
X73341000Y-117602000D03*
D24*
X123190000Y-175196500D03*
D22*
X123190000Y-177736500D03*
D25*
X142494000Y-189484000D03*
D26*
X142494000Y-186944000D03*
X142494000Y-184404000D03*
X142494000Y-181864000D03*
X142494000Y-179324000D03*
X142494000Y-176784000D03*
D25*
X104267000Y-189484000D03*
D26*
X104267000Y-186944000D03*
X104267000Y-184404000D03*
X104267000Y-181864000D03*
X104267000Y-179324000D03*
X104267000Y-176784000D03*
D25*
X94107000Y-133096000D03*
D26*
X94107000Y-130556000D03*
X94107000Y-128016000D03*
X94107000Y-125476000D03*
X94107000Y-122936000D03*
X94107000Y-120396000D03*
D25*
X56007000Y-133096000D03*
D26*
X56007000Y-130556000D03*
X56007000Y-128016000D03*
X56007000Y-125476000D03*
X56007000Y-122936000D03*
X56007000Y-120396000D03*
D27*
X62738000Y-172669200D03*
X79070200Y-172643800D03*
X88900000Y-117856000D03*
X82042000Y-121031000D03*
X70993000Y-125222000D03*
X72009000Y-131699000D03*
X59055000Y-133096000D03*
X59029600Y-120446800D03*
X59055000Y-127990600D03*
X88900000Y-122047000D03*
X60579000Y-152654000D03*
X79603600Y-152019000D03*
X90957400Y-130556000D03*
X81661000Y-130556000D03*
X61087000Y-168783000D03*
X67437000Y-168783000D03*
X90881200Y-128016000D03*
X81026000Y-127990600D03*
X80619600Y-133096000D03*
X90957400Y-133096000D03*
X65659000Y-183769000D03*
X65659000Y-177546000D03*
X64008000Y-118440200D03*
X64008000Y-120929400D03*
X69723000Y-146177000D03*
X81534000Y-146177000D03*
D28*
X90694000Y-174432000D02*
X90694000Y-176736500D01*
X91884500Y-177927000D02*
X92903000Y-177927000D01*
X90694000Y-176736500D02*
X91884500Y-177927000D01*
X89789000Y-181036000D02*
X92787000Y-181036000D01*
X92787000Y-181036000D02*
X92853000Y-181102000D01*
X92903000Y-177927000D02*
X92903000Y-181052000D01*
X92903000Y-181052000D02*
X92853000Y-181102000D01*
X89789000Y-181036000D02*
X89789000Y-184134000D01*
X89789000Y-184134000D02*
X89773000Y-184150000D01*
X92649000Y-180898000D02*
X92853000Y-181102000D01*
X92726000Y-177750000D02*
X92903000Y-177927000D01*
X92953800Y-181202800D02*
X92853000Y-181102000D01*
X87773000Y-184150000D02*
X85410000Y-184150000D01*
X85410000Y-184150000D02*
X85217000Y-183957000D01*
X87569000Y-183946000D02*
X87773000Y-184150000D01*
X85267800Y-184007800D02*
X85217000Y-183957000D01*
X92694000Y-173482000D02*
X94803000Y-173482000D01*
X94803000Y-173482000D02*
X94678500Y-173482000D01*
X94678500Y-173482000D02*
X94803000Y-173482000D01*
X94803000Y-177927000D02*
X94803000Y-173482000D01*
X94803000Y-173482000D02*
X94803000Y-170987000D01*
X94803000Y-170987000D02*
X94488000Y-170672000D01*
X94853000Y-181102000D02*
X94853000Y-177977000D01*
X94853000Y-177977000D02*
X94803000Y-177927000D01*
X93406000Y-186690000D02*
X94361000Y-186690000D01*
X94853000Y-186198000D02*
X94853000Y-181102000D01*
X94361000Y-186690000D02*
X94853000Y-186198000D01*
X94726000Y-177850000D02*
X94803000Y-177927000D01*
X94802200Y-177926200D02*
X94803000Y-177927000D01*
X93152000Y-148971000D02*
X93152000Y-150688000D01*
X85582000Y-154321000D02*
X88011000Y-151892000D01*
X88011000Y-151892000D02*
X91948000Y-151892000D01*
X91948000Y-151892000D02*
X93152000Y-150688000D01*
X85582000Y-154321000D02*
X85582000Y-157988000D01*
X89977000Y-163576000D02*
X89977000Y-169656000D01*
X90043000Y-169590000D02*
X90043000Y-169656000D01*
X89977000Y-169656000D02*
X90043000Y-169590000D01*
X87310000Y-169656000D02*
X90043000Y-169656000D01*
X90043000Y-169656000D02*
X91075000Y-169656000D01*
X91075000Y-169656000D02*
X92456000Y-168275000D01*
X92456000Y-168275000D02*
X92456000Y-166685000D01*
X85582000Y-157988000D02*
X86487000Y-157988000D01*
X86487000Y-157988000D02*
X87233000Y-158734000D01*
X87233000Y-158734000D02*
X87233000Y-160655000D01*
X87233000Y-160655000D02*
X88773000Y-160655000D01*
X89977000Y-163576000D02*
X89977000Y-161859000D01*
X88773000Y-160655000D02*
X89977000Y-161859000D01*
X92324000Y-166817000D02*
X92456000Y-166685000D01*
X85620100Y-157949900D02*
X85582000Y-157988000D01*
X87233000Y-160655000D02*
X87376000Y-160655000D01*
X84389000Y-152908000D02*
X84963000Y-152908000D01*
X86868000Y-151003000D02*
X86868000Y-150034500D01*
X84963000Y-152908000D02*
X86868000Y-151003000D01*
X86929000Y-150095500D02*
X86868000Y-150034500D01*
X83582000Y-157988000D02*
X83582000Y-155432000D01*
X84389000Y-154625000D02*
X84389000Y-152908000D01*
X83582000Y-155432000D02*
X84389000Y-154625000D01*
X83582000Y-157988000D02*
X82423000Y-157988000D01*
X82423000Y-157988000D02*
X79121000Y-161290000D01*
X80899000Y-165038000D02*
X79567000Y-165038000D01*
X79567000Y-165038000D02*
X79121000Y-164592000D01*
X79121000Y-164592000D02*
X79121000Y-161290000D01*
X88077000Y-163576000D02*
X86360000Y-163576000D01*
X86360000Y-163576000D02*
X84898000Y-165038000D01*
X83058000Y-165038000D02*
X84898000Y-165038000D01*
X84898000Y-165038000D02*
X84901000Y-165038000D01*
X86360000Y-166497000D02*
X86360000Y-167656000D01*
X84901000Y-165038000D02*
X86360000Y-166497000D01*
X80899000Y-165038000D02*
X83058000Y-165038000D01*
X86725000Y-150177500D02*
X86868000Y-150034500D01*
X62738000Y-172669200D02*
X62738000Y-174040800D01*
X62738000Y-174040800D02*
X61265800Y-175513000D01*
X61265800Y-175513000D02*
X59540000Y-175513000D01*
X62738000Y-172669200D02*
X62738000Y-170180000D01*
X80772000Y-172654000D02*
X79105800Y-172654000D01*
X79095600Y-172643800D02*
X79070200Y-172643800D01*
X79105800Y-172654000D02*
X79095600Y-172643800D01*
X88900000Y-116395500D02*
X88900000Y-114173000D01*
X83280250Y-107791250D02*
X88900000Y-113411000D01*
X88900000Y-113411000D02*
X88900000Y-114173000D01*
X64262000Y-107950000D02*
X67183000Y-105029000D01*
X67183000Y-105029000D02*
X80518000Y-105029000D01*
X64262000Y-107950000D02*
X64262000Y-112077500D01*
X83280250Y-107791250D02*
X80518000Y-105029000D01*
X88900000Y-117856000D02*
X88900000Y-116395500D01*
X82169000Y-172654000D02*
X85095000Y-172654000D01*
X85095000Y-172654000D02*
X85156000Y-172593000D01*
X82169000Y-172654000D02*
X82169000Y-174371000D01*
X83566000Y-175768000D02*
X86741000Y-175768000D01*
X82169000Y-174371000D02*
X83566000Y-175768000D01*
X91252000Y-148971000D02*
X89725500Y-148971000D01*
X88773000Y-148018500D02*
X88773000Y-145222000D01*
X89725500Y-148971000D02*
X88773000Y-148018500D01*
X56007000Y-120396000D02*
X58801000Y-120396000D01*
X58801000Y-120396000D02*
X59029600Y-120446800D01*
X56007000Y-128016000D02*
X58674000Y-128016000D01*
X58674000Y-128016000D02*
X59055000Y-127990600D01*
X80518000Y-122698000D02*
X80518000Y-122555000D01*
X80518000Y-122555000D02*
X82042000Y-121031000D01*
X75250000Y-132588000D02*
X72898000Y-132588000D01*
X70678000Y-124907000D02*
X67691000Y-124907000D01*
X70993000Y-125222000D02*
X70678000Y-124907000D01*
X72898000Y-132588000D02*
X72009000Y-131699000D01*
X68011000Y-121666000D02*
X67310000Y-121666000D01*
X67310000Y-121666000D02*
X65278000Y-119634000D01*
X65278000Y-119634000D02*
X60071000Y-119634000D01*
X60071000Y-119634000D02*
X59029600Y-120446800D01*
X67691000Y-124907000D02*
X67691000Y-121986000D01*
X67691000Y-121986000D02*
X68011000Y-121666000D01*
X62738000Y-136779000D02*
X59055000Y-133096000D01*
X62738000Y-170180000D02*
X62738000Y-136779000D01*
X90447000Y-139447000D02*
X90298000Y-139447000D01*
X90298000Y-139447000D02*
X87122000Y-136271000D01*
X87122000Y-123825000D02*
X88900000Y-122047000D01*
X87122000Y-136271000D02*
X87122000Y-123825000D01*
X82230000Y-172593000D02*
X82169000Y-172654000D01*
X80772000Y-172654000D02*
X82169000Y-172654000D01*
X59540000Y-175513000D02*
X59540000Y-174902000D01*
X58293000Y-112077500D02*
X56705500Y-112077500D01*
X56705500Y-112077500D02*
X56007000Y-112776000D01*
X56007000Y-112776000D02*
X56007000Y-120396000D01*
X59690000Y-187513000D02*
X61407000Y-187513000D01*
X59540000Y-178412000D02*
X59540000Y-175513000D01*
X61722000Y-180594000D02*
X59540000Y-178412000D01*
X61722000Y-187198000D02*
X61722000Y-180594000D01*
X61407000Y-187513000D02*
X61722000Y-187198000D01*
X55880000Y-187386000D02*
X59563000Y-187386000D01*
X59563000Y-187386000D02*
X59690000Y-187513000D01*
X59540000Y-175513000D02*
X59540000Y-174140000D01*
X91252000Y-148971000D02*
X91252000Y-140252000D01*
X91252000Y-140252000D02*
X90447000Y-139447000D01*
X89789000Y-176911000D02*
X89789000Y-179136000D01*
X86741000Y-175768000D02*
X88646000Y-175768000D01*
X88646000Y-175768000D02*
X89789000Y-176911000D01*
X67818000Y-125034000D02*
X67691000Y-124907000D01*
X91313000Y-149032000D02*
X91252000Y-148971000D01*
X67630000Y-124968000D02*
X67691000Y-124907000D01*
X85095000Y-172654000D02*
X85156000Y-172593000D01*
X88747600Y-145196600D02*
X88773000Y-145222000D01*
X90447000Y-139447000D02*
X90447000Y-137782200D01*
X90575000Y-139319000D02*
X90447000Y-139447000D01*
X74422000Y-114046000D02*
X67056000Y-114046000D01*
X65087500Y-112077500D02*
X64262000Y-112077500D01*
X67056000Y-114046000D02*
X65087500Y-112077500D01*
X64262000Y-112077500D02*
X58293000Y-112077500D01*
X58293000Y-112077500D02*
X58229500Y-112077500D01*
X57719000Y-182356000D02*
X59690000Y-182356000D01*
X59690000Y-182356000D02*
X59690000Y-182372000D01*
X59690000Y-185613000D02*
X59690000Y-182372000D01*
X59690000Y-182372000D02*
X59690000Y-180721000D01*
X56912000Y-170418000D02*
X56261000Y-171069000D01*
X56261000Y-177292000D02*
X56261000Y-171069000D01*
X58801000Y-179832000D02*
X56261000Y-177292000D01*
X56912000Y-168783000D02*
X56912000Y-170418000D01*
X59690000Y-180721000D02*
X58801000Y-179832000D01*
X56912000Y-168783000D02*
X56912000Y-166420000D01*
X56912000Y-166420000D02*
X57089000Y-166243000D01*
X57039000Y-166293000D02*
X57089000Y-166243000D01*
X57719000Y-182356000D02*
X57719000Y-182184000D01*
X59563000Y-185486000D02*
X59690000Y-185613000D01*
X57719000Y-182356000D02*
X57719000Y-182433000D01*
X123190000Y-177736500D02*
X123190000Y-177990500D01*
X123190000Y-177990500D02*
X121856500Y-179324000D01*
X121856500Y-179324000D02*
X104267000Y-179324000D01*
D29*
X77660500Y-184638674D02*
X82911674Y-184638674D01*
D28*
X84963000Y-186690000D02*
X91506000Y-186690000D01*
D29*
X82911674Y-184638674D02*
X84963000Y-186690000D01*
X77660500Y-184531000D02*
X77660500Y-184638674D01*
X77660500Y-184638674D02*
X77660500Y-184555848D01*
X77660500Y-184555848D02*
X77343000Y-184873348D01*
X77660500Y-180594000D02*
X77660500Y-184531000D01*
D28*
X77660500Y-160337500D02*
X77660500Y-180594000D01*
X79629000Y-149402800D02*
X79629000Y-151993600D01*
X79629000Y-151993600D02*
X79603600Y-152019000D01*
X79603600Y-152019000D02*
X80187800Y-152019000D01*
X81076800Y-152908000D02*
X82489000Y-152908000D01*
X80187800Y-152019000D02*
X81076800Y-152908000D01*
X58989000Y-154940000D02*
X60071000Y-154940000D01*
X60071000Y-154940000D02*
X60579000Y-154432000D01*
X60579000Y-154432000D02*
X60579000Y-152654000D01*
X91379000Y-186563000D02*
X91506000Y-186690000D01*
X79629000Y-150048000D02*
X79629000Y-150048000D01*
X58989000Y-154940000D02*
X58989000Y-155768000D01*
X58989000Y-164653000D02*
X58989000Y-166243000D01*
X56388000Y-162052000D02*
X58989000Y-164653000D01*
X56388000Y-157226000D02*
X56388000Y-162052000D01*
X57023000Y-156591000D02*
X56388000Y-157226000D01*
X58166000Y-156591000D02*
X57023000Y-156591000D01*
X58989000Y-155768000D02*
X58166000Y-156591000D01*
X80264000Y-114554000D02*
X80391000Y-114554000D01*
X83566000Y-139700000D02*
X81534000Y-141732000D01*
X83566000Y-117729000D02*
X83566000Y-139700000D01*
X80391000Y-114554000D02*
X83566000Y-117729000D01*
X81534000Y-141732000D02*
X79629000Y-143637000D01*
X79629000Y-143637000D02*
X79629000Y-149402800D01*
X79629000Y-149402800D02*
X79629000Y-150048000D01*
X80264000Y-117541000D02*
X80264000Y-114554000D01*
X80264000Y-114554000D02*
X80264000Y-109742200D01*
X80264000Y-109742200D02*
X80010000Y-109488200D01*
X82489000Y-152908000D02*
X82489000Y-155509000D01*
X82489000Y-155509000D02*
X81407000Y-156591000D01*
X77660500Y-160337500D02*
X81407000Y-156591000D01*
X59116000Y-155067000D02*
X58989000Y-154940000D01*
X75057000Y-186944000D02*
X75565000Y-186690000D01*
D29*
X75565000Y-186690000D02*
X77343000Y-184873348D01*
D28*
X82463600Y-152933400D02*
X82489000Y-152908000D01*
X80096400Y-117373400D02*
X80264000Y-117541000D01*
D29*
X73533000Y-189230000D02*
X73485393Y-189230000D01*
X73485393Y-189230000D02*
X72517000Y-188261607D01*
X78271000Y-189230000D02*
X80557000Y-186944000D01*
X73533000Y-189230000D02*
X78271000Y-189230000D01*
X80557000Y-186944000D02*
X80557000Y-187286000D01*
X72517000Y-180848000D02*
X72517000Y-188261607D01*
D28*
X77406500Y-139487500D02*
X77406500Y-150050500D01*
X77406500Y-150050500D02*
X74168000Y-153289000D01*
X74168000Y-153289000D02*
X74168000Y-156845000D01*
X76073000Y-158750000D02*
X76073000Y-177292000D01*
X74168000Y-156845000D02*
X76073000Y-158750000D01*
D29*
X76073000Y-177292000D02*
X72517000Y-180848000D01*
D28*
X77406500Y-139487500D02*
X77447000Y-139447000D01*
X77406500Y-139487500D02*
X77447000Y-139447000D01*
D29*
X69557000Y-186944000D02*
X69596000Y-186944000D01*
X69596000Y-186944000D02*
X72009000Y-183927750D01*
X72009000Y-183927750D02*
X72009000Y-176171000D01*
X71882000Y-176171000D02*
X72540000Y-175513000D01*
D28*
X87056000Y-172593000D02*
X90633000Y-172593000D01*
X90633000Y-172593000D02*
X90694000Y-172532000D01*
X82169000Y-170754000D02*
X82169000Y-170561000D01*
X82169000Y-170561000D02*
X83074000Y-169656000D01*
X83074000Y-169656000D02*
X85410000Y-169656000D01*
X69911000Y-121666000D02*
X72594000Y-121666000D01*
X72594000Y-121666000D02*
X72787000Y-121859000D01*
X72726000Y-121920000D02*
X72787000Y-121859000D01*
X55819000Y-182356000D02*
X55819000Y-185425000D01*
X55819000Y-185425000D02*
X55880000Y-185486000D01*
X55880000Y-182417000D02*
X55819000Y-182356000D01*
X55819000Y-182356000D02*
X55642000Y-182356000D01*
X57261000Y-152527000D02*
X57261000Y-152130000D01*
X56007000Y-150876000D02*
X56007000Y-133096000D01*
X57261000Y-152130000D02*
X56007000Y-150876000D01*
X94107000Y-130556000D02*
X90957400Y-130556000D01*
X81661000Y-130556000D02*
X81661000Y-135128000D01*
X80899000Y-135890000D02*
X75311000Y-135890000D01*
X81661000Y-135128000D02*
X80899000Y-135890000D01*
X75311000Y-135890000D02*
X75184000Y-135890000D01*
X72009000Y-154051000D02*
X67437000Y-158623000D01*
X72009000Y-139065000D02*
X72009000Y-154051000D01*
X75184000Y-135890000D02*
X72009000Y-139065000D01*
X67437000Y-167132000D02*
X67437000Y-168783000D01*
X67437000Y-158623000D02*
X67437000Y-167132000D01*
X61087000Y-168783000D02*
X58912000Y-168783000D01*
X58928000Y-168799000D02*
X58912000Y-168783000D01*
X89916000Y-128016000D02*
X89916000Y-126619000D01*
X91059000Y-125476000D02*
X93281500Y-125476000D01*
X89916000Y-126619000D02*
X91059000Y-125476000D01*
X89916000Y-132334000D02*
X89916000Y-134366000D01*
X90805000Y-135255000D02*
X92837000Y-135255000D01*
X89916000Y-134366000D02*
X90805000Y-135255000D01*
X94488000Y-168672000D02*
X94488000Y-164846000D01*
X95250000Y-137668000D02*
X95250000Y-164084000D01*
X95250000Y-137668000D02*
X92837000Y-135255000D01*
X94488000Y-164846000D02*
X95250000Y-164084000D01*
X94107000Y-125476000D02*
X93281500Y-125476000D01*
X89916000Y-128016000D02*
X89916000Y-132334000D01*
X88773000Y-127000000D02*
X88773000Y-124460000D01*
X90297000Y-122936000D02*
X94107000Y-122936000D01*
X88773000Y-124460000D02*
X90297000Y-122936000D01*
X92392500Y-136334500D02*
X89852500Y-136334500D01*
X88773000Y-135255000D02*
X88773000Y-132715000D01*
X89852500Y-136334500D02*
X88773000Y-135255000D01*
X92456000Y-160036000D02*
X92456000Y-159004000D01*
X88773000Y-132715000D02*
X88773000Y-127000000D01*
X94488000Y-138430000D02*
X92392500Y-136334500D01*
X94488000Y-156972000D02*
X94488000Y-138430000D01*
X92456000Y-159004000D02*
X94488000Y-156972000D01*
X80518000Y-124698000D02*
X77901000Y-124698000D01*
X77901000Y-124698000D02*
X77851000Y-124648000D01*
X81026000Y-127990600D02*
X81026000Y-125206000D01*
X94107000Y-128016000D02*
X90881200Y-128016000D01*
X81026000Y-125206000D02*
X80518000Y-124698000D01*
X77901000Y-124698000D02*
X77851000Y-124648000D01*
X94107000Y-133096000D02*
X90957400Y-133096000D01*
X80111600Y-132588000D02*
X78689200Y-132588000D01*
X80619600Y-133096000D02*
X80111600Y-132588000D01*
X78470000Y-129794000D02*
X78470000Y-129905000D01*
X78470000Y-129905000D02*
X79248000Y-130683000D01*
X79248000Y-130683000D02*
X79248000Y-132588000D01*
X77150000Y-132588000D02*
X78689200Y-132588000D01*
X78689200Y-132588000D02*
X79248000Y-132588000D01*
D29*
X75057000Y-191544000D02*
X74958000Y-191544000D01*
X74958000Y-191544000D02*
X72263000Y-189103000D01*
D28*
X56007000Y-122936000D02*
X59372500Y-122936000D01*
X60960000Y-124523500D02*
X60960000Y-127000000D01*
X59372500Y-122936000D02*
X60960000Y-124523500D01*
D29*
X72263000Y-189103000D02*
X67056000Y-189103000D01*
X67056000Y-189103000D02*
X65659000Y-187706000D01*
D28*
X65659000Y-187706000D02*
X65659000Y-183769000D01*
X65659000Y-177546000D02*
X65659000Y-134239000D01*
X65659000Y-134239000D02*
X60960000Y-129540000D01*
X60960000Y-129540000D02*
X60960000Y-127000000D01*
X56007000Y-130556000D02*
X59309000Y-130556000D01*
X59309000Y-130556000D02*
X64008000Y-135255000D01*
X69557000Y-182344000D02*
X67917000Y-182217000D01*
X64008000Y-178689000D02*
X64008000Y-135255000D01*
X67917000Y-182217000D02*
X64008000Y-178689000D01*
X88773000Y-143322000D02*
X88773000Y-142811500D01*
X88773000Y-142811500D02*
X85344000Y-139382500D01*
X88773000Y-143322000D02*
X88331000Y-143322000D01*
X85344000Y-139382500D02*
X85344000Y-123317000D01*
X88265000Y-120396000D02*
X94107000Y-120396000D01*
X85344000Y-123317000D02*
X88265000Y-120396000D01*
X92456000Y-164785000D02*
X92456000Y-162036000D01*
X85233000Y-160655000D02*
X83947000Y-160655000D01*
X83947000Y-160655000D02*
X83058000Y-161544000D01*
X83058000Y-163638000D02*
X83058000Y-161544000D01*
X84963000Y-160925000D02*
X85233000Y-160655000D01*
X80899000Y-163638000D02*
X83058000Y-163638000D01*
X86868000Y-148034500D02*
X84309500Y-148034500D01*
X84309500Y-148034500D02*
X84264500Y-148079500D01*
X84173100Y-148170900D02*
X84264500Y-148079500D01*
X64008000Y-124603000D02*
X64008000Y-120929400D01*
X64897000Y-117551200D02*
X73290200Y-117551200D01*
X64008000Y-118440200D02*
X64897000Y-117551200D01*
X73290200Y-117551200D02*
X73341000Y-117602000D01*
X73341000Y-117602000D02*
X73341000Y-119634000D01*
X64033400Y-124587000D02*
X63931800Y-124688600D01*
X67691000Y-126807000D02*
X72329000Y-126807000D01*
X72787000Y-126349000D02*
X72787000Y-123759000D01*
X72329000Y-126807000D02*
X72787000Y-126349000D01*
X84264500Y-146179500D02*
X81534000Y-146177000D01*
X67630000Y-144084000D02*
X67630000Y-132842000D01*
X69723000Y-146177000D02*
X67630000Y-144084000D01*
X67691000Y-126807000D02*
X64212000Y-126807000D01*
X64212000Y-126807000D02*
X64008000Y-126603000D01*
X67580000Y-129921000D02*
X67580000Y-126918000D01*
X67580000Y-126918000D02*
X67691000Y-126807000D01*
X67630000Y-132842000D02*
X67630000Y-129971000D01*
X67630000Y-129971000D02*
X67580000Y-129921000D01*
X84264500Y-146179500D02*
X84264500Y-146113500D01*
X67564000Y-126934000D02*
X67691000Y-126807000D01*
X67580000Y-132792000D02*
X67630000Y-132842000D01*
X67554600Y-132953000D02*
X67589400Y-132918200D01*
X69580000Y-129921000D02*
X76343000Y-129921000D01*
X76343000Y-129921000D02*
X76470000Y-129794000D01*
X77851000Y-122748000D02*
X74848000Y-122748000D01*
X74848000Y-122748000D02*
X74787000Y-122809000D01*
X69707000Y-129794000D02*
X69580000Y-129921000D01*
X76470000Y-129794000D02*
X76470000Y-126000000D01*
X74787000Y-124317000D02*
X74787000Y-122809000D01*
X76470000Y-126000000D02*
X74787000Y-124317000D01*
X74741000Y-119634000D02*
X74741000Y-117602000D01*
X74741000Y-119634000D02*
X74741000Y-122763000D01*
X74741000Y-122763000D02*
X74787000Y-122809000D01*
X69580000Y-129921000D02*
X69580000Y-132792000D01*
X69580000Y-132792000D02*
X69530000Y-132842000D01*
X77851000Y-122748000D02*
X77851000Y-121854000D01*
X77851000Y-121854000D02*
X80264000Y-119441000D01*
X80182000Y-119523000D02*
X80264000Y-119441000D01*
X80518000Y-119695000D02*
X80264000Y-119441000D01*
X74741000Y-122763000D02*
X74787000Y-122809000D01*
X69580000Y-132792000D02*
X69530000Y-132842000D01*
X80264000Y-119441000D02*
X80264000Y-119761000D01*
X69554600Y-132978400D02*
X69494400Y-132918200D01*
X57089000Y-154940000D02*
X55118000Y-154940000D01*
X55118000Y-164338000D02*
X55118000Y-164465000D01*
X55118000Y-155255000D02*
X55118000Y-155321000D01*
X56769000Y-180356000D02*
X56769000Y-180340000D01*
X56769000Y-180340000D02*
X55118000Y-178689000D01*
X55118000Y-178689000D02*
X55118000Y-164465000D01*
X55118000Y-164465000D02*
X55118000Y-163195000D01*
X55118000Y-163195000D02*
X55118000Y-155321000D01*
X55118000Y-155321000D02*
X55118000Y-154940000D01*
X55118000Y-154940000D02*
X55118000Y-154178000D01*
X55118000Y-154178000D02*
X55118000Y-152400000D01*
X80010000Y-108088200D02*
X74464200Y-108088200D01*
X74464200Y-108088200D02*
X74422000Y-108046000D01*
X121663500Y-172847000D02*
X122999500Y-172847000D01*
X123190000Y-173037500D02*
X123190000Y-175196500D01*
X122999500Y-172847000D02*
X123190000Y-173037500D01*
X85217000Y-182057000D02*
X80844000Y-182057000D01*
X80844000Y-182057000D02*
X80557000Y-182344000D01*
X85184000Y-182090000D02*
X85217000Y-182057000D01*
X81760000Y-182344000D02*
X80557000Y-182344000D01*
X80557000Y-191544000D02*
X80557000Y-193255000D01*
X80557000Y-193255000D02*
X79883000Y-194056000D01*
X79883000Y-194056000D02*
X70739000Y-194056000D01*
X70739000Y-194056000D02*
X69938000Y-193255000D01*
X69938000Y-193255000D02*
X69557000Y-191544000D01*
X142494000Y-189484000D02*
X140144500Y-189484000D01*
X140144500Y-189484000D02*
X137541000Y-192087500D01*
X137541000Y-192087500D02*
X125857000Y-192087500D01*
X142494000Y-186944000D02*
X139763500Y-186944000D01*
X139763500Y-186944000D02*
X136906000Y-189801500D01*
X123357000Y-192087500D02*
X123357000Y-191158500D01*
X124714000Y-189801500D02*
X136906000Y-189801500D01*
X123357000Y-191158500D02*
X124714000Y-189801500D01*
X142494000Y-184404000D02*
X139382500Y-184404000D01*
X139382500Y-184404000D02*
X135636000Y-188150500D01*
X120857000Y-190229500D02*
X120857000Y-192087500D01*
X135636000Y-188150500D02*
X122936000Y-188150500D01*
X122936000Y-188150500D02*
X120857000Y-190229500D01*
X142494000Y-181864000D02*
X138112500Y-181864000D01*
X138112500Y-181864000D02*
X136652000Y-183324500D01*
X136652000Y-183324500D02*
X136652000Y-182689500D01*
X142494000Y-179324000D02*
X136207500Y-179324000D01*
X136207500Y-179324000D02*
X134152000Y-181379500D01*
X134152000Y-181379500D02*
X134152000Y-183324500D01*
X131652000Y-183324500D02*
X131652000Y-180577500D01*
X142494000Y-175069500D02*
X142494000Y-176784000D01*
X140589000Y-173164500D02*
X142494000Y-175069500D01*
X136271000Y-173164500D02*
X140589000Y-173164500D01*
X134112000Y-175323500D02*
X136271000Y-173164500D01*
X134112000Y-178117500D02*
X134112000Y-175323500D01*
X131652000Y-180577500D02*
X134112000Y-178117500D01*
X104267000Y-189484000D02*
X112331500Y-189484000D01*
X112331500Y-189484000D02*
X115062000Y-186753500D01*
X115062000Y-186753500D02*
X115062000Y-183578500D01*
X104267000Y-186944000D02*
X110490000Y-186944000D01*
X112562000Y-184872000D02*
X112562000Y-183578500D01*
X110490000Y-186944000D02*
X112562000Y-184872000D01*
X112562000Y-183578500D02*
X112562000Y-184300500D01*
X104267000Y-184404000D02*
X109236500Y-184404000D01*
X109236500Y-184404000D02*
X110062000Y-183578500D01*
X119763500Y-172847000D02*
X106108500Y-172847000D01*
X106108500Y-172847000D02*
X104267000Y-174688500D01*
X104267000Y-176784000D02*
X104267000Y-174688500D01*
M02*
