G04 #@! TF.FileFunction,Legend,Bot*
%FSLAX46Y46*%
G04 Gerber Fmt 4.6, Leading zero omitted, Abs format (unit mm)*
G04 Created by KiCad (PCBNEW 4.0.7) date 03/22/18 23:55:52*
%MOMM*%
%LPD*%
G01*
G04 APERTURE LIST*
%ADD10C,0.100000*%
%ADD11C,0.050000*%
%ADD12C,0.300000*%
%ADD13C,2.200000*%
%ADD14C,3.400000*%
%ADD15O,5.400000X4.400000*%
%ADD16O,4.400000X3.900000*%
%ADD17R,2.100000X2.100000*%
%ADD18O,2.100000X2.100000*%
%ADD19R,2.200000X2.200000*%
%ADD20R,2.000000X2.000000*%
%ADD21O,2.000000X2.000000*%
%ADD22R,3.900000X3.900000*%
G04 APERTURE END LIST*
D10*
D11*
X46725666Y-124014667D02*
X46959000Y-123681333D01*
X47125666Y-124014667D02*
X47125666Y-123314667D01*
X46859000Y-123314667D01*
X46792333Y-123348000D01*
X46759000Y-123381333D01*
X46725666Y-123448000D01*
X46725666Y-123548000D01*
X46759000Y-123614667D01*
X46792333Y-123648000D01*
X46859000Y-123681333D01*
X47125666Y-123681333D01*
X46059000Y-124014667D02*
X46459000Y-124014667D01*
X46259000Y-124014667D02*
X46259000Y-123314667D01*
X46325666Y-123414667D01*
X46392333Y-123481333D01*
X46459000Y-123514667D01*
D12*
X117239334Y-171445905D02*
X116882191Y-171564952D01*
X116286953Y-171564952D01*
X116048857Y-171445905D01*
X115929810Y-171326857D01*
X115810762Y-171088762D01*
X115810762Y-170850667D01*
X115929810Y-170612571D01*
X116048857Y-170493524D01*
X116286953Y-170374476D01*
X116763143Y-170255429D01*
X117001238Y-170136381D01*
X117120286Y-170017333D01*
X117239334Y-169779238D01*
X117239334Y-169541143D01*
X117120286Y-169303048D01*
X117001238Y-169184000D01*
X116763143Y-169064952D01*
X116167905Y-169064952D01*
X115810762Y-169184000D01*
X113667905Y-169898286D02*
X113667905Y-171564952D01*
X114739334Y-169898286D02*
X114739334Y-171207810D01*
X114620286Y-171445905D01*
X114382191Y-171564952D01*
X114025048Y-171564952D01*
X113786953Y-171445905D01*
X113667905Y-171326857D01*
X112477429Y-169898286D02*
X112477429Y-172398286D01*
X112477429Y-170017333D02*
X112239334Y-169898286D01*
X111763143Y-169898286D01*
X111525048Y-170017333D01*
X111406000Y-170136381D01*
X111286953Y-170374476D01*
X111286953Y-171088762D01*
X111406000Y-171326857D01*
X111525048Y-171445905D01*
X111763143Y-171564952D01*
X112239334Y-171564952D01*
X112477429Y-171445905D01*
X109263143Y-171445905D02*
X109501238Y-171564952D01*
X109977429Y-171564952D01*
X110215524Y-171445905D01*
X110334572Y-171207810D01*
X110334572Y-170255429D01*
X110215524Y-170017333D01*
X109977429Y-169898286D01*
X109501238Y-169898286D01*
X109263143Y-170017333D01*
X109144095Y-170255429D01*
X109144095Y-170493524D01*
X110334572Y-170731619D01*
X108072667Y-171564952D02*
X108072667Y-169898286D01*
X108072667Y-170374476D02*
X107953619Y-170136381D01*
X107834572Y-170017333D01*
X107596476Y-169898286D01*
X107358381Y-169898286D01*
X105096476Y-171326857D02*
X105215524Y-171445905D01*
X105572667Y-171564952D01*
X105810762Y-171564952D01*
X106167905Y-171445905D01*
X106406000Y-171207810D01*
X106525048Y-170969714D01*
X106644096Y-170493524D01*
X106644096Y-170136381D01*
X106525048Y-169660190D01*
X106406000Y-169422095D01*
X106167905Y-169184000D01*
X105810762Y-169064952D01*
X105572667Y-169064952D01*
X105215524Y-169184000D01*
X105096476Y-169303048D01*
X103667905Y-171564952D02*
X103906000Y-171445905D01*
X104025048Y-171326857D01*
X104144096Y-171088762D01*
X104144096Y-170374476D01*
X104025048Y-170136381D01*
X103906000Y-170017333D01*
X103667905Y-169898286D01*
X103310762Y-169898286D01*
X103072667Y-170017333D01*
X102953619Y-170136381D01*
X102834572Y-170374476D01*
X102834572Y-171088762D01*
X102953619Y-171326857D01*
X103072667Y-171445905D01*
X103310762Y-171564952D01*
X103667905Y-171564952D01*
X101406000Y-171564952D02*
X101644095Y-171445905D01*
X101763143Y-171207810D01*
X101763143Y-169064952D01*
X100096476Y-171564952D02*
X100334571Y-171445905D01*
X100453619Y-171207810D01*
X100453619Y-169064952D01*
X99144095Y-171564952D02*
X99144095Y-169898286D01*
X99144095Y-169064952D02*
X99263143Y-169184000D01*
X99144095Y-169303048D01*
X99025047Y-169184000D01*
X99144095Y-169064952D01*
X99144095Y-169303048D01*
X96882190Y-171564952D02*
X96882190Y-169064952D01*
X96882190Y-171445905D02*
X97120286Y-171564952D01*
X97596476Y-171564952D01*
X97834571Y-171445905D01*
X97953619Y-171326857D01*
X98072667Y-171088762D01*
X98072667Y-170374476D01*
X97953619Y-170136381D01*
X97834571Y-170017333D01*
X97596476Y-169898286D01*
X97120286Y-169898286D01*
X96882190Y-170017333D01*
X94739333Y-171445905D02*
X94977428Y-171564952D01*
X95453619Y-171564952D01*
X95691714Y-171445905D01*
X95810762Y-171207810D01*
X95810762Y-170255429D01*
X95691714Y-170017333D01*
X95453619Y-169898286D01*
X94977428Y-169898286D01*
X94739333Y-170017333D01*
X94620285Y-170255429D01*
X94620285Y-170493524D01*
X95810762Y-170731619D01*
X93548857Y-171564952D02*
X93548857Y-169898286D01*
X93548857Y-170374476D02*
X93429809Y-170136381D01*
X93310762Y-170017333D01*
X93072666Y-169898286D01*
X92834571Y-169898286D01*
D11*
X91302666Y-169480667D02*
X91536000Y-169147333D01*
X91702666Y-169480667D02*
X91702666Y-168780667D01*
X91436000Y-168780667D01*
X91369333Y-168814000D01*
X91336000Y-168847333D01*
X91302666Y-168914000D01*
X91302666Y-169014000D01*
X91336000Y-169080667D01*
X91369333Y-169114000D01*
X91436000Y-169147333D01*
X91702666Y-169147333D01*
X90636000Y-169480667D02*
X91036000Y-169480667D01*
X90836000Y-169480667D02*
X90836000Y-168780667D01*
X90902666Y-168880667D01*
X90969333Y-168947333D01*
X91036000Y-168980667D01*
D12*
X72281334Y-125852905D02*
X71924191Y-125971952D01*
X71328953Y-125971952D01*
X71090857Y-125852905D01*
X70971810Y-125733857D01*
X70852762Y-125495762D01*
X70852762Y-125257667D01*
X70971810Y-125019571D01*
X71090857Y-124900524D01*
X71328953Y-124781476D01*
X71805143Y-124662429D01*
X72043238Y-124543381D01*
X72162286Y-124424333D01*
X72281334Y-124186238D01*
X72281334Y-123948143D01*
X72162286Y-123710048D01*
X72043238Y-123591000D01*
X71805143Y-123471952D01*
X71209905Y-123471952D01*
X70852762Y-123591000D01*
X68709905Y-124305286D02*
X68709905Y-125971952D01*
X69781334Y-124305286D02*
X69781334Y-125614810D01*
X69662286Y-125852905D01*
X69424191Y-125971952D01*
X69067048Y-125971952D01*
X68828953Y-125852905D01*
X68709905Y-125733857D01*
X67519429Y-124305286D02*
X67519429Y-126805286D01*
X67519429Y-124424333D02*
X67281334Y-124305286D01*
X66805143Y-124305286D01*
X66567048Y-124424333D01*
X66448000Y-124543381D01*
X66328953Y-124781476D01*
X66328953Y-125495762D01*
X66448000Y-125733857D01*
X66567048Y-125852905D01*
X66805143Y-125971952D01*
X67281334Y-125971952D01*
X67519429Y-125852905D01*
X64305143Y-125852905D02*
X64543238Y-125971952D01*
X65019429Y-125971952D01*
X65257524Y-125852905D01*
X65376572Y-125614810D01*
X65376572Y-124662429D01*
X65257524Y-124424333D01*
X65019429Y-124305286D01*
X64543238Y-124305286D01*
X64305143Y-124424333D01*
X64186095Y-124662429D01*
X64186095Y-124900524D01*
X65376572Y-125138619D01*
X63114667Y-125971952D02*
X63114667Y-124305286D01*
X63114667Y-124781476D02*
X62995619Y-124543381D01*
X62876572Y-124424333D01*
X62638476Y-124305286D01*
X62400381Y-124305286D01*
X60138476Y-125733857D02*
X60257524Y-125852905D01*
X60614667Y-125971952D01*
X60852762Y-125971952D01*
X61209905Y-125852905D01*
X61448000Y-125614810D01*
X61567048Y-125376714D01*
X61686096Y-124900524D01*
X61686096Y-124543381D01*
X61567048Y-124067190D01*
X61448000Y-123829095D01*
X61209905Y-123591000D01*
X60852762Y-123471952D01*
X60614667Y-123471952D01*
X60257524Y-123591000D01*
X60138476Y-123710048D01*
X58709905Y-125971952D02*
X58948000Y-125852905D01*
X59067048Y-125733857D01*
X59186096Y-125495762D01*
X59186096Y-124781476D01*
X59067048Y-124543381D01*
X58948000Y-124424333D01*
X58709905Y-124305286D01*
X58352762Y-124305286D01*
X58114667Y-124424333D01*
X57995619Y-124543381D01*
X57876572Y-124781476D01*
X57876572Y-125495762D01*
X57995619Y-125733857D01*
X58114667Y-125852905D01*
X58352762Y-125971952D01*
X58709905Y-125971952D01*
X56448000Y-125971952D02*
X56686095Y-125852905D01*
X56805143Y-125614810D01*
X56805143Y-123471952D01*
X55138476Y-125971952D02*
X55376571Y-125852905D01*
X55495619Y-125614810D01*
X55495619Y-123471952D01*
X54186095Y-125971952D02*
X54186095Y-124305286D01*
X54186095Y-123471952D02*
X54305143Y-123591000D01*
X54186095Y-123710048D01*
X54067047Y-123591000D01*
X54186095Y-123471952D01*
X54186095Y-123710048D01*
X51924190Y-125971952D02*
X51924190Y-123471952D01*
X51924190Y-125852905D02*
X52162286Y-125971952D01*
X52638476Y-125971952D01*
X52876571Y-125852905D01*
X52995619Y-125733857D01*
X53114667Y-125495762D01*
X53114667Y-124781476D01*
X52995619Y-124543381D01*
X52876571Y-124424333D01*
X52638476Y-124305286D01*
X52162286Y-124305286D01*
X51924190Y-124424333D01*
X49781333Y-125852905D02*
X50019428Y-125971952D01*
X50495619Y-125971952D01*
X50733714Y-125852905D01*
X50852762Y-125614810D01*
X50852762Y-124662429D01*
X50733714Y-124424333D01*
X50495619Y-124305286D01*
X50019428Y-124305286D01*
X49781333Y-124424333D01*
X49662285Y-124662429D01*
X49662285Y-124900524D01*
X50852762Y-125138619D01*
X48590857Y-125971952D02*
X48590857Y-124305286D01*
X48590857Y-124781476D02*
X48471809Y-124543381D01*
X48352762Y-124424333D01*
X48114666Y-124305286D01*
X47876571Y-124305286D01*
%LPC*%
D13*
X45546000Y-159639000D03*
X48046000Y-159639000D03*
X50546000Y-159639000D03*
D14*
X43646000Y-152639000D03*
X52446000Y-152639000D03*
D15*
X108689000Y-163702000D03*
X108689000Y-147702000D03*
X121689000Y-147702000D03*
X121666000Y-163702000D03*
D16*
X110021000Y-193322000D03*
X104521000Y-193322000D03*
X99021000Y-193322000D03*
X110021000Y-188722000D03*
X104521000Y-188722000D03*
X99021000Y-188722000D03*
X110021000Y-184122000D03*
X104521000Y-184122000D03*
X99021000Y-184122000D03*
D13*
X69295000Y-143764000D03*
X71795000Y-143764000D03*
X74295000Y-143764000D03*
D14*
X67395000Y-136764000D03*
X76195000Y-136764000D03*
D13*
X69295000Y-128270000D03*
X71795000Y-128270000D03*
X74295000Y-128270000D03*
D14*
X67395000Y-121270000D03*
X76195000Y-121270000D03*
D17*
X40640000Y-137795000D03*
D18*
X40640000Y-135255000D03*
X40640000Y-132715000D03*
X40640000Y-130175000D03*
X40640000Y-127635000D03*
X40640000Y-125095000D03*
X40640000Y-122555000D03*
X40640000Y-120015000D03*
D17*
X123952000Y-137922000D03*
D18*
X123952000Y-135382000D03*
X123952000Y-132842000D03*
X123952000Y-130302000D03*
X123952000Y-127762000D03*
X123952000Y-125222000D03*
X123952000Y-122682000D03*
X123952000Y-120142000D03*
D17*
X85471000Y-137922000D03*
D18*
X85471000Y-135382000D03*
X85471000Y-132842000D03*
X85471000Y-130302000D03*
X85471000Y-127762000D03*
X85471000Y-125222000D03*
X85471000Y-122682000D03*
X85471000Y-120142000D03*
D15*
X100607000Y-162688000D03*
X100607000Y-178688000D03*
X87607000Y-178688000D03*
X87630000Y-162688000D03*
D19*
X59309000Y-142367000D03*
D13*
X61849000Y-142367000D03*
X45546000Y-143764000D03*
X48046000Y-143764000D03*
X50546000Y-143764000D03*
D14*
X43646000Y-136764000D03*
X52446000Y-136764000D03*
D17*
X79248000Y-137795000D03*
D18*
X79248000Y-135255000D03*
X79248000Y-132715000D03*
X79248000Y-130175000D03*
X79248000Y-127635000D03*
X79248000Y-125095000D03*
X79248000Y-122555000D03*
X79248000Y-120015000D03*
D13*
X45546000Y-128270000D03*
X48046000Y-128270000D03*
X50546000Y-128270000D03*
D14*
X43646000Y-121270000D03*
X52446000Y-121270000D03*
D17*
X109220000Y-173482000D03*
D18*
X109220000Y-176022000D03*
D17*
X100838000Y-129794000D03*
D18*
X100838000Y-132334000D03*
D17*
X94488000Y-137795000D03*
D18*
X94488000Y-140335000D03*
D17*
X114935000Y-120904000D03*
D18*
X114935000Y-123444000D03*
D20*
X108331000Y-143510000D03*
D21*
X115951000Y-143510000D03*
D20*
X115824000Y-137414000D03*
D21*
X108204000Y-137414000D03*
D20*
X93218000Y-157607000D03*
D21*
X100838000Y-157607000D03*
D20*
X100838000Y-154686000D03*
D21*
X93218000Y-154686000D03*
D22*
X101219000Y-114046000D03*
X101219000Y-108046000D03*
X96519000Y-111046000D03*
M02*
