G04 #@! TF.FileFunction,Legend,Top*
%FSLAX46Y46*%
G04 Gerber Fmt 4.6, Leading zero omitted, Abs format (unit mm)*
G04 Created by KiCad (PCBNEW 4.0.6) date Tuesday, 13 February 2018 'PMt' 23:33:10*
%MOMM*%
%LPD*%
G01*
G04 APERTURE LIST*
%ADD10C,0.100000*%
%ADD11C,0.150000*%
%ADD12C,0.120000*%
%ADD13C,0.050000*%
%ADD14C,2.200000*%
%ADD15C,3.400000*%
%ADD16O,5.400000X4.400000*%
%ADD17O,4.400000X3.900000*%
%ADD18R,2.100000X2.100000*%
%ADD19O,2.100000X2.100000*%
%ADD20R,1.900000X1.650000*%
%ADD21R,1.650000X1.900000*%
%ADD22R,1.600000X1.300000*%
%ADD23R,2.200000X2.200000*%
%ADD24R,1.200000X1.300000*%
%ADD25R,1.300000X1.200000*%
%ADD26R,1.900000X1.700000*%
%ADD27R,1.700000X1.900000*%
%ADD28R,2.000000X2.000000*%
%ADD29O,2.000000X2.000000*%
%ADD30R,3.900000X3.900000*%
G04 APERTURE END LIST*
D10*
D11*
X80772000Y-105791000D02*
X38862000Y-105791000D01*
X80772000Y-136271000D02*
X80772000Y-105791000D01*
X56896000Y-136271000D02*
X56896000Y-151511000D01*
X56896000Y-136271000D02*
X80772000Y-136271000D01*
X38862000Y-151511000D02*
X38862000Y-105791000D01*
X56896000Y-151511000D02*
X38862000Y-151511000D01*
X125603000Y-190881000D02*
X125603000Y-112903000D01*
X90678000Y-197866000D02*
X118618000Y-197866000D01*
X90678000Y-190881000D02*
X83693000Y-190881000D01*
X83693000Y-112903000D02*
X83693000Y-190881000D01*
X118618000Y-105918000D02*
X90678000Y-105918000D01*
X90678000Y-112903000D02*
X83693000Y-112903000D01*
X90678000Y-105918000D02*
X90678000Y-112903000D01*
X118618000Y-112903000D02*
X125603000Y-112903000D01*
X118618000Y-105918000D02*
X118618000Y-112903000D01*
X118618000Y-190881000D02*
X118618000Y-197866000D01*
X125603000Y-190881000D02*
X118618000Y-190881000D01*
X90678000Y-190881000D02*
X90678000Y-197866000D01*
D12*
X45156568Y-141569018D02*
G75*
G02X50681000Y-141568000I2762432J-1171982D01*
G01*
X50216753Y-144669295D02*
G75*
G02X45621000Y-144669000I-2297753J1928295D01*
G01*
X43009000Y-149301000D02*
X43009000Y-145435000D01*
X43009000Y-141046000D02*
X43009000Y-137181000D01*
X52829000Y-149301000D02*
X52829000Y-145435000D01*
X52829000Y-141046000D02*
X52829000Y-137181000D01*
X43009000Y-149301000D02*
X44594000Y-149301000D01*
X46244000Y-149301000D02*
X47094000Y-149301000D01*
X48744000Y-149301000D02*
X49594000Y-149301000D01*
X51244000Y-149301000D02*
X52829000Y-149301000D01*
X43009000Y-137181000D02*
X52829000Y-137181000D01*
D11*
X102235000Y-155702000D02*
X102235000Y-159131000D01*
X102235000Y-159131000D02*
X104775000Y-159131000D01*
X102235000Y-155702000D02*
X102235000Y-152273000D01*
X102235000Y-152273000D02*
X104775000Y-152273000D01*
X125603000Y-165862000D02*
X125603000Y-145542000D01*
X104775000Y-165862000D02*
X104775000Y-145542000D01*
X127127000Y-163195000D02*
X136017000Y-163195000D01*
X136017000Y-163195000D02*
X136017000Y-148209000D01*
X136017000Y-148209000D02*
X127127000Y-148209000D01*
X103124000Y-146685000D02*
X127000000Y-146685000D01*
X103378000Y-164719000D02*
X127254000Y-164719000D01*
X113411000Y-197231000D02*
X96901000Y-197231000D01*
X96901000Y-197231000D02*
X95631000Y-197231000D01*
X95504000Y-197612000D02*
X95504000Y-179832000D01*
X95631000Y-180213000D02*
X113411000Y-180213000D01*
X113538000Y-179832000D02*
X113538000Y-197612000D01*
D12*
X68905568Y-125694018D02*
G75*
G02X74430000Y-125693000I2762432J-1171982D01*
G01*
X73965753Y-128794295D02*
G75*
G02X69370000Y-128794000I-2297753J1928295D01*
G01*
X66758000Y-133426000D02*
X66758000Y-129560000D01*
X66758000Y-125171000D02*
X66758000Y-121306000D01*
X76578000Y-133426000D02*
X76578000Y-129560000D01*
X76578000Y-125171000D02*
X76578000Y-121306000D01*
X66758000Y-133426000D02*
X68343000Y-133426000D01*
X69993000Y-133426000D02*
X70843000Y-133426000D01*
X72493000Y-133426000D02*
X73343000Y-133426000D01*
X74993000Y-133426000D02*
X76578000Y-133426000D01*
X66758000Y-121306000D02*
X76578000Y-121306000D01*
X68905568Y-110200018D02*
G75*
G02X74430000Y-110199000I2762432J-1171982D01*
G01*
X73965753Y-113300295D02*
G75*
G02X69370000Y-113300000I-2297753J1928295D01*
G01*
X66758000Y-117932000D02*
X66758000Y-114066000D01*
X66758000Y-109677000D02*
X66758000Y-105812000D01*
X76578000Y-117932000D02*
X76578000Y-114066000D01*
X76578000Y-109677000D02*
X76578000Y-105812000D01*
X66758000Y-117932000D02*
X68343000Y-117932000D01*
X69993000Y-117932000D02*
X70843000Y-117932000D01*
X72493000Y-117932000D02*
X73343000Y-117932000D01*
X74993000Y-117932000D02*
X76578000Y-117932000D01*
X66758000Y-105812000D02*
X76578000Y-105812000D01*
X41843000Y-109287000D02*
X39183000Y-109287000D01*
X41843000Y-127127000D02*
X41843000Y-109287000D01*
X39183000Y-127127000D02*
X39183000Y-109287000D01*
X41843000Y-127127000D02*
X39183000Y-127127000D01*
X41843000Y-128397000D02*
X41843000Y-129727000D01*
X41843000Y-129727000D02*
X40513000Y-129727000D01*
X125282000Y-118812000D02*
X122622000Y-118812000D01*
X125282000Y-136652000D02*
X125282000Y-118812000D01*
X122622000Y-136652000D02*
X122622000Y-118812000D01*
X125282000Y-136652000D02*
X122622000Y-136652000D01*
X125282000Y-137922000D02*
X125282000Y-139252000D01*
X125282000Y-139252000D02*
X123952000Y-139252000D01*
X86801000Y-118812000D02*
X84141000Y-118812000D01*
X86801000Y-136652000D02*
X86801000Y-118812000D01*
X84141000Y-136652000D02*
X84141000Y-118812000D01*
X86801000Y-136652000D02*
X84141000Y-136652000D01*
X86801000Y-137922000D02*
X86801000Y-139252000D01*
X86801000Y-139252000D02*
X85471000Y-139252000D01*
D11*
X107061000Y-170688000D02*
X107061000Y-167259000D01*
X107061000Y-167259000D02*
X104521000Y-167259000D01*
X107061000Y-170688000D02*
X107061000Y-174117000D01*
X107061000Y-174117000D02*
X104521000Y-174117000D01*
X83693000Y-160528000D02*
X83693000Y-180848000D01*
X104521000Y-160528000D02*
X104521000Y-180848000D01*
X82169000Y-163195000D02*
X73279000Y-163195000D01*
X73279000Y-163195000D02*
X73279000Y-178181000D01*
X73279000Y-178181000D02*
X82169000Y-178181000D01*
X106172000Y-179705000D02*
X82296000Y-179705000D01*
X105918000Y-161671000D02*
X82042000Y-161671000D01*
D12*
X116467000Y-184873000D02*
X117467000Y-184873000D01*
X117467000Y-183173000D02*
X116467000Y-183173000D01*
X122309000Y-184873000D02*
X123309000Y-184873000D01*
X123309000Y-183173000D02*
X122309000Y-183173000D01*
X118579000Y-172458000D02*
X118579000Y-171458000D01*
X116879000Y-171458000D02*
X116879000Y-172458000D01*
X121500000Y-172458000D02*
X121500000Y-171458000D01*
X119800000Y-171458000D02*
X119800000Y-172458000D01*
X118356000Y-128690000D02*
X117356000Y-128690000D01*
X117356000Y-130390000D02*
X118356000Y-130390000D01*
X117356000Y-135724000D02*
X118356000Y-135724000D01*
X118356000Y-134024000D02*
X117356000Y-134024000D01*
X109355000Y-133057000D02*
X110355000Y-133057000D01*
X110355000Y-131357000D02*
X109355000Y-131357000D01*
X98640000Y-136771000D02*
X98640000Y-135771000D01*
X96940000Y-135771000D02*
X96940000Y-136771000D01*
X99068000Y-152742000D02*
X100068000Y-152742000D01*
X100068000Y-151042000D02*
X99068000Y-151042000D01*
X94988000Y-151042000D02*
X93988000Y-151042000D01*
X93988000Y-152742000D02*
X94988000Y-152742000D01*
X110355000Y-109894000D02*
X109355000Y-109894000D01*
X109355000Y-111594000D02*
X110355000Y-111594000D01*
X109355000Y-116674000D02*
X110355000Y-116674000D01*
X110355000Y-114974000D02*
X109355000Y-114974000D01*
X120738000Y-125468000D02*
X120738000Y-124468000D01*
X119038000Y-124468000D02*
X119038000Y-125468000D01*
X105752000Y-123690000D02*
X105752000Y-122690000D01*
X104052000Y-122690000D02*
X104052000Y-123690000D01*
X92091000Y-126329000D02*
X94091000Y-126329000D01*
X94091000Y-126329000D02*
X94091000Y-122429000D01*
X92091000Y-126329000D02*
X92091000Y-122429000D01*
X63442000Y-132969462D02*
G75*
G03X57892000Y-131424170I-2990000J462D01*
G01*
X63442000Y-132968538D02*
G75*
G02X57892000Y-134513830I-2990000J-462D01*
G01*
X62952000Y-132969000D02*
G75*
G03X62952000Y-132969000I-2500000J0D01*
G01*
X57892000Y-131424000D02*
X57892000Y-134514000D01*
X45156568Y-125694018D02*
G75*
G02X50681000Y-125693000I2762432J-1171982D01*
G01*
X50216753Y-128794295D02*
G75*
G02X45621000Y-128794000I-2297753J1928295D01*
G01*
X43009000Y-133426000D02*
X43009000Y-129560000D01*
X43009000Y-125171000D02*
X43009000Y-121306000D01*
X52829000Y-133426000D02*
X52829000Y-129560000D01*
X52829000Y-125171000D02*
X52829000Y-121306000D01*
X43009000Y-133426000D02*
X44594000Y-133426000D01*
X46244000Y-133426000D02*
X47094000Y-133426000D01*
X48744000Y-133426000D02*
X49594000Y-133426000D01*
X51244000Y-133426000D02*
X52829000Y-133426000D01*
X43009000Y-121306000D02*
X52829000Y-121306000D01*
X80451000Y-109287000D02*
X77791000Y-109287000D01*
X80451000Y-127127000D02*
X80451000Y-109287000D01*
X77791000Y-127127000D02*
X77791000Y-109287000D01*
X80451000Y-127127000D02*
X77791000Y-127127000D01*
X80451000Y-128397000D02*
X80451000Y-129727000D01*
X80451000Y-129727000D02*
X79121000Y-129727000D01*
X45156568Y-110200018D02*
G75*
G02X50681000Y-110199000I2762432J-1171982D01*
G01*
X50216753Y-113300295D02*
G75*
G02X45621000Y-113300000I-2297753J1928295D01*
G01*
X43009000Y-117932000D02*
X43009000Y-114066000D01*
X43009000Y-109677000D02*
X43009000Y-105812000D01*
X52829000Y-117932000D02*
X52829000Y-114066000D01*
X52829000Y-109677000D02*
X52829000Y-105812000D01*
X43009000Y-117932000D02*
X44594000Y-117932000D01*
X46244000Y-117932000D02*
X47094000Y-117932000D01*
X48744000Y-117932000D02*
X49594000Y-117932000D01*
X51244000Y-117932000D02*
X52829000Y-117932000D01*
X43009000Y-105812000D02*
X52829000Y-105812000D01*
X114625000Y-177798000D02*
X115555000Y-177798000D01*
X117785000Y-177798000D02*
X116855000Y-177798000D01*
X117785000Y-177798000D02*
X117785000Y-175638000D01*
X114625000Y-177798000D02*
X114625000Y-176338000D01*
X104015000Y-129357000D02*
X104015000Y-130287000D01*
X104015000Y-132517000D02*
X104015000Y-131587000D01*
X104015000Y-132517000D02*
X106175000Y-132517000D01*
X104015000Y-129357000D02*
X105475000Y-129357000D01*
X93728000Y-143327000D02*
X93728000Y-144257000D01*
X93728000Y-146487000D02*
X93728000Y-145557000D01*
X93728000Y-146487000D02*
X95888000Y-146487000D01*
X93728000Y-143327000D02*
X95188000Y-143327000D01*
X109418000Y-123950000D02*
X110348000Y-123950000D01*
X112578000Y-123950000D02*
X111648000Y-123950000D01*
X112578000Y-123950000D02*
X112578000Y-121790000D01*
X109418000Y-123950000D02*
X109418000Y-122490000D01*
X116367000Y-186953000D02*
X117567000Y-186953000D01*
X117567000Y-188713000D02*
X116367000Y-188713000D01*
X122209000Y-186953000D02*
X123409000Y-186953000D01*
X123409000Y-188713000D02*
X122209000Y-188713000D01*
X122183000Y-172558000D02*
X122183000Y-171358000D01*
X123943000Y-171358000D02*
X123943000Y-172558000D01*
X123943000Y-176438000D02*
X123943000Y-177638000D01*
X122183000Y-177638000D02*
X122183000Y-176438000D01*
X109255000Y-178698000D02*
X110455000Y-178698000D01*
X110455000Y-180458000D02*
X109255000Y-180458000D01*
X113801000Y-172685000D02*
X113801000Y-171485000D01*
X115561000Y-171485000D02*
X115561000Y-172685000D01*
X110271000Y-167776000D02*
X111471000Y-167776000D01*
X111471000Y-169536000D02*
X110271000Y-169536000D01*
X117256000Y-130946000D02*
X118456000Y-130946000D01*
X118456000Y-132706000D02*
X117256000Y-132706000D01*
X114672000Y-130337000D02*
X114672000Y-131537000D01*
X112912000Y-131537000D02*
X112912000Y-130337000D01*
X110201000Y-140961000D02*
X109001000Y-140961000D01*
X109001000Y-139201000D02*
X110201000Y-139201000D01*
X96910000Y-131791000D02*
X96910000Y-130591000D01*
X98670000Y-130591000D02*
X98670000Y-131791000D01*
X110455000Y-130420000D02*
X109255000Y-130420000D01*
X109255000Y-128660000D02*
X110455000Y-128660000D01*
X99095000Y-147583000D02*
X100295000Y-147583000D01*
X100295000Y-149343000D02*
X99095000Y-149343000D01*
X100295000Y-146803000D02*
X99095000Y-146803000D01*
X99095000Y-145043000D02*
X100295000Y-145043000D01*
X95088000Y-149343000D02*
X93888000Y-149343000D01*
X93888000Y-147583000D02*
X95088000Y-147583000D01*
X94116000Y-131791000D02*
X94116000Y-130591000D01*
X95876000Y-130591000D02*
X95876000Y-131791000D01*
X100295000Y-141850000D02*
X99095000Y-141850000D01*
X99095000Y-140090000D02*
X100295000Y-140090000D01*
X110455000Y-109084000D02*
X109255000Y-109084000D01*
X109255000Y-107324000D02*
X110455000Y-107324000D01*
X109255000Y-112404000D02*
X110455000Y-112404000D01*
X110455000Y-114164000D02*
X109255000Y-114164000D01*
X114055000Y-115154000D02*
X114055000Y-113954000D01*
X115815000Y-113954000D02*
X115815000Y-115154000D01*
X115815000Y-108874000D02*
X115815000Y-110074000D01*
X114055000Y-110074000D02*
X114055000Y-108874000D01*
X118482000Y-124368000D02*
X118482000Y-125568000D01*
X116722000Y-125568000D02*
X116722000Y-124368000D01*
X120768000Y-119415000D02*
X120768000Y-120615000D01*
X119008000Y-120615000D02*
X119008000Y-119415000D01*
X108449000Y-122463000D02*
X108449000Y-123663000D01*
X106689000Y-123663000D02*
X106689000Y-122463000D01*
X107731000Y-118246000D02*
X108931000Y-118246000D01*
X108931000Y-120006000D02*
X107731000Y-120006000D01*
X54365000Y-134839000D02*
X54365000Y-133639000D01*
X56125000Y-133639000D02*
X56125000Y-134839000D01*
X107890000Y-177352000D02*
X110550000Y-177352000D01*
X107890000Y-174752000D02*
X107890000Y-177352000D01*
X110550000Y-174752000D02*
X110550000Y-177352000D01*
X107890000Y-174752000D02*
X110550000Y-174752000D01*
X107890000Y-173482000D02*
X107890000Y-172152000D01*
X107890000Y-172152000D02*
X109220000Y-172152000D01*
X99508000Y-133664000D02*
X102168000Y-133664000D01*
X99508000Y-131064000D02*
X99508000Y-133664000D01*
X102168000Y-131064000D02*
X102168000Y-133664000D01*
X99508000Y-131064000D02*
X102168000Y-131064000D01*
X99508000Y-129794000D02*
X99508000Y-128464000D01*
X99508000Y-128464000D02*
X100838000Y-128464000D01*
X93158000Y-141665000D02*
X95818000Y-141665000D01*
X93158000Y-139065000D02*
X93158000Y-141665000D01*
X95818000Y-139065000D02*
X95818000Y-141665000D01*
X93158000Y-139065000D02*
X95818000Y-139065000D01*
X93158000Y-137795000D02*
X93158000Y-136465000D01*
X93158000Y-136465000D02*
X94488000Y-136465000D01*
X113605000Y-124774000D02*
X116265000Y-124774000D01*
X113605000Y-122174000D02*
X113605000Y-124774000D01*
X116265000Y-122174000D02*
X116265000Y-124774000D01*
X113605000Y-122174000D02*
X116265000Y-122174000D01*
X113605000Y-120904000D02*
X113605000Y-119574000D01*
X113605000Y-119574000D02*
X114935000Y-119574000D01*
X110081000Y-141942000D02*
X110081000Y-144062000D01*
X110081000Y-144062000D02*
X114201000Y-144062000D01*
X114201000Y-144062000D02*
X114201000Y-141942000D01*
X114201000Y-141942000D02*
X110081000Y-141942000D01*
X109311000Y-143002000D02*
X110081000Y-143002000D01*
X114971000Y-143002000D02*
X114201000Y-143002000D01*
X110741000Y-141942000D02*
X110741000Y-144062000D01*
X114074000Y-138474000D02*
X114074000Y-136354000D01*
X114074000Y-136354000D02*
X109954000Y-136354000D01*
X109954000Y-136354000D02*
X109954000Y-138474000D01*
X109954000Y-138474000D02*
X114074000Y-138474000D01*
X114844000Y-137414000D02*
X114074000Y-137414000D01*
X109184000Y-137414000D02*
X109954000Y-137414000D01*
X113414000Y-138474000D02*
X113414000Y-136354000D01*
X94968000Y-156547000D02*
X94968000Y-158667000D01*
X94968000Y-158667000D02*
X99088000Y-158667000D01*
X99088000Y-158667000D02*
X99088000Y-156547000D01*
X99088000Y-156547000D02*
X94968000Y-156547000D01*
X94198000Y-157607000D02*
X94968000Y-157607000D01*
X99858000Y-157607000D02*
X99088000Y-157607000D01*
X95628000Y-156547000D02*
X95628000Y-158667000D01*
X99088000Y-155746000D02*
X99088000Y-153626000D01*
X99088000Y-153626000D02*
X94968000Y-153626000D01*
X94968000Y-153626000D02*
X94968000Y-155746000D01*
X94968000Y-155746000D02*
X99088000Y-155746000D01*
X99858000Y-154686000D02*
X99088000Y-154686000D01*
X94198000Y-154686000D02*
X94968000Y-154686000D01*
X98428000Y-155746000D02*
X98428000Y-153626000D01*
X96619000Y-109046000D02*
X96619000Y-100246000D01*
X96619000Y-100246000D02*
X105819000Y-100246000D01*
X99319000Y-114946000D02*
X96619000Y-114946000D01*
X96619000Y-114946000D02*
X96619000Y-113046000D01*
X105819000Y-100246000D02*
X105819000Y-114946000D01*
X105819000Y-114946000D02*
X103219000Y-114946000D01*
D13*
X47009953Y-147427190D02*
X47176620Y-147927190D01*
X47343286Y-147427190D01*
X47605191Y-147427190D02*
X47700429Y-147427190D01*
X47748048Y-147451000D01*
X47795667Y-147498619D01*
X47819476Y-147593857D01*
X47819476Y-147760524D01*
X47795667Y-147855762D01*
X47748048Y-147903381D01*
X47700429Y-147927190D01*
X47605191Y-147927190D01*
X47557572Y-147903381D01*
X47509953Y-147855762D01*
X47486143Y-147760524D01*
X47486143Y-147593857D01*
X47509953Y-147498619D01*
X47557572Y-147451000D01*
X47605191Y-147427190D01*
X48271858Y-147927190D02*
X48033763Y-147927190D01*
X48033763Y-147427190D01*
X48700429Y-147927190D02*
X48414715Y-147927190D01*
X48557572Y-147927190D02*
X48557572Y-147427190D01*
X48509953Y-147498619D01*
X48462334Y-147546238D01*
X48414715Y-147570048D01*
X70215334Y-131647381D02*
X70286763Y-131671190D01*
X70405810Y-131671190D01*
X70453429Y-131647381D01*
X70477239Y-131623571D01*
X70501048Y-131575952D01*
X70501048Y-131528333D01*
X70477239Y-131480714D01*
X70453429Y-131456905D01*
X70405810Y-131433095D01*
X70310572Y-131409286D01*
X70262953Y-131385476D01*
X70239144Y-131361667D01*
X70215334Y-131314048D01*
X70215334Y-131266429D01*
X70239144Y-131218810D01*
X70262953Y-131195000D01*
X70310572Y-131171190D01*
X70429620Y-131171190D01*
X70501048Y-131195000D01*
X70715334Y-131171190D02*
X70715334Y-131575952D01*
X70739143Y-131623571D01*
X70762953Y-131647381D01*
X70810572Y-131671190D01*
X70905810Y-131671190D01*
X70953429Y-131647381D01*
X70977238Y-131623571D01*
X71001048Y-131575952D01*
X71001048Y-131171190D01*
X71215334Y-131647381D02*
X71286763Y-131671190D01*
X71405810Y-131671190D01*
X71453429Y-131647381D01*
X71477239Y-131623571D01*
X71501048Y-131575952D01*
X71501048Y-131528333D01*
X71477239Y-131480714D01*
X71453429Y-131456905D01*
X71405810Y-131433095D01*
X71310572Y-131409286D01*
X71262953Y-131385476D01*
X71239144Y-131361667D01*
X71215334Y-131314048D01*
X71215334Y-131266429D01*
X71239144Y-131218810D01*
X71262953Y-131195000D01*
X71310572Y-131171190D01*
X71429620Y-131171190D01*
X71501048Y-131195000D01*
X71643905Y-131171190D02*
X71929619Y-131171190D01*
X71786762Y-131671190D02*
X71786762Y-131171190D01*
X72072476Y-131528333D02*
X72310571Y-131528333D01*
X72024857Y-131671190D02*
X72191524Y-131171190D01*
X72358190Y-131671190D01*
X72524857Y-131671190D02*
X72524857Y-131171190D01*
X72762952Y-131671190D02*
X72762952Y-131171190D01*
X73048666Y-131671190D01*
X73048666Y-131171190D01*
X73548666Y-131671190D02*
X73262952Y-131671190D01*
X73405809Y-131671190D02*
X73405809Y-131171190D01*
X73358190Y-131242619D01*
X73310571Y-131290238D01*
X73262952Y-131314048D01*
X70497048Y-116058190D02*
X70782762Y-116058190D01*
X70639905Y-116558190D02*
X70639905Y-116058190D01*
X71044667Y-116058190D02*
X71139905Y-116058190D01*
X71187524Y-116082000D01*
X71235143Y-116129619D01*
X71258952Y-116224857D01*
X71258952Y-116391524D01*
X71235143Y-116486762D01*
X71187524Y-116534381D01*
X71139905Y-116558190D01*
X71044667Y-116558190D01*
X70997048Y-116534381D01*
X70949429Y-116486762D01*
X70925619Y-116391524D01*
X70925619Y-116224857D01*
X70949429Y-116129619D01*
X70997048Y-116082000D01*
X71044667Y-116058190D01*
X71473239Y-116558190D02*
X71473239Y-116058190D01*
X71758953Y-116558190D01*
X71758953Y-116058190D01*
X71997049Y-116296286D02*
X72163715Y-116296286D01*
X72235144Y-116558190D02*
X71997049Y-116558190D01*
X71997049Y-116058190D01*
X72235144Y-116058190D01*
X72711334Y-116558190D02*
X72425620Y-116558190D01*
X72568477Y-116558190D02*
X72568477Y-116058190D01*
X72520858Y-116129619D01*
X72473239Y-116177238D01*
X72425620Y-116201048D01*
X114478571Y-183979333D02*
X114502381Y-184003143D01*
X114526190Y-184074571D01*
X114526190Y-184122190D01*
X114502381Y-184193619D01*
X114454762Y-184241238D01*
X114407143Y-184265047D01*
X114311905Y-184288857D01*
X114240476Y-184288857D01*
X114145238Y-184265047D01*
X114097619Y-184241238D01*
X114050000Y-184193619D01*
X114026190Y-184122190D01*
X114026190Y-184074571D01*
X114050000Y-184003143D01*
X114073810Y-183979333D01*
X114526190Y-183503143D02*
X114526190Y-183788857D01*
X114526190Y-183646000D02*
X114026190Y-183646000D01*
X114097619Y-183693619D01*
X114145238Y-183741238D01*
X114169048Y-183788857D01*
X120447571Y-183979333D02*
X120471381Y-184003143D01*
X120495190Y-184074571D01*
X120495190Y-184122190D01*
X120471381Y-184193619D01*
X120423762Y-184241238D01*
X120376143Y-184265047D01*
X120280905Y-184288857D01*
X120209476Y-184288857D01*
X120114238Y-184265047D01*
X120066619Y-184241238D01*
X120019000Y-184193619D01*
X119995190Y-184122190D01*
X119995190Y-184074571D01*
X120019000Y-184003143D01*
X120042810Y-183979333D01*
X120042810Y-183788857D02*
X120019000Y-183765047D01*
X119995190Y-183717428D01*
X119995190Y-183598381D01*
X120019000Y-183550762D01*
X120042810Y-183526952D01*
X120090429Y-183503143D01*
X120138048Y-183503143D01*
X120209476Y-183526952D01*
X120495190Y-183812666D01*
X120495190Y-183503143D01*
X117645667Y-172136571D02*
X117621857Y-172160381D01*
X117550429Y-172184190D01*
X117502810Y-172184190D01*
X117431381Y-172160381D01*
X117383762Y-172112762D01*
X117359953Y-172065143D01*
X117336143Y-171969905D01*
X117336143Y-171898476D01*
X117359953Y-171803238D01*
X117383762Y-171755619D01*
X117431381Y-171708000D01*
X117502810Y-171684190D01*
X117550429Y-171684190D01*
X117621857Y-171708000D01*
X117645667Y-171731810D01*
X117812334Y-171684190D02*
X118121857Y-171684190D01*
X117955191Y-171874667D01*
X118026619Y-171874667D01*
X118074238Y-171898476D01*
X118098048Y-171922286D01*
X118121857Y-171969905D01*
X118121857Y-172088952D01*
X118098048Y-172136571D01*
X118074238Y-172160381D01*
X118026619Y-172184190D01*
X117883762Y-172184190D01*
X117836143Y-172160381D01*
X117812334Y-172136571D01*
X120566667Y-174676571D02*
X120542857Y-174700381D01*
X120471429Y-174724190D01*
X120423810Y-174724190D01*
X120352381Y-174700381D01*
X120304762Y-174652762D01*
X120280953Y-174605143D01*
X120257143Y-174509905D01*
X120257143Y-174438476D01*
X120280953Y-174343238D01*
X120304762Y-174295619D01*
X120352381Y-174248000D01*
X120423810Y-174224190D01*
X120471429Y-174224190D01*
X120542857Y-174248000D01*
X120566667Y-174271810D01*
X120995238Y-174390857D02*
X120995238Y-174724190D01*
X120876191Y-174200381D02*
X120757143Y-174557524D01*
X121066667Y-174557524D01*
X115494571Y-129623333D02*
X115518381Y-129647143D01*
X115542190Y-129718571D01*
X115542190Y-129766190D01*
X115518381Y-129837619D01*
X115470762Y-129885238D01*
X115423143Y-129909047D01*
X115327905Y-129932857D01*
X115256476Y-129932857D01*
X115161238Y-129909047D01*
X115113619Y-129885238D01*
X115066000Y-129837619D01*
X115042190Y-129766190D01*
X115042190Y-129718571D01*
X115066000Y-129647143D01*
X115089810Y-129623333D01*
X115042190Y-129170952D02*
X115042190Y-129409047D01*
X115280286Y-129432857D01*
X115256476Y-129409047D01*
X115232667Y-129361428D01*
X115232667Y-129242381D01*
X115256476Y-129194762D01*
X115280286Y-129170952D01*
X115327905Y-129147143D01*
X115446952Y-129147143D01*
X115494571Y-129170952D01*
X115518381Y-129194762D01*
X115542190Y-129242381D01*
X115542190Y-129361428D01*
X115518381Y-129409047D01*
X115494571Y-129432857D01*
X115494571Y-134957333D02*
X115518381Y-134981143D01*
X115542190Y-135052571D01*
X115542190Y-135100190D01*
X115518381Y-135171619D01*
X115470762Y-135219238D01*
X115423143Y-135243047D01*
X115327905Y-135266857D01*
X115256476Y-135266857D01*
X115161238Y-135243047D01*
X115113619Y-135219238D01*
X115066000Y-135171619D01*
X115042190Y-135100190D01*
X115042190Y-135052571D01*
X115066000Y-134981143D01*
X115089810Y-134957333D01*
X115042190Y-134528762D02*
X115042190Y-134624000D01*
X115066000Y-134671619D01*
X115089810Y-134695428D01*
X115161238Y-134743047D01*
X115256476Y-134766857D01*
X115446952Y-134766857D01*
X115494571Y-134743047D01*
X115518381Y-134719238D01*
X115542190Y-134671619D01*
X115542190Y-134576381D01*
X115518381Y-134528762D01*
X115494571Y-134504952D01*
X115446952Y-134481143D01*
X115327905Y-134481143D01*
X115280286Y-134504952D01*
X115256476Y-134528762D01*
X115232667Y-134576381D01*
X115232667Y-134671619D01*
X115256476Y-134719238D01*
X115280286Y-134743047D01*
X115327905Y-134766857D01*
X107493571Y-132163333D02*
X107517381Y-132187143D01*
X107541190Y-132258571D01*
X107541190Y-132306190D01*
X107517381Y-132377619D01*
X107469762Y-132425238D01*
X107422143Y-132449047D01*
X107326905Y-132472857D01*
X107255476Y-132472857D01*
X107160238Y-132449047D01*
X107112619Y-132425238D01*
X107065000Y-132377619D01*
X107041190Y-132306190D01*
X107041190Y-132258571D01*
X107065000Y-132187143D01*
X107088810Y-132163333D01*
X107041190Y-131996666D02*
X107041190Y-131663333D01*
X107541190Y-131877619D01*
X97706667Y-138989571D02*
X97682857Y-139013381D01*
X97611429Y-139037190D01*
X97563810Y-139037190D01*
X97492381Y-139013381D01*
X97444762Y-138965762D01*
X97420953Y-138918143D01*
X97397143Y-138822905D01*
X97397143Y-138751476D01*
X97420953Y-138656238D01*
X97444762Y-138608619D01*
X97492381Y-138561000D01*
X97563810Y-138537190D01*
X97611429Y-138537190D01*
X97682857Y-138561000D01*
X97706667Y-138584810D01*
X97992381Y-138751476D02*
X97944762Y-138727667D01*
X97920953Y-138703857D01*
X97897143Y-138656238D01*
X97897143Y-138632429D01*
X97920953Y-138584810D01*
X97944762Y-138561000D01*
X97992381Y-138537190D01*
X98087619Y-138537190D01*
X98135238Y-138561000D01*
X98159048Y-138584810D01*
X98182857Y-138632429D01*
X98182857Y-138656238D01*
X98159048Y-138703857D01*
X98135238Y-138727667D01*
X98087619Y-138751476D01*
X97992381Y-138751476D01*
X97944762Y-138775286D01*
X97920953Y-138799095D01*
X97897143Y-138846714D01*
X97897143Y-138941952D01*
X97920953Y-138989571D01*
X97944762Y-139013381D01*
X97992381Y-139037190D01*
X98087619Y-139037190D01*
X98135238Y-139013381D01*
X98159048Y-138989571D01*
X98182857Y-138941952D01*
X98182857Y-138846714D01*
X98159048Y-138799095D01*
X98135238Y-138775286D01*
X98087619Y-138751476D01*
X97206571Y-151975333D02*
X97230381Y-151999143D01*
X97254190Y-152070571D01*
X97254190Y-152118190D01*
X97230381Y-152189619D01*
X97182762Y-152237238D01*
X97135143Y-152261047D01*
X97039905Y-152284857D01*
X96968476Y-152284857D01*
X96873238Y-152261047D01*
X96825619Y-152237238D01*
X96778000Y-152189619D01*
X96754190Y-152118190D01*
X96754190Y-152070571D01*
X96778000Y-151999143D01*
X96801810Y-151975333D01*
X97254190Y-151737238D02*
X97254190Y-151642000D01*
X97230381Y-151594381D01*
X97206571Y-151570571D01*
X97135143Y-151522952D01*
X97039905Y-151499143D01*
X96849429Y-151499143D01*
X96801810Y-151522952D01*
X96778000Y-151546762D01*
X96754190Y-151594381D01*
X96754190Y-151689619D01*
X96778000Y-151737238D01*
X96801810Y-151761047D01*
X96849429Y-151784857D01*
X96968476Y-151784857D01*
X97016095Y-151761047D01*
X97039905Y-151737238D01*
X97063714Y-151689619D01*
X97063714Y-151594381D01*
X97039905Y-151546762D01*
X97016095Y-151522952D01*
X96968476Y-151499143D01*
X92126571Y-152213428D02*
X92150381Y-152237238D01*
X92174190Y-152308666D01*
X92174190Y-152356285D01*
X92150381Y-152427714D01*
X92102762Y-152475333D01*
X92055143Y-152499142D01*
X91959905Y-152522952D01*
X91888476Y-152522952D01*
X91793238Y-152499142D01*
X91745619Y-152475333D01*
X91698000Y-152427714D01*
X91674190Y-152356285D01*
X91674190Y-152308666D01*
X91698000Y-152237238D01*
X91721810Y-152213428D01*
X92174190Y-151737238D02*
X92174190Y-152022952D01*
X92174190Y-151880095D02*
X91674190Y-151880095D01*
X91745619Y-151927714D01*
X91793238Y-151975333D01*
X91817048Y-152022952D01*
X91674190Y-151427714D02*
X91674190Y-151380095D01*
X91698000Y-151332476D01*
X91721810Y-151308667D01*
X91769429Y-151284857D01*
X91864667Y-151261048D01*
X91983714Y-151261048D01*
X92078952Y-151284857D01*
X92126571Y-151308667D01*
X92150381Y-151332476D01*
X92174190Y-151380095D01*
X92174190Y-151427714D01*
X92150381Y-151475333D01*
X92126571Y-151499143D01*
X92078952Y-151522952D01*
X91983714Y-151546762D01*
X91864667Y-151546762D01*
X91769429Y-151522952D01*
X91721810Y-151499143D01*
X91698000Y-151475333D01*
X91674190Y-151427714D01*
X107366571Y-111065428D02*
X107390381Y-111089238D01*
X107414190Y-111160666D01*
X107414190Y-111208285D01*
X107390381Y-111279714D01*
X107342762Y-111327333D01*
X107295143Y-111351142D01*
X107199905Y-111374952D01*
X107128476Y-111374952D01*
X107033238Y-111351142D01*
X106985619Y-111327333D01*
X106938000Y-111279714D01*
X106914190Y-111208285D01*
X106914190Y-111160666D01*
X106938000Y-111089238D01*
X106961810Y-111065428D01*
X107414190Y-110589238D02*
X107414190Y-110874952D01*
X107414190Y-110732095D02*
X106914190Y-110732095D01*
X106985619Y-110779714D01*
X107033238Y-110827333D01*
X107057048Y-110874952D01*
X107414190Y-110113048D02*
X107414190Y-110398762D01*
X107414190Y-110255905D02*
X106914190Y-110255905D01*
X106985619Y-110303524D01*
X107033238Y-110351143D01*
X107057048Y-110398762D01*
X107366571Y-116145428D02*
X107390381Y-116169238D01*
X107414190Y-116240666D01*
X107414190Y-116288285D01*
X107390381Y-116359714D01*
X107342762Y-116407333D01*
X107295143Y-116431142D01*
X107199905Y-116454952D01*
X107128476Y-116454952D01*
X107033238Y-116431142D01*
X106985619Y-116407333D01*
X106938000Y-116359714D01*
X106914190Y-116288285D01*
X106914190Y-116240666D01*
X106938000Y-116169238D01*
X106961810Y-116145428D01*
X107414190Y-115669238D02*
X107414190Y-115954952D01*
X107414190Y-115812095D02*
X106914190Y-115812095D01*
X106985619Y-115859714D01*
X107033238Y-115907333D01*
X107057048Y-115954952D01*
X106961810Y-115478762D02*
X106938000Y-115454952D01*
X106914190Y-115407333D01*
X106914190Y-115288286D01*
X106938000Y-115240667D01*
X106961810Y-115216857D01*
X107009429Y-115193048D01*
X107057048Y-115193048D01*
X107128476Y-115216857D01*
X107414190Y-115502571D01*
X107414190Y-115193048D01*
X119566572Y-122479571D02*
X119542762Y-122503381D01*
X119471334Y-122527190D01*
X119423715Y-122527190D01*
X119352286Y-122503381D01*
X119304667Y-122455762D01*
X119280858Y-122408143D01*
X119257048Y-122312905D01*
X119257048Y-122241476D01*
X119280858Y-122146238D01*
X119304667Y-122098619D01*
X119352286Y-122051000D01*
X119423715Y-122027190D01*
X119471334Y-122027190D01*
X119542762Y-122051000D01*
X119566572Y-122074810D01*
X120042762Y-122527190D02*
X119757048Y-122527190D01*
X119899905Y-122527190D02*
X119899905Y-122027190D01*
X119852286Y-122098619D01*
X119804667Y-122146238D01*
X119757048Y-122170048D01*
X120209429Y-122027190D02*
X120518952Y-122027190D01*
X120352286Y-122217667D01*
X120423714Y-122217667D01*
X120471333Y-122241476D01*
X120495143Y-122265286D01*
X120518952Y-122312905D01*
X120518952Y-122431952D01*
X120495143Y-122479571D01*
X120471333Y-122503381D01*
X120423714Y-122527190D01*
X120280857Y-122527190D01*
X120233238Y-122503381D01*
X120209429Y-122479571D01*
X104580572Y-120701571D02*
X104556762Y-120725381D01*
X104485334Y-120749190D01*
X104437715Y-120749190D01*
X104366286Y-120725381D01*
X104318667Y-120677762D01*
X104294858Y-120630143D01*
X104271048Y-120534905D01*
X104271048Y-120463476D01*
X104294858Y-120368238D01*
X104318667Y-120320619D01*
X104366286Y-120273000D01*
X104437715Y-120249190D01*
X104485334Y-120249190D01*
X104556762Y-120273000D01*
X104580572Y-120296810D01*
X105056762Y-120749190D02*
X104771048Y-120749190D01*
X104913905Y-120749190D02*
X104913905Y-120249190D01*
X104866286Y-120320619D01*
X104818667Y-120368238D01*
X104771048Y-120392048D01*
X105485333Y-120415857D02*
X105485333Y-120749190D01*
X105366286Y-120225381D02*
X105247238Y-120582524D01*
X105556762Y-120582524D01*
X92721953Y-121511190D02*
X92721953Y-121011190D01*
X92841000Y-121011190D01*
X92912429Y-121035000D01*
X92960048Y-121082619D01*
X92983857Y-121130238D01*
X93007667Y-121225476D01*
X93007667Y-121296905D01*
X92983857Y-121392143D01*
X92960048Y-121439762D01*
X92912429Y-121487381D01*
X92841000Y-121511190D01*
X92721953Y-121511190D01*
X93483857Y-121511190D02*
X93198143Y-121511190D01*
X93341000Y-121511190D02*
X93341000Y-121011190D01*
X93293381Y-121082619D01*
X93245762Y-121130238D01*
X93198143Y-121154048D01*
X56145953Y-133068190D02*
X56145953Y-132568190D01*
X56265000Y-132568190D01*
X56336429Y-132592000D01*
X56384048Y-132639619D01*
X56407857Y-132687238D01*
X56431667Y-132782476D01*
X56431667Y-132853905D01*
X56407857Y-132949143D01*
X56384048Y-132996762D01*
X56336429Y-133044381D01*
X56265000Y-133068190D01*
X56145953Y-133068190D01*
X56860238Y-132568190D02*
X56765000Y-132568190D01*
X56717381Y-132592000D01*
X56693572Y-132615810D01*
X56645953Y-132687238D01*
X56622143Y-132782476D01*
X56622143Y-132972952D01*
X56645953Y-133020571D01*
X56669762Y-133044381D01*
X56717381Y-133068190D01*
X56812619Y-133068190D01*
X56860238Y-133044381D01*
X56884048Y-133020571D01*
X56907857Y-132972952D01*
X56907857Y-132853905D01*
X56884048Y-132806286D01*
X56860238Y-132782476D01*
X56812619Y-132758667D01*
X56717381Y-132758667D01*
X56669762Y-132782476D01*
X56645953Y-132806286D01*
X56622143Y-132853905D01*
X46835382Y-131417190D02*
X46835382Y-130917190D01*
X46954429Y-130917190D01*
X47025858Y-130941000D01*
X47073477Y-130988619D01*
X47097286Y-131036238D01*
X47121096Y-131131476D01*
X47121096Y-131202905D01*
X47097286Y-131298143D01*
X47073477Y-131345762D01*
X47025858Y-131393381D01*
X46954429Y-131417190D01*
X46835382Y-131417190D01*
X47335382Y-131155286D02*
X47502048Y-131155286D01*
X47573477Y-131417190D02*
X47335382Y-131417190D01*
X47335382Y-130917190D01*
X47573477Y-130917190D01*
X47787763Y-131417190D02*
X47787763Y-130917190D01*
X47978239Y-130917190D01*
X48025858Y-130941000D01*
X48049667Y-130964810D01*
X48073477Y-131012429D01*
X48073477Y-131083857D01*
X48049667Y-131131476D01*
X48025858Y-131155286D01*
X47978239Y-131179095D01*
X47787763Y-131179095D01*
X48216334Y-130917190D02*
X48502048Y-130917190D01*
X48359191Y-131417190D02*
X48359191Y-130917190D01*
X48668715Y-131417190D02*
X48668715Y-130917190D01*
X48668715Y-131155286D02*
X48954429Y-131155286D01*
X48954429Y-131417190D02*
X48954429Y-130917190D01*
X49454429Y-131417190D02*
X49168715Y-131417190D01*
X49311572Y-131417190D02*
X49311572Y-130917190D01*
X49263953Y-130988619D01*
X49216334Y-131036238D01*
X49168715Y-131060048D01*
X46994096Y-116558190D02*
X46994096Y-116058190D01*
X47160762Y-116415333D01*
X47327429Y-116058190D01*
X47327429Y-116558190D01*
X47565525Y-116558190D02*
X47565525Y-116058190D01*
X47803620Y-116558190D02*
X47803620Y-116058190D01*
X47922667Y-116058190D01*
X47994096Y-116082000D01*
X48041715Y-116129619D01*
X48065524Y-116177238D01*
X48089334Y-116272476D01*
X48089334Y-116343905D01*
X48065524Y-116439143D01*
X48041715Y-116486762D01*
X47994096Y-116534381D01*
X47922667Y-116558190D01*
X47803620Y-116558190D01*
X48279810Y-116534381D02*
X48351239Y-116558190D01*
X48470286Y-116558190D01*
X48517905Y-116534381D01*
X48541715Y-116510571D01*
X48565524Y-116462952D01*
X48565524Y-116415333D01*
X48541715Y-116367714D01*
X48517905Y-116343905D01*
X48470286Y-116320095D01*
X48375048Y-116296286D01*
X48327429Y-116272476D01*
X48303620Y-116248667D01*
X48279810Y-116201048D01*
X48279810Y-116153429D01*
X48303620Y-116105810D01*
X48327429Y-116082000D01*
X48375048Y-116058190D01*
X48494096Y-116058190D01*
X48565524Y-116082000D01*
X49041714Y-116558190D02*
X48756000Y-116558190D01*
X48898857Y-116558190D02*
X48898857Y-116058190D01*
X48851238Y-116129619D01*
X48803619Y-116177238D01*
X48756000Y-116201048D01*
X115141381Y-178581810D02*
X115093762Y-178558000D01*
X115046143Y-178510381D01*
X114974714Y-178438952D01*
X114927095Y-178415143D01*
X114879476Y-178415143D01*
X114903286Y-178534190D02*
X114855667Y-178510381D01*
X114808048Y-178462762D01*
X114784238Y-178367524D01*
X114784238Y-178200857D01*
X114808048Y-178105619D01*
X114855667Y-178058000D01*
X114903286Y-178034190D01*
X114998524Y-178034190D01*
X115046143Y-178058000D01*
X115093762Y-178105619D01*
X115117571Y-178200857D01*
X115117571Y-178367524D01*
X115093762Y-178462762D01*
X115046143Y-178510381D01*
X114998524Y-178534190D01*
X114903286Y-178534190D01*
X115593762Y-178534190D02*
X115308048Y-178534190D01*
X115450905Y-178534190D02*
X115450905Y-178034190D01*
X115403286Y-178105619D01*
X115355667Y-178153238D01*
X115308048Y-178177048D01*
X104727381Y-133369810D02*
X104679762Y-133346000D01*
X104632143Y-133298381D01*
X104560714Y-133226952D01*
X104513095Y-133203143D01*
X104465476Y-133203143D01*
X104489286Y-133322190D02*
X104441667Y-133298381D01*
X104394048Y-133250762D01*
X104370238Y-133155524D01*
X104370238Y-132988857D01*
X104394048Y-132893619D01*
X104441667Y-132846000D01*
X104489286Y-132822190D01*
X104584524Y-132822190D01*
X104632143Y-132846000D01*
X104679762Y-132893619D01*
X104703571Y-132988857D01*
X104703571Y-133155524D01*
X104679762Y-133250762D01*
X104632143Y-133298381D01*
X104584524Y-133322190D01*
X104489286Y-133322190D01*
X104894048Y-132869810D02*
X104917858Y-132846000D01*
X104965477Y-132822190D01*
X105084524Y-132822190D01*
X105132143Y-132846000D01*
X105155953Y-132869810D01*
X105179762Y-132917429D01*
X105179762Y-132965048D01*
X105155953Y-133036476D01*
X104870239Y-133322190D01*
X105179762Y-133322190D01*
X92729810Y-145970619D02*
X92706000Y-146018238D01*
X92658381Y-146065857D01*
X92586952Y-146137286D01*
X92563143Y-146184905D01*
X92563143Y-146232524D01*
X92682190Y-146208714D02*
X92658381Y-146256333D01*
X92610762Y-146303952D01*
X92515524Y-146327762D01*
X92348857Y-146327762D01*
X92253619Y-146303952D01*
X92206000Y-146256333D01*
X92182190Y-146208714D01*
X92182190Y-146113476D01*
X92206000Y-146065857D01*
X92253619Y-146018238D01*
X92348857Y-145994429D01*
X92515524Y-145994429D01*
X92610762Y-146018238D01*
X92658381Y-146065857D01*
X92682190Y-146113476D01*
X92682190Y-146208714D01*
X92182190Y-145827761D02*
X92182190Y-145518238D01*
X92372667Y-145684904D01*
X92372667Y-145613476D01*
X92396476Y-145565857D01*
X92420286Y-145542047D01*
X92467905Y-145518238D01*
X92586952Y-145518238D01*
X92634571Y-145542047D01*
X92658381Y-145565857D01*
X92682190Y-145613476D01*
X92682190Y-145756333D01*
X92658381Y-145803952D01*
X92634571Y-145827761D01*
X110950381Y-121304810D02*
X110902762Y-121281000D01*
X110855143Y-121233381D01*
X110783714Y-121161952D01*
X110736095Y-121138143D01*
X110688476Y-121138143D01*
X110712286Y-121257190D02*
X110664667Y-121233381D01*
X110617048Y-121185762D01*
X110593238Y-121090524D01*
X110593238Y-120923857D01*
X110617048Y-120828619D01*
X110664667Y-120781000D01*
X110712286Y-120757190D01*
X110807524Y-120757190D01*
X110855143Y-120781000D01*
X110902762Y-120828619D01*
X110926571Y-120923857D01*
X110926571Y-121090524D01*
X110902762Y-121185762D01*
X110855143Y-121233381D01*
X110807524Y-121257190D01*
X110712286Y-121257190D01*
X111355143Y-120923857D02*
X111355143Y-121257190D01*
X111236096Y-120733381D02*
X111117048Y-121090524D01*
X111426572Y-121090524D01*
X114526190Y-187916333D02*
X114288095Y-188083000D01*
X114526190Y-188202047D02*
X114026190Y-188202047D01*
X114026190Y-188011571D01*
X114050000Y-187963952D01*
X114073810Y-187940143D01*
X114121429Y-187916333D01*
X114192857Y-187916333D01*
X114240476Y-187940143D01*
X114264286Y-187963952D01*
X114288095Y-188011571D01*
X114288095Y-188202047D01*
X114526190Y-187440143D02*
X114526190Y-187725857D01*
X114526190Y-187583000D02*
X114026190Y-187583000D01*
X114097619Y-187630619D01*
X114145238Y-187678238D01*
X114169048Y-187725857D01*
X120368190Y-187916333D02*
X120130095Y-188083000D01*
X120368190Y-188202047D02*
X119868190Y-188202047D01*
X119868190Y-188011571D01*
X119892000Y-187963952D01*
X119915810Y-187940143D01*
X119963429Y-187916333D01*
X120034857Y-187916333D01*
X120082476Y-187940143D01*
X120106286Y-187963952D01*
X120130095Y-188011571D01*
X120130095Y-188202047D01*
X119915810Y-187725857D02*
X119892000Y-187702047D01*
X119868190Y-187654428D01*
X119868190Y-187535381D01*
X119892000Y-187487762D01*
X119915810Y-187463952D01*
X119963429Y-187440143D01*
X120011048Y-187440143D01*
X120082476Y-187463952D01*
X120368190Y-187749666D01*
X120368190Y-187440143D01*
X122979667Y-172184190D02*
X122813000Y-171946095D01*
X122693953Y-172184190D02*
X122693953Y-171684190D01*
X122884429Y-171684190D01*
X122932048Y-171708000D01*
X122955857Y-171731810D01*
X122979667Y-171779429D01*
X122979667Y-171850857D01*
X122955857Y-171898476D01*
X122932048Y-171922286D01*
X122884429Y-171946095D01*
X122693953Y-171946095D01*
X123146334Y-171684190D02*
X123455857Y-171684190D01*
X123289191Y-171874667D01*
X123360619Y-171874667D01*
X123408238Y-171898476D01*
X123432048Y-171922286D01*
X123455857Y-171969905D01*
X123455857Y-172088952D01*
X123432048Y-172136571D01*
X123408238Y-172160381D01*
X123360619Y-172184190D01*
X123217762Y-172184190D01*
X123170143Y-172160381D01*
X123146334Y-172136571D01*
X122979667Y-177264190D02*
X122813000Y-177026095D01*
X122693953Y-177264190D02*
X122693953Y-176764190D01*
X122884429Y-176764190D01*
X122932048Y-176788000D01*
X122955857Y-176811810D01*
X122979667Y-176859429D01*
X122979667Y-176930857D01*
X122955857Y-176978476D01*
X122932048Y-177002286D01*
X122884429Y-177026095D01*
X122693953Y-177026095D01*
X123408238Y-176930857D02*
X123408238Y-177264190D01*
X123289191Y-176740381D02*
X123170143Y-177097524D01*
X123479667Y-177097524D01*
X107414190Y-179661333D02*
X107176095Y-179828000D01*
X107414190Y-179947047D02*
X106914190Y-179947047D01*
X106914190Y-179756571D01*
X106938000Y-179708952D01*
X106961810Y-179685143D01*
X107009429Y-179661333D01*
X107080857Y-179661333D01*
X107128476Y-179685143D01*
X107152286Y-179708952D01*
X107176095Y-179756571D01*
X107176095Y-179947047D01*
X106914190Y-179208952D02*
X106914190Y-179447047D01*
X107152286Y-179470857D01*
X107128476Y-179447047D01*
X107104667Y-179399428D01*
X107104667Y-179280381D01*
X107128476Y-179232762D01*
X107152286Y-179208952D01*
X107199905Y-179185143D01*
X107318952Y-179185143D01*
X107366571Y-179208952D01*
X107390381Y-179232762D01*
X107414190Y-179280381D01*
X107414190Y-179399428D01*
X107390381Y-179447047D01*
X107366571Y-179470857D01*
X114597667Y-172311190D02*
X114431000Y-172073095D01*
X114311953Y-172311190D02*
X114311953Y-171811190D01*
X114502429Y-171811190D01*
X114550048Y-171835000D01*
X114573857Y-171858810D01*
X114597667Y-171906429D01*
X114597667Y-171977857D01*
X114573857Y-172025476D01*
X114550048Y-172049286D01*
X114502429Y-172073095D01*
X114311953Y-172073095D01*
X115026238Y-171811190D02*
X114931000Y-171811190D01*
X114883381Y-171835000D01*
X114859572Y-171858810D01*
X114811953Y-171930238D01*
X114788143Y-172025476D01*
X114788143Y-172215952D01*
X114811953Y-172263571D01*
X114835762Y-172287381D01*
X114883381Y-172311190D01*
X114978619Y-172311190D01*
X115026238Y-172287381D01*
X115050048Y-172263571D01*
X115073857Y-172215952D01*
X115073857Y-172096905D01*
X115050048Y-172049286D01*
X115026238Y-172025476D01*
X114978619Y-172001667D01*
X114883381Y-172001667D01*
X114835762Y-172025476D01*
X114811953Y-172049286D01*
X114788143Y-172096905D01*
X108176190Y-168612333D02*
X107938095Y-168779000D01*
X108176190Y-168898047D02*
X107676190Y-168898047D01*
X107676190Y-168707571D01*
X107700000Y-168659952D01*
X107723810Y-168636143D01*
X107771429Y-168612333D01*
X107842857Y-168612333D01*
X107890476Y-168636143D01*
X107914286Y-168659952D01*
X107938095Y-168707571D01*
X107938095Y-168898047D01*
X107676190Y-168445666D02*
X107676190Y-168112333D01*
X108176190Y-168326619D01*
X115415190Y-131909333D02*
X115177095Y-132076000D01*
X115415190Y-132195047D02*
X114915190Y-132195047D01*
X114915190Y-132004571D01*
X114939000Y-131956952D01*
X114962810Y-131933143D01*
X115010429Y-131909333D01*
X115081857Y-131909333D01*
X115129476Y-131933143D01*
X115153286Y-131956952D01*
X115177095Y-132004571D01*
X115177095Y-132195047D01*
X115129476Y-131623619D02*
X115105667Y-131671238D01*
X115081857Y-131695047D01*
X115034238Y-131718857D01*
X115010429Y-131718857D01*
X114962810Y-131695047D01*
X114939000Y-131671238D01*
X114915190Y-131623619D01*
X114915190Y-131528381D01*
X114939000Y-131480762D01*
X114962810Y-131456952D01*
X115010429Y-131433143D01*
X115034238Y-131433143D01*
X115081857Y-131456952D01*
X115105667Y-131480762D01*
X115129476Y-131528381D01*
X115129476Y-131623619D01*
X115153286Y-131671238D01*
X115177095Y-131695047D01*
X115224714Y-131718857D01*
X115319952Y-131718857D01*
X115367571Y-131695047D01*
X115391381Y-131671238D01*
X115415190Y-131623619D01*
X115415190Y-131528381D01*
X115391381Y-131480762D01*
X115367571Y-131456952D01*
X115319952Y-131433143D01*
X115224714Y-131433143D01*
X115177095Y-131456952D01*
X115153286Y-131480762D01*
X115129476Y-131528381D01*
X112748190Y-130893333D02*
X112510095Y-131060000D01*
X112748190Y-131179047D02*
X112248190Y-131179047D01*
X112248190Y-130988571D01*
X112272000Y-130940952D01*
X112295810Y-130917143D01*
X112343429Y-130893333D01*
X112414857Y-130893333D01*
X112462476Y-130917143D01*
X112486286Y-130940952D01*
X112510095Y-130988571D01*
X112510095Y-131179047D01*
X112748190Y-130655238D02*
X112748190Y-130560000D01*
X112724381Y-130512381D01*
X112700571Y-130488571D01*
X112629143Y-130440952D01*
X112533905Y-130417143D01*
X112343429Y-130417143D01*
X112295810Y-130440952D01*
X112272000Y-130464762D01*
X112248190Y-130512381D01*
X112248190Y-130607619D01*
X112272000Y-130655238D01*
X112295810Y-130679047D01*
X112343429Y-130702857D01*
X112462476Y-130702857D01*
X112510095Y-130679047D01*
X112533905Y-130655238D01*
X112557714Y-130607619D01*
X112557714Y-130512381D01*
X112533905Y-130464762D01*
X112510095Y-130440952D01*
X112462476Y-130417143D01*
X107160190Y-140402428D02*
X106922095Y-140569095D01*
X107160190Y-140688142D02*
X106660190Y-140688142D01*
X106660190Y-140497666D01*
X106684000Y-140450047D01*
X106707810Y-140426238D01*
X106755429Y-140402428D01*
X106826857Y-140402428D01*
X106874476Y-140426238D01*
X106898286Y-140450047D01*
X106922095Y-140497666D01*
X106922095Y-140688142D01*
X107160190Y-139926238D02*
X107160190Y-140211952D01*
X107160190Y-140069095D02*
X106660190Y-140069095D01*
X106731619Y-140116714D01*
X106779238Y-140164333D01*
X106803048Y-140211952D01*
X106660190Y-139616714D02*
X106660190Y-139569095D01*
X106684000Y-139521476D01*
X106707810Y-139497667D01*
X106755429Y-139473857D01*
X106850667Y-139450048D01*
X106969714Y-139450048D01*
X107064952Y-139473857D01*
X107112571Y-139497667D01*
X107136381Y-139521476D01*
X107160190Y-139569095D01*
X107160190Y-139616714D01*
X107136381Y-139664333D01*
X107112571Y-139688143D01*
X107064952Y-139711952D01*
X106969714Y-139735762D01*
X106850667Y-139735762D01*
X106755429Y-139711952D01*
X106707810Y-139688143D01*
X106684000Y-139664333D01*
X106660190Y-139616714D01*
X96365190Y-131385428D02*
X96127095Y-131552095D01*
X96365190Y-131671142D02*
X95865190Y-131671142D01*
X95865190Y-131480666D01*
X95889000Y-131433047D01*
X95912810Y-131409238D01*
X95960429Y-131385428D01*
X96031857Y-131385428D01*
X96079476Y-131409238D01*
X96103286Y-131433047D01*
X96127095Y-131480666D01*
X96127095Y-131671142D01*
X96365190Y-130909238D02*
X96365190Y-131194952D01*
X96365190Y-131052095D02*
X95865190Y-131052095D01*
X95936619Y-131099714D01*
X95984238Y-131147333D01*
X96008048Y-131194952D01*
X96365190Y-130433048D02*
X96365190Y-130718762D01*
X96365190Y-130575905D02*
X95865190Y-130575905D01*
X95936619Y-130623524D01*
X95984238Y-130671143D01*
X96008048Y-130718762D01*
X107414190Y-129861428D02*
X107176095Y-130028095D01*
X107414190Y-130147142D02*
X106914190Y-130147142D01*
X106914190Y-129956666D01*
X106938000Y-129909047D01*
X106961810Y-129885238D01*
X107009429Y-129861428D01*
X107080857Y-129861428D01*
X107128476Y-129885238D01*
X107152286Y-129909047D01*
X107176095Y-129956666D01*
X107176095Y-130147142D01*
X107414190Y-129385238D02*
X107414190Y-129670952D01*
X107414190Y-129528095D02*
X106914190Y-129528095D01*
X106985619Y-129575714D01*
X107033238Y-129623333D01*
X107057048Y-129670952D01*
X106961810Y-129194762D02*
X106938000Y-129170952D01*
X106914190Y-129123333D01*
X106914190Y-129004286D01*
X106938000Y-128956667D01*
X106961810Y-128932857D01*
X107009429Y-128909048D01*
X107057048Y-128909048D01*
X107128476Y-128932857D01*
X107414190Y-129218571D01*
X107414190Y-128909048D01*
X102715190Y-148784428D02*
X102477095Y-148951095D01*
X102715190Y-149070142D02*
X102215190Y-149070142D01*
X102215190Y-148879666D01*
X102239000Y-148832047D01*
X102262810Y-148808238D01*
X102310429Y-148784428D01*
X102381857Y-148784428D01*
X102429476Y-148808238D01*
X102453286Y-148832047D01*
X102477095Y-148879666D01*
X102477095Y-149070142D01*
X102715190Y-148308238D02*
X102715190Y-148593952D01*
X102715190Y-148451095D02*
X102215190Y-148451095D01*
X102286619Y-148498714D01*
X102334238Y-148546333D01*
X102358048Y-148593952D01*
X102215190Y-148141571D02*
X102215190Y-147832048D01*
X102405667Y-147998714D01*
X102405667Y-147927286D01*
X102429476Y-147879667D01*
X102453286Y-147855857D01*
X102500905Y-147832048D01*
X102619952Y-147832048D01*
X102667571Y-147855857D01*
X102691381Y-147879667D01*
X102715190Y-147927286D01*
X102715190Y-148070143D01*
X102691381Y-148117762D01*
X102667571Y-148141571D01*
X97254190Y-146244428D02*
X97016095Y-146411095D01*
X97254190Y-146530142D02*
X96754190Y-146530142D01*
X96754190Y-146339666D01*
X96778000Y-146292047D01*
X96801810Y-146268238D01*
X96849429Y-146244428D01*
X96920857Y-146244428D01*
X96968476Y-146268238D01*
X96992286Y-146292047D01*
X97016095Y-146339666D01*
X97016095Y-146530142D01*
X97254190Y-145768238D02*
X97254190Y-146053952D01*
X97254190Y-145911095D02*
X96754190Y-145911095D01*
X96825619Y-145958714D01*
X96873238Y-146006333D01*
X96897048Y-146053952D01*
X96920857Y-145339667D02*
X97254190Y-145339667D01*
X96730381Y-145458714D02*
X97087524Y-145577762D01*
X97087524Y-145268238D01*
X92047190Y-148784428D02*
X91809095Y-148951095D01*
X92047190Y-149070142D02*
X91547190Y-149070142D01*
X91547190Y-148879666D01*
X91571000Y-148832047D01*
X91594810Y-148808238D01*
X91642429Y-148784428D01*
X91713857Y-148784428D01*
X91761476Y-148808238D01*
X91785286Y-148832047D01*
X91809095Y-148879666D01*
X91809095Y-149070142D01*
X92047190Y-148308238D02*
X92047190Y-148593952D01*
X92047190Y-148451095D02*
X91547190Y-148451095D01*
X91618619Y-148498714D01*
X91666238Y-148546333D01*
X91690048Y-148593952D01*
X91547190Y-147855857D02*
X91547190Y-148093952D01*
X91785286Y-148117762D01*
X91761476Y-148093952D01*
X91737667Y-148046333D01*
X91737667Y-147927286D01*
X91761476Y-147879667D01*
X91785286Y-147855857D01*
X91832905Y-147832048D01*
X91951952Y-147832048D01*
X91999571Y-147855857D01*
X92023381Y-147879667D01*
X92047190Y-147927286D01*
X92047190Y-148046333D01*
X92023381Y-148093952D01*
X91999571Y-148117762D01*
X94674572Y-134211190D02*
X94507905Y-133973095D01*
X94388858Y-134211190D02*
X94388858Y-133711190D01*
X94579334Y-133711190D01*
X94626953Y-133735000D01*
X94650762Y-133758810D01*
X94674572Y-133806429D01*
X94674572Y-133877857D01*
X94650762Y-133925476D01*
X94626953Y-133949286D01*
X94579334Y-133973095D01*
X94388858Y-133973095D01*
X95150762Y-134211190D02*
X94865048Y-134211190D01*
X95007905Y-134211190D02*
X95007905Y-133711190D01*
X94960286Y-133782619D01*
X94912667Y-133830238D01*
X94865048Y-133854048D01*
X95579333Y-133711190D02*
X95484095Y-133711190D01*
X95436476Y-133735000D01*
X95412667Y-133758810D01*
X95365048Y-133830238D01*
X95341238Y-133925476D01*
X95341238Y-134115952D01*
X95365048Y-134163571D01*
X95388857Y-134187381D01*
X95436476Y-134211190D01*
X95531714Y-134211190D01*
X95579333Y-134187381D01*
X95603143Y-134163571D01*
X95626952Y-134115952D01*
X95626952Y-133996905D01*
X95603143Y-133949286D01*
X95579333Y-133925476D01*
X95531714Y-133901667D01*
X95436476Y-133901667D01*
X95388857Y-133925476D01*
X95365048Y-133949286D01*
X95341238Y-133996905D01*
X97254190Y-141164428D02*
X97016095Y-141331095D01*
X97254190Y-141450142D02*
X96754190Y-141450142D01*
X96754190Y-141259666D01*
X96778000Y-141212047D01*
X96801810Y-141188238D01*
X96849429Y-141164428D01*
X96920857Y-141164428D01*
X96968476Y-141188238D01*
X96992286Y-141212047D01*
X97016095Y-141259666D01*
X97016095Y-141450142D01*
X97254190Y-140688238D02*
X97254190Y-140973952D01*
X97254190Y-140831095D02*
X96754190Y-140831095D01*
X96825619Y-140878714D01*
X96873238Y-140926333D01*
X96897048Y-140973952D01*
X96754190Y-140521571D02*
X96754190Y-140188238D01*
X97254190Y-140402524D01*
X107414190Y-108525428D02*
X107176095Y-108692095D01*
X107414190Y-108811142D02*
X106914190Y-108811142D01*
X106914190Y-108620666D01*
X106938000Y-108573047D01*
X106961810Y-108549238D01*
X107009429Y-108525428D01*
X107080857Y-108525428D01*
X107128476Y-108549238D01*
X107152286Y-108573047D01*
X107176095Y-108620666D01*
X107176095Y-108811142D01*
X107414190Y-108049238D02*
X107414190Y-108334952D01*
X107414190Y-108192095D02*
X106914190Y-108192095D01*
X106985619Y-108239714D01*
X107033238Y-108287333D01*
X107057048Y-108334952D01*
X107128476Y-107763524D02*
X107104667Y-107811143D01*
X107080857Y-107834952D01*
X107033238Y-107858762D01*
X107009429Y-107858762D01*
X106961810Y-107834952D01*
X106938000Y-107811143D01*
X106914190Y-107763524D01*
X106914190Y-107668286D01*
X106938000Y-107620667D01*
X106961810Y-107596857D01*
X107009429Y-107573048D01*
X107033238Y-107573048D01*
X107080857Y-107596857D01*
X107104667Y-107620667D01*
X107128476Y-107668286D01*
X107128476Y-107763524D01*
X107152286Y-107811143D01*
X107176095Y-107834952D01*
X107223714Y-107858762D01*
X107318952Y-107858762D01*
X107366571Y-107834952D01*
X107390381Y-107811143D01*
X107414190Y-107763524D01*
X107414190Y-107668286D01*
X107390381Y-107620667D01*
X107366571Y-107596857D01*
X107318952Y-107573048D01*
X107223714Y-107573048D01*
X107176095Y-107596857D01*
X107152286Y-107620667D01*
X107128476Y-107668286D01*
X107414190Y-113605428D02*
X107176095Y-113772095D01*
X107414190Y-113891142D02*
X106914190Y-113891142D01*
X106914190Y-113700666D01*
X106938000Y-113653047D01*
X106961810Y-113629238D01*
X107009429Y-113605428D01*
X107080857Y-113605428D01*
X107128476Y-113629238D01*
X107152286Y-113653047D01*
X107176095Y-113700666D01*
X107176095Y-113891142D01*
X107414190Y-113129238D02*
X107414190Y-113414952D01*
X107414190Y-113272095D02*
X106914190Y-113272095D01*
X106985619Y-113319714D01*
X107033238Y-113367333D01*
X107057048Y-113414952D01*
X107414190Y-112891143D02*
X107414190Y-112795905D01*
X107390381Y-112748286D01*
X107366571Y-112724476D01*
X107295143Y-112676857D01*
X107199905Y-112653048D01*
X107009429Y-112653048D01*
X106961810Y-112676857D01*
X106938000Y-112700667D01*
X106914190Y-112748286D01*
X106914190Y-112843524D01*
X106938000Y-112891143D01*
X106961810Y-112914952D01*
X107009429Y-112938762D01*
X107128476Y-112938762D01*
X107176095Y-112914952D01*
X107199905Y-112891143D01*
X107223714Y-112843524D01*
X107223714Y-112748286D01*
X107199905Y-112700667D01*
X107176095Y-112676857D01*
X107128476Y-112653048D01*
X113891190Y-114875428D02*
X113653095Y-115042095D01*
X113891190Y-115161142D02*
X113391190Y-115161142D01*
X113391190Y-114970666D01*
X113415000Y-114923047D01*
X113438810Y-114899238D01*
X113486429Y-114875428D01*
X113557857Y-114875428D01*
X113605476Y-114899238D01*
X113629286Y-114923047D01*
X113653095Y-114970666D01*
X113653095Y-115161142D01*
X113438810Y-114684952D02*
X113415000Y-114661142D01*
X113391190Y-114613523D01*
X113391190Y-114494476D01*
X113415000Y-114446857D01*
X113438810Y-114423047D01*
X113486429Y-114399238D01*
X113534048Y-114399238D01*
X113605476Y-114423047D01*
X113891190Y-114708761D01*
X113891190Y-114399238D01*
X113391190Y-114089714D02*
X113391190Y-114042095D01*
X113415000Y-113994476D01*
X113438810Y-113970667D01*
X113486429Y-113946857D01*
X113581667Y-113923048D01*
X113700714Y-113923048D01*
X113795952Y-113946857D01*
X113843571Y-113970667D01*
X113867381Y-113994476D01*
X113891190Y-114042095D01*
X113891190Y-114089714D01*
X113867381Y-114137333D01*
X113843571Y-114161143D01*
X113795952Y-114184952D01*
X113700714Y-114208762D01*
X113581667Y-114208762D01*
X113486429Y-114184952D01*
X113438810Y-114161143D01*
X113415000Y-114137333D01*
X113391190Y-114089714D01*
X113891190Y-109795428D02*
X113653095Y-109962095D01*
X113891190Y-110081142D02*
X113391190Y-110081142D01*
X113391190Y-109890666D01*
X113415000Y-109843047D01*
X113438810Y-109819238D01*
X113486429Y-109795428D01*
X113557857Y-109795428D01*
X113605476Y-109819238D01*
X113629286Y-109843047D01*
X113653095Y-109890666D01*
X113653095Y-110081142D01*
X113438810Y-109604952D02*
X113415000Y-109581142D01*
X113391190Y-109533523D01*
X113391190Y-109414476D01*
X113415000Y-109366857D01*
X113438810Y-109343047D01*
X113486429Y-109319238D01*
X113534048Y-109319238D01*
X113605476Y-109343047D01*
X113891190Y-109628761D01*
X113891190Y-109319238D01*
X113891190Y-108843048D02*
X113891190Y-109128762D01*
X113891190Y-108985905D02*
X113391190Y-108985905D01*
X113462619Y-109033524D01*
X113510238Y-109081143D01*
X113534048Y-109128762D01*
X117280572Y-122400190D02*
X117113905Y-122162095D01*
X116994858Y-122400190D02*
X116994858Y-121900190D01*
X117185334Y-121900190D01*
X117232953Y-121924000D01*
X117256762Y-121947810D01*
X117280572Y-121995429D01*
X117280572Y-122066857D01*
X117256762Y-122114476D01*
X117232953Y-122138286D01*
X117185334Y-122162095D01*
X116994858Y-122162095D01*
X117471048Y-121947810D02*
X117494858Y-121924000D01*
X117542477Y-121900190D01*
X117661524Y-121900190D01*
X117709143Y-121924000D01*
X117732953Y-121947810D01*
X117756762Y-121995429D01*
X117756762Y-122043048D01*
X117732953Y-122114476D01*
X117447239Y-122400190D01*
X117756762Y-122400190D01*
X117947238Y-121947810D02*
X117971048Y-121924000D01*
X118018667Y-121900190D01*
X118137714Y-121900190D01*
X118185333Y-121924000D01*
X118209143Y-121947810D01*
X118232952Y-121995429D01*
X118232952Y-122043048D01*
X118209143Y-122114476D01*
X117923429Y-122400190D01*
X118232952Y-122400190D01*
X118844190Y-120336428D02*
X118606095Y-120503095D01*
X118844190Y-120622142D02*
X118344190Y-120622142D01*
X118344190Y-120431666D01*
X118368000Y-120384047D01*
X118391810Y-120360238D01*
X118439429Y-120336428D01*
X118510857Y-120336428D01*
X118558476Y-120360238D01*
X118582286Y-120384047D01*
X118606095Y-120431666D01*
X118606095Y-120622142D01*
X118391810Y-120145952D02*
X118368000Y-120122142D01*
X118344190Y-120074523D01*
X118344190Y-119955476D01*
X118368000Y-119907857D01*
X118391810Y-119884047D01*
X118439429Y-119860238D01*
X118487048Y-119860238D01*
X118558476Y-119884047D01*
X118844190Y-120169761D01*
X118844190Y-119860238D01*
X118344190Y-119693571D02*
X118344190Y-119384048D01*
X118534667Y-119550714D01*
X118534667Y-119479286D01*
X118558476Y-119431667D01*
X118582286Y-119407857D01*
X118629905Y-119384048D01*
X118748952Y-119384048D01*
X118796571Y-119407857D01*
X118820381Y-119431667D01*
X118844190Y-119479286D01*
X118844190Y-119622143D01*
X118820381Y-119669762D01*
X118796571Y-119693571D01*
X106525190Y-123384428D02*
X106287095Y-123551095D01*
X106525190Y-123670142D02*
X106025190Y-123670142D01*
X106025190Y-123479666D01*
X106049000Y-123432047D01*
X106072810Y-123408238D01*
X106120429Y-123384428D01*
X106191857Y-123384428D01*
X106239476Y-123408238D01*
X106263286Y-123432047D01*
X106287095Y-123479666D01*
X106287095Y-123670142D01*
X106072810Y-123193952D02*
X106049000Y-123170142D01*
X106025190Y-123122523D01*
X106025190Y-123003476D01*
X106049000Y-122955857D01*
X106072810Y-122932047D01*
X106120429Y-122908238D01*
X106168048Y-122908238D01*
X106239476Y-122932047D01*
X106525190Y-123217761D01*
X106525190Y-122908238D01*
X106191857Y-122479667D02*
X106525190Y-122479667D01*
X106001381Y-122598714D02*
X106358524Y-122717762D01*
X106358524Y-122408238D01*
X108009572Y-118082190D02*
X107842905Y-117844095D01*
X107723858Y-118082190D02*
X107723858Y-117582190D01*
X107914334Y-117582190D01*
X107961953Y-117606000D01*
X107985762Y-117629810D01*
X108009572Y-117677429D01*
X108009572Y-117748857D01*
X107985762Y-117796476D01*
X107961953Y-117820286D01*
X107914334Y-117844095D01*
X107723858Y-117844095D01*
X108200048Y-117629810D02*
X108223858Y-117606000D01*
X108271477Y-117582190D01*
X108390524Y-117582190D01*
X108438143Y-117606000D01*
X108461953Y-117629810D01*
X108485762Y-117677429D01*
X108485762Y-117725048D01*
X108461953Y-117796476D01*
X108176239Y-118082190D01*
X108485762Y-118082190D01*
X108938143Y-117582190D02*
X108700048Y-117582190D01*
X108676238Y-117820286D01*
X108700048Y-117796476D01*
X108747667Y-117772667D01*
X108866714Y-117772667D01*
X108914333Y-117796476D01*
X108938143Y-117820286D01*
X108961952Y-117867905D01*
X108961952Y-117986952D01*
X108938143Y-118034571D01*
X108914333Y-118058381D01*
X108866714Y-118082190D01*
X108747667Y-118082190D01*
X108700048Y-118058381D01*
X108676238Y-118034571D01*
X55598190Y-130623428D02*
X55360095Y-130790095D01*
X55598190Y-130909142D02*
X55098190Y-130909142D01*
X55098190Y-130718666D01*
X55122000Y-130671047D01*
X55145810Y-130647238D01*
X55193429Y-130623428D01*
X55264857Y-130623428D01*
X55312476Y-130647238D01*
X55336286Y-130671047D01*
X55360095Y-130718666D01*
X55360095Y-130909142D01*
X55145810Y-130432952D02*
X55122000Y-130409142D01*
X55098190Y-130361523D01*
X55098190Y-130242476D01*
X55122000Y-130194857D01*
X55145810Y-130171047D01*
X55193429Y-130147238D01*
X55241048Y-130147238D01*
X55312476Y-130171047D01*
X55598190Y-130456761D01*
X55598190Y-130147238D01*
X55098190Y-129718667D02*
X55098190Y-129813905D01*
X55122000Y-129861524D01*
X55145810Y-129885333D01*
X55217238Y-129932952D01*
X55312476Y-129956762D01*
X55502952Y-129956762D01*
X55550571Y-129932952D01*
X55574381Y-129909143D01*
X55598190Y-129861524D01*
X55598190Y-129766286D01*
X55574381Y-129718667D01*
X55550571Y-129694857D01*
X55502952Y-129671048D01*
X55383905Y-129671048D01*
X55336286Y-129694857D01*
X55312476Y-129718667D01*
X55288667Y-129766286D01*
X55288667Y-129861524D01*
X55312476Y-129909143D01*
X55336286Y-129932952D01*
X55383905Y-129956762D01*
X105517190Y-176152761D02*
X105874333Y-176152761D01*
X105945762Y-176176571D01*
X105993381Y-176224190D01*
X106017190Y-176295618D01*
X106017190Y-176343237D01*
X106064810Y-176033714D02*
X106064810Y-175652762D01*
X106064810Y-175200381D02*
X106041000Y-175248000D01*
X105993381Y-175295619D01*
X105921952Y-175367048D01*
X105898143Y-175414667D01*
X105898143Y-175462286D01*
X106017190Y-175438476D02*
X105993381Y-175486095D01*
X105945762Y-175533714D01*
X105850524Y-175557524D01*
X105683857Y-175557524D01*
X105588619Y-175533714D01*
X105541000Y-175486095D01*
X105517190Y-175438476D01*
X105517190Y-175343238D01*
X105541000Y-175295619D01*
X105588619Y-175248000D01*
X105683857Y-175224191D01*
X105850524Y-175224191D01*
X105945762Y-175248000D01*
X105993381Y-175295619D01*
X106017190Y-175343238D01*
X106017190Y-175438476D01*
X106017190Y-174748000D02*
X106017190Y-175033714D01*
X106017190Y-174890857D02*
X105517190Y-174890857D01*
X105588619Y-174938476D01*
X105636238Y-174986095D01*
X105660048Y-175033714D01*
X106017190Y-174533714D02*
X105517190Y-174533714D01*
X105874333Y-174367048D01*
X105517190Y-174200381D01*
X106017190Y-174200381D01*
X105517190Y-173867047D02*
X105517190Y-173771809D01*
X105541000Y-173724190D01*
X105588619Y-173676571D01*
X105683857Y-173652762D01*
X105850524Y-173652762D01*
X105945762Y-173676571D01*
X105993381Y-173724190D01*
X106017190Y-173771809D01*
X106017190Y-173867047D01*
X105993381Y-173914666D01*
X105945762Y-173962285D01*
X105850524Y-173986095D01*
X105683857Y-173986095D01*
X105588619Y-173962285D01*
X105541000Y-173914666D01*
X105517190Y-173867047D01*
X106017190Y-173438475D02*
X105517190Y-173438475D01*
X105517190Y-173319428D01*
X105541000Y-173247999D01*
X105588619Y-173200380D01*
X105636238Y-173176571D01*
X105731476Y-173152761D01*
X105802905Y-173152761D01*
X105898143Y-173176571D01*
X105945762Y-173200380D01*
X105993381Y-173247999D01*
X106017190Y-173319428D01*
X106017190Y-173438475D01*
X106017190Y-172676571D02*
X106017190Y-172962285D01*
X106017190Y-172819428D02*
X105517190Y-172819428D01*
X105588619Y-172867047D01*
X105636238Y-172914666D01*
X105660048Y-172962285D01*
X99056239Y-134219190D02*
X99056239Y-134576333D01*
X99032429Y-134647762D01*
X98984810Y-134695381D01*
X98913382Y-134719190D01*
X98865763Y-134719190D01*
X99175286Y-134766810D02*
X99556238Y-134766810D01*
X100008619Y-134766810D02*
X99961000Y-134743000D01*
X99913381Y-134695381D01*
X99841952Y-134623952D01*
X99794333Y-134600143D01*
X99746714Y-134600143D01*
X99770524Y-134719190D02*
X99722905Y-134695381D01*
X99675286Y-134647762D01*
X99651476Y-134552524D01*
X99651476Y-134385857D01*
X99675286Y-134290619D01*
X99722905Y-134243000D01*
X99770524Y-134219190D01*
X99865762Y-134219190D01*
X99913381Y-134243000D01*
X99961000Y-134290619D01*
X99984809Y-134385857D01*
X99984809Y-134552524D01*
X99961000Y-134647762D01*
X99913381Y-134695381D01*
X99865762Y-134719190D01*
X99770524Y-134719190D01*
X100175286Y-134266810D02*
X100199096Y-134243000D01*
X100246715Y-134219190D01*
X100365762Y-134219190D01*
X100413381Y-134243000D01*
X100437191Y-134266810D01*
X100461000Y-134314429D01*
X100461000Y-134362048D01*
X100437191Y-134433476D01*
X100151477Y-134719190D01*
X100461000Y-134719190D01*
X100675286Y-134719190D02*
X100675286Y-134219190D01*
X100841952Y-134576333D01*
X101008619Y-134219190D01*
X101008619Y-134719190D01*
X101341953Y-134219190D02*
X101437191Y-134219190D01*
X101484810Y-134243000D01*
X101532429Y-134290619D01*
X101556238Y-134385857D01*
X101556238Y-134552524D01*
X101532429Y-134647762D01*
X101484810Y-134695381D01*
X101437191Y-134719190D01*
X101341953Y-134719190D01*
X101294334Y-134695381D01*
X101246715Y-134647762D01*
X101222905Y-134552524D01*
X101222905Y-134385857D01*
X101246715Y-134290619D01*
X101294334Y-134243000D01*
X101341953Y-134219190D01*
X101770525Y-134719190D02*
X101770525Y-134219190D01*
X101889572Y-134219190D01*
X101961001Y-134243000D01*
X102008620Y-134290619D01*
X102032429Y-134338238D01*
X102056239Y-134433476D01*
X102056239Y-134504905D01*
X102032429Y-134600143D01*
X102008620Y-134647762D01*
X101961001Y-134695381D01*
X101889572Y-134719190D01*
X101770525Y-134719190D01*
X102532429Y-134719190D02*
X102246715Y-134719190D01*
X102389572Y-134719190D02*
X102389572Y-134219190D01*
X102341953Y-134290619D01*
X102294334Y-134338238D01*
X102246715Y-134362048D01*
X92055190Y-140465761D02*
X92412333Y-140465761D01*
X92483762Y-140489571D01*
X92531381Y-140537190D01*
X92555190Y-140608618D01*
X92555190Y-140656237D01*
X92602810Y-140346714D02*
X92602810Y-139965762D01*
X92602810Y-139513381D02*
X92579000Y-139561000D01*
X92531381Y-139608619D01*
X92459952Y-139680048D01*
X92436143Y-139727667D01*
X92436143Y-139775286D01*
X92555190Y-139751476D02*
X92531381Y-139799095D01*
X92483762Y-139846714D01*
X92388524Y-139870524D01*
X92221857Y-139870524D01*
X92126619Y-139846714D01*
X92079000Y-139799095D01*
X92055190Y-139751476D01*
X92055190Y-139656238D01*
X92079000Y-139608619D01*
X92126619Y-139561000D01*
X92221857Y-139537191D01*
X92388524Y-139537191D01*
X92483762Y-139561000D01*
X92531381Y-139608619D01*
X92555190Y-139656238D01*
X92555190Y-139751476D01*
X92055190Y-139370523D02*
X92055190Y-139061000D01*
X92245667Y-139227666D01*
X92245667Y-139156238D01*
X92269476Y-139108619D01*
X92293286Y-139084809D01*
X92340905Y-139061000D01*
X92459952Y-139061000D01*
X92507571Y-139084809D01*
X92531381Y-139108619D01*
X92555190Y-139156238D01*
X92555190Y-139299095D01*
X92531381Y-139346714D01*
X92507571Y-139370523D01*
X92555190Y-138846714D02*
X92055190Y-138846714D01*
X92412333Y-138680048D01*
X92055190Y-138513381D01*
X92555190Y-138513381D01*
X92055190Y-138180047D02*
X92055190Y-138084809D01*
X92079000Y-138037190D01*
X92126619Y-137989571D01*
X92221857Y-137965762D01*
X92388524Y-137965762D01*
X92483762Y-137989571D01*
X92531381Y-138037190D01*
X92555190Y-138084809D01*
X92555190Y-138180047D01*
X92531381Y-138227666D01*
X92483762Y-138275285D01*
X92388524Y-138299095D01*
X92221857Y-138299095D01*
X92126619Y-138275285D01*
X92079000Y-138227666D01*
X92055190Y-138180047D01*
X92555190Y-137751475D02*
X92055190Y-137751475D01*
X92055190Y-137632428D01*
X92079000Y-137560999D01*
X92126619Y-137513380D01*
X92174238Y-137489571D01*
X92269476Y-137465761D01*
X92340905Y-137465761D01*
X92436143Y-137489571D01*
X92483762Y-137513380D01*
X92531381Y-137560999D01*
X92555190Y-137632428D01*
X92555190Y-137751475D01*
X92555190Y-136989571D02*
X92555190Y-137275285D01*
X92555190Y-137132428D02*
X92055190Y-137132428D01*
X92126619Y-137180047D01*
X92174238Y-137227666D01*
X92198048Y-137275285D01*
X113407239Y-118471190D02*
X113407239Y-118828333D01*
X113383429Y-118899762D01*
X113335810Y-118947381D01*
X113264382Y-118971190D01*
X113216763Y-118971190D01*
X113526286Y-119018810D02*
X113907238Y-119018810D01*
X114359619Y-119018810D02*
X114312000Y-118995000D01*
X114264381Y-118947381D01*
X114192952Y-118875952D01*
X114145333Y-118852143D01*
X114097714Y-118852143D01*
X114121524Y-118971190D02*
X114073905Y-118947381D01*
X114026286Y-118899762D01*
X114002476Y-118804524D01*
X114002476Y-118637857D01*
X114026286Y-118542619D01*
X114073905Y-118495000D01*
X114121524Y-118471190D01*
X114216762Y-118471190D01*
X114264381Y-118495000D01*
X114312000Y-118542619D01*
X114335809Y-118637857D01*
X114335809Y-118804524D01*
X114312000Y-118899762D01*
X114264381Y-118947381D01*
X114216762Y-118971190D01*
X114121524Y-118971190D01*
X114764381Y-118637857D02*
X114764381Y-118971190D01*
X114645334Y-118447381D02*
X114526286Y-118804524D01*
X114835810Y-118804524D01*
X115026286Y-118971190D02*
X115026286Y-118471190D01*
X115192952Y-118828333D01*
X115359619Y-118471190D01*
X115359619Y-118971190D01*
X115692953Y-118471190D02*
X115788191Y-118471190D01*
X115835810Y-118495000D01*
X115883429Y-118542619D01*
X115907238Y-118637857D01*
X115907238Y-118804524D01*
X115883429Y-118899762D01*
X115835810Y-118947381D01*
X115788191Y-118971190D01*
X115692953Y-118971190D01*
X115645334Y-118947381D01*
X115597715Y-118899762D01*
X115573905Y-118804524D01*
X115573905Y-118637857D01*
X115597715Y-118542619D01*
X115645334Y-118495000D01*
X115692953Y-118471190D01*
X116121525Y-118971190D02*
X116121525Y-118471190D01*
X116240572Y-118471190D01*
X116312001Y-118495000D01*
X116359620Y-118542619D01*
X116383429Y-118590238D01*
X116407239Y-118685476D01*
X116407239Y-118756905D01*
X116383429Y-118852143D01*
X116359620Y-118899762D01*
X116312001Y-118947381D01*
X116240572Y-118971190D01*
X116121525Y-118971190D01*
X116883429Y-118971190D02*
X116597715Y-118971190D01*
X116740572Y-118971190D02*
X116740572Y-118471190D01*
X116692953Y-118542619D01*
X116645334Y-118590238D01*
X116597715Y-118614048D01*
D11*
X111402905Y-143454381D02*
X111402905Y-142454381D01*
X111641000Y-142454381D01*
X111783858Y-142502000D01*
X111879096Y-142597238D01*
X111926715Y-142692476D01*
X111974334Y-142882952D01*
X111974334Y-143025810D01*
X111926715Y-143216286D01*
X111879096Y-143311524D01*
X111783858Y-143406762D01*
X111641000Y-143454381D01*
X111402905Y-143454381D01*
X112355286Y-142549619D02*
X112402905Y-142502000D01*
X112498143Y-142454381D01*
X112736239Y-142454381D01*
X112831477Y-142502000D01*
X112879096Y-142549619D01*
X112926715Y-142644857D01*
X112926715Y-142740095D01*
X112879096Y-142882952D01*
X112307667Y-143454381D01*
X112926715Y-143454381D01*
X111021905Y-137993381D02*
X111021905Y-136993381D01*
X111260000Y-136993381D01*
X111402858Y-137041000D01*
X111498096Y-137136238D01*
X111545715Y-137231476D01*
X111593334Y-137421952D01*
X111593334Y-137564810D01*
X111545715Y-137755286D01*
X111498096Y-137850524D01*
X111402858Y-137945762D01*
X111260000Y-137993381D01*
X111021905Y-137993381D01*
X111926667Y-136993381D02*
X112545715Y-136993381D01*
X112212381Y-137374333D01*
X112355239Y-137374333D01*
X112450477Y-137421952D01*
X112498096Y-137469571D01*
X112545715Y-137564810D01*
X112545715Y-137802905D01*
X112498096Y-137898143D01*
X112450477Y-137945762D01*
X112355239Y-137993381D01*
X112069524Y-137993381D01*
X111974286Y-137945762D01*
X111926667Y-137898143D01*
X96416905Y-158059381D02*
X96416905Y-157059381D01*
X96655000Y-157059381D01*
X96797858Y-157107000D01*
X96893096Y-157202238D01*
X96940715Y-157297476D01*
X96988334Y-157487952D01*
X96988334Y-157630810D01*
X96940715Y-157821286D01*
X96893096Y-157916524D01*
X96797858Y-158011762D01*
X96655000Y-158059381D01*
X96416905Y-158059381D01*
X97845477Y-157392714D02*
X97845477Y-158059381D01*
X97607381Y-157011762D02*
X97369286Y-157726048D01*
X97988334Y-157726048D01*
X96035905Y-155138381D02*
X96035905Y-154138381D01*
X96274000Y-154138381D01*
X96416858Y-154186000D01*
X96512096Y-154281238D01*
X96559715Y-154376476D01*
X96607334Y-154566952D01*
X96607334Y-154709810D01*
X96559715Y-154900286D01*
X96512096Y-154995524D01*
X96416858Y-155090762D01*
X96274000Y-155138381D01*
X96035905Y-155138381D01*
X97512096Y-154138381D02*
X97035905Y-154138381D01*
X96988286Y-154614571D01*
X97035905Y-154566952D01*
X97131143Y-154519333D01*
X97369239Y-154519333D01*
X97464477Y-154566952D01*
X97512096Y-154614571D01*
X97559715Y-154709810D01*
X97559715Y-154947905D01*
X97512096Y-155043143D01*
X97464477Y-155090762D01*
X97369239Y-155138381D01*
X97131143Y-155138381D01*
X97035905Y-155090762D01*
X96988286Y-155043143D01*
X94921381Y-105929333D02*
X95635667Y-105929333D01*
X95778524Y-105976953D01*
X95873762Y-106072191D01*
X95921381Y-106215048D01*
X95921381Y-106310286D01*
X95921381Y-104929333D02*
X95921381Y-105500762D01*
X95921381Y-105215048D02*
X94921381Y-105215048D01*
X95064238Y-105310286D01*
X95159476Y-105405524D01*
X95207095Y-105500762D01*
%LPC*%
D14*
X45419000Y-150241000D03*
X47919000Y-150241000D03*
X50419000Y-150241000D03*
D15*
X43519000Y-143241000D03*
X52319000Y-143241000D03*
D16*
X108689000Y-163702000D03*
X108689000Y-147702000D03*
X121689000Y-147702000D03*
X121666000Y-163702000D03*
D17*
X110021000Y-193322000D03*
X104521000Y-193322000D03*
X99021000Y-193322000D03*
X110021000Y-188722000D03*
X104521000Y-188722000D03*
X99021000Y-188722000D03*
X110021000Y-184122000D03*
X104521000Y-184122000D03*
X99021000Y-184122000D03*
D14*
X69168000Y-134366000D03*
X71668000Y-134366000D03*
X74168000Y-134366000D03*
D15*
X67268000Y-127366000D03*
X76068000Y-127366000D03*
D14*
X69168000Y-118872000D03*
X71668000Y-118872000D03*
X74168000Y-118872000D03*
D15*
X67268000Y-111872000D03*
X76068000Y-111872000D03*
D18*
X40513000Y-128397000D03*
D19*
X40513000Y-125857000D03*
X40513000Y-123317000D03*
X40513000Y-120777000D03*
X40513000Y-118237000D03*
X40513000Y-115697000D03*
X40513000Y-113157000D03*
X40513000Y-110617000D03*
D18*
X123952000Y-137922000D03*
D19*
X123952000Y-135382000D03*
X123952000Y-132842000D03*
X123952000Y-130302000D03*
X123952000Y-127762000D03*
X123952000Y-125222000D03*
X123952000Y-122682000D03*
X123952000Y-120142000D03*
D18*
X85471000Y-137922000D03*
D19*
X85471000Y-135382000D03*
X85471000Y-132842000D03*
X85471000Y-130302000D03*
X85471000Y-127762000D03*
X85471000Y-125222000D03*
X85471000Y-122682000D03*
X85471000Y-120142000D03*
D16*
X100607000Y-162688000D03*
X100607000Y-178688000D03*
X87607000Y-178688000D03*
X87630000Y-162688000D03*
D20*
X118217000Y-184023000D03*
X115717000Y-184023000D03*
X124059000Y-184023000D03*
X121559000Y-184023000D03*
D21*
X117729000Y-170708000D03*
X117729000Y-173208000D03*
X120650000Y-170708000D03*
X120650000Y-173208000D03*
D20*
X116606000Y-129540000D03*
X119106000Y-129540000D03*
X119106000Y-134874000D03*
X116606000Y-134874000D03*
X111105000Y-132207000D03*
X108605000Y-132207000D03*
D21*
X97790000Y-135021000D03*
X97790000Y-137521000D03*
D20*
X100818000Y-151892000D03*
X98318000Y-151892000D03*
X93238000Y-151892000D03*
X95738000Y-151892000D03*
X108605000Y-110744000D03*
X111105000Y-110744000D03*
X111105000Y-115824000D03*
X108605000Y-115824000D03*
D21*
X119888000Y-123718000D03*
X119888000Y-126218000D03*
X104902000Y-121940000D03*
X104902000Y-124440000D03*
D22*
X93091000Y-125729000D03*
X93091000Y-122429000D03*
D23*
X59182000Y-132969000D03*
D14*
X61722000Y-132969000D03*
X45419000Y-134366000D03*
X47919000Y-134366000D03*
X50419000Y-134366000D03*
D15*
X43519000Y-127366000D03*
X52319000Y-127366000D03*
D18*
X79121000Y-128397000D03*
D19*
X79121000Y-125857000D03*
X79121000Y-123317000D03*
X79121000Y-120777000D03*
X79121000Y-118237000D03*
X79121000Y-115697000D03*
X79121000Y-113157000D03*
X79121000Y-110617000D03*
D14*
X45419000Y-118872000D03*
X47919000Y-118872000D03*
X50419000Y-118872000D03*
D15*
X43519000Y-111872000D03*
X52319000Y-111872000D03*
D24*
X117155000Y-176038000D03*
X115255000Y-176038000D03*
X116205000Y-178038000D03*
D25*
X105775000Y-131887000D03*
X105775000Y-129987000D03*
X103775000Y-130937000D03*
X95488000Y-145857000D03*
X95488000Y-143957000D03*
X93488000Y-144907000D03*
D24*
X111948000Y-122190000D03*
X110048000Y-122190000D03*
X110998000Y-124190000D03*
D26*
X118317000Y-187833000D03*
X115617000Y-187833000D03*
X124159000Y-187833000D03*
X121459000Y-187833000D03*
D27*
X123063000Y-170608000D03*
X123063000Y-173308000D03*
X123063000Y-178388000D03*
X123063000Y-175688000D03*
D26*
X111205000Y-179578000D03*
X108505000Y-179578000D03*
D27*
X114681000Y-170735000D03*
X114681000Y-173435000D03*
D26*
X112221000Y-168656000D03*
X109521000Y-168656000D03*
X119206000Y-131826000D03*
X116506000Y-131826000D03*
D27*
X113792000Y-132287000D03*
X113792000Y-129587000D03*
D26*
X108251000Y-140081000D03*
X110951000Y-140081000D03*
D27*
X97790000Y-129841000D03*
X97790000Y-132541000D03*
D26*
X108505000Y-129540000D03*
X111205000Y-129540000D03*
X101045000Y-148463000D03*
X98345000Y-148463000D03*
X98345000Y-145923000D03*
X101045000Y-145923000D03*
X93138000Y-148463000D03*
X95838000Y-148463000D03*
D27*
X94996000Y-129841000D03*
X94996000Y-132541000D03*
D26*
X98345000Y-140970000D03*
X101045000Y-140970000D03*
X108505000Y-108204000D03*
X111205000Y-108204000D03*
X111205000Y-113284000D03*
X108505000Y-113284000D03*
D27*
X114935000Y-113204000D03*
X114935000Y-115904000D03*
X114935000Y-110824000D03*
X114935000Y-108124000D03*
X117602000Y-126318000D03*
X117602000Y-123618000D03*
X119888000Y-121365000D03*
X119888000Y-118665000D03*
X107569000Y-124413000D03*
X107569000Y-121713000D03*
D26*
X109681000Y-119126000D03*
X106981000Y-119126000D03*
D27*
X55245000Y-132889000D03*
X55245000Y-135589000D03*
D18*
X109220000Y-173482000D03*
D19*
X109220000Y-176022000D03*
D18*
X100838000Y-129794000D03*
D19*
X100838000Y-132334000D03*
D18*
X94488000Y-137795000D03*
D19*
X94488000Y-140335000D03*
D18*
X114935000Y-120904000D03*
D19*
X114935000Y-123444000D03*
D28*
X108331000Y-143002000D03*
D29*
X115951000Y-143002000D03*
D28*
X115824000Y-137414000D03*
D29*
X108204000Y-137414000D03*
D28*
X93218000Y-157607000D03*
D29*
X100838000Y-157607000D03*
D28*
X100838000Y-154686000D03*
D29*
X93218000Y-154686000D03*
D30*
X101219000Y-114046000D03*
X101219000Y-108046000D03*
X96519000Y-111046000D03*
M02*
