G04 #@! TF.FileFunction,Soldermask,Bot*
%FSLAX46Y46*%
G04 Gerber Fmt 4.6, Leading zero omitted, Abs format (unit mm)*
G04 Created by KiCad (PCBNEW 4.0.6) date Monday, 12 February 2018 'AMt' 00:03:10*
%MOMM*%
%LPD*%
G01*
G04 APERTURE LIST*
%ADD10C,0.100000*%
%ADD11C,0.150000*%
%ADD12C,2.200000*%
%ADD13C,3.400000*%
%ADD14O,5.400000X4.400000*%
%ADD15O,4.400000X3.900000*%
%ADD16R,2.100000X2.100000*%
%ADD17O,2.100000X2.100000*%
%ADD18R,2.200000X2.200000*%
%ADD19R,3.900000X3.900000*%
G04 APERTURE END LIST*
D10*
D11*
X80772000Y-105791000D02*
X38862000Y-105791000D01*
X80772000Y-136271000D02*
X80772000Y-105791000D01*
X56896000Y-136271000D02*
X56896000Y-151511000D01*
X56896000Y-136271000D02*
X80772000Y-136271000D01*
X38862000Y-151511000D02*
X38862000Y-105791000D01*
X56896000Y-151511000D02*
X38862000Y-151511000D01*
X125603000Y-190881000D02*
X125603000Y-112903000D01*
X90678000Y-197866000D02*
X118618000Y-197866000D01*
X90678000Y-190881000D02*
X83693000Y-190881000D01*
X83693000Y-112903000D02*
X83693000Y-190881000D01*
X118618000Y-105918000D02*
X90678000Y-105918000D01*
X90678000Y-112903000D02*
X83693000Y-112903000D01*
X90678000Y-105918000D02*
X90678000Y-112903000D01*
X118618000Y-112903000D02*
X125603000Y-112903000D01*
X118618000Y-105918000D02*
X118618000Y-112903000D01*
X118618000Y-190881000D02*
X118618000Y-197866000D01*
X125603000Y-190881000D02*
X118618000Y-190881000D01*
X90678000Y-190881000D02*
X90678000Y-197866000D01*
D12*
X45419000Y-150241000D03*
X47919000Y-150241000D03*
X50419000Y-150241000D03*
D13*
X43519000Y-143241000D03*
X52319000Y-143241000D03*
D14*
X108689000Y-163702000D03*
X108689000Y-147702000D03*
X121689000Y-147702000D03*
X121666000Y-163702000D03*
D15*
X99021000Y-184122000D03*
X104521000Y-184122000D03*
X110021000Y-184122000D03*
X99021000Y-188722000D03*
X104521000Y-188722000D03*
X110021000Y-188722000D03*
X99021000Y-193322000D03*
X104521000Y-193322000D03*
X110021000Y-193322000D03*
D12*
X69168000Y-134366000D03*
X71668000Y-134366000D03*
X74168000Y-134366000D03*
D13*
X67268000Y-127366000D03*
X76068000Y-127366000D03*
D12*
X69168000Y-118872000D03*
X71668000Y-118872000D03*
X74168000Y-118872000D03*
D13*
X67268000Y-111872000D03*
X76068000Y-111872000D03*
D16*
X40513000Y-128397000D03*
D17*
X40513000Y-125857000D03*
X40513000Y-123317000D03*
X40513000Y-120777000D03*
X40513000Y-118237000D03*
X40513000Y-115697000D03*
X40513000Y-113157000D03*
X40513000Y-110617000D03*
D16*
X123952000Y-137922000D03*
D17*
X123952000Y-135382000D03*
X123952000Y-132842000D03*
X123952000Y-130302000D03*
X123952000Y-127762000D03*
X123952000Y-125222000D03*
X123952000Y-122682000D03*
X123952000Y-120142000D03*
D16*
X85471000Y-137922000D03*
D17*
X85471000Y-135382000D03*
X85471000Y-132842000D03*
X85471000Y-130302000D03*
X85471000Y-127762000D03*
X85471000Y-125222000D03*
X85471000Y-122682000D03*
X85471000Y-120142000D03*
D14*
X100607000Y-162688000D03*
X100607000Y-178688000D03*
X87607000Y-178688000D03*
X87630000Y-162688000D03*
D18*
X59182000Y-132969000D03*
D12*
X61722000Y-132969000D03*
X45419000Y-134366000D03*
X47919000Y-134366000D03*
X50419000Y-134366000D03*
D13*
X43519000Y-127366000D03*
X52319000Y-127366000D03*
D16*
X79121000Y-128397000D03*
D17*
X79121000Y-125857000D03*
X79121000Y-123317000D03*
X79121000Y-120777000D03*
X79121000Y-118237000D03*
X79121000Y-115697000D03*
X79121000Y-113157000D03*
X79121000Y-110617000D03*
D12*
X45419000Y-118872000D03*
X47919000Y-118872000D03*
X50419000Y-118872000D03*
D13*
X43519000Y-111872000D03*
X52319000Y-111872000D03*
D19*
X101219000Y-114046000D03*
X101219000Y-108046000D03*
X96519000Y-111046000D03*
D16*
X109220000Y-173482000D03*
D17*
X109220000Y-176022000D03*
D16*
X107188000Y-126873000D03*
D17*
X104648000Y-126873000D03*
D16*
X93599000Y-137922000D03*
D17*
X91059000Y-137922000D03*
D16*
X113538000Y-126365000D03*
D17*
X110998000Y-126365000D03*
M02*
