G04 #@! TF.FileFunction,Soldermask,Top*
%FSLAX46Y46*%
G04 Gerber Fmt 4.6, Leading zero omitted, Abs format (unit mm)*
G04 Created by KiCad (PCBNEW 4.0.6) date Monday, 12 February 2018 'AMt' 00:03:10*
%MOMM*%
%LPD*%
G01*
G04 APERTURE LIST*
%ADD10C,0.100000*%
%ADD11C,0.150000*%
%ADD12C,2.200000*%
%ADD13C,3.400000*%
%ADD14O,5.400000X4.400000*%
%ADD15O,4.400000X3.900000*%
%ADD16R,2.100000X2.100000*%
%ADD17O,2.100000X2.100000*%
%ADD18R,1.900000X1.650000*%
%ADD19R,1.650000X1.900000*%
%ADD20R,1.600000X1.300000*%
%ADD21R,1.300000X1.600000*%
%ADD22R,2.200000X2.200000*%
%ADD23R,1.200000X1.300000*%
%ADD24R,1.300000X1.200000*%
%ADD25R,1.900000X1.700000*%
%ADD26R,1.700000X1.900000*%
%ADD27R,3.900000X3.900000*%
G04 APERTURE END LIST*
D10*
D11*
X80772000Y-105791000D02*
X38862000Y-105791000D01*
X80772000Y-136271000D02*
X80772000Y-105791000D01*
X56896000Y-136271000D02*
X56896000Y-151511000D01*
X56896000Y-136271000D02*
X80772000Y-136271000D01*
X38862000Y-151511000D02*
X38862000Y-105791000D01*
X56896000Y-151511000D02*
X38862000Y-151511000D01*
X125603000Y-190881000D02*
X125603000Y-112903000D01*
X90678000Y-197866000D02*
X118618000Y-197866000D01*
X90678000Y-190881000D02*
X83693000Y-190881000D01*
X83693000Y-112903000D02*
X83693000Y-190881000D01*
X118618000Y-105918000D02*
X90678000Y-105918000D01*
X90678000Y-112903000D02*
X83693000Y-112903000D01*
X90678000Y-105918000D02*
X90678000Y-112903000D01*
X118618000Y-112903000D02*
X125603000Y-112903000D01*
X118618000Y-105918000D02*
X118618000Y-112903000D01*
X118618000Y-190881000D02*
X118618000Y-197866000D01*
X125603000Y-190881000D02*
X118618000Y-190881000D01*
X90678000Y-190881000D02*
X90678000Y-197866000D01*
D12*
X45419000Y-150241000D03*
X47919000Y-150241000D03*
X50419000Y-150241000D03*
D13*
X43519000Y-143241000D03*
X52319000Y-143241000D03*
D14*
X108689000Y-163702000D03*
X108689000Y-147702000D03*
X121689000Y-147702000D03*
X121666000Y-163702000D03*
D15*
X99021000Y-184122000D03*
X104521000Y-184122000D03*
X110021000Y-184122000D03*
X99021000Y-188722000D03*
X104521000Y-188722000D03*
X110021000Y-188722000D03*
X99021000Y-193322000D03*
X104521000Y-193322000D03*
X110021000Y-193322000D03*
D12*
X69168000Y-134366000D03*
X71668000Y-134366000D03*
X74168000Y-134366000D03*
D13*
X67268000Y-127366000D03*
X76068000Y-127366000D03*
D12*
X69168000Y-118872000D03*
X71668000Y-118872000D03*
X74168000Y-118872000D03*
D13*
X67268000Y-111872000D03*
X76068000Y-111872000D03*
D16*
X40513000Y-128397000D03*
D17*
X40513000Y-125857000D03*
X40513000Y-123317000D03*
X40513000Y-120777000D03*
X40513000Y-118237000D03*
X40513000Y-115697000D03*
X40513000Y-113157000D03*
X40513000Y-110617000D03*
D16*
X123952000Y-137922000D03*
D17*
X123952000Y-135382000D03*
X123952000Y-132842000D03*
X123952000Y-130302000D03*
X123952000Y-127762000D03*
X123952000Y-125222000D03*
X123952000Y-122682000D03*
X123952000Y-120142000D03*
D16*
X85471000Y-137922000D03*
D17*
X85471000Y-135382000D03*
X85471000Y-132842000D03*
X85471000Y-130302000D03*
X85471000Y-127762000D03*
X85471000Y-125222000D03*
X85471000Y-122682000D03*
X85471000Y-120142000D03*
D14*
X100607000Y-162688000D03*
X100607000Y-178688000D03*
X87607000Y-178688000D03*
X87630000Y-162688000D03*
D18*
X118217000Y-184023000D03*
X115717000Y-184023000D03*
X124059000Y-184023000D03*
X121559000Y-184023000D03*
D19*
X117729000Y-170708000D03*
X117729000Y-173208000D03*
D18*
X123424000Y-168656000D03*
X120924000Y-168656000D03*
X116479000Y-129540000D03*
X118979000Y-129540000D03*
D19*
X115189000Y-137394000D03*
X115189000Y-134894000D03*
D18*
X108819000Y-132715000D03*
X106319000Y-132715000D03*
D19*
X99441000Y-135148000D03*
X99441000Y-137648000D03*
X97663000Y-154285000D03*
X97663000Y-151785000D03*
D18*
X92222000Y-151892000D03*
X94722000Y-151892000D03*
X108605000Y-110744000D03*
X111105000Y-110744000D03*
X111105000Y-115824000D03*
X108605000Y-115824000D03*
D19*
X119888000Y-121940000D03*
X119888000Y-124440000D03*
X103886000Y-120543000D03*
X103886000Y-123043000D03*
D20*
X93091000Y-120522000D03*
X93091000Y-117222000D03*
X107442000Y-135891000D03*
X107442000Y-139191000D03*
X111379000Y-139191000D03*
X111379000Y-135891000D03*
D21*
X91822000Y-156591000D03*
X95122000Y-156591000D03*
X95122000Y-154305000D03*
X91822000Y-154305000D03*
D22*
X59182000Y-132969000D03*
D12*
X61722000Y-132969000D03*
X45419000Y-134366000D03*
X47919000Y-134366000D03*
X50419000Y-134366000D03*
D13*
X43519000Y-127366000D03*
X52319000Y-127366000D03*
D16*
X79121000Y-128397000D03*
D17*
X79121000Y-125857000D03*
X79121000Y-123317000D03*
X79121000Y-120777000D03*
X79121000Y-118237000D03*
X79121000Y-115697000D03*
X79121000Y-113157000D03*
X79121000Y-110617000D03*
D12*
X45419000Y-118872000D03*
X47919000Y-118872000D03*
X50419000Y-118872000D03*
D13*
X43519000Y-111872000D03*
X52319000Y-111872000D03*
D23*
X117155000Y-176038000D03*
X115255000Y-176038000D03*
X116205000Y-178038000D03*
D24*
X103489000Y-131506000D03*
X103489000Y-129606000D03*
X101489000Y-130556000D03*
X94472000Y-144714000D03*
X94472000Y-142814000D03*
X92472000Y-143764000D03*
D23*
X111948000Y-122190000D03*
X110048000Y-122190000D03*
X110998000Y-124190000D03*
D25*
X118317000Y-187833000D03*
X115617000Y-187833000D03*
X124159000Y-187833000D03*
X121459000Y-187833000D03*
D26*
X121285000Y-170608000D03*
X121285000Y-173308000D03*
X121285000Y-178388000D03*
X121285000Y-175688000D03*
D25*
X117682000Y-168656000D03*
X114982000Y-168656000D03*
D26*
X114173000Y-170735000D03*
X114173000Y-173435000D03*
D25*
X110951000Y-168656000D03*
X108251000Y-168656000D03*
X119079000Y-131826000D03*
X116379000Y-131826000D03*
D26*
X112649000Y-132287000D03*
X112649000Y-129587000D03*
X103505000Y-137494000D03*
X103505000Y-134794000D03*
X99441000Y-129460000D03*
X99441000Y-132160000D03*
D25*
X106219000Y-129540000D03*
X108919000Y-129540000D03*
X99902000Y-148463000D03*
X97202000Y-148463000D03*
X97202000Y-144780000D03*
X99902000Y-144780000D03*
X92122000Y-148463000D03*
X94822000Y-148463000D03*
D26*
X101219000Y-123270000D03*
X101219000Y-120570000D03*
D25*
X97202000Y-140970000D03*
X99902000Y-140970000D03*
X108505000Y-108204000D03*
X111205000Y-108204000D03*
X111205000Y-113284000D03*
X108505000Y-113284000D03*
D26*
X114935000Y-113204000D03*
X114935000Y-115904000D03*
X114935000Y-110824000D03*
X114935000Y-108124000D03*
X117602000Y-126318000D03*
X117602000Y-123618000D03*
D25*
X112061000Y-119126000D03*
X114761000Y-119126000D03*
D26*
X107569000Y-124413000D03*
X107569000Y-121713000D03*
D25*
X109681000Y-119126000D03*
X106981000Y-119126000D03*
D26*
X55245000Y-132889000D03*
X55245000Y-135589000D03*
D27*
X101219000Y-114046000D03*
X101219000Y-108046000D03*
X96519000Y-111046000D03*
D16*
X109220000Y-173482000D03*
D17*
X109220000Y-176022000D03*
D16*
X107188000Y-126873000D03*
D17*
X104648000Y-126873000D03*
D16*
X93599000Y-137922000D03*
D17*
X91059000Y-137922000D03*
D16*
X113538000Y-126365000D03*
D17*
X110998000Y-126365000D03*
M02*
