M48
;DRILL file {KiCad 4.0.6} date Tuesday, 13 February 2018 'PMt' 23:33:13
;FORMAT={-:-/ absolute / metric / decimal}
FMAT,2
METRIC,TZ
T1C0.400
T2C0.800
T3C0.900
T4C1.000
T5C2.000
%
G90
G05
M71
T1
X44.577Y-121.285
X44.577Y-123.317
X53.34Y-135.509
X54.102Y-137.287
X57.15Y-135.509
X65.786Y-131.699
X70.993Y-124.587
X75.692Y-123.19
X75.819Y-131.699
X76.962Y-124.587
X91.313Y-131.318
X101.092Y-139.192
X105.537Y-119.126
X105.791Y-179.451
X105.918Y-175.387
X106.68Y-113.411
X108.458Y-114.554
X109.474Y-167.132
X115.062Y-189.738
X115.189Y-129.54
X118.491Y-118.745
X123.063Y-168.656
T2
X93.218Y-154.686
X93.218Y-157.607
X100.838Y-154.686
X100.838Y-157.607
X108.204Y-137.414
X108.331Y-143.002
X115.824Y-137.414
X115.951Y-143.002
T3
X59.182Y-132.969
X61.722Y-132.969
T4
X40.513Y-110.617
X40.513Y-113.157
X40.513Y-115.697
X40.513Y-118.237
X40.513Y-120.777
X40.513Y-123.317
X40.513Y-125.857
X40.513Y-128.397
X45.419Y-118.872
X45.419Y-134.366
X45.419Y-150.241
X47.919Y-118.872
X47.919Y-134.366
X47.919Y-150.241
X50.419Y-118.872
X50.419Y-134.366
X50.419Y-150.241
X69.168Y-118.872
X69.168Y-134.366
X71.668Y-118.872
X71.668Y-134.366
X74.168Y-118.872
X74.168Y-134.366
X79.121Y-110.617
X79.121Y-113.157
X79.121Y-115.697
X79.121Y-118.237
X79.121Y-120.777
X79.121Y-123.317
X79.121Y-125.857
X79.121Y-128.397
X85.471Y-120.142
X85.471Y-122.682
X85.471Y-125.222
X85.471Y-127.762
X85.471Y-130.302
X85.471Y-132.842
X85.471Y-135.382
X85.471Y-137.922
X94.488Y-137.795
X94.488Y-140.335
X100.838Y-129.794
X100.838Y-132.334
X109.22Y-173.482
X109.22Y-176.022
X114.935Y-120.904
X114.935Y-123.444
X123.952Y-120.142
X123.952Y-122.682
X123.952Y-125.222
X123.952Y-127.762
X123.952Y-130.302
X123.952Y-132.842
X123.952Y-135.382
X123.952Y-137.922
T5
X87.607Y-178.688
X87.63Y-162.688
X99.021Y-184.122
X99.021Y-188.722
X99.021Y-193.322
X100.607Y-162.688
X100.607Y-178.688
X104.521Y-184.122
X104.521Y-188.722
X104.521Y-193.322
X108.689Y-147.702
X108.689Y-163.702
X110.021Y-184.122
X110.021Y-188.722
X110.021Y-193.322
X121.666Y-163.702
X121.689Y-147.702
T4
X96.519Y-110.046G85X96.519Y-112.046
G05
X102.219Y-108.046G85X100.219Y-108.046
G05
X102.219Y-114.046G85X100.219Y-114.046
G05
T0
M30
