M48
;DRILL file {KiCad 4.0.6} date Monday, 12 February 2018 'AMt' 00:03:14
;FORMAT={-:-/ absolute / metric / decimal}
FMAT,2
METRIC,TZ
T1C0.400
T2C0.900
T3C1.000
T4C2.000
T5C3.000
%
G90
G05
M71
T1
X44.577Y-121.285
X44.577Y-123.317
X53.34Y-135.509
X54.102Y-137.287
X57.15Y-135.509
X65.786Y-131.699
X70.993Y-124.587
X75.692Y-123.19
X75.819Y-131.699
X76.962Y-124.587
X95.504Y-142.748
X96.012Y-124.968
X98.425Y-120.904
X99.441Y-123.19
X99.695Y-169.926
X99.949Y-139.7
X100.33Y-124.714
X103.886Y-169.926
X105.537Y-119.126
X106.299Y-134.493
X106.299Y-179.959
X108.458Y-114.554
X108.712Y-179.959
X112.268Y-157.099
X112.649Y-134.493
X114.173Y-129.54
X115.062Y-159.893
X115.062Y-189.738
X115.443Y-170.688
X116.205Y-119.126
X123.444Y-170.561
T2
X59.182Y-132.969
X61.722Y-132.969
T3
X40.513Y-110.617
X40.513Y-113.157
X40.513Y-115.697
X40.513Y-118.237
X40.513Y-120.777
X40.513Y-123.317
X40.513Y-125.857
X40.513Y-128.397
X45.419Y-118.872
X45.419Y-134.366
X45.419Y-150.241
X47.919Y-118.872
X47.919Y-134.366
X47.919Y-150.241
X50.419Y-118.872
X50.419Y-134.366
X50.419Y-150.241
X69.168Y-118.872
X69.168Y-134.366
X71.668Y-118.872
X71.668Y-134.366
X74.168Y-118.872
X74.168Y-134.366
X79.121Y-110.617
X79.121Y-113.157
X79.121Y-115.697
X79.121Y-118.237
X79.121Y-120.777
X79.121Y-123.317
X79.121Y-125.857
X79.121Y-128.397
X85.471Y-120.142
X85.471Y-122.682
X85.471Y-125.222
X85.471Y-127.762
X85.471Y-130.302
X85.471Y-132.842
X85.471Y-135.382
X85.471Y-137.922
X91.059Y-137.922
X93.599Y-137.922
X104.648Y-126.873
X107.188Y-126.873
X109.22Y-173.482
X109.22Y-176.022
X110.998Y-126.365
X113.538Y-126.365
X123.952Y-120.142
X123.952Y-122.682
X123.952Y-125.222
X123.952Y-127.762
X123.952Y-130.302
X123.952Y-132.842
X123.952Y-135.382
X123.952Y-137.922
T4
X87.607Y-178.688
X87.63Y-162.688
X99.021Y-184.122
X99.021Y-188.722
X99.021Y-193.322
X100.607Y-162.688
X100.607Y-178.688
X104.521Y-184.122
X104.521Y-188.722
X104.521Y-193.322
X108.689Y-147.702
X108.689Y-163.702
X110.021Y-184.122
X110.021Y-188.722
X110.021Y-193.322
X121.666Y-163.702
X121.689Y-147.702
T5
X96.519Y-111.046
X101.219Y-108.046
X101.219Y-114.046
T0
M30
