G04 #@! TF.FileFunction,Legend,Top*
%FSLAX46Y46*%
G04 Gerber Fmt 4.6, Leading zero omitted, Abs format (unit mm)*
G04 Created by KiCad (PCBNEW 4.0.7) date 02/11/18 17:32:34*
%MOMM*%
%LPD*%
G01*
G04 APERTURE LIST*
%ADD10C,0.100000*%
%ADD11C,0.150000*%
%ADD12C,0.120000*%
%ADD13C,2.200000*%
%ADD14C,3.400000*%
%ADD15O,5.400000X4.400000*%
%ADD16O,4.400000X3.900000*%
%ADD17R,2.100000X2.100000*%
%ADD18O,2.100000X2.100000*%
%ADD19R,1.900000X1.650000*%
%ADD20R,1.650000X1.900000*%
%ADD21R,1.600000X1.300000*%
%ADD22R,1.300000X1.600000*%
%ADD23R,2.200000X2.200000*%
%ADD24R,1.200000X1.300000*%
%ADD25R,1.300000X1.200000*%
%ADD26R,1.900000X1.700000*%
%ADD27R,1.700000X1.900000*%
%ADD28R,3.900000X3.900000*%
G04 APERTURE END LIST*
D10*
D11*
X80772000Y-105791000D02*
X38862000Y-105791000D01*
X80772000Y-136271000D02*
X80772000Y-105791000D01*
X56896000Y-136271000D02*
X56896000Y-151511000D01*
X56896000Y-136271000D02*
X80772000Y-136271000D01*
X38862000Y-151511000D02*
X38862000Y-105791000D01*
X56896000Y-151511000D02*
X38862000Y-151511000D01*
X125603000Y-190881000D02*
X125603000Y-112903000D01*
X90678000Y-197866000D02*
X118618000Y-197866000D01*
X90678000Y-190881000D02*
X83693000Y-190881000D01*
X83693000Y-112903000D02*
X83693000Y-190881000D01*
X118618000Y-105918000D02*
X90678000Y-105918000D01*
X90678000Y-112903000D02*
X83693000Y-112903000D01*
X90678000Y-105918000D02*
X90678000Y-112903000D01*
X118618000Y-112903000D02*
X125603000Y-112903000D01*
X118618000Y-105918000D02*
X118618000Y-112903000D01*
X118618000Y-190881000D02*
X118618000Y-197866000D01*
X125603000Y-190881000D02*
X118618000Y-190881000D01*
X90678000Y-190881000D02*
X90678000Y-197866000D01*
D12*
X45156568Y-141569018D02*
G75*
G02X50681000Y-141568000I2762432J-1171982D01*
G01*
X50216753Y-144669295D02*
G75*
G02X45621000Y-144669000I-2297753J1928295D01*
G01*
X43009000Y-149301000D02*
X43009000Y-145435000D01*
X43009000Y-141046000D02*
X43009000Y-137181000D01*
X52829000Y-149301000D02*
X52829000Y-145435000D01*
X52829000Y-141046000D02*
X52829000Y-137181000D01*
X43009000Y-149301000D02*
X44594000Y-149301000D01*
X46244000Y-149301000D02*
X47094000Y-149301000D01*
X48744000Y-149301000D02*
X49594000Y-149301000D01*
X51244000Y-149301000D02*
X52829000Y-149301000D01*
X43009000Y-137181000D02*
X52829000Y-137181000D01*
D11*
X102235000Y-155702000D02*
X102235000Y-159131000D01*
X102235000Y-159131000D02*
X104775000Y-159131000D01*
X102235000Y-155702000D02*
X102235000Y-152273000D01*
X102235000Y-152273000D02*
X104775000Y-152273000D01*
X125603000Y-165862000D02*
X125603000Y-145542000D01*
X104775000Y-165862000D02*
X104775000Y-145542000D01*
X127127000Y-163195000D02*
X136017000Y-163195000D01*
X136017000Y-163195000D02*
X136017000Y-148209000D01*
X136017000Y-148209000D02*
X127127000Y-148209000D01*
X103124000Y-146685000D02*
X127000000Y-146685000D01*
X103378000Y-164719000D02*
X127254000Y-164719000D01*
X95631000Y-180213000D02*
X112141000Y-180213000D01*
X112141000Y-180213000D02*
X113411000Y-180213000D01*
X113538000Y-179832000D02*
X113538000Y-197612000D01*
X113411000Y-197231000D02*
X95631000Y-197231000D01*
X95504000Y-197612000D02*
X95504000Y-179832000D01*
D12*
X68905568Y-125694018D02*
G75*
G02X74430000Y-125693000I2762432J-1171982D01*
G01*
X73965753Y-128794295D02*
G75*
G02X69370000Y-128794000I-2297753J1928295D01*
G01*
X66758000Y-133426000D02*
X66758000Y-129560000D01*
X66758000Y-125171000D02*
X66758000Y-121306000D01*
X76578000Y-133426000D02*
X76578000Y-129560000D01*
X76578000Y-125171000D02*
X76578000Y-121306000D01*
X66758000Y-133426000D02*
X68343000Y-133426000D01*
X69993000Y-133426000D02*
X70843000Y-133426000D01*
X72493000Y-133426000D02*
X73343000Y-133426000D01*
X74993000Y-133426000D02*
X76578000Y-133426000D01*
X66758000Y-121306000D02*
X76578000Y-121306000D01*
X68905568Y-110200018D02*
G75*
G02X74430000Y-110199000I2762432J-1171982D01*
G01*
X73965753Y-113300295D02*
G75*
G02X69370000Y-113300000I-2297753J1928295D01*
G01*
X66758000Y-117932000D02*
X66758000Y-114066000D01*
X66758000Y-109677000D02*
X66758000Y-105812000D01*
X76578000Y-117932000D02*
X76578000Y-114066000D01*
X76578000Y-109677000D02*
X76578000Y-105812000D01*
X66758000Y-117932000D02*
X68343000Y-117932000D01*
X69993000Y-117932000D02*
X70843000Y-117932000D01*
X72493000Y-117932000D02*
X73343000Y-117932000D01*
X74993000Y-117932000D02*
X76578000Y-117932000D01*
X66758000Y-105812000D02*
X76578000Y-105812000D01*
X41843000Y-109287000D02*
X39183000Y-109287000D01*
X41843000Y-127127000D02*
X41843000Y-109287000D01*
X39183000Y-127127000D02*
X39183000Y-109287000D01*
X41843000Y-127127000D02*
X39183000Y-127127000D01*
X41843000Y-128397000D02*
X41843000Y-129727000D01*
X41843000Y-129727000D02*
X40513000Y-129727000D01*
X125282000Y-118812000D02*
X122622000Y-118812000D01*
X125282000Y-136652000D02*
X125282000Y-118812000D01*
X122622000Y-136652000D02*
X122622000Y-118812000D01*
X125282000Y-136652000D02*
X122622000Y-136652000D01*
X125282000Y-137922000D02*
X125282000Y-139252000D01*
X125282000Y-139252000D02*
X123952000Y-139252000D01*
X86801000Y-118812000D02*
X84141000Y-118812000D01*
X86801000Y-136652000D02*
X86801000Y-118812000D01*
X84141000Y-136652000D02*
X84141000Y-118812000D01*
X86801000Y-136652000D02*
X84141000Y-136652000D01*
X86801000Y-137922000D02*
X86801000Y-139252000D01*
X86801000Y-139252000D02*
X85471000Y-139252000D01*
D11*
X107061000Y-170688000D02*
X107061000Y-167259000D01*
X107061000Y-167259000D02*
X104521000Y-167259000D01*
X107061000Y-170688000D02*
X107061000Y-174117000D01*
X107061000Y-174117000D02*
X104521000Y-174117000D01*
X83693000Y-160528000D02*
X83693000Y-180848000D01*
X104521000Y-160528000D02*
X104521000Y-180848000D01*
X82169000Y-163195000D02*
X73279000Y-163195000D01*
X73279000Y-163195000D02*
X73279000Y-178181000D01*
X73279000Y-178181000D02*
X82169000Y-178181000D01*
X106172000Y-179705000D02*
X82296000Y-179705000D01*
X105918000Y-161671000D02*
X82042000Y-161671000D01*
D12*
X116467000Y-184873000D02*
X117467000Y-184873000D01*
X117467000Y-183173000D02*
X116467000Y-183173000D01*
X121547000Y-184873000D02*
X122547000Y-184873000D01*
X122547000Y-183173000D02*
X121547000Y-183173000D01*
X116801000Y-172458000D02*
X116801000Y-171458000D01*
X115101000Y-171458000D02*
X115101000Y-172458000D01*
X119261000Y-169506000D02*
X120261000Y-169506000D01*
X120261000Y-167806000D02*
X119261000Y-167806000D01*
X118229000Y-128436000D02*
X117229000Y-128436000D01*
X117229000Y-130136000D02*
X118229000Y-130136000D01*
X114339000Y-135644000D02*
X114339000Y-136644000D01*
X116039000Y-136644000D02*
X116039000Y-135644000D01*
X107069000Y-133565000D02*
X108069000Y-133565000D01*
X108069000Y-131865000D02*
X107069000Y-131865000D01*
X100291000Y-136898000D02*
X100291000Y-135898000D01*
X98591000Y-135898000D02*
X98591000Y-136898000D01*
X96813000Y-152535000D02*
X96813000Y-153535000D01*
X98513000Y-153535000D02*
X98513000Y-152535000D01*
X93972000Y-151042000D02*
X92972000Y-151042000D01*
X92972000Y-152742000D02*
X93972000Y-152742000D01*
X110355000Y-109894000D02*
X109355000Y-109894000D01*
X109355000Y-111594000D02*
X110355000Y-111594000D01*
X109355000Y-116674000D02*
X110355000Y-116674000D01*
X110355000Y-114974000D02*
X109355000Y-114974000D01*
X117563000Y-123690000D02*
X117563000Y-122690000D01*
X115863000Y-122690000D02*
X115863000Y-123690000D01*
X105244000Y-123563000D02*
X105244000Y-122563000D01*
X103544000Y-122563000D02*
X103544000Y-123563000D01*
X92091000Y-121122000D02*
X94091000Y-121122000D01*
X94091000Y-121122000D02*
X94091000Y-117222000D01*
X92091000Y-121122000D02*
X92091000Y-117222000D01*
X108442000Y-135291000D02*
X106442000Y-135291000D01*
X106442000Y-135291000D02*
X106442000Y-139191000D01*
X108442000Y-135291000D02*
X108442000Y-139191000D01*
X110379000Y-139791000D02*
X112379000Y-139791000D01*
X112379000Y-139791000D02*
X112379000Y-135891000D01*
X110379000Y-139791000D02*
X110379000Y-135891000D01*
X91222000Y-155591000D02*
X91222000Y-157591000D01*
X91222000Y-157591000D02*
X95122000Y-157591000D01*
X91222000Y-155591000D02*
X95122000Y-155591000D01*
X95722000Y-155305000D02*
X95722000Y-153305000D01*
X95722000Y-153305000D02*
X91822000Y-153305000D01*
X95722000Y-155305000D02*
X91822000Y-155305000D01*
X63442000Y-132969462D02*
G75*
G03X57892000Y-131424170I-2990000J462D01*
G01*
X63442000Y-132968538D02*
G75*
G02X57892000Y-134513830I-2990000J-462D01*
G01*
X62952000Y-132969000D02*
G75*
G03X62952000Y-132969000I-2500000J0D01*
G01*
X57892000Y-131424000D02*
X57892000Y-134514000D01*
X45156568Y-125694018D02*
G75*
G02X50681000Y-125693000I2762432J-1171982D01*
G01*
X50216753Y-128794295D02*
G75*
G02X45621000Y-128794000I-2297753J1928295D01*
G01*
X43009000Y-133426000D02*
X43009000Y-129560000D01*
X43009000Y-125171000D02*
X43009000Y-121306000D01*
X52829000Y-133426000D02*
X52829000Y-129560000D01*
X52829000Y-125171000D02*
X52829000Y-121306000D01*
X43009000Y-133426000D02*
X44594000Y-133426000D01*
X46244000Y-133426000D02*
X47094000Y-133426000D01*
X48744000Y-133426000D02*
X49594000Y-133426000D01*
X51244000Y-133426000D02*
X52829000Y-133426000D01*
X43009000Y-121306000D02*
X52829000Y-121306000D01*
X80451000Y-109287000D02*
X77791000Y-109287000D01*
X80451000Y-127127000D02*
X80451000Y-109287000D01*
X77791000Y-127127000D02*
X77791000Y-109287000D01*
X80451000Y-127127000D02*
X77791000Y-127127000D01*
X80451000Y-128397000D02*
X80451000Y-129727000D01*
X80451000Y-129727000D02*
X79121000Y-129727000D01*
X45156568Y-110200018D02*
G75*
G02X50681000Y-110199000I2762432J-1171982D01*
G01*
X50216753Y-113300295D02*
G75*
G02X45621000Y-113300000I-2297753J1928295D01*
G01*
X43009000Y-117932000D02*
X43009000Y-114066000D01*
X43009000Y-109677000D02*
X43009000Y-105812000D01*
X52829000Y-117932000D02*
X52829000Y-114066000D01*
X52829000Y-109677000D02*
X52829000Y-105812000D01*
X43009000Y-117932000D02*
X44594000Y-117932000D01*
X46244000Y-117932000D02*
X47094000Y-117932000D01*
X48744000Y-117932000D02*
X49594000Y-117932000D01*
X51244000Y-117932000D02*
X52829000Y-117932000D01*
X43009000Y-105812000D02*
X52829000Y-105812000D01*
X111831000Y-177798000D02*
X112761000Y-177798000D01*
X114991000Y-177798000D02*
X114061000Y-177798000D01*
X114991000Y-177798000D02*
X114991000Y-175638000D01*
X111831000Y-177798000D02*
X111831000Y-176338000D01*
X101729000Y-128976000D02*
X101729000Y-129906000D01*
X101729000Y-132136000D02*
X101729000Y-131206000D01*
X101729000Y-132136000D02*
X103889000Y-132136000D01*
X101729000Y-128976000D02*
X103189000Y-128976000D01*
X92712000Y-142184000D02*
X92712000Y-143114000D01*
X92712000Y-145344000D02*
X92712000Y-144414000D01*
X92712000Y-145344000D02*
X94872000Y-145344000D01*
X92712000Y-142184000D02*
X94172000Y-142184000D01*
X109418000Y-123950000D02*
X110348000Y-123950000D01*
X112578000Y-123950000D02*
X111648000Y-123950000D01*
X112578000Y-123950000D02*
X112578000Y-121790000D01*
X109418000Y-123950000D02*
X109418000Y-122490000D01*
X116367000Y-186953000D02*
X117567000Y-186953000D01*
X117567000Y-188713000D02*
X116367000Y-188713000D01*
X121447000Y-186953000D02*
X122647000Y-186953000D01*
X122647000Y-188713000D02*
X121447000Y-188713000D01*
X117611000Y-172558000D02*
X117611000Y-171358000D01*
X119371000Y-171358000D02*
X119371000Y-172558000D01*
X119371000Y-176438000D02*
X119371000Y-177638000D01*
X117611000Y-177638000D02*
X117611000Y-176438000D01*
X114081000Y-167776000D02*
X115281000Y-167776000D01*
X115281000Y-169536000D02*
X114081000Y-169536000D01*
X109991000Y-172558000D02*
X109991000Y-171358000D01*
X111751000Y-171358000D02*
X111751000Y-172558000D01*
X109001000Y-167776000D02*
X110201000Y-167776000D01*
X110201000Y-169536000D02*
X109001000Y-169536000D01*
X117129000Y-130946000D02*
X118329000Y-130946000D01*
X118329000Y-132706000D02*
X117129000Y-132706000D01*
X113529000Y-129956000D02*
X113529000Y-131156000D01*
X111769000Y-131156000D02*
X111769000Y-129956000D01*
X104385000Y-135544000D02*
X104385000Y-136744000D01*
X102625000Y-136744000D02*
X102625000Y-135544000D01*
X98561000Y-131410000D02*
X98561000Y-130210000D01*
X100321000Y-130210000D02*
X100321000Y-131410000D01*
X108169000Y-130420000D02*
X106969000Y-130420000D01*
X106969000Y-128660000D02*
X108169000Y-128660000D01*
X97952000Y-147583000D02*
X99152000Y-147583000D01*
X99152000Y-149343000D02*
X97952000Y-149343000D01*
X99152000Y-145660000D02*
X97952000Y-145660000D01*
X97952000Y-143900000D02*
X99152000Y-143900000D01*
X94072000Y-149343000D02*
X92872000Y-149343000D01*
X92872000Y-147583000D02*
X94072000Y-147583000D01*
X102099000Y-122463000D02*
X102099000Y-123663000D01*
X100339000Y-123663000D02*
X100339000Y-122463000D01*
X99152000Y-141850000D02*
X97952000Y-141850000D01*
X97952000Y-140090000D02*
X99152000Y-140090000D01*
X110455000Y-109084000D02*
X109255000Y-109084000D01*
X109255000Y-107324000D02*
X110455000Y-107324000D01*
X109255000Y-112404000D02*
X110455000Y-112404000D01*
X110455000Y-114164000D02*
X109255000Y-114164000D01*
X114055000Y-115154000D02*
X114055000Y-113954000D01*
X115815000Y-113954000D02*
X115815000Y-115154000D01*
X115815000Y-108874000D02*
X115815000Y-110074000D01*
X114055000Y-110074000D02*
X114055000Y-108874000D01*
X112233000Y-128007000D02*
X111033000Y-128007000D01*
X111033000Y-126247000D02*
X112233000Y-126247000D01*
X114011000Y-120006000D02*
X112811000Y-120006000D01*
X112811000Y-118246000D02*
X114011000Y-118246000D01*
X108449000Y-122463000D02*
X108449000Y-123663000D01*
X106689000Y-123663000D02*
X106689000Y-122463000D01*
X107731000Y-118246000D02*
X108931000Y-118246000D01*
X108931000Y-120006000D02*
X107731000Y-120006000D01*
X54365000Y-134839000D02*
X54365000Y-133639000D01*
X56125000Y-133639000D02*
X56125000Y-134839000D01*
X96619000Y-109046000D02*
X96619000Y-100246000D01*
X96619000Y-100246000D02*
X105819000Y-100246000D01*
X99319000Y-114946000D02*
X96619000Y-114946000D01*
X96619000Y-114946000D02*
X96619000Y-113046000D01*
X105819000Y-100246000D02*
X105819000Y-114946000D01*
X105819000Y-114946000D02*
X103219000Y-114946000D01*
D11*
X46140905Y-147153381D02*
X46474238Y-148153381D01*
X46807572Y-147153381D01*
X47331381Y-147153381D02*
X47521858Y-147153381D01*
X47617096Y-147201000D01*
X47712334Y-147296238D01*
X47759953Y-147486714D01*
X47759953Y-147820048D01*
X47712334Y-148010524D01*
X47617096Y-148105762D01*
X47521858Y-148153381D01*
X47331381Y-148153381D01*
X47236143Y-148105762D01*
X47140905Y-148010524D01*
X47093286Y-147820048D01*
X47093286Y-147486714D01*
X47140905Y-147296238D01*
X47236143Y-147201000D01*
X47331381Y-147153381D01*
X48664715Y-148153381D02*
X48188524Y-148153381D01*
X48188524Y-147153381D01*
X49521858Y-148153381D02*
X48950429Y-148153381D01*
X49236143Y-148153381D02*
X49236143Y-147153381D01*
X49140905Y-147296238D01*
X49045667Y-147391476D01*
X48950429Y-147439095D01*
X68548667Y-131849762D02*
X68691524Y-131897381D01*
X68929620Y-131897381D01*
X69024858Y-131849762D01*
X69072477Y-131802143D01*
X69120096Y-131706905D01*
X69120096Y-131611667D01*
X69072477Y-131516429D01*
X69024858Y-131468810D01*
X68929620Y-131421190D01*
X68739143Y-131373571D01*
X68643905Y-131325952D01*
X68596286Y-131278333D01*
X68548667Y-131183095D01*
X68548667Y-131087857D01*
X68596286Y-130992619D01*
X68643905Y-130945000D01*
X68739143Y-130897381D01*
X68977239Y-130897381D01*
X69120096Y-130945000D01*
X69548667Y-130897381D02*
X69548667Y-131706905D01*
X69596286Y-131802143D01*
X69643905Y-131849762D01*
X69739143Y-131897381D01*
X69929620Y-131897381D01*
X70024858Y-131849762D01*
X70072477Y-131802143D01*
X70120096Y-131706905D01*
X70120096Y-130897381D01*
X70548667Y-131849762D02*
X70691524Y-131897381D01*
X70929620Y-131897381D01*
X71024858Y-131849762D01*
X71072477Y-131802143D01*
X71120096Y-131706905D01*
X71120096Y-131611667D01*
X71072477Y-131516429D01*
X71024858Y-131468810D01*
X70929620Y-131421190D01*
X70739143Y-131373571D01*
X70643905Y-131325952D01*
X70596286Y-131278333D01*
X70548667Y-131183095D01*
X70548667Y-131087857D01*
X70596286Y-130992619D01*
X70643905Y-130945000D01*
X70739143Y-130897381D01*
X70977239Y-130897381D01*
X71120096Y-130945000D01*
X71405810Y-130897381D02*
X71977239Y-130897381D01*
X71691524Y-131897381D02*
X71691524Y-130897381D01*
X72262953Y-131611667D02*
X72739144Y-131611667D01*
X72167715Y-131897381D02*
X72501048Y-130897381D01*
X72834382Y-131897381D01*
X73167715Y-131897381D02*
X73167715Y-130897381D01*
X73643905Y-131897381D02*
X73643905Y-130897381D01*
X74215334Y-131897381D01*
X74215334Y-130897381D01*
X75215334Y-131897381D02*
X74643905Y-131897381D01*
X74929619Y-131897381D02*
X74929619Y-130897381D01*
X74834381Y-131040238D01*
X74739143Y-131135476D01*
X74643905Y-131183095D01*
X69366095Y-115784381D02*
X69937524Y-115784381D01*
X69651809Y-116784381D02*
X69651809Y-115784381D01*
X70461333Y-115784381D02*
X70651810Y-115784381D01*
X70747048Y-115832000D01*
X70842286Y-115927238D01*
X70889905Y-116117714D01*
X70889905Y-116451048D01*
X70842286Y-116641524D01*
X70747048Y-116736762D01*
X70651810Y-116784381D01*
X70461333Y-116784381D01*
X70366095Y-116736762D01*
X70270857Y-116641524D01*
X70223238Y-116451048D01*
X70223238Y-116117714D01*
X70270857Y-115927238D01*
X70366095Y-115832000D01*
X70461333Y-115784381D01*
X71318476Y-116784381D02*
X71318476Y-115784381D01*
X71889905Y-116784381D01*
X71889905Y-115784381D01*
X72366095Y-116260571D02*
X72699429Y-116260571D01*
X72842286Y-116784381D02*
X72366095Y-116784381D01*
X72366095Y-115784381D01*
X72842286Y-115784381D01*
X73794667Y-116784381D02*
X73223238Y-116784381D01*
X73508952Y-116784381D02*
X73508952Y-115784381D01*
X73413714Y-115927238D01*
X73318476Y-116022476D01*
X73223238Y-116070095D01*
X116800334Y-182856143D02*
X116752715Y-182903762D01*
X116609858Y-182951381D01*
X116514620Y-182951381D01*
X116371762Y-182903762D01*
X116276524Y-182808524D01*
X116228905Y-182713286D01*
X116181286Y-182522810D01*
X116181286Y-182379952D01*
X116228905Y-182189476D01*
X116276524Y-182094238D01*
X116371762Y-181999000D01*
X116514620Y-181951381D01*
X116609858Y-181951381D01*
X116752715Y-181999000D01*
X116800334Y-182046619D01*
X117752715Y-182951381D02*
X117181286Y-182951381D01*
X117467000Y-182951381D02*
X117467000Y-181951381D01*
X117371762Y-182094238D01*
X117276524Y-182189476D01*
X117181286Y-182237095D01*
X121880334Y-182856143D02*
X121832715Y-182903762D01*
X121689858Y-182951381D01*
X121594620Y-182951381D01*
X121451762Y-182903762D01*
X121356524Y-182808524D01*
X121308905Y-182713286D01*
X121261286Y-182522810D01*
X121261286Y-182379952D01*
X121308905Y-182189476D01*
X121356524Y-182094238D01*
X121451762Y-181999000D01*
X121594620Y-181951381D01*
X121689858Y-181951381D01*
X121832715Y-181999000D01*
X121880334Y-182046619D01*
X122261286Y-182046619D02*
X122308905Y-181999000D01*
X122404143Y-181951381D01*
X122642239Y-181951381D01*
X122737477Y-181999000D01*
X122785096Y-182046619D01*
X122832715Y-182141857D01*
X122832715Y-182237095D01*
X122785096Y-182379952D01*
X122213667Y-182951381D01*
X122832715Y-182951381D01*
X114784143Y-172124666D02*
X114831762Y-172172285D01*
X114879381Y-172315142D01*
X114879381Y-172410380D01*
X114831762Y-172553238D01*
X114736524Y-172648476D01*
X114641286Y-172696095D01*
X114450810Y-172743714D01*
X114307952Y-172743714D01*
X114117476Y-172696095D01*
X114022238Y-172648476D01*
X113927000Y-172553238D01*
X113879381Y-172410380D01*
X113879381Y-172315142D01*
X113927000Y-172172285D01*
X113974619Y-172124666D01*
X113879381Y-171791333D02*
X113879381Y-171172285D01*
X114260333Y-171505619D01*
X114260333Y-171362761D01*
X114307952Y-171267523D01*
X114355571Y-171219904D01*
X114450810Y-171172285D01*
X114688905Y-171172285D01*
X114784143Y-171219904D01*
X114831762Y-171267523D01*
X114879381Y-171362761D01*
X114879381Y-171648476D01*
X114831762Y-171743714D01*
X114784143Y-171791333D01*
X119467334Y-167489143D02*
X119419715Y-167536762D01*
X119276858Y-167584381D01*
X119181620Y-167584381D01*
X119038762Y-167536762D01*
X118943524Y-167441524D01*
X118895905Y-167346286D01*
X118848286Y-167155810D01*
X118848286Y-167012952D01*
X118895905Y-166822476D01*
X118943524Y-166727238D01*
X119038762Y-166632000D01*
X119181620Y-166584381D01*
X119276858Y-166584381D01*
X119419715Y-166632000D01*
X119467334Y-166679619D01*
X120324477Y-166917714D02*
X120324477Y-167584381D01*
X120086381Y-166536762D02*
X119848286Y-167251048D01*
X120467334Y-167251048D01*
X120737334Y-129643143D02*
X120689715Y-129690762D01*
X120546858Y-129738381D01*
X120451620Y-129738381D01*
X120308762Y-129690762D01*
X120213524Y-129595524D01*
X120165905Y-129500286D01*
X120118286Y-129309810D01*
X120118286Y-129166952D01*
X120165905Y-128976476D01*
X120213524Y-128881238D01*
X120308762Y-128786000D01*
X120451620Y-128738381D01*
X120546858Y-128738381D01*
X120689715Y-128786000D01*
X120737334Y-128833619D01*
X121642096Y-128738381D02*
X121165905Y-128738381D01*
X121118286Y-129214571D01*
X121165905Y-129166952D01*
X121261143Y-129119333D01*
X121499239Y-129119333D01*
X121594477Y-129166952D01*
X121642096Y-129214571D01*
X121689715Y-129309810D01*
X121689715Y-129547905D01*
X121642096Y-129643143D01*
X121594477Y-129690762D01*
X121499239Y-129738381D01*
X121261143Y-129738381D01*
X121165905Y-129690762D01*
X121118286Y-129643143D01*
X114022143Y-136310666D02*
X114069762Y-136358285D01*
X114117381Y-136501142D01*
X114117381Y-136596380D01*
X114069762Y-136739238D01*
X113974524Y-136834476D01*
X113879286Y-136882095D01*
X113688810Y-136929714D01*
X113545952Y-136929714D01*
X113355476Y-136882095D01*
X113260238Y-136834476D01*
X113165000Y-136739238D01*
X113117381Y-136596380D01*
X113117381Y-136501142D01*
X113165000Y-136358285D01*
X113212619Y-136310666D01*
X113117381Y-135453523D02*
X113117381Y-135644000D01*
X113165000Y-135739238D01*
X113212619Y-135786857D01*
X113355476Y-135882095D01*
X113545952Y-135929714D01*
X113926905Y-135929714D01*
X114022143Y-135882095D01*
X114069762Y-135834476D01*
X114117381Y-135739238D01*
X114117381Y-135548761D01*
X114069762Y-135453523D01*
X114022143Y-135405904D01*
X113926905Y-135358285D01*
X113688810Y-135358285D01*
X113593571Y-135405904D01*
X113545952Y-135453523D01*
X113498333Y-135548761D01*
X113498333Y-135739238D01*
X113545952Y-135834476D01*
X113593571Y-135882095D01*
X113688810Y-135929714D01*
X107402334Y-131548143D02*
X107354715Y-131595762D01*
X107211858Y-131643381D01*
X107116620Y-131643381D01*
X106973762Y-131595762D01*
X106878524Y-131500524D01*
X106830905Y-131405286D01*
X106783286Y-131214810D01*
X106783286Y-131071952D01*
X106830905Y-130881476D01*
X106878524Y-130786238D01*
X106973762Y-130691000D01*
X107116620Y-130643381D01*
X107211858Y-130643381D01*
X107354715Y-130691000D01*
X107402334Y-130738619D01*
X107735667Y-130643381D02*
X108402334Y-130643381D01*
X107973762Y-131643381D01*
X98274143Y-136564666D02*
X98321762Y-136612285D01*
X98369381Y-136755142D01*
X98369381Y-136850380D01*
X98321762Y-136993238D01*
X98226524Y-137088476D01*
X98131286Y-137136095D01*
X97940810Y-137183714D01*
X97797952Y-137183714D01*
X97607476Y-137136095D01*
X97512238Y-137088476D01*
X97417000Y-136993238D01*
X97369381Y-136850380D01*
X97369381Y-136755142D01*
X97417000Y-136612285D01*
X97464619Y-136564666D01*
X97797952Y-135993238D02*
X97750333Y-136088476D01*
X97702714Y-136136095D01*
X97607476Y-136183714D01*
X97559857Y-136183714D01*
X97464619Y-136136095D01*
X97417000Y-136088476D01*
X97369381Y-135993238D01*
X97369381Y-135802761D01*
X97417000Y-135707523D01*
X97464619Y-135659904D01*
X97559857Y-135612285D01*
X97607476Y-135612285D01*
X97702714Y-135659904D01*
X97750333Y-135707523D01*
X97797952Y-135802761D01*
X97797952Y-135993238D01*
X97845571Y-136088476D01*
X97893190Y-136136095D01*
X97988429Y-136183714D01*
X98178905Y-136183714D01*
X98274143Y-136136095D01*
X98321762Y-136088476D01*
X98369381Y-135993238D01*
X98369381Y-135802761D01*
X98321762Y-135707523D01*
X98274143Y-135659904D01*
X98178905Y-135612285D01*
X97988429Y-135612285D01*
X97893190Y-135659904D01*
X97845571Y-135707523D01*
X97797952Y-135802761D01*
X97496334Y-150598143D02*
X97448715Y-150645762D01*
X97305858Y-150693381D01*
X97210620Y-150693381D01*
X97067762Y-150645762D01*
X96972524Y-150550524D01*
X96924905Y-150455286D01*
X96877286Y-150264810D01*
X96877286Y-150121952D01*
X96924905Y-149931476D01*
X96972524Y-149836238D01*
X97067762Y-149741000D01*
X97210620Y-149693381D01*
X97305858Y-149693381D01*
X97448715Y-149741000D01*
X97496334Y-149788619D01*
X97972524Y-150693381D02*
X98163000Y-150693381D01*
X98258239Y-150645762D01*
X98305858Y-150598143D01*
X98401096Y-150455286D01*
X98448715Y-150264810D01*
X98448715Y-149883857D01*
X98401096Y-149788619D01*
X98353477Y-149741000D01*
X98258239Y-149693381D01*
X98067762Y-149693381D01*
X97972524Y-149741000D01*
X97924905Y-149788619D01*
X97877286Y-149883857D01*
X97877286Y-150121952D01*
X97924905Y-150217190D01*
X97972524Y-150264810D01*
X98067762Y-150312429D01*
X98258239Y-150312429D01*
X98353477Y-150264810D01*
X98401096Y-150217190D01*
X98448715Y-150121952D01*
X92829143Y-150725143D02*
X92781524Y-150772762D01*
X92638667Y-150820381D01*
X92543429Y-150820381D01*
X92400571Y-150772762D01*
X92305333Y-150677524D01*
X92257714Y-150582286D01*
X92210095Y-150391810D01*
X92210095Y-150248952D01*
X92257714Y-150058476D01*
X92305333Y-149963238D01*
X92400571Y-149868000D01*
X92543429Y-149820381D01*
X92638667Y-149820381D01*
X92781524Y-149868000D01*
X92829143Y-149915619D01*
X93781524Y-150820381D02*
X93210095Y-150820381D01*
X93495809Y-150820381D02*
X93495809Y-149820381D01*
X93400571Y-149963238D01*
X93305333Y-150058476D01*
X93210095Y-150106095D01*
X94400571Y-149820381D02*
X94495810Y-149820381D01*
X94591048Y-149868000D01*
X94638667Y-149915619D01*
X94686286Y-150010857D01*
X94733905Y-150201333D01*
X94733905Y-150439429D01*
X94686286Y-150629905D01*
X94638667Y-150725143D01*
X94591048Y-150772762D01*
X94495810Y-150820381D01*
X94400571Y-150820381D01*
X94305333Y-150772762D01*
X94257714Y-150725143D01*
X94210095Y-150629905D01*
X94162476Y-150439429D01*
X94162476Y-150201333D01*
X94210095Y-150010857D01*
X94257714Y-149915619D01*
X94305333Y-149868000D01*
X94400571Y-149820381D01*
X105529143Y-111101143D02*
X105481524Y-111148762D01*
X105338667Y-111196381D01*
X105243429Y-111196381D01*
X105100571Y-111148762D01*
X105005333Y-111053524D01*
X104957714Y-110958286D01*
X104910095Y-110767810D01*
X104910095Y-110624952D01*
X104957714Y-110434476D01*
X105005333Y-110339238D01*
X105100571Y-110244000D01*
X105243429Y-110196381D01*
X105338667Y-110196381D01*
X105481524Y-110244000D01*
X105529143Y-110291619D01*
X106481524Y-111196381D02*
X105910095Y-111196381D01*
X106195809Y-111196381D02*
X106195809Y-110196381D01*
X106100571Y-110339238D01*
X106005333Y-110434476D01*
X105910095Y-110482095D01*
X107433905Y-111196381D02*
X106862476Y-111196381D01*
X107148190Y-111196381D02*
X107148190Y-110196381D01*
X107052952Y-110339238D01*
X106957714Y-110434476D01*
X106862476Y-110482095D01*
X104767143Y-116181143D02*
X104719524Y-116228762D01*
X104576667Y-116276381D01*
X104481429Y-116276381D01*
X104338571Y-116228762D01*
X104243333Y-116133524D01*
X104195714Y-116038286D01*
X104148095Y-115847810D01*
X104148095Y-115704952D01*
X104195714Y-115514476D01*
X104243333Y-115419238D01*
X104338571Y-115324000D01*
X104481429Y-115276381D01*
X104576667Y-115276381D01*
X104719524Y-115324000D01*
X104767143Y-115371619D01*
X105719524Y-116276381D02*
X105148095Y-116276381D01*
X105433809Y-116276381D02*
X105433809Y-115276381D01*
X105338571Y-115419238D01*
X105243333Y-115514476D01*
X105148095Y-115562095D01*
X106100476Y-115371619D02*
X106148095Y-115324000D01*
X106243333Y-115276381D01*
X106481429Y-115276381D01*
X106576667Y-115324000D01*
X106624286Y-115371619D01*
X106671905Y-115466857D01*
X106671905Y-115562095D01*
X106624286Y-115704952D01*
X106052857Y-116276381D01*
X106671905Y-116276381D01*
X115546143Y-123705857D02*
X115593762Y-123753476D01*
X115641381Y-123896333D01*
X115641381Y-123991571D01*
X115593762Y-124134429D01*
X115498524Y-124229667D01*
X115403286Y-124277286D01*
X115212810Y-124324905D01*
X115069952Y-124324905D01*
X114879476Y-124277286D01*
X114784238Y-124229667D01*
X114689000Y-124134429D01*
X114641381Y-123991571D01*
X114641381Y-123896333D01*
X114689000Y-123753476D01*
X114736619Y-123705857D01*
X115641381Y-122753476D02*
X115641381Y-123324905D01*
X115641381Y-123039191D02*
X114641381Y-123039191D01*
X114784238Y-123134429D01*
X114879476Y-123229667D01*
X114927095Y-123324905D01*
X114641381Y-122420143D02*
X114641381Y-121801095D01*
X115022333Y-122134429D01*
X115022333Y-121991571D01*
X115069952Y-121896333D01*
X115117571Y-121848714D01*
X115212810Y-121801095D01*
X115450905Y-121801095D01*
X115546143Y-121848714D01*
X115593762Y-121896333D01*
X115641381Y-121991571D01*
X115641381Y-122277286D01*
X115593762Y-122372524D01*
X115546143Y-122420143D01*
X103227143Y-123705857D02*
X103274762Y-123753476D01*
X103322381Y-123896333D01*
X103322381Y-123991571D01*
X103274762Y-124134429D01*
X103179524Y-124229667D01*
X103084286Y-124277286D01*
X102893810Y-124324905D01*
X102750952Y-124324905D01*
X102560476Y-124277286D01*
X102465238Y-124229667D01*
X102370000Y-124134429D01*
X102322381Y-123991571D01*
X102322381Y-123896333D01*
X102370000Y-123753476D01*
X102417619Y-123705857D01*
X103322381Y-122753476D02*
X103322381Y-123324905D01*
X103322381Y-123039191D02*
X102322381Y-123039191D01*
X102465238Y-123134429D01*
X102560476Y-123229667D01*
X102608095Y-123324905D01*
X102655714Y-121896333D02*
X103322381Y-121896333D01*
X102274762Y-122134429D02*
X102989048Y-122372524D01*
X102989048Y-121753476D01*
X91543381Y-119610095D02*
X90543381Y-119610095D01*
X90543381Y-119372000D01*
X90591000Y-119229142D01*
X90686238Y-119133904D01*
X90781476Y-119086285D01*
X90971952Y-119038666D01*
X91114810Y-119038666D01*
X91305286Y-119086285D01*
X91400524Y-119133904D01*
X91495762Y-119229142D01*
X91543381Y-119372000D01*
X91543381Y-119610095D01*
X91543381Y-118086285D02*
X91543381Y-118657714D01*
X91543381Y-118372000D02*
X90543381Y-118372000D01*
X90686238Y-118467238D01*
X90781476Y-118562476D01*
X90829095Y-118657714D01*
X106243381Y-138279095D02*
X105243381Y-138279095D01*
X105243381Y-138041000D01*
X105291000Y-137898142D01*
X105386238Y-137802904D01*
X105481476Y-137755285D01*
X105671952Y-137707666D01*
X105814810Y-137707666D01*
X106005286Y-137755285D01*
X106100524Y-137802904D01*
X106195762Y-137898142D01*
X106243381Y-138041000D01*
X106243381Y-138279095D01*
X105338619Y-137326714D02*
X105291000Y-137279095D01*
X105243381Y-137183857D01*
X105243381Y-136945761D01*
X105291000Y-136850523D01*
X105338619Y-136802904D01*
X105433857Y-136755285D01*
X105529095Y-136755285D01*
X105671952Y-136802904D01*
X106243381Y-137374333D01*
X106243381Y-136755285D01*
X110180381Y-138279095D02*
X109180381Y-138279095D01*
X109180381Y-138041000D01*
X109228000Y-137898142D01*
X109323238Y-137802904D01*
X109418476Y-137755285D01*
X109608952Y-137707666D01*
X109751810Y-137707666D01*
X109942286Y-137755285D01*
X110037524Y-137802904D01*
X110132762Y-137898142D01*
X110180381Y-138041000D01*
X110180381Y-138279095D01*
X109180381Y-137374333D02*
X109180381Y-136755285D01*
X109561333Y-137088619D01*
X109561333Y-136945761D01*
X109608952Y-136850523D01*
X109656571Y-136802904D01*
X109751810Y-136755285D01*
X109989905Y-136755285D01*
X110085143Y-136802904D01*
X110132762Y-136850523D01*
X110180381Y-136945761D01*
X110180381Y-137231476D01*
X110132762Y-137326714D01*
X110085143Y-137374333D01*
X92733905Y-157043381D02*
X92733905Y-156043381D01*
X92972000Y-156043381D01*
X93114858Y-156091000D01*
X93210096Y-156186238D01*
X93257715Y-156281476D01*
X93305334Y-156471952D01*
X93305334Y-156614810D01*
X93257715Y-156805286D01*
X93210096Y-156900524D01*
X93114858Y-156995762D01*
X92972000Y-157043381D01*
X92733905Y-157043381D01*
X94162477Y-156376714D02*
X94162477Y-157043381D01*
X93924381Y-155995762D02*
X93686286Y-156710048D01*
X94305334Y-156710048D01*
X92733905Y-154884381D02*
X92733905Y-153884381D01*
X92972000Y-153884381D01*
X93114858Y-153932000D01*
X93210096Y-154027238D01*
X93257715Y-154122476D01*
X93305334Y-154312952D01*
X93305334Y-154455810D01*
X93257715Y-154646286D01*
X93210096Y-154741524D01*
X93114858Y-154836762D01*
X92972000Y-154884381D01*
X92733905Y-154884381D01*
X94210096Y-153884381D02*
X93733905Y-153884381D01*
X93686286Y-154360571D01*
X93733905Y-154312952D01*
X93829143Y-154265333D01*
X94067239Y-154265333D01*
X94162477Y-154312952D01*
X94210096Y-154360571D01*
X94257715Y-154455810D01*
X94257715Y-154693905D01*
X94210096Y-154789143D01*
X94162477Y-154836762D01*
X94067239Y-154884381D01*
X93829143Y-154884381D01*
X93733905Y-154836762D01*
X93686286Y-154789143D01*
X55776905Y-133294381D02*
X55776905Y-132294381D01*
X56015000Y-132294381D01*
X56157858Y-132342000D01*
X56253096Y-132437238D01*
X56300715Y-132532476D01*
X56348334Y-132722952D01*
X56348334Y-132865810D01*
X56300715Y-133056286D01*
X56253096Y-133151524D01*
X56157858Y-133246762D01*
X56015000Y-133294381D01*
X55776905Y-133294381D01*
X57205477Y-132294381D02*
X57015000Y-132294381D01*
X56919762Y-132342000D01*
X56872143Y-132389619D01*
X56776905Y-132532476D01*
X56729286Y-132722952D01*
X56729286Y-133103905D01*
X56776905Y-133199143D01*
X56824524Y-133246762D01*
X56919762Y-133294381D01*
X57110239Y-133294381D01*
X57205477Y-133246762D01*
X57253096Y-133199143D01*
X57300715Y-133103905D01*
X57300715Y-132865810D01*
X57253096Y-132770571D01*
X57205477Y-132722952D01*
X57110239Y-132675333D01*
X56919762Y-132675333D01*
X56824524Y-132722952D01*
X56776905Y-132770571D01*
X56729286Y-132865810D01*
X45537762Y-131643381D02*
X45537762Y-130643381D01*
X45775857Y-130643381D01*
X45918715Y-130691000D01*
X46013953Y-130786238D01*
X46061572Y-130881476D01*
X46109191Y-131071952D01*
X46109191Y-131214810D01*
X46061572Y-131405286D01*
X46013953Y-131500524D01*
X45918715Y-131595762D01*
X45775857Y-131643381D01*
X45537762Y-131643381D01*
X46537762Y-131119571D02*
X46871096Y-131119571D01*
X47013953Y-131643381D02*
X46537762Y-131643381D01*
X46537762Y-130643381D01*
X47013953Y-130643381D01*
X47442524Y-131643381D02*
X47442524Y-130643381D01*
X47823477Y-130643381D01*
X47918715Y-130691000D01*
X47966334Y-130738619D01*
X48013953Y-130833857D01*
X48013953Y-130976714D01*
X47966334Y-131071952D01*
X47918715Y-131119571D01*
X47823477Y-131167190D01*
X47442524Y-131167190D01*
X48299667Y-130643381D02*
X48871096Y-130643381D01*
X48585381Y-131643381D02*
X48585381Y-130643381D01*
X49204429Y-131643381D02*
X49204429Y-130643381D01*
X49204429Y-131119571D02*
X49775858Y-131119571D01*
X49775858Y-131643381D02*
X49775858Y-130643381D01*
X50775858Y-131643381D02*
X50204429Y-131643381D01*
X50490143Y-131643381D02*
X50490143Y-130643381D01*
X50394905Y-130786238D01*
X50299667Y-130881476D01*
X50204429Y-130929095D01*
X45982191Y-116784381D02*
X45982191Y-115784381D01*
X46315525Y-116498667D01*
X46648858Y-115784381D01*
X46648858Y-116784381D01*
X47125048Y-116784381D02*
X47125048Y-115784381D01*
X47601238Y-116784381D02*
X47601238Y-115784381D01*
X47839333Y-115784381D01*
X47982191Y-115832000D01*
X48077429Y-115927238D01*
X48125048Y-116022476D01*
X48172667Y-116212952D01*
X48172667Y-116355810D01*
X48125048Y-116546286D01*
X48077429Y-116641524D01*
X47982191Y-116736762D01*
X47839333Y-116784381D01*
X47601238Y-116784381D01*
X48553619Y-116736762D02*
X48696476Y-116784381D01*
X48934572Y-116784381D01*
X49029810Y-116736762D01*
X49077429Y-116689143D01*
X49125048Y-116593905D01*
X49125048Y-116498667D01*
X49077429Y-116403429D01*
X49029810Y-116355810D01*
X48934572Y-116308190D01*
X48744095Y-116260571D01*
X48648857Y-116212952D01*
X48601238Y-116165333D01*
X48553619Y-116070095D01*
X48553619Y-115974857D01*
X48601238Y-115879619D01*
X48648857Y-115832000D01*
X48744095Y-115784381D01*
X48982191Y-115784381D01*
X49125048Y-115832000D01*
X50077429Y-116784381D02*
X49506000Y-116784381D01*
X49791714Y-116784381D02*
X49791714Y-115784381D01*
X49696476Y-115927238D01*
X49601238Y-116022476D01*
X49506000Y-116070095D01*
X111672619Y-177133238D02*
X111625000Y-177228476D01*
X111529762Y-177323714D01*
X111386905Y-177466571D01*
X111339286Y-177561810D01*
X111339286Y-177657048D01*
X111577381Y-177609429D02*
X111529762Y-177704667D01*
X111434524Y-177799905D01*
X111244048Y-177847524D01*
X110910714Y-177847524D01*
X110720238Y-177799905D01*
X110625000Y-177704667D01*
X110577381Y-177609429D01*
X110577381Y-177418952D01*
X110625000Y-177323714D01*
X110720238Y-177228476D01*
X110910714Y-177180857D01*
X111244048Y-177180857D01*
X111434524Y-177228476D01*
X111529762Y-177323714D01*
X111577381Y-177418952D01*
X111577381Y-177609429D01*
X111577381Y-176228476D02*
X111577381Y-176799905D01*
X111577381Y-176514191D02*
X110577381Y-176514191D01*
X110720238Y-176609429D01*
X110815476Y-176704667D01*
X110863095Y-176799905D01*
X102774762Y-128817619D02*
X102679524Y-128770000D01*
X102584286Y-128674762D01*
X102441429Y-128531905D01*
X102346190Y-128484286D01*
X102250952Y-128484286D01*
X102298571Y-128722381D02*
X102203333Y-128674762D01*
X102108095Y-128579524D01*
X102060476Y-128389048D01*
X102060476Y-128055714D01*
X102108095Y-127865238D01*
X102203333Y-127770000D01*
X102298571Y-127722381D01*
X102489048Y-127722381D01*
X102584286Y-127770000D01*
X102679524Y-127865238D01*
X102727143Y-128055714D01*
X102727143Y-128389048D01*
X102679524Y-128579524D01*
X102584286Y-128674762D01*
X102489048Y-128722381D01*
X102298571Y-128722381D01*
X103108095Y-127817619D02*
X103155714Y-127770000D01*
X103250952Y-127722381D01*
X103489048Y-127722381D01*
X103584286Y-127770000D01*
X103631905Y-127817619D01*
X103679524Y-127912857D01*
X103679524Y-128008095D01*
X103631905Y-128150952D01*
X103060476Y-128722381D01*
X103679524Y-128722381D01*
X93757762Y-142025619D02*
X93662524Y-141978000D01*
X93567286Y-141882762D01*
X93424429Y-141739905D01*
X93329190Y-141692286D01*
X93233952Y-141692286D01*
X93281571Y-141930381D02*
X93186333Y-141882762D01*
X93091095Y-141787524D01*
X93043476Y-141597048D01*
X93043476Y-141263714D01*
X93091095Y-141073238D01*
X93186333Y-140978000D01*
X93281571Y-140930381D01*
X93472048Y-140930381D01*
X93567286Y-140978000D01*
X93662524Y-141073238D01*
X93710143Y-141263714D01*
X93710143Y-141597048D01*
X93662524Y-141787524D01*
X93567286Y-141882762D01*
X93472048Y-141930381D01*
X93281571Y-141930381D01*
X94043476Y-140930381D02*
X94662524Y-140930381D01*
X94329190Y-141311333D01*
X94472048Y-141311333D01*
X94567286Y-141358952D01*
X94614905Y-141406571D01*
X94662524Y-141501810D01*
X94662524Y-141739905D01*
X94614905Y-141835143D01*
X94567286Y-141882762D01*
X94472048Y-141930381D01*
X94186333Y-141930381D01*
X94091095Y-141882762D01*
X94043476Y-141835143D01*
X110902762Y-121324619D02*
X110807524Y-121277000D01*
X110712286Y-121181762D01*
X110569429Y-121038905D01*
X110474190Y-120991286D01*
X110378952Y-120991286D01*
X110426571Y-121229381D02*
X110331333Y-121181762D01*
X110236095Y-121086524D01*
X110188476Y-120896048D01*
X110188476Y-120562714D01*
X110236095Y-120372238D01*
X110331333Y-120277000D01*
X110426571Y-120229381D01*
X110617048Y-120229381D01*
X110712286Y-120277000D01*
X110807524Y-120372238D01*
X110855143Y-120562714D01*
X110855143Y-120896048D01*
X110807524Y-121086524D01*
X110712286Y-121181762D01*
X110617048Y-121229381D01*
X110426571Y-121229381D01*
X111712286Y-120562714D02*
X111712286Y-121229381D01*
X111474190Y-120181762D02*
X111236095Y-120896048D01*
X111855143Y-120896048D01*
X116800334Y-186761381D02*
X116467000Y-186285190D01*
X116228905Y-186761381D02*
X116228905Y-185761381D01*
X116609858Y-185761381D01*
X116705096Y-185809000D01*
X116752715Y-185856619D01*
X116800334Y-185951857D01*
X116800334Y-186094714D01*
X116752715Y-186189952D01*
X116705096Y-186237571D01*
X116609858Y-186285190D01*
X116228905Y-186285190D01*
X117752715Y-186761381D02*
X117181286Y-186761381D01*
X117467000Y-186761381D02*
X117467000Y-185761381D01*
X117371762Y-185904238D01*
X117276524Y-185999476D01*
X117181286Y-186047095D01*
X121753334Y-186761381D02*
X121420000Y-186285190D01*
X121181905Y-186761381D02*
X121181905Y-185761381D01*
X121562858Y-185761381D01*
X121658096Y-185809000D01*
X121705715Y-185856619D01*
X121753334Y-185951857D01*
X121753334Y-186094714D01*
X121705715Y-186189952D01*
X121658096Y-186237571D01*
X121562858Y-186285190D01*
X121181905Y-186285190D01*
X122134286Y-185856619D02*
X122181905Y-185809000D01*
X122277143Y-185761381D01*
X122515239Y-185761381D01*
X122610477Y-185809000D01*
X122658096Y-185856619D01*
X122705715Y-185951857D01*
X122705715Y-186047095D01*
X122658096Y-186189952D01*
X122086667Y-186761381D01*
X122705715Y-186761381D01*
X120643381Y-172124666D02*
X120167190Y-172458000D01*
X120643381Y-172696095D02*
X119643381Y-172696095D01*
X119643381Y-172315142D01*
X119691000Y-172219904D01*
X119738619Y-172172285D01*
X119833857Y-172124666D01*
X119976714Y-172124666D01*
X120071952Y-172172285D01*
X120119571Y-172219904D01*
X120167190Y-172315142D01*
X120167190Y-172696095D01*
X119643381Y-171791333D02*
X119643381Y-171172285D01*
X120024333Y-171505619D01*
X120024333Y-171362761D01*
X120071952Y-171267523D01*
X120119571Y-171219904D01*
X120214810Y-171172285D01*
X120452905Y-171172285D01*
X120548143Y-171219904D01*
X120595762Y-171267523D01*
X120643381Y-171362761D01*
X120643381Y-171648476D01*
X120595762Y-171743714D01*
X120548143Y-171791333D01*
X117243381Y-177204666D02*
X116767190Y-177538000D01*
X117243381Y-177776095D02*
X116243381Y-177776095D01*
X116243381Y-177395142D01*
X116291000Y-177299904D01*
X116338619Y-177252285D01*
X116433857Y-177204666D01*
X116576714Y-177204666D01*
X116671952Y-177252285D01*
X116719571Y-177299904D01*
X116767190Y-177395142D01*
X116767190Y-177776095D01*
X116576714Y-176347523D02*
X117243381Y-176347523D01*
X116195762Y-176585619D02*
X116910048Y-176823714D01*
X116910048Y-176204666D01*
X114514334Y-167584381D02*
X114181000Y-167108190D01*
X113942905Y-167584381D02*
X113942905Y-166584381D01*
X114323858Y-166584381D01*
X114419096Y-166632000D01*
X114466715Y-166679619D01*
X114514334Y-166774857D01*
X114514334Y-166917714D01*
X114466715Y-167012952D01*
X114419096Y-167060571D01*
X114323858Y-167108190D01*
X113942905Y-167108190D01*
X115419096Y-166584381D02*
X114942905Y-166584381D01*
X114895286Y-167060571D01*
X114942905Y-167012952D01*
X115038143Y-166965333D01*
X115276239Y-166965333D01*
X115371477Y-167012952D01*
X115419096Y-167060571D01*
X115466715Y-167155810D01*
X115466715Y-167393905D01*
X115419096Y-167489143D01*
X115371477Y-167536762D01*
X115276239Y-167584381D01*
X115038143Y-167584381D01*
X114942905Y-167536762D01*
X114895286Y-167489143D01*
X109672381Y-172124666D02*
X109196190Y-172458000D01*
X109672381Y-172696095D02*
X108672381Y-172696095D01*
X108672381Y-172315142D01*
X108720000Y-172219904D01*
X108767619Y-172172285D01*
X108862857Y-172124666D01*
X109005714Y-172124666D01*
X109100952Y-172172285D01*
X109148571Y-172219904D01*
X109196190Y-172315142D01*
X109196190Y-172696095D01*
X108672381Y-171267523D02*
X108672381Y-171458000D01*
X108720000Y-171553238D01*
X108767619Y-171600857D01*
X108910476Y-171696095D01*
X109100952Y-171743714D01*
X109481905Y-171743714D01*
X109577143Y-171696095D01*
X109624762Y-171648476D01*
X109672381Y-171553238D01*
X109672381Y-171362761D01*
X109624762Y-171267523D01*
X109577143Y-171219904D01*
X109481905Y-171172285D01*
X109243810Y-171172285D01*
X109148571Y-171219904D01*
X109100952Y-171267523D01*
X109053333Y-171362761D01*
X109053333Y-171553238D01*
X109100952Y-171648476D01*
X109148571Y-171696095D01*
X109243810Y-171743714D01*
X109561334Y-167584381D02*
X109228000Y-167108190D01*
X108989905Y-167584381D02*
X108989905Y-166584381D01*
X109370858Y-166584381D01*
X109466096Y-166632000D01*
X109513715Y-166679619D01*
X109561334Y-166774857D01*
X109561334Y-166917714D01*
X109513715Y-167012952D01*
X109466096Y-167060571D01*
X109370858Y-167108190D01*
X108989905Y-167108190D01*
X109894667Y-166584381D02*
X110561334Y-166584381D01*
X110132762Y-167584381D01*
X120737334Y-132405381D02*
X120404000Y-131929190D01*
X120165905Y-132405381D02*
X120165905Y-131405381D01*
X120546858Y-131405381D01*
X120642096Y-131453000D01*
X120689715Y-131500619D01*
X120737334Y-131595857D01*
X120737334Y-131738714D01*
X120689715Y-131833952D01*
X120642096Y-131881571D01*
X120546858Y-131929190D01*
X120165905Y-131929190D01*
X121308762Y-131833952D02*
X121213524Y-131786333D01*
X121165905Y-131738714D01*
X121118286Y-131643476D01*
X121118286Y-131595857D01*
X121165905Y-131500619D01*
X121213524Y-131453000D01*
X121308762Y-131405381D01*
X121499239Y-131405381D01*
X121594477Y-131453000D01*
X121642096Y-131500619D01*
X121689715Y-131595857D01*
X121689715Y-131643476D01*
X121642096Y-131738714D01*
X121594477Y-131786333D01*
X121499239Y-131833952D01*
X121308762Y-131833952D01*
X121213524Y-131881571D01*
X121165905Y-131929190D01*
X121118286Y-132024429D01*
X121118286Y-132214905D01*
X121165905Y-132310143D01*
X121213524Y-132357762D01*
X121308762Y-132405381D01*
X121499239Y-132405381D01*
X121594477Y-132357762D01*
X121642096Y-132310143D01*
X121689715Y-132214905D01*
X121689715Y-132024429D01*
X121642096Y-131929190D01*
X121594477Y-131881571D01*
X121499239Y-131833952D01*
X111450381Y-130595666D02*
X110974190Y-130929000D01*
X111450381Y-131167095D02*
X110450381Y-131167095D01*
X110450381Y-130786142D01*
X110498000Y-130690904D01*
X110545619Y-130643285D01*
X110640857Y-130595666D01*
X110783714Y-130595666D01*
X110878952Y-130643285D01*
X110926571Y-130690904D01*
X110974190Y-130786142D01*
X110974190Y-131167095D01*
X111450381Y-130119476D02*
X111450381Y-129929000D01*
X111402762Y-129833761D01*
X111355143Y-129786142D01*
X111212286Y-129690904D01*
X111021810Y-129643285D01*
X110640857Y-129643285D01*
X110545619Y-129690904D01*
X110498000Y-129738523D01*
X110450381Y-129833761D01*
X110450381Y-130024238D01*
X110498000Y-130119476D01*
X110545619Y-130167095D01*
X110640857Y-130214714D01*
X110878952Y-130214714D01*
X110974190Y-130167095D01*
X111021810Y-130119476D01*
X111069429Y-130024238D01*
X111069429Y-129833761D01*
X111021810Y-129738523D01*
X110974190Y-129690904D01*
X110878952Y-129643285D01*
X102306381Y-136786857D02*
X101830190Y-137120191D01*
X102306381Y-137358286D02*
X101306381Y-137358286D01*
X101306381Y-136977333D01*
X101354000Y-136882095D01*
X101401619Y-136834476D01*
X101496857Y-136786857D01*
X101639714Y-136786857D01*
X101734952Y-136834476D01*
X101782571Y-136882095D01*
X101830190Y-136977333D01*
X101830190Y-137358286D01*
X102306381Y-135834476D02*
X102306381Y-136405905D01*
X102306381Y-136120191D02*
X101306381Y-136120191D01*
X101449238Y-136215429D01*
X101544476Y-136310667D01*
X101592095Y-136405905D01*
X101306381Y-135215429D02*
X101306381Y-135120190D01*
X101354000Y-135024952D01*
X101401619Y-134977333D01*
X101496857Y-134929714D01*
X101687333Y-134882095D01*
X101925429Y-134882095D01*
X102115905Y-134929714D01*
X102211143Y-134977333D01*
X102258762Y-135024952D01*
X102306381Y-135120190D01*
X102306381Y-135215429D01*
X102258762Y-135310667D01*
X102211143Y-135358286D01*
X102115905Y-135405905D01*
X101925429Y-135453524D01*
X101687333Y-135453524D01*
X101496857Y-135405905D01*
X101401619Y-135358286D01*
X101354000Y-135310667D01*
X101306381Y-135215429D01*
X98242381Y-131325857D02*
X97766190Y-131659191D01*
X98242381Y-131897286D02*
X97242381Y-131897286D01*
X97242381Y-131516333D01*
X97290000Y-131421095D01*
X97337619Y-131373476D01*
X97432857Y-131325857D01*
X97575714Y-131325857D01*
X97670952Y-131373476D01*
X97718571Y-131421095D01*
X97766190Y-131516333D01*
X97766190Y-131897286D01*
X98242381Y-130373476D02*
X98242381Y-130944905D01*
X98242381Y-130659191D02*
X97242381Y-130659191D01*
X97385238Y-130754429D01*
X97480476Y-130849667D01*
X97528095Y-130944905D01*
X98242381Y-129421095D02*
X98242381Y-129992524D01*
X98242381Y-129706810D02*
X97242381Y-129706810D01*
X97385238Y-129802048D01*
X97480476Y-129897286D01*
X97528095Y-129992524D01*
X106926143Y-128468381D02*
X106592809Y-127992190D01*
X106354714Y-128468381D02*
X106354714Y-127468381D01*
X106735667Y-127468381D01*
X106830905Y-127516000D01*
X106878524Y-127563619D01*
X106926143Y-127658857D01*
X106926143Y-127801714D01*
X106878524Y-127896952D01*
X106830905Y-127944571D01*
X106735667Y-127992190D01*
X106354714Y-127992190D01*
X107878524Y-128468381D02*
X107307095Y-128468381D01*
X107592809Y-128468381D02*
X107592809Y-127468381D01*
X107497571Y-127611238D01*
X107402333Y-127706476D01*
X107307095Y-127754095D01*
X108259476Y-127563619D02*
X108307095Y-127516000D01*
X108402333Y-127468381D01*
X108640429Y-127468381D01*
X108735667Y-127516000D01*
X108783286Y-127563619D01*
X108830905Y-127658857D01*
X108830905Y-127754095D01*
X108783286Y-127896952D01*
X108211857Y-128468381D01*
X108830905Y-128468381D01*
X97020143Y-147391381D02*
X96686809Y-146915190D01*
X96448714Y-147391381D02*
X96448714Y-146391381D01*
X96829667Y-146391381D01*
X96924905Y-146439000D01*
X96972524Y-146486619D01*
X97020143Y-146581857D01*
X97020143Y-146724714D01*
X96972524Y-146819952D01*
X96924905Y-146867571D01*
X96829667Y-146915190D01*
X96448714Y-146915190D01*
X97972524Y-147391381D02*
X97401095Y-147391381D01*
X97686809Y-147391381D02*
X97686809Y-146391381D01*
X97591571Y-146534238D01*
X97496333Y-146629476D01*
X97401095Y-146677095D01*
X98305857Y-146391381D02*
X98924905Y-146391381D01*
X98591571Y-146772333D01*
X98734429Y-146772333D01*
X98829667Y-146819952D01*
X98877286Y-146867571D01*
X98924905Y-146962810D01*
X98924905Y-147200905D01*
X98877286Y-147296143D01*
X98829667Y-147343762D01*
X98734429Y-147391381D01*
X98448714Y-147391381D01*
X98353476Y-147343762D01*
X98305857Y-147296143D01*
X97020143Y-143708381D02*
X96686809Y-143232190D01*
X96448714Y-143708381D02*
X96448714Y-142708381D01*
X96829667Y-142708381D01*
X96924905Y-142756000D01*
X96972524Y-142803619D01*
X97020143Y-142898857D01*
X97020143Y-143041714D01*
X96972524Y-143136952D01*
X96924905Y-143184571D01*
X96829667Y-143232190D01*
X96448714Y-143232190D01*
X97972524Y-143708381D02*
X97401095Y-143708381D01*
X97686809Y-143708381D02*
X97686809Y-142708381D01*
X97591571Y-142851238D01*
X97496333Y-142946476D01*
X97401095Y-142994095D01*
X98829667Y-143041714D02*
X98829667Y-143708381D01*
X98591571Y-142660762D02*
X98353476Y-143375048D01*
X98972524Y-143375048D01*
X92829143Y-147391381D02*
X92495809Y-146915190D01*
X92257714Y-147391381D02*
X92257714Y-146391381D01*
X92638667Y-146391381D01*
X92733905Y-146439000D01*
X92781524Y-146486619D01*
X92829143Y-146581857D01*
X92829143Y-146724714D01*
X92781524Y-146819952D01*
X92733905Y-146867571D01*
X92638667Y-146915190D01*
X92257714Y-146915190D01*
X93781524Y-147391381D02*
X93210095Y-147391381D01*
X93495809Y-147391381D02*
X93495809Y-146391381D01*
X93400571Y-146534238D01*
X93305333Y-146629476D01*
X93210095Y-146677095D01*
X94686286Y-146391381D02*
X94210095Y-146391381D01*
X94162476Y-146867571D01*
X94210095Y-146819952D01*
X94305333Y-146772333D01*
X94543429Y-146772333D01*
X94638667Y-146819952D01*
X94686286Y-146867571D01*
X94733905Y-146962810D01*
X94733905Y-147200905D01*
X94686286Y-147296143D01*
X94638667Y-147343762D01*
X94543429Y-147391381D01*
X94305333Y-147391381D01*
X94210095Y-147343762D01*
X94162476Y-147296143D01*
X100147381Y-122816857D02*
X99671190Y-123150191D01*
X100147381Y-123388286D02*
X99147381Y-123388286D01*
X99147381Y-123007333D01*
X99195000Y-122912095D01*
X99242619Y-122864476D01*
X99337857Y-122816857D01*
X99480714Y-122816857D01*
X99575952Y-122864476D01*
X99623571Y-122912095D01*
X99671190Y-123007333D01*
X99671190Y-123388286D01*
X100147381Y-121864476D02*
X100147381Y-122435905D01*
X100147381Y-122150191D02*
X99147381Y-122150191D01*
X99290238Y-122245429D01*
X99385476Y-122340667D01*
X99433095Y-122435905D01*
X99147381Y-121007333D02*
X99147381Y-121197810D01*
X99195000Y-121293048D01*
X99242619Y-121340667D01*
X99385476Y-121435905D01*
X99575952Y-121483524D01*
X99956905Y-121483524D01*
X100052143Y-121435905D01*
X100099762Y-121388286D01*
X100147381Y-121293048D01*
X100147381Y-121102571D01*
X100099762Y-121007333D01*
X100052143Y-120959714D01*
X99956905Y-120912095D01*
X99718810Y-120912095D01*
X99623571Y-120959714D01*
X99575952Y-121007333D01*
X99528333Y-121102571D01*
X99528333Y-121293048D01*
X99575952Y-121388286D01*
X99623571Y-121435905D01*
X99718810Y-121483524D01*
X97020143Y-139898381D02*
X96686809Y-139422190D01*
X96448714Y-139898381D02*
X96448714Y-138898381D01*
X96829667Y-138898381D01*
X96924905Y-138946000D01*
X96972524Y-138993619D01*
X97020143Y-139088857D01*
X97020143Y-139231714D01*
X96972524Y-139326952D01*
X96924905Y-139374571D01*
X96829667Y-139422190D01*
X96448714Y-139422190D01*
X97972524Y-139898381D02*
X97401095Y-139898381D01*
X97686809Y-139898381D02*
X97686809Y-138898381D01*
X97591571Y-139041238D01*
X97496333Y-139136476D01*
X97401095Y-139184095D01*
X98305857Y-138898381D02*
X98972524Y-138898381D01*
X98543952Y-139898381D01*
X105529143Y-108656381D02*
X105195809Y-108180190D01*
X104957714Y-108656381D02*
X104957714Y-107656381D01*
X105338667Y-107656381D01*
X105433905Y-107704000D01*
X105481524Y-107751619D01*
X105529143Y-107846857D01*
X105529143Y-107989714D01*
X105481524Y-108084952D01*
X105433905Y-108132571D01*
X105338667Y-108180190D01*
X104957714Y-108180190D01*
X106481524Y-108656381D02*
X105910095Y-108656381D01*
X106195809Y-108656381D02*
X106195809Y-107656381D01*
X106100571Y-107799238D01*
X106005333Y-107894476D01*
X105910095Y-107942095D01*
X107052952Y-108084952D02*
X106957714Y-108037333D01*
X106910095Y-107989714D01*
X106862476Y-107894476D01*
X106862476Y-107846857D01*
X106910095Y-107751619D01*
X106957714Y-107704000D01*
X107052952Y-107656381D01*
X107243429Y-107656381D01*
X107338667Y-107704000D01*
X107386286Y-107751619D01*
X107433905Y-107846857D01*
X107433905Y-107894476D01*
X107386286Y-107989714D01*
X107338667Y-108037333D01*
X107243429Y-108084952D01*
X107052952Y-108084952D01*
X106957714Y-108132571D01*
X106910095Y-108180190D01*
X106862476Y-108275429D01*
X106862476Y-108465905D01*
X106910095Y-108561143D01*
X106957714Y-108608762D01*
X107052952Y-108656381D01*
X107243429Y-108656381D01*
X107338667Y-108608762D01*
X107386286Y-108561143D01*
X107433905Y-108465905D01*
X107433905Y-108275429D01*
X107386286Y-108180190D01*
X107338667Y-108132571D01*
X107243429Y-108084952D01*
X105529143Y-113736381D02*
X105195809Y-113260190D01*
X104957714Y-113736381D02*
X104957714Y-112736381D01*
X105338667Y-112736381D01*
X105433905Y-112784000D01*
X105481524Y-112831619D01*
X105529143Y-112926857D01*
X105529143Y-113069714D01*
X105481524Y-113164952D01*
X105433905Y-113212571D01*
X105338667Y-113260190D01*
X104957714Y-113260190D01*
X106481524Y-113736381D02*
X105910095Y-113736381D01*
X106195809Y-113736381D02*
X106195809Y-112736381D01*
X106100571Y-112879238D01*
X106005333Y-112974476D01*
X105910095Y-113022095D01*
X106957714Y-113736381D02*
X107148190Y-113736381D01*
X107243429Y-113688762D01*
X107291048Y-113641143D01*
X107386286Y-113498286D01*
X107433905Y-113307810D01*
X107433905Y-112926857D01*
X107386286Y-112831619D01*
X107338667Y-112784000D01*
X107243429Y-112736381D01*
X107052952Y-112736381D01*
X106957714Y-112784000D01*
X106910095Y-112831619D01*
X106862476Y-112926857D01*
X106862476Y-113164952D01*
X106910095Y-113260190D01*
X106957714Y-113307810D01*
X107052952Y-113355429D01*
X107243429Y-113355429D01*
X107338667Y-113307810D01*
X107386286Y-113260190D01*
X107433905Y-113164952D01*
X117087381Y-115196857D02*
X116611190Y-115530191D01*
X117087381Y-115768286D02*
X116087381Y-115768286D01*
X116087381Y-115387333D01*
X116135000Y-115292095D01*
X116182619Y-115244476D01*
X116277857Y-115196857D01*
X116420714Y-115196857D01*
X116515952Y-115244476D01*
X116563571Y-115292095D01*
X116611190Y-115387333D01*
X116611190Y-115768286D01*
X116182619Y-114815905D02*
X116135000Y-114768286D01*
X116087381Y-114673048D01*
X116087381Y-114434952D01*
X116135000Y-114339714D01*
X116182619Y-114292095D01*
X116277857Y-114244476D01*
X116373095Y-114244476D01*
X116515952Y-114292095D01*
X117087381Y-114863524D01*
X117087381Y-114244476D01*
X116087381Y-113625429D02*
X116087381Y-113530190D01*
X116135000Y-113434952D01*
X116182619Y-113387333D01*
X116277857Y-113339714D01*
X116468333Y-113292095D01*
X116706429Y-113292095D01*
X116896905Y-113339714D01*
X116992143Y-113387333D01*
X117039762Y-113434952D01*
X117087381Y-113530190D01*
X117087381Y-113625429D01*
X117039762Y-113720667D01*
X116992143Y-113768286D01*
X116896905Y-113815905D01*
X116706429Y-113863524D01*
X116468333Y-113863524D01*
X116277857Y-113815905D01*
X116182619Y-113768286D01*
X116135000Y-113720667D01*
X116087381Y-113625429D01*
X117038381Y-110116857D02*
X116562190Y-110450191D01*
X117038381Y-110688286D02*
X116038381Y-110688286D01*
X116038381Y-110307333D01*
X116086000Y-110212095D01*
X116133619Y-110164476D01*
X116228857Y-110116857D01*
X116371714Y-110116857D01*
X116466952Y-110164476D01*
X116514571Y-110212095D01*
X116562190Y-110307333D01*
X116562190Y-110688286D01*
X116133619Y-109735905D02*
X116086000Y-109688286D01*
X116038381Y-109593048D01*
X116038381Y-109354952D01*
X116086000Y-109259714D01*
X116133619Y-109212095D01*
X116228857Y-109164476D01*
X116324095Y-109164476D01*
X116466952Y-109212095D01*
X117038381Y-109783524D01*
X117038381Y-109164476D01*
X117038381Y-108212095D02*
X117038381Y-108783524D01*
X117038381Y-108497810D02*
X116038381Y-108497810D01*
X116181238Y-108593048D01*
X116276476Y-108688286D01*
X116324095Y-108783524D01*
X110101143Y-126055381D02*
X109767809Y-125579190D01*
X109529714Y-126055381D02*
X109529714Y-125055381D01*
X109910667Y-125055381D01*
X110005905Y-125103000D01*
X110053524Y-125150619D01*
X110101143Y-125245857D01*
X110101143Y-125388714D01*
X110053524Y-125483952D01*
X110005905Y-125531571D01*
X109910667Y-125579190D01*
X109529714Y-125579190D01*
X110482095Y-125150619D02*
X110529714Y-125103000D01*
X110624952Y-125055381D01*
X110863048Y-125055381D01*
X110958286Y-125103000D01*
X111005905Y-125150619D01*
X111053524Y-125245857D01*
X111053524Y-125341095D01*
X111005905Y-125483952D01*
X110434476Y-126055381D01*
X111053524Y-126055381D01*
X111434476Y-125150619D02*
X111482095Y-125103000D01*
X111577333Y-125055381D01*
X111815429Y-125055381D01*
X111910667Y-125103000D01*
X111958286Y-125150619D01*
X112005905Y-125245857D01*
X112005905Y-125341095D01*
X111958286Y-125483952D01*
X111386857Y-126055381D01*
X112005905Y-126055381D01*
X112641143Y-118054381D02*
X112307809Y-117578190D01*
X112069714Y-118054381D02*
X112069714Y-117054381D01*
X112450667Y-117054381D01*
X112545905Y-117102000D01*
X112593524Y-117149619D01*
X112641143Y-117244857D01*
X112641143Y-117387714D01*
X112593524Y-117482952D01*
X112545905Y-117530571D01*
X112450667Y-117578190D01*
X112069714Y-117578190D01*
X113022095Y-117149619D02*
X113069714Y-117102000D01*
X113164952Y-117054381D01*
X113403048Y-117054381D01*
X113498286Y-117102000D01*
X113545905Y-117149619D01*
X113593524Y-117244857D01*
X113593524Y-117340095D01*
X113545905Y-117482952D01*
X112974476Y-118054381D01*
X113593524Y-118054381D01*
X113926857Y-117054381D02*
X114545905Y-117054381D01*
X114212571Y-117435333D01*
X114355429Y-117435333D01*
X114450667Y-117482952D01*
X114498286Y-117530571D01*
X114545905Y-117625810D01*
X114545905Y-117863905D01*
X114498286Y-117959143D01*
X114450667Y-118006762D01*
X114355429Y-118054381D01*
X114069714Y-118054381D01*
X113974476Y-118006762D01*
X113926857Y-117959143D01*
X106497381Y-123705857D02*
X106021190Y-124039191D01*
X106497381Y-124277286D02*
X105497381Y-124277286D01*
X105497381Y-123896333D01*
X105545000Y-123801095D01*
X105592619Y-123753476D01*
X105687857Y-123705857D01*
X105830714Y-123705857D01*
X105925952Y-123753476D01*
X105973571Y-123801095D01*
X106021190Y-123896333D01*
X106021190Y-124277286D01*
X105592619Y-123324905D02*
X105545000Y-123277286D01*
X105497381Y-123182048D01*
X105497381Y-122943952D01*
X105545000Y-122848714D01*
X105592619Y-122801095D01*
X105687857Y-122753476D01*
X105783095Y-122753476D01*
X105925952Y-122801095D01*
X106497381Y-123372524D01*
X106497381Y-122753476D01*
X105830714Y-121896333D02*
X106497381Y-121896333D01*
X105449762Y-122134429D02*
X106164048Y-122372524D01*
X106164048Y-121753476D01*
X107561143Y-118054381D02*
X107227809Y-117578190D01*
X106989714Y-118054381D02*
X106989714Y-117054381D01*
X107370667Y-117054381D01*
X107465905Y-117102000D01*
X107513524Y-117149619D01*
X107561143Y-117244857D01*
X107561143Y-117387714D01*
X107513524Y-117482952D01*
X107465905Y-117530571D01*
X107370667Y-117578190D01*
X106989714Y-117578190D01*
X107942095Y-117149619D02*
X107989714Y-117102000D01*
X108084952Y-117054381D01*
X108323048Y-117054381D01*
X108418286Y-117102000D01*
X108465905Y-117149619D01*
X108513524Y-117244857D01*
X108513524Y-117340095D01*
X108465905Y-117482952D01*
X107894476Y-118054381D01*
X108513524Y-118054381D01*
X109418286Y-117054381D02*
X108942095Y-117054381D01*
X108894476Y-117530571D01*
X108942095Y-117482952D01*
X109037333Y-117435333D01*
X109275429Y-117435333D01*
X109370667Y-117482952D01*
X109418286Y-117530571D01*
X109465905Y-117625810D01*
X109465905Y-117863905D01*
X109418286Y-117959143D01*
X109370667Y-118006762D01*
X109275429Y-118054381D01*
X109037333Y-118054381D01*
X108942095Y-118006762D01*
X108894476Y-117959143D01*
X55824381Y-130944857D02*
X55348190Y-131278191D01*
X55824381Y-131516286D02*
X54824381Y-131516286D01*
X54824381Y-131135333D01*
X54872000Y-131040095D01*
X54919619Y-130992476D01*
X55014857Y-130944857D01*
X55157714Y-130944857D01*
X55252952Y-130992476D01*
X55300571Y-131040095D01*
X55348190Y-131135333D01*
X55348190Y-131516286D01*
X54919619Y-130563905D02*
X54872000Y-130516286D01*
X54824381Y-130421048D01*
X54824381Y-130182952D01*
X54872000Y-130087714D01*
X54919619Y-130040095D01*
X55014857Y-129992476D01*
X55110095Y-129992476D01*
X55252952Y-130040095D01*
X55824381Y-130611524D01*
X55824381Y-129992476D01*
X54824381Y-129135333D02*
X54824381Y-129325810D01*
X54872000Y-129421048D01*
X54919619Y-129468667D01*
X55062476Y-129563905D01*
X55252952Y-129611524D01*
X55633905Y-129611524D01*
X55729143Y-129563905D01*
X55776762Y-129516286D01*
X55824381Y-129421048D01*
X55824381Y-129230571D01*
X55776762Y-129135333D01*
X55729143Y-129087714D01*
X55633905Y-129040095D01*
X55395810Y-129040095D01*
X55300571Y-129087714D01*
X55252952Y-129135333D01*
X55205333Y-129230571D01*
X55205333Y-129421048D01*
X55252952Y-129516286D01*
X55300571Y-129563905D01*
X55395810Y-129611524D01*
%LPC*%
D13*
X45419000Y-150241000D03*
X47919000Y-150241000D03*
X50419000Y-150241000D03*
D14*
X43519000Y-143241000D03*
X52319000Y-143241000D03*
D15*
X108689000Y-163702000D03*
X108689000Y-147702000D03*
X121689000Y-147702000D03*
X121666000Y-163702000D03*
D16*
X99021000Y-184122000D03*
X104521000Y-184122000D03*
X110021000Y-184122000D03*
X99021000Y-188722000D03*
X104521000Y-188722000D03*
X110021000Y-188722000D03*
X99021000Y-193322000D03*
X104521000Y-193322000D03*
X110021000Y-193322000D03*
D13*
X69168000Y-134366000D03*
X71668000Y-134366000D03*
X74168000Y-134366000D03*
D14*
X67268000Y-127366000D03*
X76068000Y-127366000D03*
D13*
X69168000Y-118872000D03*
X71668000Y-118872000D03*
X74168000Y-118872000D03*
D14*
X67268000Y-111872000D03*
X76068000Y-111872000D03*
D17*
X40513000Y-128397000D03*
D18*
X40513000Y-125857000D03*
X40513000Y-123317000D03*
X40513000Y-120777000D03*
X40513000Y-118237000D03*
X40513000Y-115697000D03*
X40513000Y-113157000D03*
X40513000Y-110617000D03*
D17*
X123952000Y-137922000D03*
D18*
X123952000Y-135382000D03*
X123952000Y-132842000D03*
X123952000Y-130302000D03*
X123952000Y-127762000D03*
X123952000Y-125222000D03*
X123952000Y-122682000D03*
X123952000Y-120142000D03*
D17*
X85471000Y-137922000D03*
D18*
X85471000Y-135382000D03*
X85471000Y-132842000D03*
X85471000Y-130302000D03*
X85471000Y-127762000D03*
X85471000Y-125222000D03*
X85471000Y-122682000D03*
X85471000Y-120142000D03*
D15*
X100607000Y-162688000D03*
X100607000Y-178688000D03*
X87607000Y-178688000D03*
X87630000Y-162688000D03*
D19*
X118217000Y-184023000D03*
X115717000Y-184023000D03*
X123297000Y-184023000D03*
X120797000Y-184023000D03*
D20*
X115951000Y-170708000D03*
X115951000Y-173208000D03*
D19*
X121011000Y-168656000D03*
X118511000Y-168656000D03*
X116479000Y-129286000D03*
X118979000Y-129286000D03*
D20*
X115189000Y-137394000D03*
X115189000Y-134894000D03*
D19*
X108819000Y-132715000D03*
X106319000Y-132715000D03*
D20*
X99441000Y-135148000D03*
X99441000Y-137648000D03*
X97663000Y-154285000D03*
X97663000Y-151785000D03*
D19*
X92222000Y-151892000D03*
X94722000Y-151892000D03*
X108605000Y-110744000D03*
X111105000Y-110744000D03*
X111105000Y-115824000D03*
X108605000Y-115824000D03*
D20*
X116713000Y-121940000D03*
X116713000Y-124440000D03*
X104394000Y-121813000D03*
X104394000Y-124313000D03*
D21*
X93091000Y-120522000D03*
X93091000Y-117222000D03*
X107442000Y-135891000D03*
X107442000Y-139191000D03*
X111379000Y-139191000D03*
X111379000Y-135891000D03*
D22*
X91822000Y-156591000D03*
X95122000Y-156591000D03*
X95122000Y-154305000D03*
X91822000Y-154305000D03*
D23*
X59182000Y-132969000D03*
D13*
X61722000Y-132969000D03*
X45419000Y-134366000D03*
X47919000Y-134366000D03*
X50419000Y-134366000D03*
D14*
X43519000Y-127366000D03*
X52319000Y-127366000D03*
D17*
X79121000Y-128397000D03*
D18*
X79121000Y-125857000D03*
X79121000Y-123317000D03*
X79121000Y-120777000D03*
X79121000Y-118237000D03*
X79121000Y-115697000D03*
X79121000Y-113157000D03*
X79121000Y-110617000D03*
D13*
X45419000Y-118872000D03*
X47919000Y-118872000D03*
X50419000Y-118872000D03*
D14*
X43519000Y-111872000D03*
X52319000Y-111872000D03*
D24*
X114361000Y-176038000D03*
X112461000Y-176038000D03*
X113411000Y-178038000D03*
D25*
X103489000Y-131506000D03*
X103489000Y-129606000D03*
X101489000Y-130556000D03*
X94472000Y-144714000D03*
X94472000Y-142814000D03*
X92472000Y-143764000D03*
D24*
X111948000Y-122190000D03*
X110048000Y-122190000D03*
X110998000Y-124190000D03*
D26*
X118317000Y-187833000D03*
X115617000Y-187833000D03*
X123397000Y-187833000D03*
X120697000Y-187833000D03*
D27*
X118491000Y-170608000D03*
X118491000Y-173308000D03*
X118491000Y-178388000D03*
X118491000Y-175688000D03*
D26*
X116031000Y-168656000D03*
X113331000Y-168656000D03*
D27*
X110871000Y-170608000D03*
X110871000Y-173308000D03*
D26*
X110951000Y-168656000D03*
X108251000Y-168656000D03*
X119079000Y-131826000D03*
X116379000Y-131826000D03*
D27*
X112649000Y-131906000D03*
X112649000Y-129206000D03*
X103505000Y-137494000D03*
X103505000Y-134794000D03*
X99441000Y-129460000D03*
X99441000Y-132160000D03*
D26*
X106219000Y-129540000D03*
X108919000Y-129540000D03*
X99902000Y-148463000D03*
X97202000Y-148463000D03*
X97202000Y-144780000D03*
X99902000Y-144780000D03*
X92122000Y-148463000D03*
X94822000Y-148463000D03*
D27*
X101219000Y-124413000D03*
X101219000Y-121713000D03*
D26*
X97202000Y-140970000D03*
X99902000Y-140970000D03*
X108505000Y-108204000D03*
X111205000Y-108204000D03*
X111205000Y-113284000D03*
X108505000Y-113284000D03*
D27*
X114935000Y-113204000D03*
X114935000Y-115904000D03*
X114935000Y-110824000D03*
X114935000Y-108124000D03*
D26*
X110283000Y-127127000D03*
X112983000Y-127127000D03*
X112061000Y-119126000D03*
X114761000Y-119126000D03*
D27*
X107569000Y-124413000D03*
X107569000Y-121713000D03*
D26*
X109681000Y-119126000D03*
X106981000Y-119126000D03*
D27*
X55245000Y-132889000D03*
X55245000Y-135589000D03*
D28*
X101219000Y-114046000D03*
X101219000Y-108046000D03*
X96519000Y-111046000D03*
M02*
