G04 #@! TF.FileFunction,Legend,Top*
%FSLAX46Y46*%
G04 Gerber Fmt 4.6, Leading zero omitted, Abs format (unit mm)*
G04 Created by KiCad (PCBNEW 4.0.7) date 02/14/18 10:03:11*
%MOMM*%
%LPD*%
G01*
G04 APERTURE LIST*
%ADD10C,0.100000*%
%ADD11C,0.150000*%
%ADD12C,0.120000*%
%ADD13C,0.050000*%
%ADD14C,2.200000*%
%ADD15C,3.400000*%
%ADD16O,5.400000X4.400000*%
%ADD17O,4.400000X3.900000*%
%ADD18R,2.100000X2.100000*%
%ADD19O,2.100000X2.100000*%
%ADD20R,1.900000X1.650000*%
%ADD21R,1.650000X1.900000*%
%ADD22R,1.600000X1.300000*%
%ADD23R,2.200000X2.200000*%
%ADD24R,1.200000X1.300000*%
%ADD25R,1.300000X1.200000*%
%ADD26R,1.900000X1.700000*%
%ADD27R,1.700000X1.900000*%
%ADD28R,2.000000X2.000000*%
%ADD29O,2.000000X2.000000*%
%ADD30R,3.900000X3.900000*%
G04 APERTURE END LIST*
D10*
D11*
X80772000Y-105791000D02*
X38862000Y-105791000D01*
X80772000Y-136271000D02*
X80772000Y-105791000D01*
X56896000Y-136271000D02*
X56896000Y-151511000D01*
X56896000Y-136271000D02*
X80772000Y-136271000D01*
X38862000Y-151511000D02*
X38862000Y-105791000D01*
X56896000Y-151511000D02*
X38862000Y-151511000D01*
X125603000Y-190881000D02*
X125603000Y-112903000D01*
X90678000Y-197866000D02*
X118618000Y-197866000D01*
X90678000Y-190881000D02*
X83693000Y-190881000D01*
X83693000Y-112903000D02*
X83693000Y-190881000D01*
X118618000Y-105918000D02*
X90678000Y-105918000D01*
X90678000Y-112903000D02*
X83693000Y-112903000D01*
X90678000Y-105918000D02*
X90678000Y-112903000D01*
X118618000Y-112903000D02*
X125603000Y-112903000D01*
X118618000Y-105918000D02*
X118618000Y-112903000D01*
X118618000Y-190881000D02*
X118618000Y-197866000D01*
X125603000Y-190881000D02*
X118618000Y-190881000D01*
X90678000Y-190881000D02*
X90678000Y-197866000D01*
D12*
X45156568Y-141569018D02*
G75*
G02X50681000Y-141568000I2762432J-1171982D01*
G01*
X50216753Y-144669295D02*
G75*
G02X45621000Y-144669000I-2297753J1928295D01*
G01*
X43009000Y-149301000D02*
X43009000Y-145435000D01*
X43009000Y-141046000D02*
X43009000Y-137181000D01*
X52829000Y-149301000D02*
X52829000Y-145435000D01*
X52829000Y-141046000D02*
X52829000Y-137181000D01*
X43009000Y-149301000D02*
X44594000Y-149301000D01*
X46244000Y-149301000D02*
X47094000Y-149301000D01*
X48744000Y-149301000D02*
X49594000Y-149301000D01*
X51244000Y-149301000D02*
X52829000Y-149301000D01*
X43009000Y-137181000D02*
X52829000Y-137181000D01*
D11*
X102235000Y-155702000D02*
X102235000Y-159131000D01*
X102235000Y-159131000D02*
X104775000Y-159131000D01*
X102235000Y-155702000D02*
X102235000Y-152273000D01*
X102235000Y-152273000D02*
X104775000Y-152273000D01*
X125603000Y-165862000D02*
X125603000Y-145542000D01*
X104775000Y-165862000D02*
X104775000Y-145542000D01*
X127127000Y-163195000D02*
X136017000Y-163195000D01*
X136017000Y-163195000D02*
X136017000Y-148209000D01*
X136017000Y-148209000D02*
X127127000Y-148209000D01*
X103124000Y-146685000D02*
X127000000Y-146685000D01*
X103378000Y-164719000D02*
X127254000Y-164719000D01*
X113411000Y-197231000D02*
X96901000Y-197231000D01*
X96901000Y-197231000D02*
X95631000Y-197231000D01*
X95504000Y-197612000D02*
X95504000Y-179832000D01*
X95631000Y-180213000D02*
X113411000Y-180213000D01*
X113538000Y-179832000D02*
X113538000Y-197612000D01*
D12*
X68905568Y-125694018D02*
G75*
G02X74430000Y-125693000I2762432J-1171982D01*
G01*
X73965753Y-128794295D02*
G75*
G02X69370000Y-128794000I-2297753J1928295D01*
G01*
X66758000Y-133426000D02*
X66758000Y-129560000D01*
X66758000Y-125171000D02*
X66758000Y-121306000D01*
X76578000Y-133426000D02*
X76578000Y-129560000D01*
X76578000Y-125171000D02*
X76578000Y-121306000D01*
X66758000Y-133426000D02*
X68343000Y-133426000D01*
X69993000Y-133426000D02*
X70843000Y-133426000D01*
X72493000Y-133426000D02*
X73343000Y-133426000D01*
X74993000Y-133426000D02*
X76578000Y-133426000D01*
X66758000Y-121306000D02*
X76578000Y-121306000D01*
X68905568Y-110200018D02*
G75*
G02X74430000Y-110199000I2762432J-1171982D01*
G01*
X73965753Y-113300295D02*
G75*
G02X69370000Y-113300000I-2297753J1928295D01*
G01*
X66758000Y-117932000D02*
X66758000Y-114066000D01*
X66758000Y-109677000D02*
X66758000Y-105812000D01*
X76578000Y-117932000D02*
X76578000Y-114066000D01*
X76578000Y-109677000D02*
X76578000Y-105812000D01*
X66758000Y-117932000D02*
X68343000Y-117932000D01*
X69993000Y-117932000D02*
X70843000Y-117932000D01*
X72493000Y-117932000D02*
X73343000Y-117932000D01*
X74993000Y-117932000D02*
X76578000Y-117932000D01*
X66758000Y-105812000D02*
X76578000Y-105812000D01*
X41843000Y-109287000D02*
X39183000Y-109287000D01*
X41843000Y-127127000D02*
X41843000Y-109287000D01*
X39183000Y-127127000D02*
X39183000Y-109287000D01*
X41843000Y-127127000D02*
X39183000Y-127127000D01*
X41843000Y-128397000D02*
X41843000Y-129727000D01*
X41843000Y-129727000D02*
X40513000Y-129727000D01*
X125282000Y-118812000D02*
X122622000Y-118812000D01*
X125282000Y-136652000D02*
X125282000Y-118812000D01*
X122622000Y-136652000D02*
X122622000Y-118812000D01*
X125282000Y-136652000D02*
X122622000Y-136652000D01*
X125282000Y-137922000D02*
X125282000Y-139252000D01*
X125282000Y-139252000D02*
X123952000Y-139252000D01*
X86801000Y-118812000D02*
X84141000Y-118812000D01*
X86801000Y-136652000D02*
X86801000Y-118812000D01*
X84141000Y-136652000D02*
X84141000Y-118812000D01*
X86801000Y-136652000D02*
X84141000Y-136652000D01*
X86801000Y-137922000D02*
X86801000Y-139252000D01*
X86801000Y-139252000D02*
X85471000Y-139252000D01*
D11*
X107061000Y-170688000D02*
X107061000Y-167259000D01*
X107061000Y-167259000D02*
X104521000Y-167259000D01*
X107061000Y-170688000D02*
X107061000Y-174117000D01*
X107061000Y-174117000D02*
X104521000Y-174117000D01*
X83693000Y-160528000D02*
X83693000Y-180848000D01*
X104521000Y-160528000D02*
X104521000Y-180848000D01*
X82169000Y-163195000D02*
X73279000Y-163195000D01*
X73279000Y-163195000D02*
X73279000Y-178181000D01*
X73279000Y-178181000D02*
X82169000Y-178181000D01*
X106172000Y-179705000D02*
X82296000Y-179705000D01*
X105918000Y-161671000D02*
X82042000Y-161671000D01*
D12*
X116467000Y-184873000D02*
X117467000Y-184873000D01*
X117467000Y-183173000D02*
X116467000Y-183173000D01*
X122309000Y-184873000D02*
X123309000Y-184873000D01*
X123309000Y-183173000D02*
X122309000Y-183173000D01*
X118579000Y-172458000D02*
X118579000Y-171458000D01*
X116879000Y-171458000D02*
X116879000Y-172458000D01*
X121500000Y-172458000D02*
X121500000Y-171458000D01*
X119800000Y-171458000D02*
X119800000Y-172458000D01*
X118356000Y-128690000D02*
X117356000Y-128690000D01*
X117356000Y-130390000D02*
X118356000Y-130390000D01*
X117356000Y-135724000D02*
X118356000Y-135724000D01*
X118356000Y-134024000D02*
X117356000Y-134024000D01*
X109355000Y-133057000D02*
X110355000Y-133057000D01*
X110355000Y-131357000D02*
X109355000Y-131357000D01*
X98640000Y-136771000D02*
X98640000Y-135771000D01*
X96940000Y-135771000D02*
X96940000Y-136771000D01*
X99068000Y-152742000D02*
X100068000Y-152742000D01*
X100068000Y-151042000D02*
X99068000Y-151042000D01*
X94988000Y-151042000D02*
X93988000Y-151042000D01*
X93988000Y-152742000D02*
X94988000Y-152742000D01*
X110355000Y-110021000D02*
X109355000Y-110021000D01*
X109355000Y-111721000D02*
X110355000Y-111721000D01*
X109355000Y-117055000D02*
X110355000Y-117055000D01*
X110355000Y-115355000D02*
X109355000Y-115355000D01*
X120738000Y-125468000D02*
X120738000Y-124468000D01*
X119038000Y-124468000D02*
X119038000Y-125468000D01*
X105752000Y-123690000D02*
X105752000Y-122690000D01*
X104052000Y-122690000D02*
X104052000Y-123690000D01*
X92091000Y-126329000D02*
X94091000Y-126329000D01*
X94091000Y-126329000D02*
X94091000Y-122429000D01*
X92091000Y-126329000D02*
X92091000Y-122429000D01*
X63442000Y-132969462D02*
G75*
G03X57892000Y-131424170I-2990000J462D01*
G01*
X63442000Y-132968538D02*
G75*
G02X57892000Y-134513830I-2990000J-462D01*
G01*
X62952000Y-132969000D02*
G75*
G03X62952000Y-132969000I-2500000J0D01*
G01*
X57892000Y-131424000D02*
X57892000Y-134514000D01*
X45156568Y-125694018D02*
G75*
G02X50681000Y-125693000I2762432J-1171982D01*
G01*
X50216753Y-128794295D02*
G75*
G02X45621000Y-128794000I-2297753J1928295D01*
G01*
X43009000Y-133426000D02*
X43009000Y-129560000D01*
X43009000Y-125171000D02*
X43009000Y-121306000D01*
X52829000Y-133426000D02*
X52829000Y-129560000D01*
X52829000Y-125171000D02*
X52829000Y-121306000D01*
X43009000Y-133426000D02*
X44594000Y-133426000D01*
X46244000Y-133426000D02*
X47094000Y-133426000D01*
X48744000Y-133426000D02*
X49594000Y-133426000D01*
X51244000Y-133426000D02*
X52829000Y-133426000D01*
X43009000Y-121306000D02*
X52829000Y-121306000D01*
X80451000Y-109287000D02*
X77791000Y-109287000D01*
X80451000Y-127127000D02*
X80451000Y-109287000D01*
X77791000Y-127127000D02*
X77791000Y-109287000D01*
X80451000Y-127127000D02*
X77791000Y-127127000D01*
X80451000Y-128397000D02*
X80451000Y-129727000D01*
X80451000Y-129727000D02*
X79121000Y-129727000D01*
X45156568Y-110200018D02*
G75*
G02X50681000Y-110199000I2762432J-1171982D01*
G01*
X50216753Y-113300295D02*
G75*
G02X45621000Y-113300000I-2297753J1928295D01*
G01*
X43009000Y-117932000D02*
X43009000Y-114066000D01*
X43009000Y-109677000D02*
X43009000Y-105812000D01*
X52829000Y-117932000D02*
X52829000Y-114066000D01*
X52829000Y-109677000D02*
X52829000Y-105812000D01*
X43009000Y-117932000D02*
X44594000Y-117932000D01*
X46244000Y-117932000D02*
X47094000Y-117932000D01*
X48744000Y-117932000D02*
X49594000Y-117932000D01*
X51244000Y-117932000D02*
X52829000Y-117932000D01*
X43009000Y-105812000D02*
X52829000Y-105812000D01*
X114625000Y-177798000D02*
X115555000Y-177798000D01*
X117785000Y-177798000D02*
X116855000Y-177798000D01*
X117785000Y-177798000D02*
X117785000Y-175638000D01*
X114625000Y-177798000D02*
X114625000Y-176338000D01*
X104015000Y-129357000D02*
X104015000Y-130287000D01*
X104015000Y-132517000D02*
X104015000Y-131587000D01*
X104015000Y-132517000D02*
X106175000Y-132517000D01*
X104015000Y-129357000D02*
X105475000Y-129357000D01*
X93728000Y-143327000D02*
X93728000Y-144257000D01*
X93728000Y-146487000D02*
X93728000Y-145557000D01*
X93728000Y-146487000D02*
X95888000Y-146487000D01*
X93728000Y-143327000D02*
X95188000Y-143327000D01*
X109418000Y-123950000D02*
X110348000Y-123950000D01*
X112578000Y-123950000D02*
X111648000Y-123950000D01*
X112578000Y-123950000D02*
X112578000Y-121790000D01*
X109418000Y-123950000D02*
X109418000Y-122490000D01*
X116367000Y-186953000D02*
X117567000Y-186953000D01*
X117567000Y-188713000D02*
X116367000Y-188713000D01*
X122209000Y-186953000D02*
X123409000Y-186953000D01*
X123409000Y-188713000D02*
X122209000Y-188713000D01*
X122183000Y-172558000D02*
X122183000Y-171358000D01*
X123943000Y-171358000D02*
X123943000Y-172558000D01*
X123943000Y-176438000D02*
X123943000Y-177638000D01*
X122183000Y-177638000D02*
X122183000Y-176438000D01*
X109255000Y-178698000D02*
X110455000Y-178698000D01*
X110455000Y-180458000D02*
X109255000Y-180458000D01*
X113801000Y-172685000D02*
X113801000Y-171485000D01*
X115561000Y-171485000D02*
X115561000Y-172685000D01*
X110271000Y-167776000D02*
X111471000Y-167776000D01*
X111471000Y-169536000D02*
X110271000Y-169536000D01*
X117256000Y-131454000D02*
X118456000Y-131454000D01*
X118456000Y-133214000D02*
X117256000Y-133214000D01*
X114672000Y-130337000D02*
X114672000Y-131537000D01*
X112912000Y-131537000D02*
X112912000Y-130337000D01*
X110201000Y-141342000D02*
X109001000Y-141342000D01*
X109001000Y-139582000D02*
X110201000Y-139582000D01*
X96910000Y-131791000D02*
X96910000Y-130591000D01*
X98670000Y-130591000D02*
X98670000Y-131791000D01*
X110455000Y-130420000D02*
X109255000Y-130420000D01*
X109255000Y-128660000D02*
X110455000Y-128660000D01*
X99095000Y-148091000D02*
X100295000Y-148091000D01*
X100295000Y-149851000D02*
X99095000Y-149851000D01*
X100295000Y-146803000D02*
X99095000Y-146803000D01*
X99095000Y-145043000D02*
X100295000Y-145043000D01*
X95088000Y-149851000D02*
X93888000Y-149851000D01*
X93888000Y-148091000D02*
X95088000Y-148091000D01*
X94116000Y-131791000D02*
X94116000Y-130591000D01*
X95876000Y-130591000D02*
X95876000Y-131791000D01*
X100295000Y-141850000D02*
X99095000Y-141850000D01*
X99095000Y-140090000D02*
X100295000Y-140090000D01*
X110455000Y-109084000D02*
X109255000Y-109084000D01*
X109255000Y-107324000D02*
X110455000Y-107324000D01*
X109255000Y-112658000D02*
X110455000Y-112658000D01*
X110455000Y-114418000D02*
X109255000Y-114418000D01*
X114055000Y-115535000D02*
X114055000Y-114335000D01*
X115815000Y-114335000D02*
X115815000Y-115535000D01*
X115815000Y-108874000D02*
X115815000Y-110074000D01*
X114055000Y-110074000D02*
X114055000Y-108874000D01*
X118482000Y-124368000D02*
X118482000Y-125568000D01*
X116722000Y-125568000D02*
X116722000Y-124368000D01*
X118482000Y-118780000D02*
X118482000Y-119980000D01*
X116722000Y-119980000D02*
X116722000Y-118780000D01*
X108449000Y-122463000D02*
X108449000Y-123663000D01*
X106689000Y-123663000D02*
X106689000Y-122463000D01*
X107731000Y-118246000D02*
X108931000Y-118246000D01*
X108931000Y-120006000D02*
X107731000Y-120006000D01*
X54365000Y-134839000D02*
X54365000Y-133639000D01*
X56125000Y-133639000D02*
X56125000Y-134839000D01*
X107890000Y-177352000D02*
X110550000Y-177352000D01*
X107890000Y-174752000D02*
X107890000Y-177352000D01*
X110550000Y-174752000D02*
X110550000Y-177352000D01*
X107890000Y-174752000D02*
X110550000Y-174752000D01*
X107890000Y-173482000D02*
X107890000Y-172152000D01*
X107890000Y-172152000D02*
X109220000Y-172152000D01*
X99508000Y-133664000D02*
X102168000Y-133664000D01*
X99508000Y-131064000D02*
X99508000Y-133664000D01*
X102168000Y-131064000D02*
X102168000Y-133664000D01*
X99508000Y-131064000D02*
X102168000Y-131064000D01*
X99508000Y-129794000D02*
X99508000Y-128464000D01*
X99508000Y-128464000D02*
X100838000Y-128464000D01*
X93158000Y-141665000D02*
X95818000Y-141665000D01*
X93158000Y-139065000D02*
X93158000Y-141665000D01*
X95818000Y-139065000D02*
X95818000Y-141665000D01*
X93158000Y-139065000D02*
X95818000Y-139065000D01*
X93158000Y-137795000D02*
X93158000Y-136465000D01*
X93158000Y-136465000D02*
X94488000Y-136465000D01*
X113605000Y-124774000D02*
X116265000Y-124774000D01*
X113605000Y-122174000D02*
X113605000Y-124774000D01*
X116265000Y-122174000D02*
X116265000Y-124774000D01*
X113605000Y-122174000D02*
X116265000Y-122174000D01*
X113605000Y-120904000D02*
X113605000Y-119574000D01*
X113605000Y-119574000D02*
X114935000Y-119574000D01*
X110081000Y-142450000D02*
X110081000Y-144570000D01*
X110081000Y-144570000D02*
X114201000Y-144570000D01*
X114201000Y-144570000D02*
X114201000Y-142450000D01*
X114201000Y-142450000D02*
X110081000Y-142450000D01*
X109311000Y-143510000D02*
X110081000Y-143510000D01*
X114971000Y-143510000D02*
X114201000Y-143510000D01*
X110741000Y-142450000D02*
X110741000Y-144570000D01*
X114074000Y-138474000D02*
X114074000Y-136354000D01*
X114074000Y-136354000D02*
X109954000Y-136354000D01*
X109954000Y-136354000D02*
X109954000Y-138474000D01*
X109954000Y-138474000D02*
X114074000Y-138474000D01*
X114844000Y-137414000D02*
X114074000Y-137414000D01*
X109184000Y-137414000D02*
X109954000Y-137414000D01*
X113414000Y-138474000D02*
X113414000Y-136354000D01*
X94968000Y-156547000D02*
X94968000Y-158667000D01*
X94968000Y-158667000D02*
X99088000Y-158667000D01*
X99088000Y-158667000D02*
X99088000Y-156547000D01*
X99088000Y-156547000D02*
X94968000Y-156547000D01*
X94198000Y-157607000D02*
X94968000Y-157607000D01*
X99858000Y-157607000D02*
X99088000Y-157607000D01*
X95628000Y-156547000D02*
X95628000Y-158667000D01*
X99088000Y-155746000D02*
X99088000Y-153626000D01*
X99088000Y-153626000D02*
X94968000Y-153626000D01*
X94968000Y-153626000D02*
X94968000Y-155746000D01*
X94968000Y-155746000D02*
X99088000Y-155746000D01*
X99858000Y-154686000D02*
X99088000Y-154686000D01*
X94198000Y-154686000D02*
X94968000Y-154686000D01*
X98428000Y-155746000D02*
X98428000Y-153626000D01*
X96619000Y-109046000D02*
X96619000Y-100246000D01*
X96619000Y-100246000D02*
X105819000Y-100246000D01*
X99319000Y-114946000D02*
X96619000Y-114946000D01*
X96619000Y-114946000D02*
X96619000Y-113046000D01*
X105819000Y-100246000D02*
X105819000Y-114946000D01*
X105819000Y-114946000D02*
X103219000Y-114946000D01*
D13*
X47009953Y-147427190D02*
X47176620Y-147927190D01*
X47343286Y-147427190D01*
X47605191Y-147427190D02*
X47700429Y-147427190D01*
X47748048Y-147451000D01*
X47795667Y-147498619D01*
X47819476Y-147593857D01*
X47819476Y-147760524D01*
X47795667Y-147855762D01*
X47748048Y-147903381D01*
X47700429Y-147927190D01*
X47605191Y-147927190D01*
X47557572Y-147903381D01*
X47509953Y-147855762D01*
X47486143Y-147760524D01*
X47486143Y-147593857D01*
X47509953Y-147498619D01*
X47557572Y-147451000D01*
X47605191Y-147427190D01*
X48271858Y-147927190D02*
X48033763Y-147927190D01*
X48033763Y-147427190D01*
X48700429Y-147927190D02*
X48414715Y-147927190D01*
X48557572Y-147927190D02*
X48557572Y-147427190D01*
X48509953Y-147498619D01*
X48462334Y-147546238D01*
X48414715Y-147570048D01*
X70215334Y-131647381D02*
X70286763Y-131671190D01*
X70405810Y-131671190D01*
X70453429Y-131647381D01*
X70477239Y-131623571D01*
X70501048Y-131575952D01*
X70501048Y-131528333D01*
X70477239Y-131480714D01*
X70453429Y-131456905D01*
X70405810Y-131433095D01*
X70310572Y-131409286D01*
X70262953Y-131385476D01*
X70239144Y-131361667D01*
X70215334Y-131314048D01*
X70215334Y-131266429D01*
X70239144Y-131218810D01*
X70262953Y-131195000D01*
X70310572Y-131171190D01*
X70429620Y-131171190D01*
X70501048Y-131195000D01*
X70715334Y-131171190D02*
X70715334Y-131575952D01*
X70739143Y-131623571D01*
X70762953Y-131647381D01*
X70810572Y-131671190D01*
X70905810Y-131671190D01*
X70953429Y-131647381D01*
X70977238Y-131623571D01*
X71001048Y-131575952D01*
X71001048Y-131171190D01*
X71215334Y-131647381D02*
X71286763Y-131671190D01*
X71405810Y-131671190D01*
X71453429Y-131647381D01*
X71477239Y-131623571D01*
X71501048Y-131575952D01*
X71501048Y-131528333D01*
X71477239Y-131480714D01*
X71453429Y-131456905D01*
X71405810Y-131433095D01*
X71310572Y-131409286D01*
X71262953Y-131385476D01*
X71239144Y-131361667D01*
X71215334Y-131314048D01*
X71215334Y-131266429D01*
X71239144Y-131218810D01*
X71262953Y-131195000D01*
X71310572Y-131171190D01*
X71429620Y-131171190D01*
X71501048Y-131195000D01*
X71643905Y-131171190D02*
X71929619Y-131171190D01*
X71786762Y-131671190D02*
X71786762Y-131171190D01*
X72072476Y-131528333D02*
X72310571Y-131528333D01*
X72024857Y-131671190D02*
X72191524Y-131171190D01*
X72358190Y-131671190D01*
X72524857Y-131671190D02*
X72524857Y-131171190D01*
X72762952Y-131671190D02*
X72762952Y-131171190D01*
X73048666Y-131671190D01*
X73048666Y-131171190D01*
X73548666Y-131671190D02*
X73262952Y-131671190D01*
X73405809Y-131671190D02*
X73405809Y-131171190D01*
X73358190Y-131242619D01*
X73310571Y-131290238D01*
X73262952Y-131314048D01*
X70497048Y-116058190D02*
X70782762Y-116058190D01*
X70639905Y-116558190D02*
X70639905Y-116058190D01*
X71044667Y-116058190D02*
X71139905Y-116058190D01*
X71187524Y-116082000D01*
X71235143Y-116129619D01*
X71258952Y-116224857D01*
X71258952Y-116391524D01*
X71235143Y-116486762D01*
X71187524Y-116534381D01*
X71139905Y-116558190D01*
X71044667Y-116558190D01*
X70997048Y-116534381D01*
X70949429Y-116486762D01*
X70925619Y-116391524D01*
X70925619Y-116224857D01*
X70949429Y-116129619D01*
X70997048Y-116082000D01*
X71044667Y-116058190D01*
X71473239Y-116558190D02*
X71473239Y-116058190D01*
X71758953Y-116558190D01*
X71758953Y-116058190D01*
X71997049Y-116296286D02*
X72163715Y-116296286D01*
X72235144Y-116558190D02*
X71997049Y-116558190D01*
X71997049Y-116058190D01*
X72235144Y-116058190D01*
X72711334Y-116558190D02*
X72425620Y-116558190D01*
X72568477Y-116558190D02*
X72568477Y-116058190D01*
X72520858Y-116129619D01*
X72473239Y-116177238D01*
X72425620Y-116201048D01*
X115105667Y-182931571D02*
X115081857Y-182955381D01*
X115010429Y-182979190D01*
X114962810Y-182979190D01*
X114891381Y-182955381D01*
X114843762Y-182907762D01*
X114819953Y-182860143D01*
X114796143Y-182764905D01*
X114796143Y-182693476D01*
X114819953Y-182598238D01*
X114843762Y-182550619D01*
X114891381Y-182503000D01*
X114962810Y-182479190D01*
X115010429Y-182479190D01*
X115081857Y-182503000D01*
X115105667Y-182526810D01*
X115581857Y-182979190D02*
X115296143Y-182979190D01*
X115439000Y-182979190D02*
X115439000Y-182479190D01*
X115391381Y-182550619D01*
X115343762Y-182598238D01*
X115296143Y-182622048D01*
X120947667Y-182931571D02*
X120923857Y-182955381D01*
X120852429Y-182979190D01*
X120804810Y-182979190D01*
X120733381Y-182955381D01*
X120685762Y-182907762D01*
X120661953Y-182860143D01*
X120638143Y-182764905D01*
X120638143Y-182693476D01*
X120661953Y-182598238D01*
X120685762Y-182550619D01*
X120733381Y-182503000D01*
X120804810Y-182479190D01*
X120852429Y-182479190D01*
X120923857Y-182503000D01*
X120947667Y-182526810D01*
X121138143Y-182526810D02*
X121161953Y-182503000D01*
X121209572Y-182479190D01*
X121328619Y-182479190D01*
X121376238Y-182503000D01*
X121400048Y-182526810D01*
X121423857Y-182574429D01*
X121423857Y-182622048D01*
X121400048Y-182693476D01*
X121114334Y-182979190D01*
X121423857Y-182979190D01*
X117518667Y-169342571D02*
X117494857Y-169366381D01*
X117423429Y-169390190D01*
X117375810Y-169390190D01*
X117304381Y-169366381D01*
X117256762Y-169318762D01*
X117232953Y-169271143D01*
X117209143Y-169175905D01*
X117209143Y-169104476D01*
X117232953Y-169009238D01*
X117256762Y-168961619D01*
X117304381Y-168914000D01*
X117375810Y-168890190D01*
X117423429Y-168890190D01*
X117494857Y-168914000D01*
X117518667Y-168937810D01*
X117685334Y-168890190D02*
X117994857Y-168890190D01*
X117828191Y-169080667D01*
X117899619Y-169080667D01*
X117947238Y-169104476D01*
X117971048Y-169128286D01*
X117994857Y-169175905D01*
X117994857Y-169294952D01*
X117971048Y-169342571D01*
X117947238Y-169366381D01*
X117899619Y-169390190D01*
X117756762Y-169390190D01*
X117709143Y-169366381D01*
X117685334Y-169342571D01*
X120439667Y-169342571D02*
X120415857Y-169366381D01*
X120344429Y-169390190D01*
X120296810Y-169390190D01*
X120225381Y-169366381D01*
X120177762Y-169318762D01*
X120153953Y-169271143D01*
X120130143Y-169175905D01*
X120130143Y-169104476D01*
X120153953Y-169009238D01*
X120177762Y-168961619D01*
X120225381Y-168914000D01*
X120296810Y-168890190D01*
X120344429Y-168890190D01*
X120415857Y-168914000D01*
X120439667Y-168937810D01*
X120868238Y-169056857D02*
X120868238Y-169390190D01*
X120749191Y-168866381D02*
X120630143Y-169223524D01*
X120939667Y-169223524D01*
X115994667Y-128448571D02*
X115970857Y-128472381D01*
X115899429Y-128496190D01*
X115851810Y-128496190D01*
X115780381Y-128472381D01*
X115732762Y-128424762D01*
X115708953Y-128377143D01*
X115685143Y-128281905D01*
X115685143Y-128210476D01*
X115708953Y-128115238D01*
X115732762Y-128067619D01*
X115780381Y-128020000D01*
X115851810Y-127996190D01*
X115899429Y-127996190D01*
X115970857Y-128020000D01*
X115994667Y-128043810D01*
X116447048Y-127996190D02*
X116208953Y-127996190D01*
X116185143Y-128234286D01*
X116208953Y-128210476D01*
X116256572Y-128186667D01*
X116375619Y-128186667D01*
X116423238Y-128210476D01*
X116447048Y-128234286D01*
X116470857Y-128281905D01*
X116470857Y-128400952D01*
X116447048Y-128448571D01*
X116423238Y-128472381D01*
X116375619Y-128496190D01*
X116256572Y-128496190D01*
X116208953Y-128472381D01*
X116185143Y-128448571D01*
X115994667Y-133782571D02*
X115970857Y-133806381D01*
X115899429Y-133830190D01*
X115851810Y-133830190D01*
X115780381Y-133806381D01*
X115732762Y-133758762D01*
X115708953Y-133711143D01*
X115685143Y-133615905D01*
X115685143Y-133544476D01*
X115708953Y-133449238D01*
X115732762Y-133401619D01*
X115780381Y-133354000D01*
X115851810Y-133330190D01*
X115899429Y-133330190D01*
X115970857Y-133354000D01*
X115994667Y-133377810D01*
X116423238Y-133330190D02*
X116328000Y-133330190D01*
X116280381Y-133354000D01*
X116256572Y-133377810D01*
X116208953Y-133449238D01*
X116185143Y-133544476D01*
X116185143Y-133734952D01*
X116208953Y-133782571D01*
X116232762Y-133806381D01*
X116280381Y-133830190D01*
X116375619Y-133830190D01*
X116423238Y-133806381D01*
X116447048Y-133782571D01*
X116470857Y-133734952D01*
X116470857Y-133615905D01*
X116447048Y-133568286D01*
X116423238Y-133544476D01*
X116375619Y-133520667D01*
X116280381Y-133520667D01*
X116232762Y-133544476D01*
X116208953Y-133568286D01*
X116185143Y-133615905D01*
X107993667Y-131115571D02*
X107969857Y-131139381D01*
X107898429Y-131163190D01*
X107850810Y-131163190D01*
X107779381Y-131139381D01*
X107731762Y-131091762D01*
X107707953Y-131044143D01*
X107684143Y-130948905D01*
X107684143Y-130877476D01*
X107707953Y-130782238D01*
X107731762Y-130734619D01*
X107779381Y-130687000D01*
X107850810Y-130663190D01*
X107898429Y-130663190D01*
X107969857Y-130687000D01*
X107993667Y-130710810D01*
X108160334Y-130663190D02*
X108493667Y-130663190D01*
X108279381Y-131163190D01*
X96309667Y-134544571D02*
X96285857Y-134568381D01*
X96214429Y-134592190D01*
X96166810Y-134592190D01*
X96095381Y-134568381D01*
X96047762Y-134520762D01*
X96023953Y-134473143D01*
X96000143Y-134377905D01*
X96000143Y-134306476D01*
X96023953Y-134211238D01*
X96047762Y-134163619D01*
X96095381Y-134116000D01*
X96166810Y-134092190D01*
X96214429Y-134092190D01*
X96285857Y-134116000D01*
X96309667Y-134139810D01*
X96595381Y-134306476D02*
X96547762Y-134282667D01*
X96523953Y-134258857D01*
X96500143Y-134211238D01*
X96500143Y-134187429D01*
X96523953Y-134139810D01*
X96547762Y-134116000D01*
X96595381Y-134092190D01*
X96690619Y-134092190D01*
X96738238Y-134116000D01*
X96762048Y-134139810D01*
X96785857Y-134187429D01*
X96785857Y-134211238D01*
X96762048Y-134258857D01*
X96738238Y-134282667D01*
X96690619Y-134306476D01*
X96595381Y-134306476D01*
X96547762Y-134330286D01*
X96523953Y-134354095D01*
X96500143Y-134401714D01*
X96500143Y-134496952D01*
X96523953Y-134544571D01*
X96547762Y-134568381D01*
X96595381Y-134592190D01*
X96690619Y-134592190D01*
X96738238Y-134568381D01*
X96762048Y-134544571D01*
X96785857Y-134496952D01*
X96785857Y-134401714D01*
X96762048Y-134354095D01*
X96738238Y-134330286D01*
X96690619Y-134306476D01*
X97706667Y-150800571D02*
X97682857Y-150824381D01*
X97611429Y-150848190D01*
X97563810Y-150848190D01*
X97492381Y-150824381D01*
X97444762Y-150776762D01*
X97420953Y-150729143D01*
X97397143Y-150633905D01*
X97397143Y-150562476D01*
X97420953Y-150467238D01*
X97444762Y-150419619D01*
X97492381Y-150372000D01*
X97563810Y-150348190D01*
X97611429Y-150348190D01*
X97682857Y-150372000D01*
X97706667Y-150395810D01*
X97944762Y-150848190D02*
X98040000Y-150848190D01*
X98087619Y-150824381D01*
X98111429Y-150800571D01*
X98159048Y-150729143D01*
X98182857Y-150633905D01*
X98182857Y-150443429D01*
X98159048Y-150395810D01*
X98135238Y-150372000D01*
X98087619Y-150348190D01*
X97992381Y-150348190D01*
X97944762Y-150372000D01*
X97920953Y-150395810D01*
X97897143Y-150443429D01*
X97897143Y-150562476D01*
X97920953Y-150610095D01*
X97944762Y-150633905D01*
X97992381Y-150657714D01*
X98087619Y-150657714D01*
X98135238Y-150633905D01*
X98159048Y-150610095D01*
X98182857Y-150562476D01*
X92515572Y-150800571D02*
X92491762Y-150824381D01*
X92420334Y-150848190D01*
X92372715Y-150848190D01*
X92301286Y-150824381D01*
X92253667Y-150776762D01*
X92229858Y-150729143D01*
X92206048Y-150633905D01*
X92206048Y-150562476D01*
X92229858Y-150467238D01*
X92253667Y-150419619D01*
X92301286Y-150372000D01*
X92372715Y-150348190D01*
X92420334Y-150348190D01*
X92491762Y-150372000D01*
X92515572Y-150395810D01*
X92991762Y-150848190D02*
X92706048Y-150848190D01*
X92848905Y-150848190D02*
X92848905Y-150348190D01*
X92801286Y-150419619D01*
X92753667Y-150467238D01*
X92706048Y-150491048D01*
X93301286Y-150348190D02*
X93348905Y-150348190D01*
X93396524Y-150372000D01*
X93420333Y-150395810D01*
X93444143Y-150443429D01*
X93467952Y-150538667D01*
X93467952Y-150657714D01*
X93444143Y-150752952D01*
X93420333Y-150800571D01*
X93396524Y-150824381D01*
X93348905Y-150848190D01*
X93301286Y-150848190D01*
X93253667Y-150824381D01*
X93229857Y-150800571D01*
X93206048Y-150752952D01*
X93182238Y-150657714D01*
X93182238Y-150538667D01*
X93206048Y-150443429D01*
X93229857Y-150395810D01*
X93253667Y-150372000D01*
X93301286Y-150348190D01*
X107882572Y-109779571D02*
X107858762Y-109803381D01*
X107787334Y-109827190D01*
X107739715Y-109827190D01*
X107668286Y-109803381D01*
X107620667Y-109755762D01*
X107596858Y-109708143D01*
X107573048Y-109612905D01*
X107573048Y-109541476D01*
X107596858Y-109446238D01*
X107620667Y-109398619D01*
X107668286Y-109351000D01*
X107739715Y-109327190D01*
X107787334Y-109327190D01*
X107858762Y-109351000D01*
X107882572Y-109374810D01*
X108358762Y-109827190D02*
X108073048Y-109827190D01*
X108215905Y-109827190D02*
X108215905Y-109327190D01*
X108168286Y-109398619D01*
X108120667Y-109446238D01*
X108073048Y-109470048D01*
X108834952Y-109827190D02*
X108549238Y-109827190D01*
X108692095Y-109827190D02*
X108692095Y-109327190D01*
X108644476Y-109398619D01*
X108596857Y-109446238D01*
X108549238Y-109470048D01*
X108009572Y-115113571D02*
X107985762Y-115137381D01*
X107914334Y-115161190D01*
X107866715Y-115161190D01*
X107795286Y-115137381D01*
X107747667Y-115089762D01*
X107723858Y-115042143D01*
X107700048Y-114946905D01*
X107700048Y-114875476D01*
X107723858Y-114780238D01*
X107747667Y-114732619D01*
X107795286Y-114685000D01*
X107866715Y-114661190D01*
X107914334Y-114661190D01*
X107985762Y-114685000D01*
X108009572Y-114708810D01*
X108485762Y-115161190D02*
X108200048Y-115161190D01*
X108342905Y-115161190D02*
X108342905Y-114661190D01*
X108295286Y-114732619D01*
X108247667Y-114780238D01*
X108200048Y-114804048D01*
X108676238Y-114708810D02*
X108700048Y-114685000D01*
X108747667Y-114661190D01*
X108866714Y-114661190D01*
X108914333Y-114685000D01*
X108938143Y-114708810D01*
X108961952Y-114756429D01*
X108961952Y-114804048D01*
X108938143Y-114875476D01*
X108652429Y-115161190D01*
X108961952Y-115161190D01*
X119566572Y-122479571D02*
X119542762Y-122503381D01*
X119471334Y-122527190D01*
X119423715Y-122527190D01*
X119352286Y-122503381D01*
X119304667Y-122455762D01*
X119280858Y-122408143D01*
X119257048Y-122312905D01*
X119257048Y-122241476D01*
X119280858Y-122146238D01*
X119304667Y-122098619D01*
X119352286Y-122051000D01*
X119423715Y-122027190D01*
X119471334Y-122027190D01*
X119542762Y-122051000D01*
X119566572Y-122074810D01*
X120042762Y-122527190D02*
X119757048Y-122527190D01*
X119899905Y-122527190D02*
X119899905Y-122027190D01*
X119852286Y-122098619D01*
X119804667Y-122146238D01*
X119757048Y-122170048D01*
X120209429Y-122027190D02*
X120518952Y-122027190D01*
X120352286Y-122217667D01*
X120423714Y-122217667D01*
X120471333Y-122241476D01*
X120495143Y-122265286D01*
X120518952Y-122312905D01*
X120518952Y-122431952D01*
X120495143Y-122479571D01*
X120471333Y-122503381D01*
X120423714Y-122527190D01*
X120280857Y-122527190D01*
X120233238Y-122503381D01*
X120209429Y-122479571D01*
X104580572Y-120701571D02*
X104556762Y-120725381D01*
X104485334Y-120749190D01*
X104437715Y-120749190D01*
X104366286Y-120725381D01*
X104318667Y-120677762D01*
X104294858Y-120630143D01*
X104271048Y-120534905D01*
X104271048Y-120463476D01*
X104294858Y-120368238D01*
X104318667Y-120320619D01*
X104366286Y-120273000D01*
X104437715Y-120249190D01*
X104485334Y-120249190D01*
X104556762Y-120273000D01*
X104580572Y-120296810D01*
X105056762Y-120749190D02*
X104771048Y-120749190D01*
X104913905Y-120749190D02*
X104913905Y-120249190D01*
X104866286Y-120320619D01*
X104818667Y-120368238D01*
X104771048Y-120392048D01*
X105485333Y-120415857D02*
X105485333Y-120749190D01*
X105366286Y-120225381D02*
X105247238Y-120582524D01*
X105556762Y-120582524D01*
X92721953Y-121511190D02*
X92721953Y-121011190D01*
X92841000Y-121011190D01*
X92912429Y-121035000D01*
X92960048Y-121082619D01*
X92983857Y-121130238D01*
X93007667Y-121225476D01*
X93007667Y-121296905D01*
X92983857Y-121392143D01*
X92960048Y-121439762D01*
X92912429Y-121487381D01*
X92841000Y-121511190D01*
X92721953Y-121511190D01*
X93483857Y-121511190D02*
X93198143Y-121511190D01*
X93341000Y-121511190D02*
X93341000Y-121011190D01*
X93293381Y-121082619D01*
X93245762Y-121130238D01*
X93198143Y-121154048D01*
X56145953Y-133068190D02*
X56145953Y-132568190D01*
X56265000Y-132568190D01*
X56336429Y-132592000D01*
X56384048Y-132639619D01*
X56407857Y-132687238D01*
X56431667Y-132782476D01*
X56431667Y-132853905D01*
X56407857Y-132949143D01*
X56384048Y-132996762D01*
X56336429Y-133044381D01*
X56265000Y-133068190D01*
X56145953Y-133068190D01*
X56860238Y-132568190D02*
X56765000Y-132568190D01*
X56717381Y-132592000D01*
X56693572Y-132615810D01*
X56645953Y-132687238D01*
X56622143Y-132782476D01*
X56622143Y-132972952D01*
X56645953Y-133020571D01*
X56669762Y-133044381D01*
X56717381Y-133068190D01*
X56812619Y-133068190D01*
X56860238Y-133044381D01*
X56884048Y-133020571D01*
X56907857Y-132972952D01*
X56907857Y-132853905D01*
X56884048Y-132806286D01*
X56860238Y-132782476D01*
X56812619Y-132758667D01*
X56717381Y-132758667D01*
X56669762Y-132782476D01*
X56645953Y-132806286D01*
X56622143Y-132853905D01*
X46835382Y-131417190D02*
X46835382Y-130917190D01*
X46954429Y-130917190D01*
X47025858Y-130941000D01*
X47073477Y-130988619D01*
X47097286Y-131036238D01*
X47121096Y-131131476D01*
X47121096Y-131202905D01*
X47097286Y-131298143D01*
X47073477Y-131345762D01*
X47025858Y-131393381D01*
X46954429Y-131417190D01*
X46835382Y-131417190D01*
X47335382Y-131155286D02*
X47502048Y-131155286D01*
X47573477Y-131417190D02*
X47335382Y-131417190D01*
X47335382Y-130917190D01*
X47573477Y-130917190D01*
X47787763Y-131417190D02*
X47787763Y-130917190D01*
X47978239Y-130917190D01*
X48025858Y-130941000D01*
X48049667Y-130964810D01*
X48073477Y-131012429D01*
X48073477Y-131083857D01*
X48049667Y-131131476D01*
X48025858Y-131155286D01*
X47978239Y-131179095D01*
X47787763Y-131179095D01*
X48216334Y-130917190D02*
X48502048Y-130917190D01*
X48359191Y-131417190D02*
X48359191Y-130917190D01*
X48668715Y-131417190D02*
X48668715Y-130917190D01*
X48668715Y-131155286D02*
X48954429Y-131155286D01*
X48954429Y-131417190D02*
X48954429Y-130917190D01*
X49454429Y-131417190D02*
X49168715Y-131417190D01*
X49311572Y-131417190D02*
X49311572Y-130917190D01*
X49263953Y-130988619D01*
X49216334Y-131036238D01*
X49168715Y-131060048D01*
X46994096Y-116558190D02*
X46994096Y-116058190D01*
X47160762Y-116415333D01*
X47327429Y-116058190D01*
X47327429Y-116558190D01*
X47565525Y-116558190D02*
X47565525Y-116058190D01*
X47803620Y-116558190D02*
X47803620Y-116058190D01*
X47922667Y-116058190D01*
X47994096Y-116082000D01*
X48041715Y-116129619D01*
X48065524Y-116177238D01*
X48089334Y-116272476D01*
X48089334Y-116343905D01*
X48065524Y-116439143D01*
X48041715Y-116486762D01*
X47994096Y-116534381D01*
X47922667Y-116558190D01*
X47803620Y-116558190D01*
X48279810Y-116534381D02*
X48351239Y-116558190D01*
X48470286Y-116558190D01*
X48517905Y-116534381D01*
X48541715Y-116510571D01*
X48565524Y-116462952D01*
X48565524Y-116415333D01*
X48541715Y-116367714D01*
X48517905Y-116343905D01*
X48470286Y-116320095D01*
X48375048Y-116296286D01*
X48327429Y-116272476D01*
X48303620Y-116248667D01*
X48279810Y-116201048D01*
X48279810Y-116153429D01*
X48303620Y-116105810D01*
X48327429Y-116082000D01*
X48375048Y-116058190D01*
X48494096Y-116058190D01*
X48565524Y-116082000D01*
X49041714Y-116558190D02*
X48756000Y-116558190D01*
X48898857Y-116558190D02*
X48898857Y-116058190D01*
X48851238Y-116129619D01*
X48803619Y-116177238D01*
X48756000Y-116201048D01*
X117427381Y-179343810D02*
X117379762Y-179320000D01*
X117332143Y-179272381D01*
X117260714Y-179200952D01*
X117213095Y-179177143D01*
X117165476Y-179177143D01*
X117189286Y-179296190D02*
X117141667Y-179272381D01*
X117094048Y-179224762D01*
X117070238Y-179129524D01*
X117070238Y-178962857D01*
X117094048Y-178867619D01*
X117141667Y-178820000D01*
X117189286Y-178796190D01*
X117284524Y-178796190D01*
X117332143Y-178820000D01*
X117379762Y-178867619D01*
X117403571Y-178962857D01*
X117403571Y-179129524D01*
X117379762Y-179224762D01*
X117332143Y-179272381D01*
X117284524Y-179296190D01*
X117189286Y-179296190D01*
X117879762Y-179296190D02*
X117594048Y-179296190D01*
X117736905Y-179296190D02*
X117736905Y-178796190D01*
X117689286Y-178867619D01*
X117641667Y-178915238D01*
X117594048Y-178939048D01*
X103711381Y-129051810D02*
X103663762Y-129028000D01*
X103616143Y-128980381D01*
X103544714Y-128908952D01*
X103497095Y-128885143D01*
X103449476Y-128885143D01*
X103473286Y-129004190D02*
X103425667Y-128980381D01*
X103378048Y-128932762D01*
X103354238Y-128837524D01*
X103354238Y-128670857D01*
X103378048Y-128575619D01*
X103425667Y-128528000D01*
X103473286Y-128504190D01*
X103568524Y-128504190D01*
X103616143Y-128528000D01*
X103663762Y-128575619D01*
X103687571Y-128670857D01*
X103687571Y-128837524D01*
X103663762Y-128932762D01*
X103616143Y-128980381D01*
X103568524Y-129004190D01*
X103473286Y-129004190D01*
X103878048Y-128551810D02*
X103901858Y-128528000D01*
X103949477Y-128504190D01*
X104068524Y-128504190D01*
X104116143Y-128528000D01*
X104139953Y-128551810D01*
X104163762Y-128599429D01*
X104163762Y-128647048D01*
X104139953Y-128718476D01*
X103854239Y-129004190D01*
X104163762Y-129004190D01*
X93170381Y-143085310D02*
X93122762Y-143061500D01*
X93075143Y-143013881D01*
X93003714Y-142942452D01*
X92956095Y-142918643D01*
X92908476Y-142918643D01*
X92932286Y-143037690D02*
X92884667Y-143013881D01*
X92837048Y-142966262D01*
X92813238Y-142871024D01*
X92813238Y-142704357D01*
X92837048Y-142609119D01*
X92884667Y-142561500D01*
X92932286Y-142537690D01*
X93027524Y-142537690D01*
X93075143Y-142561500D01*
X93122762Y-142609119D01*
X93146571Y-142704357D01*
X93146571Y-142871024D01*
X93122762Y-142966262D01*
X93075143Y-143013881D01*
X93027524Y-143037690D01*
X92932286Y-143037690D01*
X93313239Y-142537690D02*
X93622762Y-142537690D01*
X93456096Y-142728167D01*
X93527524Y-142728167D01*
X93575143Y-142751976D01*
X93598953Y-142775786D01*
X93622762Y-142823405D01*
X93622762Y-142942452D01*
X93598953Y-142990071D01*
X93575143Y-143013881D01*
X93527524Y-143037690D01*
X93384667Y-143037690D01*
X93337048Y-143013881D01*
X93313239Y-142990071D01*
X110950381Y-121304810D02*
X110902762Y-121281000D01*
X110855143Y-121233381D01*
X110783714Y-121161952D01*
X110736095Y-121138143D01*
X110688476Y-121138143D01*
X110712286Y-121257190D02*
X110664667Y-121233381D01*
X110617048Y-121185762D01*
X110593238Y-121090524D01*
X110593238Y-120923857D01*
X110617048Y-120828619D01*
X110664667Y-120781000D01*
X110712286Y-120757190D01*
X110807524Y-120757190D01*
X110855143Y-120781000D01*
X110902762Y-120828619D01*
X110926571Y-120923857D01*
X110926571Y-121090524D01*
X110902762Y-121185762D01*
X110855143Y-121233381D01*
X110807524Y-121257190D01*
X110712286Y-121257190D01*
X111355143Y-120923857D02*
X111355143Y-121257190D01*
X111236096Y-120733381D02*
X111117048Y-121090524D01*
X111426572Y-121090524D01*
X115105667Y-186789190D02*
X114939000Y-186551095D01*
X114819953Y-186789190D02*
X114819953Y-186289190D01*
X115010429Y-186289190D01*
X115058048Y-186313000D01*
X115081857Y-186336810D01*
X115105667Y-186384429D01*
X115105667Y-186455857D01*
X115081857Y-186503476D01*
X115058048Y-186527286D01*
X115010429Y-186551095D01*
X114819953Y-186551095D01*
X115581857Y-186789190D02*
X115296143Y-186789190D01*
X115439000Y-186789190D02*
X115439000Y-186289190D01*
X115391381Y-186360619D01*
X115343762Y-186408238D01*
X115296143Y-186432048D01*
X120820667Y-186789190D02*
X120654000Y-186551095D01*
X120534953Y-186789190D02*
X120534953Y-186289190D01*
X120725429Y-186289190D01*
X120773048Y-186313000D01*
X120796857Y-186336810D01*
X120820667Y-186384429D01*
X120820667Y-186455857D01*
X120796857Y-186503476D01*
X120773048Y-186527286D01*
X120725429Y-186551095D01*
X120534953Y-186551095D01*
X121011143Y-186336810D02*
X121034953Y-186313000D01*
X121082572Y-186289190D01*
X121201619Y-186289190D01*
X121249238Y-186313000D01*
X121273048Y-186336810D01*
X121296857Y-186384429D01*
X121296857Y-186432048D01*
X121273048Y-186503476D01*
X120987334Y-186789190D01*
X121296857Y-186789190D01*
X122979667Y-169390190D02*
X122813000Y-169152095D01*
X122693953Y-169390190D02*
X122693953Y-168890190D01*
X122884429Y-168890190D01*
X122932048Y-168914000D01*
X122955857Y-168937810D01*
X122979667Y-168985429D01*
X122979667Y-169056857D01*
X122955857Y-169104476D01*
X122932048Y-169128286D01*
X122884429Y-169152095D01*
X122693953Y-169152095D01*
X123146334Y-168890190D02*
X123455857Y-168890190D01*
X123289191Y-169080667D01*
X123360619Y-169080667D01*
X123408238Y-169104476D01*
X123432048Y-169128286D01*
X123455857Y-169175905D01*
X123455857Y-169294952D01*
X123432048Y-169342571D01*
X123408238Y-169366381D01*
X123360619Y-169390190D01*
X123217762Y-169390190D01*
X123170143Y-169366381D01*
X123146334Y-169342571D01*
X122979667Y-180058190D02*
X122813000Y-179820095D01*
X122693953Y-180058190D02*
X122693953Y-179558190D01*
X122884429Y-179558190D01*
X122932048Y-179582000D01*
X122955857Y-179605810D01*
X122979667Y-179653429D01*
X122979667Y-179724857D01*
X122955857Y-179772476D01*
X122932048Y-179796286D01*
X122884429Y-179820095D01*
X122693953Y-179820095D01*
X123408238Y-179724857D02*
X123408238Y-180058190D01*
X123289191Y-179534381D02*
X123170143Y-179891524D01*
X123479667Y-179891524D01*
X107993667Y-178534190D02*
X107827000Y-178296095D01*
X107707953Y-178534190D02*
X107707953Y-178034190D01*
X107898429Y-178034190D01*
X107946048Y-178058000D01*
X107969857Y-178081810D01*
X107993667Y-178129429D01*
X107993667Y-178200857D01*
X107969857Y-178248476D01*
X107946048Y-178272286D01*
X107898429Y-178296095D01*
X107707953Y-178296095D01*
X108446048Y-178034190D02*
X108207953Y-178034190D01*
X108184143Y-178272286D01*
X108207953Y-178248476D01*
X108255572Y-178224667D01*
X108374619Y-178224667D01*
X108422238Y-178248476D01*
X108446048Y-178272286D01*
X108469857Y-178319905D01*
X108469857Y-178438952D01*
X108446048Y-178486571D01*
X108422238Y-178510381D01*
X108374619Y-178534190D01*
X108255572Y-178534190D01*
X108207953Y-178510381D01*
X108184143Y-178486571D01*
X114597667Y-169390190D02*
X114431000Y-169152095D01*
X114311953Y-169390190D02*
X114311953Y-168890190D01*
X114502429Y-168890190D01*
X114550048Y-168914000D01*
X114573857Y-168937810D01*
X114597667Y-168985429D01*
X114597667Y-169056857D01*
X114573857Y-169104476D01*
X114550048Y-169128286D01*
X114502429Y-169152095D01*
X114311953Y-169152095D01*
X115026238Y-168890190D02*
X114931000Y-168890190D01*
X114883381Y-168914000D01*
X114859572Y-168937810D01*
X114811953Y-169009238D01*
X114788143Y-169104476D01*
X114788143Y-169294952D01*
X114811953Y-169342571D01*
X114835762Y-169366381D01*
X114883381Y-169390190D01*
X114978619Y-169390190D01*
X115026238Y-169366381D01*
X115050048Y-169342571D01*
X115073857Y-169294952D01*
X115073857Y-169175905D01*
X115050048Y-169128286D01*
X115026238Y-169104476D01*
X114978619Y-169080667D01*
X114883381Y-169080667D01*
X114835762Y-169104476D01*
X114811953Y-169128286D01*
X114788143Y-169175905D01*
X110787667Y-167612190D02*
X110621000Y-167374095D01*
X110501953Y-167612190D02*
X110501953Y-167112190D01*
X110692429Y-167112190D01*
X110740048Y-167136000D01*
X110763857Y-167159810D01*
X110787667Y-167207429D01*
X110787667Y-167278857D01*
X110763857Y-167326476D01*
X110740048Y-167350286D01*
X110692429Y-167374095D01*
X110501953Y-167374095D01*
X110954334Y-167112190D02*
X111287667Y-167112190D01*
X111073381Y-167612190D01*
X115994667Y-131290190D02*
X115828000Y-131052095D01*
X115708953Y-131290190D02*
X115708953Y-130790190D01*
X115899429Y-130790190D01*
X115947048Y-130814000D01*
X115970857Y-130837810D01*
X115994667Y-130885429D01*
X115994667Y-130956857D01*
X115970857Y-131004476D01*
X115947048Y-131028286D01*
X115899429Y-131052095D01*
X115708953Y-131052095D01*
X116280381Y-131004476D02*
X116232762Y-130980667D01*
X116208953Y-130956857D01*
X116185143Y-130909238D01*
X116185143Y-130885429D01*
X116208953Y-130837810D01*
X116232762Y-130814000D01*
X116280381Y-130790190D01*
X116375619Y-130790190D01*
X116423238Y-130814000D01*
X116447048Y-130837810D01*
X116470857Y-130885429D01*
X116470857Y-130909238D01*
X116447048Y-130956857D01*
X116423238Y-130980667D01*
X116375619Y-131004476D01*
X116280381Y-131004476D01*
X116232762Y-131028286D01*
X116208953Y-131052095D01*
X116185143Y-131099714D01*
X116185143Y-131194952D01*
X116208953Y-131242571D01*
X116232762Y-131266381D01*
X116280381Y-131290190D01*
X116375619Y-131290190D01*
X116423238Y-131266381D01*
X116447048Y-131242571D01*
X116470857Y-131194952D01*
X116470857Y-131099714D01*
X116447048Y-131052095D01*
X116423238Y-131028286D01*
X116375619Y-131004476D01*
X113708667Y-133957190D02*
X113542000Y-133719095D01*
X113422953Y-133957190D02*
X113422953Y-133457190D01*
X113613429Y-133457190D01*
X113661048Y-133481000D01*
X113684857Y-133504810D01*
X113708667Y-133552429D01*
X113708667Y-133623857D01*
X113684857Y-133671476D01*
X113661048Y-133695286D01*
X113613429Y-133719095D01*
X113422953Y-133719095D01*
X113946762Y-133957190D02*
X114042000Y-133957190D01*
X114089619Y-133933381D01*
X114113429Y-133909571D01*
X114161048Y-133838143D01*
X114184857Y-133742905D01*
X114184857Y-133552429D01*
X114161048Y-133504810D01*
X114137238Y-133481000D01*
X114089619Y-133457190D01*
X113994381Y-133457190D01*
X113946762Y-133481000D01*
X113922953Y-133504810D01*
X113899143Y-133552429D01*
X113899143Y-133671476D01*
X113922953Y-133719095D01*
X113946762Y-133742905D01*
X113994381Y-133766714D01*
X114089619Y-133766714D01*
X114137238Y-133742905D01*
X114161048Y-133719095D01*
X114184857Y-133671476D01*
X107755572Y-139418190D02*
X107588905Y-139180095D01*
X107469858Y-139418190D02*
X107469858Y-138918190D01*
X107660334Y-138918190D01*
X107707953Y-138942000D01*
X107731762Y-138965810D01*
X107755572Y-139013429D01*
X107755572Y-139084857D01*
X107731762Y-139132476D01*
X107707953Y-139156286D01*
X107660334Y-139180095D01*
X107469858Y-139180095D01*
X108231762Y-139418190D02*
X107946048Y-139418190D01*
X108088905Y-139418190D02*
X108088905Y-138918190D01*
X108041286Y-138989619D01*
X107993667Y-139037238D01*
X107946048Y-139061048D01*
X108541286Y-138918190D02*
X108588905Y-138918190D01*
X108636524Y-138942000D01*
X108660333Y-138965810D01*
X108684143Y-139013429D01*
X108707952Y-139108667D01*
X108707952Y-139227714D01*
X108684143Y-139322952D01*
X108660333Y-139370571D01*
X108636524Y-139394381D01*
X108588905Y-139418190D01*
X108541286Y-139418190D01*
X108493667Y-139394381D01*
X108469857Y-139370571D01*
X108446048Y-139322952D01*
X108422238Y-139227714D01*
X108422238Y-139108667D01*
X108446048Y-139013429D01*
X108469857Y-138965810D01*
X108493667Y-138942000D01*
X108541286Y-138918190D01*
X97214572Y-128750190D02*
X97047905Y-128512095D01*
X96928858Y-128750190D02*
X96928858Y-128250190D01*
X97119334Y-128250190D01*
X97166953Y-128274000D01*
X97190762Y-128297810D01*
X97214572Y-128345429D01*
X97214572Y-128416857D01*
X97190762Y-128464476D01*
X97166953Y-128488286D01*
X97119334Y-128512095D01*
X96928858Y-128512095D01*
X97690762Y-128750190D02*
X97405048Y-128750190D01*
X97547905Y-128750190D02*
X97547905Y-128250190D01*
X97500286Y-128321619D01*
X97452667Y-128369238D01*
X97405048Y-128393048D01*
X98166952Y-128750190D02*
X97881238Y-128750190D01*
X98024095Y-128750190D02*
X98024095Y-128250190D01*
X97976476Y-128321619D01*
X97928857Y-128369238D01*
X97881238Y-128393048D01*
X107882572Y-128496190D02*
X107715905Y-128258095D01*
X107596858Y-128496190D02*
X107596858Y-127996190D01*
X107787334Y-127996190D01*
X107834953Y-128020000D01*
X107858762Y-128043810D01*
X107882572Y-128091429D01*
X107882572Y-128162857D01*
X107858762Y-128210476D01*
X107834953Y-128234286D01*
X107787334Y-128258095D01*
X107596858Y-128258095D01*
X108358762Y-128496190D02*
X108073048Y-128496190D01*
X108215905Y-128496190D02*
X108215905Y-127996190D01*
X108168286Y-128067619D01*
X108120667Y-128115238D01*
X108073048Y-128139048D01*
X108549238Y-128043810D02*
X108573048Y-128020000D01*
X108620667Y-127996190D01*
X108739714Y-127996190D01*
X108787333Y-128020000D01*
X108811143Y-128043810D01*
X108834952Y-128091429D01*
X108834952Y-128139048D01*
X108811143Y-128210476D01*
X108525429Y-128496190D01*
X108834952Y-128496190D01*
X97722572Y-147927190D02*
X97555905Y-147689095D01*
X97436858Y-147927190D02*
X97436858Y-147427190D01*
X97627334Y-147427190D01*
X97674953Y-147451000D01*
X97698762Y-147474810D01*
X97722572Y-147522429D01*
X97722572Y-147593857D01*
X97698762Y-147641476D01*
X97674953Y-147665286D01*
X97627334Y-147689095D01*
X97436858Y-147689095D01*
X98198762Y-147927190D02*
X97913048Y-147927190D01*
X98055905Y-147927190D02*
X98055905Y-147427190D01*
X98008286Y-147498619D01*
X97960667Y-147546238D01*
X97913048Y-147570048D01*
X98365429Y-147427190D02*
X98674952Y-147427190D01*
X98508286Y-147617667D01*
X98579714Y-147617667D01*
X98627333Y-147641476D01*
X98651143Y-147665286D01*
X98674952Y-147712905D01*
X98674952Y-147831952D01*
X98651143Y-147879571D01*
X98627333Y-147903381D01*
X98579714Y-147927190D01*
X98436857Y-147927190D01*
X98389238Y-147903381D01*
X98365429Y-147879571D01*
X97722572Y-144879190D02*
X97555905Y-144641095D01*
X97436858Y-144879190D02*
X97436858Y-144379190D01*
X97627334Y-144379190D01*
X97674953Y-144403000D01*
X97698762Y-144426810D01*
X97722572Y-144474429D01*
X97722572Y-144545857D01*
X97698762Y-144593476D01*
X97674953Y-144617286D01*
X97627334Y-144641095D01*
X97436858Y-144641095D01*
X98198762Y-144879190D02*
X97913048Y-144879190D01*
X98055905Y-144879190D02*
X98055905Y-144379190D01*
X98008286Y-144450619D01*
X97960667Y-144498238D01*
X97913048Y-144522048D01*
X98627333Y-144545857D02*
X98627333Y-144879190D01*
X98508286Y-144355381D02*
X98389238Y-144712524D01*
X98698762Y-144712524D01*
X92515572Y-147927190D02*
X92348905Y-147689095D01*
X92229858Y-147927190D02*
X92229858Y-147427190D01*
X92420334Y-147427190D01*
X92467953Y-147451000D01*
X92491762Y-147474810D01*
X92515572Y-147522429D01*
X92515572Y-147593857D01*
X92491762Y-147641476D01*
X92467953Y-147665286D01*
X92420334Y-147689095D01*
X92229858Y-147689095D01*
X92991762Y-147927190D02*
X92706048Y-147927190D01*
X92848905Y-147927190D02*
X92848905Y-147427190D01*
X92801286Y-147498619D01*
X92753667Y-147546238D01*
X92706048Y-147570048D01*
X93444143Y-147427190D02*
X93206048Y-147427190D01*
X93182238Y-147665286D01*
X93206048Y-147641476D01*
X93253667Y-147617667D01*
X93372714Y-147617667D01*
X93420333Y-147641476D01*
X93444143Y-147665286D01*
X93467952Y-147712905D01*
X93467952Y-147831952D01*
X93444143Y-147879571D01*
X93420333Y-147903381D01*
X93372714Y-147927190D01*
X93253667Y-147927190D01*
X93206048Y-147903381D01*
X93182238Y-147879571D01*
X94420572Y-128750190D02*
X94253905Y-128512095D01*
X94134858Y-128750190D02*
X94134858Y-128250190D01*
X94325334Y-128250190D01*
X94372953Y-128274000D01*
X94396762Y-128297810D01*
X94420572Y-128345429D01*
X94420572Y-128416857D01*
X94396762Y-128464476D01*
X94372953Y-128488286D01*
X94325334Y-128512095D01*
X94134858Y-128512095D01*
X94896762Y-128750190D02*
X94611048Y-128750190D01*
X94753905Y-128750190D02*
X94753905Y-128250190D01*
X94706286Y-128321619D01*
X94658667Y-128369238D01*
X94611048Y-128393048D01*
X95325333Y-128250190D02*
X95230095Y-128250190D01*
X95182476Y-128274000D01*
X95158667Y-128297810D01*
X95111048Y-128369238D01*
X95087238Y-128464476D01*
X95087238Y-128654952D01*
X95111048Y-128702571D01*
X95134857Y-128726381D01*
X95182476Y-128750190D01*
X95277714Y-128750190D01*
X95325333Y-128726381D01*
X95349143Y-128702571D01*
X95372952Y-128654952D01*
X95372952Y-128535905D01*
X95349143Y-128488286D01*
X95325333Y-128464476D01*
X95277714Y-128440667D01*
X95182476Y-128440667D01*
X95134857Y-128464476D01*
X95111048Y-128488286D01*
X95087238Y-128535905D01*
X97722572Y-139926190D02*
X97555905Y-139688095D01*
X97436858Y-139926190D02*
X97436858Y-139426190D01*
X97627334Y-139426190D01*
X97674953Y-139450000D01*
X97698762Y-139473810D01*
X97722572Y-139521429D01*
X97722572Y-139592857D01*
X97698762Y-139640476D01*
X97674953Y-139664286D01*
X97627334Y-139688095D01*
X97436858Y-139688095D01*
X98198762Y-139926190D02*
X97913048Y-139926190D01*
X98055905Y-139926190D02*
X98055905Y-139426190D01*
X98008286Y-139497619D01*
X97960667Y-139545238D01*
X97913048Y-139569048D01*
X98365429Y-139426190D02*
X98698762Y-139426190D01*
X98484476Y-139926190D01*
X107882572Y-107160190D02*
X107715905Y-106922095D01*
X107596858Y-107160190D02*
X107596858Y-106660190D01*
X107787334Y-106660190D01*
X107834953Y-106684000D01*
X107858762Y-106707810D01*
X107882572Y-106755429D01*
X107882572Y-106826857D01*
X107858762Y-106874476D01*
X107834953Y-106898286D01*
X107787334Y-106922095D01*
X107596858Y-106922095D01*
X108358762Y-107160190D02*
X108073048Y-107160190D01*
X108215905Y-107160190D02*
X108215905Y-106660190D01*
X108168286Y-106731619D01*
X108120667Y-106779238D01*
X108073048Y-106803048D01*
X108644476Y-106874476D02*
X108596857Y-106850667D01*
X108573048Y-106826857D01*
X108549238Y-106779238D01*
X108549238Y-106755429D01*
X108573048Y-106707810D01*
X108596857Y-106684000D01*
X108644476Y-106660190D01*
X108739714Y-106660190D01*
X108787333Y-106684000D01*
X108811143Y-106707810D01*
X108834952Y-106755429D01*
X108834952Y-106779238D01*
X108811143Y-106826857D01*
X108787333Y-106850667D01*
X108739714Y-106874476D01*
X108644476Y-106874476D01*
X108596857Y-106898286D01*
X108573048Y-106922095D01*
X108549238Y-106969714D01*
X108549238Y-107064952D01*
X108573048Y-107112571D01*
X108596857Y-107136381D01*
X108644476Y-107160190D01*
X108739714Y-107160190D01*
X108787333Y-107136381D01*
X108811143Y-107112571D01*
X108834952Y-107064952D01*
X108834952Y-106969714D01*
X108811143Y-106922095D01*
X108787333Y-106898286D01*
X108739714Y-106874476D01*
X108009572Y-112494190D02*
X107842905Y-112256095D01*
X107723858Y-112494190D02*
X107723858Y-111994190D01*
X107914334Y-111994190D01*
X107961953Y-112018000D01*
X107985762Y-112041810D01*
X108009572Y-112089429D01*
X108009572Y-112160857D01*
X107985762Y-112208476D01*
X107961953Y-112232286D01*
X107914334Y-112256095D01*
X107723858Y-112256095D01*
X108485762Y-112494190D02*
X108200048Y-112494190D01*
X108342905Y-112494190D02*
X108342905Y-111994190D01*
X108295286Y-112065619D01*
X108247667Y-112113238D01*
X108200048Y-112137048D01*
X108723857Y-112494190D02*
X108819095Y-112494190D01*
X108866714Y-112470381D01*
X108890524Y-112446571D01*
X108938143Y-112375143D01*
X108961952Y-112279905D01*
X108961952Y-112089429D01*
X108938143Y-112041810D01*
X108914333Y-112018000D01*
X108866714Y-111994190D01*
X108771476Y-111994190D01*
X108723857Y-112018000D01*
X108700048Y-112041810D01*
X108676238Y-112089429D01*
X108676238Y-112208476D01*
X108700048Y-112256095D01*
X108723857Y-112279905D01*
X108771476Y-112303714D01*
X108866714Y-112303714D01*
X108914333Y-112279905D01*
X108938143Y-112256095D01*
X108961952Y-112208476D01*
X113891190Y-115256428D02*
X113653095Y-115423095D01*
X113891190Y-115542142D02*
X113391190Y-115542142D01*
X113391190Y-115351666D01*
X113415000Y-115304047D01*
X113438810Y-115280238D01*
X113486429Y-115256428D01*
X113557857Y-115256428D01*
X113605476Y-115280238D01*
X113629286Y-115304047D01*
X113653095Y-115351666D01*
X113653095Y-115542142D01*
X113438810Y-115065952D02*
X113415000Y-115042142D01*
X113391190Y-114994523D01*
X113391190Y-114875476D01*
X113415000Y-114827857D01*
X113438810Y-114804047D01*
X113486429Y-114780238D01*
X113534048Y-114780238D01*
X113605476Y-114804047D01*
X113891190Y-115089761D01*
X113891190Y-114780238D01*
X113391190Y-114470714D02*
X113391190Y-114423095D01*
X113415000Y-114375476D01*
X113438810Y-114351667D01*
X113486429Y-114327857D01*
X113581667Y-114304048D01*
X113700714Y-114304048D01*
X113795952Y-114327857D01*
X113843571Y-114351667D01*
X113867381Y-114375476D01*
X113891190Y-114423095D01*
X113891190Y-114470714D01*
X113867381Y-114518333D01*
X113843571Y-114542143D01*
X113795952Y-114565952D01*
X113700714Y-114589762D01*
X113581667Y-114589762D01*
X113486429Y-114565952D01*
X113438810Y-114542143D01*
X113415000Y-114518333D01*
X113391190Y-114470714D01*
X113891190Y-109795428D02*
X113653095Y-109962095D01*
X113891190Y-110081142D02*
X113391190Y-110081142D01*
X113391190Y-109890666D01*
X113415000Y-109843047D01*
X113438810Y-109819238D01*
X113486429Y-109795428D01*
X113557857Y-109795428D01*
X113605476Y-109819238D01*
X113629286Y-109843047D01*
X113653095Y-109890666D01*
X113653095Y-110081142D01*
X113438810Y-109604952D02*
X113415000Y-109581142D01*
X113391190Y-109533523D01*
X113391190Y-109414476D01*
X113415000Y-109366857D01*
X113438810Y-109343047D01*
X113486429Y-109319238D01*
X113534048Y-109319238D01*
X113605476Y-109343047D01*
X113891190Y-109628761D01*
X113891190Y-109319238D01*
X113891190Y-108843048D02*
X113891190Y-109128762D01*
X113891190Y-108985905D02*
X113391190Y-108985905D01*
X113462619Y-109033524D01*
X113510238Y-109081143D01*
X113534048Y-109128762D01*
X117280572Y-122400190D02*
X117113905Y-122162095D01*
X116994858Y-122400190D02*
X116994858Y-121900190D01*
X117185334Y-121900190D01*
X117232953Y-121924000D01*
X117256762Y-121947810D01*
X117280572Y-121995429D01*
X117280572Y-122066857D01*
X117256762Y-122114476D01*
X117232953Y-122138286D01*
X117185334Y-122162095D01*
X116994858Y-122162095D01*
X117471048Y-121947810D02*
X117494858Y-121924000D01*
X117542477Y-121900190D01*
X117661524Y-121900190D01*
X117709143Y-121924000D01*
X117732953Y-121947810D01*
X117756762Y-121995429D01*
X117756762Y-122043048D01*
X117732953Y-122114476D01*
X117447239Y-122400190D01*
X117756762Y-122400190D01*
X117947238Y-121947810D02*
X117971048Y-121924000D01*
X118018667Y-121900190D01*
X118137714Y-121900190D01*
X118185333Y-121924000D01*
X118209143Y-121947810D01*
X118232952Y-121995429D01*
X118232952Y-122043048D01*
X118209143Y-122114476D01*
X117923429Y-122400190D01*
X118232952Y-122400190D01*
X116558190Y-119701428D02*
X116320095Y-119868095D01*
X116558190Y-119987142D02*
X116058190Y-119987142D01*
X116058190Y-119796666D01*
X116082000Y-119749047D01*
X116105810Y-119725238D01*
X116153429Y-119701428D01*
X116224857Y-119701428D01*
X116272476Y-119725238D01*
X116296286Y-119749047D01*
X116320095Y-119796666D01*
X116320095Y-119987142D01*
X116105810Y-119510952D02*
X116082000Y-119487142D01*
X116058190Y-119439523D01*
X116058190Y-119320476D01*
X116082000Y-119272857D01*
X116105810Y-119249047D01*
X116153429Y-119225238D01*
X116201048Y-119225238D01*
X116272476Y-119249047D01*
X116558190Y-119534761D01*
X116558190Y-119225238D01*
X116058190Y-119058571D02*
X116058190Y-118749048D01*
X116248667Y-118915714D01*
X116248667Y-118844286D01*
X116272476Y-118796667D01*
X116296286Y-118772857D01*
X116343905Y-118749048D01*
X116462952Y-118749048D01*
X116510571Y-118772857D01*
X116534381Y-118796667D01*
X116558190Y-118844286D01*
X116558190Y-118987143D01*
X116534381Y-119034762D01*
X116510571Y-119058571D01*
X106525190Y-123384428D02*
X106287095Y-123551095D01*
X106525190Y-123670142D02*
X106025190Y-123670142D01*
X106025190Y-123479666D01*
X106049000Y-123432047D01*
X106072810Y-123408238D01*
X106120429Y-123384428D01*
X106191857Y-123384428D01*
X106239476Y-123408238D01*
X106263286Y-123432047D01*
X106287095Y-123479666D01*
X106287095Y-123670142D01*
X106072810Y-123193952D02*
X106049000Y-123170142D01*
X106025190Y-123122523D01*
X106025190Y-123003476D01*
X106049000Y-122955857D01*
X106072810Y-122932047D01*
X106120429Y-122908238D01*
X106168048Y-122908238D01*
X106239476Y-122932047D01*
X106525190Y-123217761D01*
X106525190Y-122908238D01*
X106191857Y-122479667D02*
X106525190Y-122479667D01*
X106001381Y-122598714D02*
X106358524Y-122717762D01*
X106358524Y-122408238D01*
X106358572Y-118082190D02*
X106191905Y-117844095D01*
X106072858Y-118082190D02*
X106072858Y-117582190D01*
X106263334Y-117582190D01*
X106310953Y-117606000D01*
X106334762Y-117629810D01*
X106358572Y-117677429D01*
X106358572Y-117748857D01*
X106334762Y-117796476D01*
X106310953Y-117820286D01*
X106263334Y-117844095D01*
X106072858Y-117844095D01*
X106549048Y-117629810D02*
X106572858Y-117606000D01*
X106620477Y-117582190D01*
X106739524Y-117582190D01*
X106787143Y-117606000D01*
X106810953Y-117629810D01*
X106834762Y-117677429D01*
X106834762Y-117725048D01*
X106810953Y-117796476D01*
X106525239Y-118082190D01*
X106834762Y-118082190D01*
X107287143Y-117582190D02*
X107049048Y-117582190D01*
X107025238Y-117820286D01*
X107049048Y-117796476D01*
X107096667Y-117772667D01*
X107215714Y-117772667D01*
X107263333Y-117796476D01*
X107287143Y-117820286D01*
X107310952Y-117867905D01*
X107310952Y-117986952D01*
X107287143Y-118034571D01*
X107263333Y-118058381D01*
X107215714Y-118082190D01*
X107096667Y-118082190D01*
X107049048Y-118058381D01*
X107025238Y-118034571D01*
X55598190Y-130623428D02*
X55360095Y-130790095D01*
X55598190Y-130909142D02*
X55098190Y-130909142D01*
X55098190Y-130718666D01*
X55122000Y-130671047D01*
X55145810Y-130647238D01*
X55193429Y-130623428D01*
X55264857Y-130623428D01*
X55312476Y-130647238D01*
X55336286Y-130671047D01*
X55360095Y-130718666D01*
X55360095Y-130909142D01*
X55145810Y-130432952D02*
X55122000Y-130409142D01*
X55098190Y-130361523D01*
X55098190Y-130242476D01*
X55122000Y-130194857D01*
X55145810Y-130171047D01*
X55193429Y-130147238D01*
X55241048Y-130147238D01*
X55312476Y-130171047D01*
X55598190Y-130456761D01*
X55598190Y-130147238D01*
X55098190Y-129718667D02*
X55098190Y-129813905D01*
X55122000Y-129861524D01*
X55145810Y-129885333D01*
X55217238Y-129932952D01*
X55312476Y-129956762D01*
X55502952Y-129956762D01*
X55550571Y-129932952D01*
X55574381Y-129909143D01*
X55598190Y-129861524D01*
X55598190Y-129766286D01*
X55574381Y-129718667D01*
X55550571Y-129694857D01*
X55502952Y-129671048D01*
X55383905Y-129671048D01*
X55336286Y-129694857D01*
X55312476Y-129718667D01*
X55288667Y-129766286D01*
X55288667Y-129861524D01*
X55312476Y-129909143D01*
X55336286Y-129932952D01*
X55383905Y-129956762D01*
X105517190Y-176152761D02*
X105874333Y-176152761D01*
X105945762Y-176176571D01*
X105993381Y-176224190D01*
X106017190Y-176295618D01*
X106017190Y-176343237D01*
X106064810Y-176033714D02*
X106064810Y-175652762D01*
X106064810Y-175200381D02*
X106041000Y-175248000D01*
X105993381Y-175295619D01*
X105921952Y-175367048D01*
X105898143Y-175414667D01*
X105898143Y-175462286D01*
X106017190Y-175438476D02*
X105993381Y-175486095D01*
X105945762Y-175533714D01*
X105850524Y-175557524D01*
X105683857Y-175557524D01*
X105588619Y-175533714D01*
X105541000Y-175486095D01*
X105517190Y-175438476D01*
X105517190Y-175343238D01*
X105541000Y-175295619D01*
X105588619Y-175248000D01*
X105683857Y-175224191D01*
X105850524Y-175224191D01*
X105945762Y-175248000D01*
X105993381Y-175295619D01*
X106017190Y-175343238D01*
X106017190Y-175438476D01*
X106017190Y-174748000D02*
X106017190Y-175033714D01*
X106017190Y-174890857D02*
X105517190Y-174890857D01*
X105588619Y-174938476D01*
X105636238Y-174986095D01*
X105660048Y-175033714D01*
X106017190Y-174533714D02*
X105517190Y-174533714D01*
X105874333Y-174367048D01*
X105517190Y-174200381D01*
X106017190Y-174200381D01*
X105517190Y-173867047D02*
X105517190Y-173771809D01*
X105541000Y-173724190D01*
X105588619Y-173676571D01*
X105683857Y-173652762D01*
X105850524Y-173652762D01*
X105945762Y-173676571D01*
X105993381Y-173724190D01*
X106017190Y-173771809D01*
X106017190Y-173867047D01*
X105993381Y-173914666D01*
X105945762Y-173962285D01*
X105850524Y-173986095D01*
X105683857Y-173986095D01*
X105588619Y-173962285D01*
X105541000Y-173914666D01*
X105517190Y-173867047D01*
X106017190Y-173438475D02*
X105517190Y-173438475D01*
X105517190Y-173319428D01*
X105541000Y-173247999D01*
X105588619Y-173200380D01*
X105636238Y-173176571D01*
X105731476Y-173152761D01*
X105802905Y-173152761D01*
X105898143Y-173176571D01*
X105945762Y-173200380D01*
X105993381Y-173247999D01*
X106017190Y-173319428D01*
X106017190Y-173438475D01*
X106017190Y-172676571D02*
X106017190Y-172962285D01*
X106017190Y-172819428D02*
X105517190Y-172819428D01*
X105588619Y-172867047D01*
X105636238Y-172914666D01*
X105660048Y-172962285D01*
X99310239Y-127361190D02*
X99310239Y-127718333D01*
X99286429Y-127789762D01*
X99238810Y-127837381D01*
X99167382Y-127861190D01*
X99119763Y-127861190D01*
X99429286Y-127908810D02*
X99810238Y-127908810D01*
X100262619Y-127908810D02*
X100215000Y-127885000D01*
X100167381Y-127837381D01*
X100095952Y-127765952D01*
X100048333Y-127742143D01*
X100000714Y-127742143D01*
X100024524Y-127861190D02*
X99976905Y-127837381D01*
X99929286Y-127789762D01*
X99905476Y-127694524D01*
X99905476Y-127527857D01*
X99929286Y-127432619D01*
X99976905Y-127385000D01*
X100024524Y-127361190D01*
X100119762Y-127361190D01*
X100167381Y-127385000D01*
X100215000Y-127432619D01*
X100238809Y-127527857D01*
X100238809Y-127694524D01*
X100215000Y-127789762D01*
X100167381Y-127837381D01*
X100119762Y-127861190D01*
X100024524Y-127861190D01*
X100429286Y-127408810D02*
X100453096Y-127385000D01*
X100500715Y-127361190D01*
X100619762Y-127361190D01*
X100667381Y-127385000D01*
X100691191Y-127408810D01*
X100715000Y-127456429D01*
X100715000Y-127504048D01*
X100691191Y-127575476D01*
X100405477Y-127861190D01*
X100715000Y-127861190D01*
X100929286Y-127861190D02*
X100929286Y-127361190D01*
X101095952Y-127718333D01*
X101262619Y-127361190D01*
X101262619Y-127861190D01*
X101595953Y-127361190D02*
X101691191Y-127361190D01*
X101738810Y-127385000D01*
X101786429Y-127432619D01*
X101810238Y-127527857D01*
X101810238Y-127694524D01*
X101786429Y-127789762D01*
X101738810Y-127837381D01*
X101691191Y-127861190D01*
X101595953Y-127861190D01*
X101548334Y-127837381D01*
X101500715Y-127789762D01*
X101476905Y-127694524D01*
X101476905Y-127527857D01*
X101500715Y-127432619D01*
X101548334Y-127385000D01*
X101595953Y-127361190D01*
X102024525Y-127861190D02*
X102024525Y-127361190D01*
X102143572Y-127361190D01*
X102215001Y-127385000D01*
X102262620Y-127432619D01*
X102286429Y-127480238D01*
X102310239Y-127575476D01*
X102310239Y-127646905D01*
X102286429Y-127742143D01*
X102262620Y-127789762D01*
X102215001Y-127837381D01*
X102143572Y-127861190D01*
X102024525Y-127861190D01*
X102786429Y-127861190D02*
X102500715Y-127861190D01*
X102643572Y-127861190D02*
X102643572Y-127361190D01*
X102595953Y-127432619D01*
X102548334Y-127480238D01*
X102500715Y-127504048D01*
X92055190Y-140465761D02*
X92412333Y-140465761D01*
X92483762Y-140489571D01*
X92531381Y-140537190D01*
X92555190Y-140608618D01*
X92555190Y-140656237D01*
X92602810Y-140346714D02*
X92602810Y-139965762D01*
X92602810Y-139513381D02*
X92579000Y-139561000D01*
X92531381Y-139608619D01*
X92459952Y-139680048D01*
X92436143Y-139727667D01*
X92436143Y-139775286D01*
X92555190Y-139751476D02*
X92531381Y-139799095D01*
X92483762Y-139846714D01*
X92388524Y-139870524D01*
X92221857Y-139870524D01*
X92126619Y-139846714D01*
X92079000Y-139799095D01*
X92055190Y-139751476D01*
X92055190Y-139656238D01*
X92079000Y-139608619D01*
X92126619Y-139561000D01*
X92221857Y-139537191D01*
X92388524Y-139537191D01*
X92483762Y-139561000D01*
X92531381Y-139608619D01*
X92555190Y-139656238D01*
X92555190Y-139751476D01*
X92055190Y-139370523D02*
X92055190Y-139061000D01*
X92245667Y-139227666D01*
X92245667Y-139156238D01*
X92269476Y-139108619D01*
X92293286Y-139084809D01*
X92340905Y-139061000D01*
X92459952Y-139061000D01*
X92507571Y-139084809D01*
X92531381Y-139108619D01*
X92555190Y-139156238D01*
X92555190Y-139299095D01*
X92531381Y-139346714D01*
X92507571Y-139370523D01*
X92555190Y-138846714D02*
X92055190Y-138846714D01*
X92412333Y-138680048D01*
X92055190Y-138513381D01*
X92555190Y-138513381D01*
X92055190Y-138180047D02*
X92055190Y-138084809D01*
X92079000Y-138037190D01*
X92126619Y-137989571D01*
X92221857Y-137965762D01*
X92388524Y-137965762D01*
X92483762Y-137989571D01*
X92531381Y-138037190D01*
X92555190Y-138084809D01*
X92555190Y-138180047D01*
X92531381Y-138227666D01*
X92483762Y-138275285D01*
X92388524Y-138299095D01*
X92221857Y-138299095D01*
X92126619Y-138275285D01*
X92079000Y-138227666D01*
X92055190Y-138180047D01*
X92555190Y-137751475D02*
X92055190Y-137751475D01*
X92055190Y-137632428D01*
X92079000Y-137560999D01*
X92126619Y-137513380D01*
X92174238Y-137489571D01*
X92269476Y-137465761D01*
X92340905Y-137465761D01*
X92436143Y-137489571D01*
X92483762Y-137513380D01*
X92531381Y-137560999D01*
X92555190Y-137632428D01*
X92555190Y-137751475D01*
X92555190Y-136989571D02*
X92555190Y-137275285D01*
X92555190Y-137132428D02*
X92055190Y-137132428D01*
X92126619Y-137180047D01*
X92174238Y-137227666D01*
X92198048Y-137275285D01*
X113407239Y-118471190D02*
X113407239Y-118828333D01*
X113383429Y-118899762D01*
X113335810Y-118947381D01*
X113264382Y-118971190D01*
X113216763Y-118971190D01*
X113526286Y-119018810D02*
X113907238Y-119018810D01*
X114359619Y-119018810D02*
X114312000Y-118995000D01*
X114264381Y-118947381D01*
X114192952Y-118875952D01*
X114145333Y-118852143D01*
X114097714Y-118852143D01*
X114121524Y-118971190D02*
X114073905Y-118947381D01*
X114026286Y-118899762D01*
X114002476Y-118804524D01*
X114002476Y-118637857D01*
X114026286Y-118542619D01*
X114073905Y-118495000D01*
X114121524Y-118471190D01*
X114216762Y-118471190D01*
X114264381Y-118495000D01*
X114312000Y-118542619D01*
X114335809Y-118637857D01*
X114335809Y-118804524D01*
X114312000Y-118899762D01*
X114264381Y-118947381D01*
X114216762Y-118971190D01*
X114121524Y-118971190D01*
X114764381Y-118637857D02*
X114764381Y-118971190D01*
X114645334Y-118447381D02*
X114526286Y-118804524D01*
X114835810Y-118804524D01*
X115026286Y-118971190D02*
X115026286Y-118471190D01*
X115192952Y-118828333D01*
X115359619Y-118471190D01*
X115359619Y-118971190D01*
X115692953Y-118471190D02*
X115788191Y-118471190D01*
X115835810Y-118495000D01*
X115883429Y-118542619D01*
X115907238Y-118637857D01*
X115907238Y-118804524D01*
X115883429Y-118899762D01*
X115835810Y-118947381D01*
X115788191Y-118971190D01*
X115692953Y-118971190D01*
X115645334Y-118947381D01*
X115597715Y-118899762D01*
X115573905Y-118804524D01*
X115573905Y-118637857D01*
X115597715Y-118542619D01*
X115645334Y-118495000D01*
X115692953Y-118471190D01*
X116121525Y-118971190D02*
X116121525Y-118471190D01*
X116240572Y-118471190D01*
X116312001Y-118495000D01*
X116359620Y-118542619D01*
X116383429Y-118590238D01*
X116407239Y-118685476D01*
X116407239Y-118756905D01*
X116383429Y-118852143D01*
X116359620Y-118899762D01*
X116312001Y-118947381D01*
X116240572Y-118971190D01*
X116121525Y-118971190D01*
X116883429Y-118971190D02*
X116597715Y-118971190D01*
X116740572Y-118971190D02*
X116740572Y-118471190D01*
X116692953Y-118542619D01*
X116645334Y-118590238D01*
X116597715Y-118614048D01*
X107453953Y-142085190D02*
X107453953Y-141585190D01*
X107573000Y-141585190D01*
X107644429Y-141609000D01*
X107692048Y-141656619D01*
X107715857Y-141704238D01*
X107739667Y-141799476D01*
X107739667Y-141870905D01*
X107715857Y-141966143D01*
X107692048Y-142013762D01*
X107644429Y-142061381D01*
X107573000Y-142085190D01*
X107453953Y-142085190D01*
X107930143Y-141632810D02*
X107953953Y-141609000D01*
X108001572Y-141585190D01*
X108120619Y-141585190D01*
X108168238Y-141609000D01*
X108192048Y-141632810D01*
X108215857Y-141680429D01*
X108215857Y-141728048D01*
X108192048Y-141799476D01*
X107906334Y-142085190D01*
X108215857Y-142085190D01*
X107453953Y-135862190D02*
X107453953Y-135362190D01*
X107573000Y-135362190D01*
X107644429Y-135386000D01*
X107692048Y-135433619D01*
X107715857Y-135481238D01*
X107739667Y-135576476D01*
X107739667Y-135647905D01*
X107715857Y-135743143D01*
X107692048Y-135790762D01*
X107644429Y-135838381D01*
X107573000Y-135862190D01*
X107453953Y-135862190D01*
X107906334Y-135362190D02*
X108215857Y-135362190D01*
X108049191Y-135552667D01*
X108120619Y-135552667D01*
X108168238Y-135576476D01*
X108192048Y-135600286D01*
X108215857Y-135647905D01*
X108215857Y-135766952D01*
X108192048Y-135814571D01*
X108168238Y-135838381D01*
X108120619Y-135862190D01*
X107977762Y-135862190D01*
X107930143Y-135838381D01*
X107906334Y-135814571D01*
X91070953Y-157833190D02*
X91070953Y-157333190D01*
X91190000Y-157333190D01*
X91261429Y-157357000D01*
X91309048Y-157404619D01*
X91332857Y-157452238D01*
X91356667Y-157547476D01*
X91356667Y-157618905D01*
X91332857Y-157714143D01*
X91309048Y-157761762D01*
X91261429Y-157809381D01*
X91190000Y-157833190D01*
X91070953Y-157833190D01*
X91785238Y-157499857D02*
X91785238Y-157833190D01*
X91666191Y-157309381D02*
X91547143Y-157666524D01*
X91856667Y-157666524D01*
X91070953Y-154912190D02*
X91070953Y-154412190D01*
X91190000Y-154412190D01*
X91261429Y-154436000D01*
X91309048Y-154483619D01*
X91332857Y-154531238D01*
X91356667Y-154626476D01*
X91356667Y-154697905D01*
X91332857Y-154793143D01*
X91309048Y-154840762D01*
X91261429Y-154888381D01*
X91190000Y-154912190D01*
X91070953Y-154912190D01*
X91809048Y-154412190D02*
X91570953Y-154412190D01*
X91547143Y-154650286D01*
X91570953Y-154626476D01*
X91618572Y-154602667D01*
X91737619Y-154602667D01*
X91785238Y-154626476D01*
X91809048Y-154650286D01*
X91832857Y-154697905D01*
X91832857Y-154816952D01*
X91809048Y-154864571D01*
X91785238Y-154888381D01*
X91737619Y-154912190D01*
X91618572Y-154912190D01*
X91570953Y-154888381D01*
X91547143Y-154864571D01*
X95195190Y-105762666D02*
X95552333Y-105762666D01*
X95623762Y-105786476D01*
X95671381Y-105834095D01*
X95695190Y-105905523D01*
X95695190Y-105953142D01*
X95695190Y-105262667D02*
X95695190Y-105548381D01*
X95695190Y-105405524D02*
X95195190Y-105405524D01*
X95266619Y-105453143D01*
X95314238Y-105500762D01*
X95338048Y-105548381D01*
%LPC*%
D14*
X45419000Y-150241000D03*
X47919000Y-150241000D03*
X50419000Y-150241000D03*
D15*
X43519000Y-143241000D03*
X52319000Y-143241000D03*
D16*
X108689000Y-163702000D03*
X108689000Y-147702000D03*
X121689000Y-147702000D03*
X121666000Y-163702000D03*
D17*
X110021000Y-193322000D03*
X104521000Y-193322000D03*
X99021000Y-193322000D03*
X110021000Y-188722000D03*
X104521000Y-188722000D03*
X99021000Y-188722000D03*
X110021000Y-184122000D03*
X104521000Y-184122000D03*
X99021000Y-184122000D03*
D14*
X69168000Y-134366000D03*
X71668000Y-134366000D03*
X74168000Y-134366000D03*
D15*
X67268000Y-127366000D03*
X76068000Y-127366000D03*
D14*
X69168000Y-118872000D03*
X71668000Y-118872000D03*
X74168000Y-118872000D03*
D15*
X67268000Y-111872000D03*
X76068000Y-111872000D03*
D18*
X40513000Y-128397000D03*
D19*
X40513000Y-125857000D03*
X40513000Y-123317000D03*
X40513000Y-120777000D03*
X40513000Y-118237000D03*
X40513000Y-115697000D03*
X40513000Y-113157000D03*
X40513000Y-110617000D03*
D18*
X123952000Y-137922000D03*
D19*
X123952000Y-135382000D03*
X123952000Y-132842000D03*
X123952000Y-130302000D03*
X123952000Y-127762000D03*
X123952000Y-125222000D03*
X123952000Y-122682000D03*
X123952000Y-120142000D03*
D18*
X85471000Y-137922000D03*
D19*
X85471000Y-135382000D03*
X85471000Y-132842000D03*
X85471000Y-130302000D03*
X85471000Y-127762000D03*
X85471000Y-125222000D03*
X85471000Y-122682000D03*
X85471000Y-120142000D03*
D16*
X100607000Y-162688000D03*
X100607000Y-178688000D03*
X87607000Y-178688000D03*
X87630000Y-162688000D03*
D20*
X118217000Y-184023000D03*
X115717000Y-184023000D03*
X124059000Y-184023000D03*
X121559000Y-184023000D03*
D21*
X117729000Y-170708000D03*
X117729000Y-173208000D03*
X120650000Y-170708000D03*
X120650000Y-173208000D03*
D20*
X116606000Y-129540000D03*
X119106000Y-129540000D03*
X119106000Y-134874000D03*
X116606000Y-134874000D03*
X111105000Y-132207000D03*
X108605000Y-132207000D03*
D21*
X97790000Y-135021000D03*
X97790000Y-137521000D03*
D20*
X100818000Y-151892000D03*
X98318000Y-151892000D03*
X93238000Y-151892000D03*
X95738000Y-151892000D03*
X108605000Y-110871000D03*
X111105000Y-110871000D03*
X111105000Y-116205000D03*
X108605000Y-116205000D03*
D21*
X119888000Y-123718000D03*
X119888000Y-126218000D03*
X104902000Y-121940000D03*
X104902000Y-124440000D03*
D22*
X93091000Y-125729000D03*
X93091000Y-122429000D03*
D23*
X59182000Y-132969000D03*
D14*
X61722000Y-132969000D03*
X45419000Y-134366000D03*
X47919000Y-134366000D03*
X50419000Y-134366000D03*
D15*
X43519000Y-127366000D03*
X52319000Y-127366000D03*
D18*
X79121000Y-128397000D03*
D19*
X79121000Y-125857000D03*
X79121000Y-123317000D03*
X79121000Y-120777000D03*
X79121000Y-118237000D03*
X79121000Y-115697000D03*
X79121000Y-113157000D03*
X79121000Y-110617000D03*
D14*
X45419000Y-118872000D03*
X47919000Y-118872000D03*
X50419000Y-118872000D03*
D15*
X43519000Y-111872000D03*
X52319000Y-111872000D03*
D24*
X117155000Y-176038000D03*
X115255000Y-176038000D03*
X116205000Y-178038000D03*
D25*
X105775000Y-131887000D03*
X105775000Y-129987000D03*
X103775000Y-130937000D03*
X95488000Y-145857000D03*
X95488000Y-143957000D03*
X93488000Y-144907000D03*
D24*
X111948000Y-122190000D03*
X110048000Y-122190000D03*
X110998000Y-124190000D03*
D26*
X118317000Y-187833000D03*
X115617000Y-187833000D03*
X124159000Y-187833000D03*
X121459000Y-187833000D03*
D27*
X123063000Y-170608000D03*
X123063000Y-173308000D03*
X123063000Y-178388000D03*
X123063000Y-175688000D03*
D26*
X111205000Y-179578000D03*
X108505000Y-179578000D03*
D27*
X114681000Y-170735000D03*
X114681000Y-173435000D03*
D26*
X112221000Y-168656000D03*
X109521000Y-168656000D03*
X119206000Y-132334000D03*
X116506000Y-132334000D03*
D27*
X113792000Y-132287000D03*
X113792000Y-129587000D03*
D26*
X108251000Y-140462000D03*
X110951000Y-140462000D03*
D27*
X97790000Y-129841000D03*
X97790000Y-132541000D03*
D26*
X108505000Y-129540000D03*
X111205000Y-129540000D03*
X101045000Y-148971000D03*
X98345000Y-148971000D03*
X98345000Y-145923000D03*
X101045000Y-145923000D03*
X93138000Y-148971000D03*
X95838000Y-148971000D03*
D27*
X94996000Y-129841000D03*
X94996000Y-132541000D03*
D26*
X98345000Y-140970000D03*
X101045000Y-140970000D03*
X108505000Y-108204000D03*
X111205000Y-108204000D03*
X111205000Y-113538000D03*
X108505000Y-113538000D03*
D27*
X114935000Y-113585000D03*
X114935000Y-116285000D03*
X114935000Y-110824000D03*
X114935000Y-108124000D03*
X117602000Y-126318000D03*
X117602000Y-123618000D03*
X117602000Y-120730000D03*
X117602000Y-118030000D03*
X107569000Y-124413000D03*
X107569000Y-121713000D03*
D26*
X109681000Y-119126000D03*
X106981000Y-119126000D03*
D27*
X55245000Y-132889000D03*
X55245000Y-135589000D03*
D18*
X109220000Y-173482000D03*
D19*
X109220000Y-176022000D03*
D18*
X100838000Y-129794000D03*
D19*
X100838000Y-132334000D03*
D18*
X94488000Y-137795000D03*
D19*
X94488000Y-140335000D03*
D18*
X114935000Y-120904000D03*
D19*
X114935000Y-123444000D03*
D28*
X108331000Y-143510000D03*
D29*
X115951000Y-143510000D03*
D28*
X115824000Y-137414000D03*
D29*
X108204000Y-137414000D03*
D28*
X93218000Y-157607000D03*
D29*
X100838000Y-157607000D03*
D28*
X100838000Y-154686000D03*
D29*
X93218000Y-154686000D03*
D30*
X101219000Y-114046000D03*
X101219000Y-108046000D03*
X96519000Y-111046000D03*
M02*
