G04 #@! TF.FileFunction,Copper,L2,Bot,Signal*
%FSLAX46Y46*%
G04 Gerber Fmt 4.6, Leading zero omitted, Abs format (unit mm)*
G04 Created by KiCad (PCBNEW 4.0.6) date Monday, 12 February 2018 'AMt' 00:03:10*
%MOMM*%
%LPD*%
G01*
G04 APERTURE LIST*
%ADD10C,0.100000*%
%ADD11C,0.150000*%
%ADD12C,1.800000*%
%ADD13C,3.000000*%
%ADD14O,5.000000X4.000000*%
%ADD15O,4.000000X3.500000*%
%ADD16R,1.700000X1.700000*%
%ADD17O,1.700000X1.700000*%
%ADD18R,1.800000X1.800000*%
%ADD19R,3.500000X3.500000*%
%ADD20C,0.600000*%
%ADD21C,0.250000*%
%ADD22C,0.500000*%
%ADD23C,0.254000*%
G04 APERTURE END LIST*
D10*
D11*
X80772000Y-105791000D02*
X38862000Y-105791000D01*
X80772000Y-136271000D02*
X80772000Y-105791000D01*
X56896000Y-136271000D02*
X56896000Y-151511000D01*
X56896000Y-136271000D02*
X80772000Y-136271000D01*
X38862000Y-151511000D02*
X38862000Y-105791000D01*
X56896000Y-151511000D02*
X38862000Y-151511000D01*
X125603000Y-190881000D02*
X125603000Y-112903000D01*
X90678000Y-197866000D02*
X118618000Y-197866000D01*
X90678000Y-190881000D02*
X83693000Y-190881000D01*
X83693000Y-112903000D02*
X83693000Y-190881000D01*
X118618000Y-105918000D02*
X90678000Y-105918000D01*
X90678000Y-112903000D02*
X83693000Y-112903000D01*
X90678000Y-105918000D02*
X90678000Y-112903000D01*
X118618000Y-112903000D02*
X125603000Y-112903000D01*
X118618000Y-105918000D02*
X118618000Y-112903000D01*
X118618000Y-190881000D02*
X118618000Y-197866000D01*
X125603000Y-190881000D02*
X118618000Y-190881000D01*
X90678000Y-190881000D02*
X90678000Y-197866000D01*
D12*
X45419000Y-150241000D03*
X47919000Y-150241000D03*
X50419000Y-150241000D03*
D13*
X43519000Y-143241000D03*
X52319000Y-143241000D03*
D14*
X108689000Y-163702000D03*
X108689000Y-147702000D03*
X121689000Y-147702000D03*
X121666000Y-163702000D03*
D15*
X99021000Y-184122000D03*
X104521000Y-184122000D03*
X110021000Y-184122000D03*
X99021000Y-188722000D03*
X104521000Y-188722000D03*
X110021000Y-188722000D03*
X99021000Y-193322000D03*
X104521000Y-193322000D03*
X110021000Y-193322000D03*
D12*
X69168000Y-134366000D03*
X71668000Y-134366000D03*
X74168000Y-134366000D03*
D13*
X67268000Y-127366000D03*
X76068000Y-127366000D03*
D12*
X69168000Y-118872000D03*
X71668000Y-118872000D03*
X74168000Y-118872000D03*
D13*
X67268000Y-111872000D03*
X76068000Y-111872000D03*
D16*
X40513000Y-128397000D03*
D17*
X40513000Y-125857000D03*
X40513000Y-123317000D03*
X40513000Y-120777000D03*
X40513000Y-118237000D03*
X40513000Y-115697000D03*
X40513000Y-113157000D03*
X40513000Y-110617000D03*
D16*
X123952000Y-137922000D03*
D17*
X123952000Y-135382000D03*
X123952000Y-132842000D03*
X123952000Y-130302000D03*
X123952000Y-127762000D03*
X123952000Y-125222000D03*
X123952000Y-122682000D03*
X123952000Y-120142000D03*
D16*
X85471000Y-137922000D03*
D17*
X85471000Y-135382000D03*
X85471000Y-132842000D03*
X85471000Y-130302000D03*
X85471000Y-127762000D03*
X85471000Y-125222000D03*
X85471000Y-122682000D03*
X85471000Y-120142000D03*
D14*
X100607000Y-162688000D03*
X100607000Y-178688000D03*
X87607000Y-178688000D03*
X87630000Y-162688000D03*
D18*
X59182000Y-132969000D03*
D12*
X61722000Y-132969000D03*
X45419000Y-134366000D03*
X47919000Y-134366000D03*
X50419000Y-134366000D03*
D13*
X43519000Y-127366000D03*
X52319000Y-127366000D03*
D16*
X79121000Y-128397000D03*
D17*
X79121000Y-125857000D03*
X79121000Y-123317000D03*
X79121000Y-120777000D03*
X79121000Y-118237000D03*
X79121000Y-115697000D03*
X79121000Y-113157000D03*
X79121000Y-110617000D03*
D12*
X45419000Y-118872000D03*
X47919000Y-118872000D03*
X50419000Y-118872000D03*
D13*
X43519000Y-111872000D03*
X52319000Y-111872000D03*
D19*
X101219000Y-114046000D03*
X101219000Y-108046000D03*
X96519000Y-111046000D03*
D16*
X109220000Y-173482000D03*
D17*
X109220000Y-176022000D03*
D16*
X107188000Y-126873000D03*
D17*
X104648000Y-126873000D03*
D16*
X93599000Y-137922000D03*
D17*
X91059000Y-137922000D03*
D16*
X113538000Y-126365000D03*
D17*
X110998000Y-126365000D03*
D20*
X123444000Y-170561000D03*
X99949000Y-139700000D03*
X114173000Y-129540000D03*
X105537000Y-119126000D03*
X116205000Y-119126000D03*
X108458000Y-114554000D03*
X115443000Y-170688000D03*
X115062000Y-189738000D03*
X112268000Y-157099000D03*
X115062000Y-159893000D03*
X99441000Y-123190000D03*
X98425000Y-120904000D03*
X108712000Y-179959000D03*
X106299000Y-179959000D03*
X96012000Y-124968000D03*
X100330000Y-124714000D03*
X103886000Y-169926000D03*
X99695000Y-169926000D03*
X75692000Y-123190000D03*
X54102000Y-137287000D03*
X44577000Y-123317000D03*
X106299000Y-134493000D03*
X112649000Y-134493000D03*
X53340000Y-135509000D03*
X57150000Y-135509000D03*
X65786000Y-131699000D03*
X75819000Y-131699000D03*
X76962000Y-124587000D03*
X70993000Y-124587000D03*
X44577000Y-121285000D03*
X95504000Y-142748000D03*
D21*
X123444000Y-170561000D02*
X123491000Y-170514000D01*
X40513000Y-125857000D02*
X40640000Y-125857000D01*
X40640000Y-125857000D02*
X42291000Y-124206000D01*
X42291000Y-124206000D02*
X57404000Y-124206000D01*
X57404000Y-124206000D02*
X61722000Y-128524000D01*
X61722000Y-128524000D02*
X61722000Y-132969000D01*
D22*
X115062000Y-159893000D02*
X112268000Y-157099000D01*
X99441000Y-123190000D02*
X98425000Y-120904000D01*
D21*
X99148000Y-188976000D02*
X99187000Y-188976000D01*
D22*
X104648000Y-188976000D02*
X105156000Y-188722000D01*
D21*
X106299000Y-179959000D02*
X108712000Y-179959000D01*
X100330000Y-124714000D02*
X96012000Y-124968000D01*
X99695000Y-169926000D02*
X103886000Y-169926000D01*
X75692000Y-123190000D02*
X78994000Y-123190000D01*
X78994000Y-123190000D02*
X79121000Y-123317000D01*
X54102000Y-137287000D02*
X53848000Y-137033000D01*
X53848000Y-137033000D02*
X43434000Y-137033000D01*
X43434000Y-137033000D02*
X40513000Y-134112000D01*
X40513000Y-134112000D02*
X40513000Y-128397000D01*
X42037000Y-120777000D02*
X40513000Y-120777000D01*
X44577000Y-123317000D02*
X42037000Y-120777000D01*
X104521000Y-193322000D02*
X110021000Y-193322000D01*
X104648000Y-193576000D02*
X104549000Y-193576000D01*
X112649000Y-134493000D02*
X106299000Y-134493000D01*
X57150000Y-135509000D02*
X53340000Y-135509000D01*
X75819000Y-131699000D02*
X65786000Y-131699000D01*
X70993000Y-124587000D02*
X76962000Y-124587000D01*
X41529000Y-118237000D02*
X40513000Y-118237000D01*
X44577000Y-121285000D02*
X41529000Y-118237000D01*
X93599000Y-140843000D02*
X93599000Y-138176000D01*
X95504000Y-142748000D02*
X93599000Y-140843000D01*
D23*
G36*
X98821560Y-108982045D02*
X98733090Y-108844559D01*
X98520890Y-108699569D01*
X98269000Y-108648560D01*
X94769000Y-108648560D01*
X94533683Y-108692838D01*
X94317559Y-108831910D01*
X94172569Y-109044110D01*
X94121560Y-109296000D01*
X94121560Y-112796000D01*
X94165838Y-113031317D01*
X94304910Y-113247441D01*
X94517110Y-113392431D01*
X94769000Y-113443440D01*
X98269000Y-113443440D01*
X98504317Y-113399162D01*
X98720441Y-113260090D01*
X98865431Y-113047890D01*
X98916440Y-112796000D01*
X98916440Y-110109955D01*
X99004910Y-110247441D01*
X99217110Y-110392431D01*
X99469000Y-110443440D01*
X102969000Y-110443440D01*
X103204317Y-110399162D01*
X103420441Y-110260090D01*
X103565431Y-110047890D01*
X103616440Y-109796000D01*
X103616440Y-106628000D01*
X117908000Y-106628000D01*
X117908000Y-112903000D01*
X117962046Y-113174705D01*
X118115954Y-113405046D01*
X118346295Y-113558954D01*
X118618000Y-113613000D01*
X124893000Y-113613000D01*
X124893000Y-118999639D01*
X124549378Y-118770039D01*
X123981093Y-118657000D01*
X123922907Y-118657000D01*
X123354622Y-118770039D01*
X122872853Y-119091946D01*
X122550946Y-119573715D01*
X122437907Y-120142000D01*
X122550946Y-120710285D01*
X122872853Y-121192054D01*
X123202026Y-121412000D01*
X122872853Y-121631946D01*
X122550946Y-122113715D01*
X122437907Y-122682000D01*
X122550946Y-123250285D01*
X122872853Y-123732054D01*
X123202026Y-123952000D01*
X122872853Y-124171946D01*
X122550946Y-124653715D01*
X122437907Y-125222000D01*
X122550946Y-125790285D01*
X122872853Y-126272054D01*
X123202026Y-126492000D01*
X122872853Y-126711946D01*
X122550946Y-127193715D01*
X122437907Y-127762000D01*
X122550946Y-128330285D01*
X122872853Y-128812054D01*
X123202026Y-129032000D01*
X122872853Y-129251946D01*
X122550946Y-129733715D01*
X122437907Y-130302000D01*
X122550946Y-130870285D01*
X122872853Y-131352054D01*
X123202026Y-131572000D01*
X122872853Y-131791946D01*
X122550946Y-132273715D01*
X122437907Y-132842000D01*
X122550946Y-133410285D01*
X122872853Y-133892054D01*
X123202026Y-134112000D01*
X122872853Y-134331946D01*
X122550946Y-134813715D01*
X122437907Y-135382000D01*
X122550946Y-135950285D01*
X122872853Y-136432054D01*
X122914452Y-136459850D01*
X122866683Y-136468838D01*
X122650559Y-136607910D01*
X122505569Y-136820110D01*
X122454560Y-137072000D01*
X122454560Y-138772000D01*
X122498838Y-139007317D01*
X122637910Y-139223441D01*
X122850110Y-139368431D01*
X123102000Y-139419440D01*
X124802000Y-139419440D01*
X124893000Y-139402317D01*
X124893000Y-190171000D01*
X118618000Y-190171000D01*
X118346295Y-190225046D01*
X118115954Y-190378954D01*
X117962046Y-190609295D01*
X117908000Y-190881000D01*
X117908000Y-197156000D01*
X91388000Y-197156000D01*
X91388000Y-190881000D01*
X91333954Y-190609295D01*
X91180046Y-190378954D01*
X90949705Y-190225046D01*
X90678000Y-190171000D01*
X84403000Y-190171000D01*
X84403000Y-184122000D01*
X96334377Y-184122000D01*
X96515924Y-185034700D01*
X97032927Y-185808450D01*
X97806677Y-186325453D01*
X98292052Y-186422000D01*
X97806677Y-186518547D01*
X97032927Y-187035550D01*
X96515924Y-187809300D01*
X96334377Y-188722000D01*
X96515924Y-189634700D01*
X97032927Y-190408450D01*
X97806677Y-190925453D01*
X98292052Y-191022000D01*
X97806677Y-191118547D01*
X97032927Y-191635550D01*
X96515924Y-192409300D01*
X96334377Y-193322000D01*
X96515924Y-194234700D01*
X97032927Y-195008450D01*
X97806677Y-195525453D01*
X98719377Y-195707000D01*
X99322623Y-195707000D01*
X100235323Y-195525453D01*
X101009073Y-195008450D01*
X101526076Y-194234700D01*
X101707623Y-193322000D01*
X101526076Y-192409300D01*
X101009073Y-191635550D01*
X100235323Y-191118547D01*
X99749948Y-191022000D01*
X100235323Y-190925453D01*
X101009073Y-190408450D01*
X101526076Y-189634700D01*
X101707623Y-188722000D01*
X101526076Y-187809300D01*
X101009073Y-187035550D01*
X100235323Y-186518547D01*
X99749948Y-186422000D01*
X100235323Y-186325453D01*
X101009073Y-185808450D01*
X101526076Y-185034700D01*
X101707623Y-184122000D01*
X101834377Y-184122000D01*
X102015924Y-185034700D01*
X102532927Y-185808450D01*
X103306677Y-186325453D01*
X103792052Y-186422000D01*
X103306677Y-186518547D01*
X102532927Y-187035550D01*
X102015924Y-187809300D01*
X101834377Y-188722000D01*
X102015924Y-189634700D01*
X102532927Y-190408450D01*
X103306677Y-190925453D01*
X103792052Y-191022000D01*
X103306677Y-191118547D01*
X102532927Y-191635550D01*
X102015924Y-192409300D01*
X101834377Y-193322000D01*
X102015924Y-194234700D01*
X102532927Y-195008450D01*
X103306677Y-195525453D01*
X104219377Y-195707000D01*
X104822623Y-195707000D01*
X105735323Y-195525453D01*
X106509073Y-195008450D01*
X107026076Y-194234700D01*
X107056450Y-194082000D01*
X107485550Y-194082000D01*
X107515924Y-194234700D01*
X108032927Y-195008450D01*
X108806677Y-195525453D01*
X109719377Y-195707000D01*
X110322623Y-195707000D01*
X111235323Y-195525453D01*
X112009073Y-195008450D01*
X112526076Y-194234700D01*
X112707623Y-193322000D01*
X112526076Y-192409300D01*
X112009073Y-191635550D01*
X111235323Y-191118547D01*
X110749948Y-191022000D01*
X111235323Y-190925453D01*
X112009073Y-190408450D01*
X112526076Y-189634700D01*
X112707623Y-188722000D01*
X112526076Y-187809300D01*
X112009073Y-187035550D01*
X111235323Y-186518547D01*
X110749948Y-186422000D01*
X111235323Y-186325453D01*
X112009073Y-185808450D01*
X112526076Y-185034700D01*
X112707623Y-184122000D01*
X112526076Y-183209300D01*
X112009073Y-182435550D01*
X111235323Y-181918547D01*
X110322623Y-181737000D01*
X109719377Y-181737000D01*
X108806677Y-181918547D01*
X108032927Y-182435550D01*
X107515924Y-183209300D01*
X107334377Y-184122000D01*
X107515924Y-185034700D01*
X108032927Y-185808450D01*
X108806677Y-186325453D01*
X109292052Y-186422000D01*
X108806677Y-186518547D01*
X108032927Y-187035550D01*
X107515924Y-187809300D01*
X107334377Y-188722000D01*
X107515924Y-189634700D01*
X108032927Y-190408450D01*
X108806677Y-190925453D01*
X109292052Y-191022000D01*
X108806677Y-191118547D01*
X108032927Y-191635550D01*
X107515924Y-192409300D01*
X107485550Y-192562000D01*
X107056450Y-192562000D01*
X107026076Y-192409300D01*
X106509073Y-191635550D01*
X105735323Y-191118547D01*
X105249948Y-191022000D01*
X105735323Y-190925453D01*
X106509073Y-190408450D01*
X107026076Y-189634700D01*
X107207623Y-188722000D01*
X107026076Y-187809300D01*
X106509073Y-187035550D01*
X105735323Y-186518547D01*
X105249948Y-186422000D01*
X105735323Y-186325453D01*
X106509073Y-185808450D01*
X107026076Y-185034700D01*
X107207623Y-184122000D01*
X107026076Y-183209300D01*
X106509073Y-182435550D01*
X105735323Y-181918547D01*
X104822623Y-181737000D01*
X104219377Y-181737000D01*
X103306677Y-181918547D01*
X102532927Y-182435550D01*
X102015924Y-183209300D01*
X101834377Y-184122000D01*
X101707623Y-184122000D01*
X101526076Y-183209300D01*
X101009073Y-182435550D01*
X100235323Y-181918547D01*
X99322623Y-181737000D01*
X98719377Y-181737000D01*
X97806677Y-181918547D01*
X97032927Y-182435550D01*
X96515924Y-183209300D01*
X96334377Y-184122000D01*
X84403000Y-184122000D01*
X84403000Y-178688000D01*
X97410582Y-178688000D01*
X97611159Y-179696371D01*
X98182356Y-180551226D01*
X99037211Y-181122423D01*
X100045582Y-181323000D01*
X101168418Y-181323000D01*
X102176789Y-181122423D01*
X103031644Y-180551226D01*
X103303632Y-180144167D01*
X105363838Y-180144167D01*
X105505883Y-180487943D01*
X105768673Y-180751192D01*
X106112201Y-180893838D01*
X106484167Y-180894162D01*
X106827943Y-180752117D01*
X106861118Y-180719000D01*
X108149537Y-180719000D01*
X108181673Y-180751192D01*
X108525201Y-180893838D01*
X108897167Y-180894162D01*
X109240943Y-180752117D01*
X109504192Y-180489327D01*
X109646838Y-180145799D01*
X109647162Y-179773833D01*
X109505117Y-179430057D01*
X109242327Y-179166808D01*
X108898799Y-179024162D01*
X108526833Y-179023838D01*
X108183057Y-179165883D01*
X108149882Y-179199000D01*
X106861463Y-179199000D01*
X106829327Y-179166808D01*
X106485799Y-179024162D01*
X106113833Y-179023838D01*
X105770057Y-179165883D01*
X105506808Y-179428673D01*
X105364162Y-179772201D01*
X105363838Y-180144167D01*
X103303632Y-180144167D01*
X103602841Y-179696371D01*
X103803418Y-178688000D01*
X103602841Y-177679629D01*
X103031644Y-176824774D01*
X102176789Y-176253577D01*
X101168418Y-176053000D01*
X100045582Y-176053000D01*
X99037211Y-176253577D01*
X98182356Y-176824774D01*
X97611159Y-177679629D01*
X97410582Y-178688000D01*
X84403000Y-178688000D01*
X84403000Y-176022000D01*
X107705907Y-176022000D01*
X107818946Y-176590285D01*
X108140853Y-177072054D01*
X108622622Y-177393961D01*
X109190907Y-177507000D01*
X109249093Y-177507000D01*
X109817378Y-177393961D01*
X110299147Y-177072054D01*
X110621054Y-176590285D01*
X110734093Y-176022000D01*
X110621054Y-175453715D01*
X110299147Y-174971946D01*
X110257548Y-174944150D01*
X110305317Y-174935162D01*
X110521441Y-174796090D01*
X110666431Y-174583890D01*
X110717440Y-174332000D01*
X110717440Y-172632000D01*
X110673162Y-172396683D01*
X110534090Y-172180559D01*
X110321890Y-172035569D01*
X110070000Y-171984560D01*
X108370000Y-171984560D01*
X108134683Y-172028838D01*
X107918559Y-172167910D01*
X107773569Y-172380110D01*
X107722560Y-172632000D01*
X107722560Y-174332000D01*
X107766838Y-174567317D01*
X107905910Y-174783441D01*
X108118110Y-174928431D01*
X108185541Y-174942086D01*
X108140853Y-174971946D01*
X107818946Y-175453715D01*
X107705907Y-176022000D01*
X84403000Y-176022000D01*
X84403000Y-170111167D01*
X98759838Y-170111167D01*
X98901883Y-170454943D01*
X99164673Y-170718192D01*
X99508201Y-170860838D01*
X99880167Y-170861162D01*
X100223943Y-170719117D01*
X100257118Y-170686000D01*
X103323537Y-170686000D01*
X103355673Y-170718192D01*
X103699201Y-170860838D01*
X104071167Y-170861162D01*
X104414943Y-170719117D01*
X104678192Y-170456327D01*
X104820838Y-170112799D01*
X104821162Y-169740833D01*
X104679117Y-169397057D01*
X104416327Y-169133808D01*
X104072799Y-168991162D01*
X103700833Y-168990838D01*
X103357057Y-169132883D01*
X103323882Y-169166000D01*
X100257463Y-169166000D01*
X100225327Y-169133808D01*
X99881799Y-168991162D01*
X99509833Y-168990838D01*
X99166057Y-169132883D01*
X98902808Y-169395673D01*
X98760162Y-169739201D01*
X98759838Y-170111167D01*
X84403000Y-170111167D01*
X84403000Y-162688000D01*
X84433582Y-162688000D01*
X84634159Y-163696371D01*
X85205356Y-164551226D01*
X86060211Y-165122423D01*
X87068582Y-165323000D01*
X88191418Y-165323000D01*
X89199789Y-165122423D01*
X90054644Y-164551226D01*
X90625841Y-163696371D01*
X90826418Y-162688000D01*
X97410582Y-162688000D01*
X97611159Y-163696371D01*
X98182356Y-164551226D01*
X99037211Y-165122423D01*
X100045582Y-165323000D01*
X101168418Y-165323000D01*
X102176789Y-165122423D01*
X103031644Y-164551226D01*
X103599079Y-163702000D01*
X105492582Y-163702000D01*
X105693159Y-164710371D01*
X106264356Y-165565226D01*
X107119211Y-166136423D01*
X108127582Y-166337000D01*
X109250418Y-166337000D01*
X110258789Y-166136423D01*
X111113644Y-165565226D01*
X111684841Y-164710371D01*
X111885418Y-163702000D01*
X118469582Y-163702000D01*
X118670159Y-164710371D01*
X119241356Y-165565226D01*
X120096211Y-166136423D01*
X121104582Y-166337000D01*
X122227418Y-166337000D01*
X123235789Y-166136423D01*
X124090644Y-165565226D01*
X124661841Y-164710371D01*
X124862418Y-163702000D01*
X124661841Y-162693629D01*
X124090644Y-161838774D01*
X123235789Y-161267577D01*
X122227418Y-161067000D01*
X121104582Y-161067000D01*
X120096211Y-161267577D01*
X119241356Y-161838774D01*
X118670159Y-162693629D01*
X118469582Y-163702000D01*
X111885418Y-163702000D01*
X111684841Y-162693629D01*
X111113644Y-161838774D01*
X110258789Y-161267577D01*
X109250418Y-161067000D01*
X108127582Y-161067000D01*
X107119211Y-161267577D01*
X106264356Y-161838774D01*
X105693159Y-162693629D01*
X105492582Y-163702000D01*
X103599079Y-163702000D01*
X103602841Y-163696371D01*
X103803418Y-162688000D01*
X103602841Y-161679629D01*
X103031644Y-160824774D01*
X102176789Y-160253577D01*
X101168418Y-160053000D01*
X100045582Y-160053000D01*
X99037211Y-160253577D01*
X98182356Y-160824774D01*
X97611159Y-161679629D01*
X97410582Y-162688000D01*
X90826418Y-162688000D01*
X90625841Y-161679629D01*
X90054644Y-160824774D01*
X89199789Y-160253577D01*
X88191418Y-160053000D01*
X87068582Y-160053000D01*
X86060211Y-160253577D01*
X85205356Y-160824774D01*
X84634159Y-161679629D01*
X84433582Y-162688000D01*
X84403000Y-162688000D01*
X84403000Y-157284167D01*
X111332838Y-157284167D01*
X111474883Y-157627943D01*
X111737673Y-157891192D01*
X111858986Y-157941566D01*
X114219255Y-160301834D01*
X114268883Y-160421943D01*
X114531673Y-160685192D01*
X114875201Y-160827838D01*
X115247167Y-160828162D01*
X115590943Y-160686117D01*
X115854192Y-160423327D01*
X115996838Y-160079799D01*
X115997162Y-159707833D01*
X115855117Y-159364057D01*
X115592327Y-159100808D01*
X115471013Y-159050434D01*
X113110744Y-156690164D01*
X113061117Y-156570057D01*
X112798327Y-156306808D01*
X112454799Y-156164162D01*
X112082833Y-156163838D01*
X111739057Y-156305883D01*
X111475808Y-156568673D01*
X111333162Y-156912201D01*
X111332838Y-157284167D01*
X84403000Y-157284167D01*
X84403000Y-147702000D01*
X105492582Y-147702000D01*
X105693159Y-148710371D01*
X106264356Y-149565226D01*
X107119211Y-150136423D01*
X108127582Y-150337000D01*
X109250418Y-150337000D01*
X110258789Y-150136423D01*
X111113644Y-149565226D01*
X111684841Y-148710371D01*
X111885418Y-147702000D01*
X111684841Y-146693629D01*
X111113644Y-145838774D01*
X110258789Y-145267577D01*
X109250418Y-145067000D01*
X108127582Y-145067000D01*
X107119211Y-145267577D01*
X106264356Y-145838774D01*
X105693159Y-146693629D01*
X105492582Y-147702000D01*
X84403000Y-147702000D01*
X84403000Y-137892907D01*
X89574000Y-137892907D01*
X89574000Y-137951093D01*
X89687039Y-138519378D01*
X90008946Y-139001147D01*
X90490715Y-139323054D01*
X91059000Y-139436093D01*
X91627285Y-139323054D01*
X92109054Y-139001147D01*
X92136850Y-138959548D01*
X92145838Y-139007317D01*
X92284910Y-139223441D01*
X92497110Y-139368431D01*
X92749000Y-139419440D01*
X92839000Y-139419440D01*
X92839000Y-140843000D01*
X92896852Y-141133839D01*
X93061599Y-141380401D01*
X94568878Y-142887680D01*
X94568838Y-142933167D01*
X94710883Y-143276943D01*
X94973673Y-143540192D01*
X95317201Y-143682838D01*
X95689167Y-143683162D01*
X96032943Y-143541117D01*
X96296192Y-143278327D01*
X96438838Y-142934799D01*
X96439162Y-142562833D01*
X96297117Y-142219057D01*
X96034327Y-141955808D01*
X95690799Y-141813162D01*
X95643923Y-141813121D01*
X94359000Y-140528198D01*
X94359000Y-139419440D01*
X94449000Y-139419440D01*
X94684317Y-139375162D01*
X94900441Y-139236090D01*
X95045431Y-139023890D01*
X95096440Y-138772000D01*
X95096440Y-137072000D01*
X95052162Y-136836683D01*
X94913090Y-136620559D01*
X94700890Y-136475569D01*
X94449000Y-136424560D01*
X92749000Y-136424560D01*
X92513683Y-136468838D01*
X92297559Y-136607910D01*
X92152569Y-136820110D01*
X92138914Y-136887541D01*
X92109054Y-136842853D01*
X91627285Y-136520946D01*
X91059000Y-136407907D01*
X90490715Y-136520946D01*
X90008946Y-136842853D01*
X89687039Y-137324622D01*
X89574000Y-137892907D01*
X84403000Y-137892907D01*
X84403000Y-136439502D01*
X84873622Y-136753961D01*
X85441907Y-136867000D01*
X85500093Y-136867000D01*
X86068378Y-136753961D01*
X86550147Y-136432054D01*
X86872054Y-135950285D01*
X86985093Y-135382000D01*
X86872054Y-134813715D01*
X86781484Y-134678167D01*
X105363838Y-134678167D01*
X105505883Y-135021943D01*
X105768673Y-135285192D01*
X106112201Y-135427838D01*
X106484167Y-135428162D01*
X106827943Y-135286117D01*
X106861118Y-135253000D01*
X112086537Y-135253000D01*
X112118673Y-135285192D01*
X112462201Y-135427838D01*
X112834167Y-135428162D01*
X113177943Y-135286117D01*
X113441192Y-135023327D01*
X113583838Y-134679799D01*
X113584162Y-134307833D01*
X113442117Y-133964057D01*
X113179327Y-133700808D01*
X112835799Y-133558162D01*
X112463833Y-133557838D01*
X112120057Y-133699883D01*
X112086882Y-133733000D01*
X106861463Y-133733000D01*
X106829327Y-133700808D01*
X106485799Y-133558162D01*
X106113833Y-133557838D01*
X105770057Y-133699883D01*
X105506808Y-133962673D01*
X105364162Y-134306201D01*
X105363838Y-134678167D01*
X86781484Y-134678167D01*
X86550147Y-134331946D01*
X86220974Y-134112000D01*
X86550147Y-133892054D01*
X86872054Y-133410285D01*
X86985093Y-132842000D01*
X86872054Y-132273715D01*
X86550147Y-131791946D01*
X86220974Y-131572000D01*
X86550147Y-131352054D01*
X86872054Y-130870285D01*
X86985093Y-130302000D01*
X86872054Y-129733715D01*
X86550147Y-129251946D01*
X86220974Y-129032000D01*
X86550147Y-128812054D01*
X86872054Y-128330285D01*
X86985093Y-127762000D01*
X86872054Y-127193715D01*
X86638321Y-126843907D01*
X103163000Y-126843907D01*
X103163000Y-126902093D01*
X103276039Y-127470378D01*
X103597946Y-127952147D01*
X104079715Y-128274054D01*
X104648000Y-128387093D01*
X105216285Y-128274054D01*
X105698054Y-127952147D01*
X105725850Y-127910548D01*
X105734838Y-127958317D01*
X105873910Y-128174441D01*
X106086110Y-128319431D01*
X106338000Y-128370440D01*
X108038000Y-128370440D01*
X108273317Y-128326162D01*
X108489441Y-128187090D01*
X108634431Y-127974890D01*
X108685440Y-127723000D01*
X108685440Y-126335907D01*
X109513000Y-126335907D01*
X109513000Y-126394093D01*
X109626039Y-126962378D01*
X109947946Y-127444147D01*
X110429715Y-127766054D01*
X110998000Y-127879093D01*
X111566285Y-127766054D01*
X112048054Y-127444147D01*
X112075850Y-127402548D01*
X112084838Y-127450317D01*
X112223910Y-127666441D01*
X112436110Y-127811431D01*
X112688000Y-127862440D01*
X114388000Y-127862440D01*
X114623317Y-127818162D01*
X114839441Y-127679090D01*
X114984431Y-127466890D01*
X115035440Y-127215000D01*
X115035440Y-125515000D01*
X114991162Y-125279683D01*
X114852090Y-125063559D01*
X114639890Y-124918569D01*
X114388000Y-124867560D01*
X112688000Y-124867560D01*
X112452683Y-124911838D01*
X112236559Y-125050910D01*
X112091569Y-125263110D01*
X112077914Y-125330541D01*
X112048054Y-125285853D01*
X111566285Y-124963946D01*
X110998000Y-124850907D01*
X110429715Y-124963946D01*
X109947946Y-125285853D01*
X109626039Y-125767622D01*
X109513000Y-126335907D01*
X108685440Y-126335907D01*
X108685440Y-126023000D01*
X108641162Y-125787683D01*
X108502090Y-125571559D01*
X108289890Y-125426569D01*
X108038000Y-125375560D01*
X106338000Y-125375560D01*
X106102683Y-125419838D01*
X105886559Y-125558910D01*
X105741569Y-125771110D01*
X105727914Y-125838541D01*
X105698054Y-125793853D01*
X105216285Y-125471946D01*
X104648000Y-125358907D01*
X104079715Y-125471946D01*
X103597946Y-125793853D01*
X103276039Y-126275622D01*
X103163000Y-126843907D01*
X86638321Y-126843907D01*
X86550147Y-126711946D01*
X86068378Y-126390039D01*
X85500093Y-126277000D01*
X85441907Y-126277000D01*
X84873622Y-126390039D01*
X84403000Y-126704498D01*
X84403000Y-125153167D01*
X95076838Y-125153167D01*
X95218883Y-125496943D01*
X95481673Y-125760192D01*
X95825201Y-125902838D01*
X96197167Y-125903162D01*
X96540943Y-125761117D01*
X96607916Y-125694260D01*
X99800344Y-125506470D01*
X100143201Y-125648838D01*
X100515167Y-125649162D01*
X100858943Y-125507117D01*
X101122192Y-125244327D01*
X101264838Y-124900799D01*
X101265162Y-124528833D01*
X101123117Y-124185057D01*
X100860327Y-123921808D01*
X100516799Y-123779162D01*
X100174553Y-123778864D01*
X100233192Y-123720327D01*
X100375838Y-123376799D01*
X100376162Y-123004833D01*
X100234117Y-122661057D01*
X100126449Y-122553201D01*
X99360066Y-120828839D01*
X99360162Y-120718833D01*
X99218117Y-120375057D01*
X98955327Y-120111808D01*
X98611799Y-119969162D01*
X98239833Y-119968838D01*
X97896057Y-120110883D01*
X97632808Y-120373673D01*
X97490162Y-120717201D01*
X97489838Y-121089167D01*
X97631883Y-121432943D01*
X97739551Y-121540799D01*
X98505934Y-123265161D01*
X98505838Y-123375167D01*
X98647883Y-123718943D01*
X98910673Y-123982192D01*
X99024548Y-124029477D01*
X96541656Y-124175530D01*
X96198799Y-124033162D01*
X95826833Y-124032838D01*
X95483057Y-124174883D01*
X95219808Y-124437673D01*
X95077162Y-124781201D01*
X95076838Y-125153167D01*
X84403000Y-125153167D01*
X84403000Y-121199502D01*
X84873622Y-121513961D01*
X85441907Y-121627000D01*
X85500093Y-121627000D01*
X86068378Y-121513961D01*
X86550147Y-121192054D01*
X86872054Y-120710285D01*
X86985093Y-120142000D01*
X86872054Y-119573715D01*
X86550147Y-119091946D01*
X86068378Y-118770039D01*
X85500093Y-118657000D01*
X85441907Y-118657000D01*
X84873622Y-118770039D01*
X84403000Y-119084498D01*
X84403000Y-113613000D01*
X90678000Y-113613000D01*
X90949705Y-113558954D01*
X91180046Y-113405046D01*
X91333954Y-113174705D01*
X91388000Y-112903000D01*
X91388000Y-106628000D01*
X98821560Y-106628000D01*
X98821560Y-108982045D01*
X98821560Y-108982045D01*
G37*
X98821560Y-108982045D02*
X98733090Y-108844559D01*
X98520890Y-108699569D01*
X98269000Y-108648560D01*
X94769000Y-108648560D01*
X94533683Y-108692838D01*
X94317559Y-108831910D01*
X94172569Y-109044110D01*
X94121560Y-109296000D01*
X94121560Y-112796000D01*
X94165838Y-113031317D01*
X94304910Y-113247441D01*
X94517110Y-113392431D01*
X94769000Y-113443440D01*
X98269000Y-113443440D01*
X98504317Y-113399162D01*
X98720441Y-113260090D01*
X98865431Y-113047890D01*
X98916440Y-112796000D01*
X98916440Y-110109955D01*
X99004910Y-110247441D01*
X99217110Y-110392431D01*
X99469000Y-110443440D01*
X102969000Y-110443440D01*
X103204317Y-110399162D01*
X103420441Y-110260090D01*
X103565431Y-110047890D01*
X103616440Y-109796000D01*
X103616440Y-106628000D01*
X117908000Y-106628000D01*
X117908000Y-112903000D01*
X117962046Y-113174705D01*
X118115954Y-113405046D01*
X118346295Y-113558954D01*
X118618000Y-113613000D01*
X124893000Y-113613000D01*
X124893000Y-118999639D01*
X124549378Y-118770039D01*
X123981093Y-118657000D01*
X123922907Y-118657000D01*
X123354622Y-118770039D01*
X122872853Y-119091946D01*
X122550946Y-119573715D01*
X122437907Y-120142000D01*
X122550946Y-120710285D01*
X122872853Y-121192054D01*
X123202026Y-121412000D01*
X122872853Y-121631946D01*
X122550946Y-122113715D01*
X122437907Y-122682000D01*
X122550946Y-123250285D01*
X122872853Y-123732054D01*
X123202026Y-123952000D01*
X122872853Y-124171946D01*
X122550946Y-124653715D01*
X122437907Y-125222000D01*
X122550946Y-125790285D01*
X122872853Y-126272054D01*
X123202026Y-126492000D01*
X122872853Y-126711946D01*
X122550946Y-127193715D01*
X122437907Y-127762000D01*
X122550946Y-128330285D01*
X122872853Y-128812054D01*
X123202026Y-129032000D01*
X122872853Y-129251946D01*
X122550946Y-129733715D01*
X122437907Y-130302000D01*
X122550946Y-130870285D01*
X122872853Y-131352054D01*
X123202026Y-131572000D01*
X122872853Y-131791946D01*
X122550946Y-132273715D01*
X122437907Y-132842000D01*
X122550946Y-133410285D01*
X122872853Y-133892054D01*
X123202026Y-134112000D01*
X122872853Y-134331946D01*
X122550946Y-134813715D01*
X122437907Y-135382000D01*
X122550946Y-135950285D01*
X122872853Y-136432054D01*
X122914452Y-136459850D01*
X122866683Y-136468838D01*
X122650559Y-136607910D01*
X122505569Y-136820110D01*
X122454560Y-137072000D01*
X122454560Y-138772000D01*
X122498838Y-139007317D01*
X122637910Y-139223441D01*
X122850110Y-139368431D01*
X123102000Y-139419440D01*
X124802000Y-139419440D01*
X124893000Y-139402317D01*
X124893000Y-190171000D01*
X118618000Y-190171000D01*
X118346295Y-190225046D01*
X118115954Y-190378954D01*
X117962046Y-190609295D01*
X117908000Y-190881000D01*
X117908000Y-197156000D01*
X91388000Y-197156000D01*
X91388000Y-190881000D01*
X91333954Y-190609295D01*
X91180046Y-190378954D01*
X90949705Y-190225046D01*
X90678000Y-190171000D01*
X84403000Y-190171000D01*
X84403000Y-184122000D01*
X96334377Y-184122000D01*
X96515924Y-185034700D01*
X97032927Y-185808450D01*
X97806677Y-186325453D01*
X98292052Y-186422000D01*
X97806677Y-186518547D01*
X97032927Y-187035550D01*
X96515924Y-187809300D01*
X96334377Y-188722000D01*
X96515924Y-189634700D01*
X97032927Y-190408450D01*
X97806677Y-190925453D01*
X98292052Y-191022000D01*
X97806677Y-191118547D01*
X97032927Y-191635550D01*
X96515924Y-192409300D01*
X96334377Y-193322000D01*
X96515924Y-194234700D01*
X97032927Y-195008450D01*
X97806677Y-195525453D01*
X98719377Y-195707000D01*
X99322623Y-195707000D01*
X100235323Y-195525453D01*
X101009073Y-195008450D01*
X101526076Y-194234700D01*
X101707623Y-193322000D01*
X101526076Y-192409300D01*
X101009073Y-191635550D01*
X100235323Y-191118547D01*
X99749948Y-191022000D01*
X100235323Y-190925453D01*
X101009073Y-190408450D01*
X101526076Y-189634700D01*
X101707623Y-188722000D01*
X101526076Y-187809300D01*
X101009073Y-187035550D01*
X100235323Y-186518547D01*
X99749948Y-186422000D01*
X100235323Y-186325453D01*
X101009073Y-185808450D01*
X101526076Y-185034700D01*
X101707623Y-184122000D01*
X101834377Y-184122000D01*
X102015924Y-185034700D01*
X102532927Y-185808450D01*
X103306677Y-186325453D01*
X103792052Y-186422000D01*
X103306677Y-186518547D01*
X102532927Y-187035550D01*
X102015924Y-187809300D01*
X101834377Y-188722000D01*
X102015924Y-189634700D01*
X102532927Y-190408450D01*
X103306677Y-190925453D01*
X103792052Y-191022000D01*
X103306677Y-191118547D01*
X102532927Y-191635550D01*
X102015924Y-192409300D01*
X101834377Y-193322000D01*
X102015924Y-194234700D01*
X102532927Y-195008450D01*
X103306677Y-195525453D01*
X104219377Y-195707000D01*
X104822623Y-195707000D01*
X105735323Y-195525453D01*
X106509073Y-195008450D01*
X107026076Y-194234700D01*
X107056450Y-194082000D01*
X107485550Y-194082000D01*
X107515924Y-194234700D01*
X108032927Y-195008450D01*
X108806677Y-195525453D01*
X109719377Y-195707000D01*
X110322623Y-195707000D01*
X111235323Y-195525453D01*
X112009073Y-195008450D01*
X112526076Y-194234700D01*
X112707623Y-193322000D01*
X112526076Y-192409300D01*
X112009073Y-191635550D01*
X111235323Y-191118547D01*
X110749948Y-191022000D01*
X111235323Y-190925453D01*
X112009073Y-190408450D01*
X112526076Y-189634700D01*
X112707623Y-188722000D01*
X112526076Y-187809300D01*
X112009073Y-187035550D01*
X111235323Y-186518547D01*
X110749948Y-186422000D01*
X111235323Y-186325453D01*
X112009073Y-185808450D01*
X112526076Y-185034700D01*
X112707623Y-184122000D01*
X112526076Y-183209300D01*
X112009073Y-182435550D01*
X111235323Y-181918547D01*
X110322623Y-181737000D01*
X109719377Y-181737000D01*
X108806677Y-181918547D01*
X108032927Y-182435550D01*
X107515924Y-183209300D01*
X107334377Y-184122000D01*
X107515924Y-185034700D01*
X108032927Y-185808450D01*
X108806677Y-186325453D01*
X109292052Y-186422000D01*
X108806677Y-186518547D01*
X108032927Y-187035550D01*
X107515924Y-187809300D01*
X107334377Y-188722000D01*
X107515924Y-189634700D01*
X108032927Y-190408450D01*
X108806677Y-190925453D01*
X109292052Y-191022000D01*
X108806677Y-191118547D01*
X108032927Y-191635550D01*
X107515924Y-192409300D01*
X107485550Y-192562000D01*
X107056450Y-192562000D01*
X107026076Y-192409300D01*
X106509073Y-191635550D01*
X105735323Y-191118547D01*
X105249948Y-191022000D01*
X105735323Y-190925453D01*
X106509073Y-190408450D01*
X107026076Y-189634700D01*
X107207623Y-188722000D01*
X107026076Y-187809300D01*
X106509073Y-187035550D01*
X105735323Y-186518547D01*
X105249948Y-186422000D01*
X105735323Y-186325453D01*
X106509073Y-185808450D01*
X107026076Y-185034700D01*
X107207623Y-184122000D01*
X107026076Y-183209300D01*
X106509073Y-182435550D01*
X105735323Y-181918547D01*
X104822623Y-181737000D01*
X104219377Y-181737000D01*
X103306677Y-181918547D01*
X102532927Y-182435550D01*
X102015924Y-183209300D01*
X101834377Y-184122000D01*
X101707623Y-184122000D01*
X101526076Y-183209300D01*
X101009073Y-182435550D01*
X100235323Y-181918547D01*
X99322623Y-181737000D01*
X98719377Y-181737000D01*
X97806677Y-181918547D01*
X97032927Y-182435550D01*
X96515924Y-183209300D01*
X96334377Y-184122000D01*
X84403000Y-184122000D01*
X84403000Y-178688000D01*
X97410582Y-178688000D01*
X97611159Y-179696371D01*
X98182356Y-180551226D01*
X99037211Y-181122423D01*
X100045582Y-181323000D01*
X101168418Y-181323000D01*
X102176789Y-181122423D01*
X103031644Y-180551226D01*
X103303632Y-180144167D01*
X105363838Y-180144167D01*
X105505883Y-180487943D01*
X105768673Y-180751192D01*
X106112201Y-180893838D01*
X106484167Y-180894162D01*
X106827943Y-180752117D01*
X106861118Y-180719000D01*
X108149537Y-180719000D01*
X108181673Y-180751192D01*
X108525201Y-180893838D01*
X108897167Y-180894162D01*
X109240943Y-180752117D01*
X109504192Y-180489327D01*
X109646838Y-180145799D01*
X109647162Y-179773833D01*
X109505117Y-179430057D01*
X109242327Y-179166808D01*
X108898799Y-179024162D01*
X108526833Y-179023838D01*
X108183057Y-179165883D01*
X108149882Y-179199000D01*
X106861463Y-179199000D01*
X106829327Y-179166808D01*
X106485799Y-179024162D01*
X106113833Y-179023838D01*
X105770057Y-179165883D01*
X105506808Y-179428673D01*
X105364162Y-179772201D01*
X105363838Y-180144167D01*
X103303632Y-180144167D01*
X103602841Y-179696371D01*
X103803418Y-178688000D01*
X103602841Y-177679629D01*
X103031644Y-176824774D01*
X102176789Y-176253577D01*
X101168418Y-176053000D01*
X100045582Y-176053000D01*
X99037211Y-176253577D01*
X98182356Y-176824774D01*
X97611159Y-177679629D01*
X97410582Y-178688000D01*
X84403000Y-178688000D01*
X84403000Y-176022000D01*
X107705907Y-176022000D01*
X107818946Y-176590285D01*
X108140853Y-177072054D01*
X108622622Y-177393961D01*
X109190907Y-177507000D01*
X109249093Y-177507000D01*
X109817378Y-177393961D01*
X110299147Y-177072054D01*
X110621054Y-176590285D01*
X110734093Y-176022000D01*
X110621054Y-175453715D01*
X110299147Y-174971946D01*
X110257548Y-174944150D01*
X110305317Y-174935162D01*
X110521441Y-174796090D01*
X110666431Y-174583890D01*
X110717440Y-174332000D01*
X110717440Y-172632000D01*
X110673162Y-172396683D01*
X110534090Y-172180559D01*
X110321890Y-172035569D01*
X110070000Y-171984560D01*
X108370000Y-171984560D01*
X108134683Y-172028838D01*
X107918559Y-172167910D01*
X107773569Y-172380110D01*
X107722560Y-172632000D01*
X107722560Y-174332000D01*
X107766838Y-174567317D01*
X107905910Y-174783441D01*
X108118110Y-174928431D01*
X108185541Y-174942086D01*
X108140853Y-174971946D01*
X107818946Y-175453715D01*
X107705907Y-176022000D01*
X84403000Y-176022000D01*
X84403000Y-170111167D01*
X98759838Y-170111167D01*
X98901883Y-170454943D01*
X99164673Y-170718192D01*
X99508201Y-170860838D01*
X99880167Y-170861162D01*
X100223943Y-170719117D01*
X100257118Y-170686000D01*
X103323537Y-170686000D01*
X103355673Y-170718192D01*
X103699201Y-170860838D01*
X104071167Y-170861162D01*
X104414943Y-170719117D01*
X104678192Y-170456327D01*
X104820838Y-170112799D01*
X104821162Y-169740833D01*
X104679117Y-169397057D01*
X104416327Y-169133808D01*
X104072799Y-168991162D01*
X103700833Y-168990838D01*
X103357057Y-169132883D01*
X103323882Y-169166000D01*
X100257463Y-169166000D01*
X100225327Y-169133808D01*
X99881799Y-168991162D01*
X99509833Y-168990838D01*
X99166057Y-169132883D01*
X98902808Y-169395673D01*
X98760162Y-169739201D01*
X98759838Y-170111167D01*
X84403000Y-170111167D01*
X84403000Y-162688000D01*
X84433582Y-162688000D01*
X84634159Y-163696371D01*
X85205356Y-164551226D01*
X86060211Y-165122423D01*
X87068582Y-165323000D01*
X88191418Y-165323000D01*
X89199789Y-165122423D01*
X90054644Y-164551226D01*
X90625841Y-163696371D01*
X90826418Y-162688000D01*
X97410582Y-162688000D01*
X97611159Y-163696371D01*
X98182356Y-164551226D01*
X99037211Y-165122423D01*
X100045582Y-165323000D01*
X101168418Y-165323000D01*
X102176789Y-165122423D01*
X103031644Y-164551226D01*
X103599079Y-163702000D01*
X105492582Y-163702000D01*
X105693159Y-164710371D01*
X106264356Y-165565226D01*
X107119211Y-166136423D01*
X108127582Y-166337000D01*
X109250418Y-166337000D01*
X110258789Y-166136423D01*
X111113644Y-165565226D01*
X111684841Y-164710371D01*
X111885418Y-163702000D01*
X118469582Y-163702000D01*
X118670159Y-164710371D01*
X119241356Y-165565226D01*
X120096211Y-166136423D01*
X121104582Y-166337000D01*
X122227418Y-166337000D01*
X123235789Y-166136423D01*
X124090644Y-165565226D01*
X124661841Y-164710371D01*
X124862418Y-163702000D01*
X124661841Y-162693629D01*
X124090644Y-161838774D01*
X123235789Y-161267577D01*
X122227418Y-161067000D01*
X121104582Y-161067000D01*
X120096211Y-161267577D01*
X119241356Y-161838774D01*
X118670159Y-162693629D01*
X118469582Y-163702000D01*
X111885418Y-163702000D01*
X111684841Y-162693629D01*
X111113644Y-161838774D01*
X110258789Y-161267577D01*
X109250418Y-161067000D01*
X108127582Y-161067000D01*
X107119211Y-161267577D01*
X106264356Y-161838774D01*
X105693159Y-162693629D01*
X105492582Y-163702000D01*
X103599079Y-163702000D01*
X103602841Y-163696371D01*
X103803418Y-162688000D01*
X103602841Y-161679629D01*
X103031644Y-160824774D01*
X102176789Y-160253577D01*
X101168418Y-160053000D01*
X100045582Y-160053000D01*
X99037211Y-160253577D01*
X98182356Y-160824774D01*
X97611159Y-161679629D01*
X97410582Y-162688000D01*
X90826418Y-162688000D01*
X90625841Y-161679629D01*
X90054644Y-160824774D01*
X89199789Y-160253577D01*
X88191418Y-160053000D01*
X87068582Y-160053000D01*
X86060211Y-160253577D01*
X85205356Y-160824774D01*
X84634159Y-161679629D01*
X84433582Y-162688000D01*
X84403000Y-162688000D01*
X84403000Y-157284167D01*
X111332838Y-157284167D01*
X111474883Y-157627943D01*
X111737673Y-157891192D01*
X111858986Y-157941566D01*
X114219255Y-160301834D01*
X114268883Y-160421943D01*
X114531673Y-160685192D01*
X114875201Y-160827838D01*
X115247167Y-160828162D01*
X115590943Y-160686117D01*
X115854192Y-160423327D01*
X115996838Y-160079799D01*
X115997162Y-159707833D01*
X115855117Y-159364057D01*
X115592327Y-159100808D01*
X115471013Y-159050434D01*
X113110744Y-156690164D01*
X113061117Y-156570057D01*
X112798327Y-156306808D01*
X112454799Y-156164162D01*
X112082833Y-156163838D01*
X111739057Y-156305883D01*
X111475808Y-156568673D01*
X111333162Y-156912201D01*
X111332838Y-157284167D01*
X84403000Y-157284167D01*
X84403000Y-147702000D01*
X105492582Y-147702000D01*
X105693159Y-148710371D01*
X106264356Y-149565226D01*
X107119211Y-150136423D01*
X108127582Y-150337000D01*
X109250418Y-150337000D01*
X110258789Y-150136423D01*
X111113644Y-149565226D01*
X111684841Y-148710371D01*
X111885418Y-147702000D01*
X111684841Y-146693629D01*
X111113644Y-145838774D01*
X110258789Y-145267577D01*
X109250418Y-145067000D01*
X108127582Y-145067000D01*
X107119211Y-145267577D01*
X106264356Y-145838774D01*
X105693159Y-146693629D01*
X105492582Y-147702000D01*
X84403000Y-147702000D01*
X84403000Y-137892907D01*
X89574000Y-137892907D01*
X89574000Y-137951093D01*
X89687039Y-138519378D01*
X90008946Y-139001147D01*
X90490715Y-139323054D01*
X91059000Y-139436093D01*
X91627285Y-139323054D01*
X92109054Y-139001147D01*
X92136850Y-138959548D01*
X92145838Y-139007317D01*
X92284910Y-139223441D01*
X92497110Y-139368431D01*
X92749000Y-139419440D01*
X92839000Y-139419440D01*
X92839000Y-140843000D01*
X92896852Y-141133839D01*
X93061599Y-141380401D01*
X94568878Y-142887680D01*
X94568838Y-142933167D01*
X94710883Y-143276943D01*
X94973673Y-143540192D01*
X95317201Y-143682838D01*
X95689167Y-143683162D01*
X96032943Y-143541117D01*
X96296192Y-143278327D01*
X96438838Y-142934799D01*
X96439162Y-142562833D01*
X96297117Y-142219057D01*
X96034327Y-141955808D01*
X95690799Y-141813162D01*
X95643923Y-141813121D01*
X94359000Y-140528198D01*
X94359000Y-139419440D01*
X94449000Y-139419440D01*
X94684317Y-139375162D01*
X94900441Y-139236090D01*
X95045431Y-139023890D01*
X95096440Y-138772000D01*
X95096440Y-137072000D01*
X95052162Y-136836683D01*
X94913090Y-136620559D01*
X94700890Y-136475569D01*
X94449000Y-136424560D01*
X92749000Y-136424560D01*
X92513683Y-136468838D01*
X92297559Y-136607910D01*
X92152569Y-136820110D01*
X92138914Y-136887541D01*
X92109054Y-136842853D01*
X91627285Y-136520946D01*
X91059000Y-136407907D01*
X90490715Y-136520946D01*
X90008946Y-136842853D01*
X89687039Y-137324622D01*
X89574000Y-137892907D01*
X84403000Y-137892907D01*
X84403000Y-136439502D01*
X84873622Y-136753961D01*
X85441907Y-136867000D01*
X85500093Y-136867000D01*
X86068378Y-136753961D01*
X86550147Y-136432054D01*
X86872054Y-135950285D01*
X86985093Y-135382000D01*
X86872054Y-134813715D01*
X86781484Y-134678167D01*
X105363838Y-134678167D01*
X105505883Y-135021943D01*
X105768673Y-135285192D01*
X106112201Y-135427838D01*
X106484167Y-135428162D01*
X106827943Y-135286117D01*
X106861118Y-135253000D01*
X112086537Y-135253000D01*
X112118673Y-135285192D01*
X112462201Y-135427838D01*
X112834167Y-135428162D01*
X113177943Y-135286117D01*
X113441192Y-135023327D01*
X113583838Y-134679799D01*
X113584162Y-134307833D01*
X113442117Y-133964057D01*
X113179327Y-133700808D01*
X112835799Y-133558162D01*
X112463833Y-133557838D01*
X112120057Y-133699883D01*
X112086882Y-133733000D01*
X106861463Y-133733000D01*
X106829327Y-133700808D01*
X106485799Y-133558162D01*
X106113833Y-133557838D01*
X105770057Y-133699883D01*
X105506808Y-133962673D01*
X105364162Y-134306201D01*
X105363838Y-134678167D01*
X86781484Y-134678167D01*
X86550147Y-134331946D01*
X86220974Y-134112000D01*
X86550147Y-133892054D01*
X86872054Y-133410285D01*
X86985093Y-132842000D01*
X86872054Y-132273715D01*
X86550147Y-131791946D01*
X86220974Y-131572000D01*
X86550147Y-131352054D01*
X86872054Y-130870285D01*
X86985093Y-130302000D01*
X86872054Y-129733715D01*
X86550147Y-129251946D01*
X86220974Y-129032000D01*
X86550147Y-128812054D01*
X86872054Y-128330285D01*
X86985093Y-127762000D01*
X86872054Y-127193715D01*
X86638321Y-126843907D01*
X103163000Y-126843907D01*
X103163000Y-126902093D01*
X103276039Y-127470378D01*
X103597946Y-127952147D01*
X104079715Y-128274054D01*
X104648000Y-128387093D01*
X105216285Y-128274054D01*
X105698054Y-127952147D01*
X105725850Y-127910548D01*
X105734838Y-127958317D01*
X105873910Y-128174441D01*
X106086110Y-128319431D01*
X106338000Y-128370440D01*
X108038000Y-128370440D01*
X108273317Y-128326162D01*
X108489441Y-128187090D01*
X108634431Y-127974890D01*
X108685440Y-127723000D01*
X108685440Y-126335907D01*
X109513000Y-126335907D01*
X109513000Y-126394093D01*
X109626039Y-126962378D01*
X109947946Y-127444147D01*
X110429715Y-127766054D01*
X110998000Y-127879093D01*
X111566285Y-127766054D01*
X112048054Y-127444147D01*
X112075850Y-127402548D01*
X112084838Y-127450317D01*
X112223910Y-127666441D01*
X112436110Y-127811431D01*
X112688000Y-127862440D01*
X114388000Y-127862440D01*
X114623317Y-127818162D01*
X114839441Y-127679090D01*
X114984431Y-127466890D01*
X115035440Y-127215000D01*
X115035440Y-125515000D01*
X114991162Y-125279683D01*
X114852090Y-125063559D01*
X114639890Y-124918569D01*
X114388000Y-124867560D01*
X112688000Y-124867560D01*
X112452683Y-124911838D01*
X112236559Y-125050910D01*
X112091569Y-125263110D01*
X112077914Y-125330541D01*
X112048054Y-125285853D01*
X111566285Y-124963946D01*
X110998000Y-124850907D01*
X110429715Y-124963946D01*
X109947946Y-125285853D01*
X109626039Y-125767622D01*
X109513000Y-126335907D01*
X108685440Y-126335907D01*
X108685440Y-126023000D01*
X108641162Y-125787683D01*
X108502090Y-125571559D01*
X108289890Y-125426569D01*
X108038000Y-125375560D01*
X106338000Y-125375560D01*
X106102683Y-125419838D01*
X105886559Y-125558910D01*
X105741569Y-125771110D01*
X105727914Y-125838541D01*
X105698054Y-125793853D01*
X105216285Y-125471946D01*
X104648000Y-125358907D01*
X104079715Y-125471946D01*
X103597946Y-125793853D01*
X103276039Y-126275622D01*
X103163000Y-126843907D01*
X86638321Y-126843907D01*
X86550147Y-126711946D01*
X86068378Y-126390039D01*
X85500093Y-126277000D01*
X85441907Y-126277000D01*
X84873622Y-126390039D01*
X84403000Y-126704498D01*
X84403000Y-125153167D01*
X95076838Y-125153167D01*
X95218883Y-125496943D01*
X95481673Y-125760192D01*
X95825201Y-125902838D01*
X96197167Y-125903162D01*
X96540943Y-125761117D01*
X96607916Y-125694260D01*
X99800344Y-125506470D01*
X100143201Y-125648838D01*
X100515167Y-125649162D01*
X100858943Y-125507117D01*
X101122192Y-125244327D01*
X101264838Y-124900799D01*
X101265162Y-124528833D01*
X101123117Y-124185057D01*
X100860327Y-123921808D01*
X100516799Y-123779162D01*
X100174553Y-123778864D01*
X100233192Y-123720327D01*
X100375838Y-123376799D01*
X100376162Y-123004833D01*
X100234117Y-122661057D01*
X100126449Y-122553201D01*
X99360066Y-120828839D01*
X99360162Y-120718833D01*
X99218117Y-120375057D01*
X98955327Y-120111808D01*
X98611799Y-119969162D01*
X98239833Y-119968838D01*
X97896057Y-120110883D01*
X97632808Y-120373673D01*
X97490162Y-120717201D01*
X97489838Y-121089167D01*
X97631883Y-121432943D01*
X97739551Y-121540799D01*
X98505934Y-123265161D01*
X98505838Y-123375167D01*
X98647883Y-123718943D01*
X98910673Y-123982192D01*
X99024548Y-124029477D01*
X96541656Y-124175530D01*
X96198799Y-124033162D01*
X95826833Y-124032838D01*
X95483057Y-124174883D01*
X95219808Y-124437673D01*
X95077162Y-124781201D01*
X95076838Y-125153167D01*
X84403000Y-125153167D01*
X84403000Y-121199502D01*
X84873622Y-121513961D01*
X85441907Y-121627000D01*
X85500093Y-121627000D01*
X86068378Y-121513961D01*
X86550147Y-121192054D01*
X86872054Y-120710285D01*
X86985093Y-120142000D01*
X86872054Y-119573715D01*
X86550147Y-119091946D01*
X86068378Y-118770039D01*
X85500093Y-118657000D01*
X85441907Y-118657000D01*
X84873622Y-118770039D01*
X84403000Y-119084498D01*
X84403000Y-113613000D01*
X90678000Y-113613000D01*
X90949705Y-113558954D01*
X91180046Y-113405046D01*
X91333954Y-113174705D01*
X91388000Y-112903000D01*
X91388000Y-106628000D01*
X98821560Y-106628000D01*
X98821560Y-108982045D01*
M02*
