G04 #@! TF.FileFunction,Copper,L1,Top,Signal*
%FSLAX46Y46*%
G04 Gerber Fmt 4.6, Leading zero omitted, Abs format (unit mm)*
G04 Created by KiCad (PCBNEW 4.0.6) date Tuesday, 13 February 2018 'PMt' 23:33:10*
%MOMM*%
%LPD*%
G01*
G04 APERTURE LIST*
%ADD10C,0.100000*%
%ADD11C,0.150000*%
%ADD12C,1.800000*%
%ADD13C,3.000000*%
%ADD14O,5.000000X4.000000*%
%ADD15O,4.000000X3.500000*%
%ADD16R,1.700000X1.700000*%
%ADD17O,1.700000X1.700000*%
%ADD18R,1.500000X1.250000*%
%ADD19R,1.250000X1.500000*%
%ADD20R,1.200000X0.900000*%
%ADD21R,1.800000X1.800000*%
%ADD22R,0.800000X0.900000*%
%ADD23R,0.900000X0.800000*%
%ADD24R,1.500000X1.300000*%
%ADD25R,1.300000X1.500000*%
%ADD26R,1.600000X1.600000*%
%ADD27O,1.600000X1.600000*%
%ADD28R,3.500000X3.500000*%
%ADD29C,0.600000*%
%ADD30C,0.250000*%
%ADD31C,0.500000*%
G04 APERTURE END LIST*
D10*
D11*
X80772000Y-105791000D02*
X38862000Y-105791000D01*
X80772000Y-136271000D02*
X80772000Y-105791000D01*
X56896000Y-136271000D02*
X56896000Y-151511000D01*
X56896000Y-136271000D02*
X80772000Y-136271000D01*
X38862000Y-151511000D02*
X38862000Y-105791000D01*
X56896000Y-151511000D02*
X38862000Y-151511000D01*
X125603000Y-190881000D02*
X125603000Y-112903000D01*
X90678000Y-197866000D02*
X118618000Y-197866000D01*
X90678000Y-190881000D02*
X83693000Y-190881000D01*
X83693000Y-112903000D02*
X83693000Y-190881000D01*
X118618000Y-105918000D02*
X90678000Y-105918000D01*
X90678000Y-112903000D02*
X83693000Y-112903000D01*
X90678000Y-105918000D02*
X90678000Y-112903000D01*
X118618000Y-112903000D02*
X125603000Y-112903000D01*
X118618000Y-105918000D02*
X118618000Y-112903000D01*
X118618000Y-190881000D02*
X118618000Y-197866000D01*
X125603000Y-190881000D02*
X118618000Y-190881000D01*
X90678000Y-190881000D02*
X90678000Y-197866000D01*
D12*
X45419000Y-150241000D03*
X47919000Y-150241000D03*
X50419000Y-150241000D03*
D13*
X43519000Y-143241000D03*
X52319000Y-143241000D03*
D14*
X108689000Y-163702000D03*
X108689000Y-147702000D03*
X121689000Y-147702000D03*
X121666000Y-163702000D03*
D15*
X110021000Y-193322000D03*
X104521000Y-193322000D03*
X99021000Y-193322000D03*
X110021000Y-188722000D03*
X104521000Y-188722000D03*
X99021000Y-188722000D03*
X110021000Y-184122000D03*
X104521000Y-184122000D03*
X99021000Y-184122000D03*
D12*
X69168000Y-134366000D03*
X71668000Y-134366000D03*
X74168000Y-134366000D03*
D13*
X67268000Y-127366000D03*
X76068000Y-127366000D03*
D12*
X69168000Y-118872000D03*
X71668000Y-118872000D03*
X74168000Y-118872000D03*
D13*
X67268000Y-111872000D03*
X76068000Y-111872000D03*
D16*
X40513000Y-128397000D03*
D17*
X40513000Y-125857000D03*
X40513000Y-123317000D03*
X40513000Y-120777000D03*
X40513000Y-118237000D03*
X40513000Y-115697000D03*
X40513000Y-113157000D03*
X40513000Y-110617000D03*
D16*
X123952000Y-137922000D03*
D17*
X123952000Y-135382000D03*
X123952000Y-132842000D03*
X123952000Y-130302000D03*
X123952000Y-127762000D03*
X123952000Y-125222000D03*
X123952000Y-122682000D03*
X123952000Y-120142000D03*
D16*
X85471000Y-137922000D03*
D17*
X85471000Y-135382000D03*
X85471000Y-132842000D03*
X85471000Y-130302000D03*
X85471000Y-127762000D03*
X85471000Y-125222000D03*
X85471000Y-122682000D03*
X85471000Y-120142000D03*
D14*
X100607000Y-162688000D03*
X100607000Y-178688000D03*
X87607000Y-178688000D03*
X87630000Y-162688000D03*
D18*
X118217000Y-184023000D03*
X115717000Y-184023000D03*
X124059000Y-184023000D03*
X121559000Y-184023000D03*
D19*
X117729000Y-170708000D03*
X117729000Y-173208000D03*
X120650000Y-170708000D03*
X120650000Y-173208000D03*
D18*
X116606000Y-129540000D03*
X119106000Y-129540000D03*
X119106000Y-134874000D03*
X116606000Y-134874000D03*
X111105000Y-132207000D03*
X108605000Y-132207000D03*
D19*
X97790000Y-135021000D03*
X97790000Y-137521000D03*
D18*
X100818000Y-151892000D03*
X98318000Y-151892000D03*
X93238000Y-151892000D03*
X95738000Y-151892000D03*
X108605000Y-110744000D03*
X111105000Y-110744000D03*
X111105000Y-115824000D03*
X108605000Y-115824000D03*
D19*
X119888000Y-123718000D03*
X119888000Y-126218000D03*
X104902000Y-121940000D03*
X104902000Y-124440000D03*
D20*
X93091000Y-125729000D03*
X93091000Y-122429000D03*
D21*
X59182000Y-132969000D03*
D12*
X61722000Y-132969000D03*
X45419000Y-134366000D03*
X47919000Y-134366000D03*
X50419000Y-134366000D03*
D13*
X43519000Y-127366000D03*
X52319000Y-127366000D03*
D16*
X79121000Y-128397000D03*
D17*
X79121000Y-125857000D03*
X79121000Y-123317000D03*
X79121000Y-120777000D03*
X79121000Y-118237000D03*
X79121000Y-115697000D03*
X79121000Y-113157000D03*
X79121000Y-110617000D03*
D12*
X45419000Y-118872000D03*
X47919000Y-118872000D03*
X50419000Y-118872000D03*
D13*
X43519000Y-111872000D03*
X52319000Y-111872000D03*
D22*
X117155000Y-176038000D03*
X115255000Y-176038000D03*
X116205000Y-178038000D03*
D23*
X105775000Y-131887000D03*
X105775000Y-129987000D03*
X103775000Y-130937000D03*
X95488000Y-145857000D03*
X95488000Y-143957000D03*
X93488000Y-144907000D03*
D22*
X111948000Y-122190000D03*
X110048000Y-122190000D03*
X110998000Y-124190000D03*
D24*
X118317000Y-187833000D03*
X115617000Y-187833000D03*
X124159000Y-187833000D03*
X121459000Y-187833000D03*
D25*
X123063000Y-170608000D03*
X123063000Y-173308000D03*
X123063000Y-178388000D03*
X123063000Y-175688000D03*
D24*
X111205000Y-179578000D03*
X108505000Y-179578000D03*
D25*
X114681000Y-170735000D03*
X114681000Y-173435000D03*
D24*
X112221000Y-168656000D03*
X109521000Y-168656000D03*
X119206000Y-131826000D03*
X116506000Y-131826000D03*
D25*
X113792000Y-132287000D03*
X113792000Y-129587000D03*
D24*
X108251000Y-140081000D03*
X110951000Y-140081000D03*
D25*
X97790000Y-129841000D03*
X97790000Y-132541000D03*
D24*
X108505000Y-129540000D03*
X111205000Y-129540000D03*
X101045000Y-148463000D03*
X98345000Y-148463000D03*
X98345000Y-145923000D03*
X101045000Y-145923000D03*
X93138000Y-148463000D03*
X95838000Y-148463000D03*
D25*
X94996000Y-129841000D03*
X94996000Y-132541000D03*
D24*
X98345000Y-140970000D03*
X101045000Y-140970000D03*
X108505000Y-108204000D03*
X111205000Y-108204000D03*
X111205000Y-113284000D03*
X108505000Y-113284000D03*
D25*
X114935000Y-113204000D03*
X114935000Y-115904000D03*
X114935000Y-110824000D03*
X114935000Y-108124000D03*
X117602000Y-126318000D03*
X117602000Y-123618000D03*
X119888000Y-121365000D03*
X119888000Y-118665000D03*
X107569000Y-124413000D03*
X107569000Y-121713000D03*
D24*
X109681000Y-119126000D03*
X106981000Y-119126000D03*
D25*
X55245000Y-132889000D03*
X55245000Y-135589000D03*
D16*
X109220000Y-173482000D03*
D17*
X109220000Y-176022000D03*
D16*
X100838000Y-129794000D03*
D17*
X100838000Y-132334000D03*
D16*
X94488000Y-137795000D03*
D17*
X94488000Y-140335000D03*
D16*
X114935000Y-120904000D03*
D17*
X114935000Y-123444000D03*
D26*
X108331000Y-143002000D03*
D27*
X115951000Y-143002000D03*
D26*
X115824000Y-137414000D03*
D27*
X108204000Y-137414000D03*
D26*
X93218000Y-157607000D03*
D27*
X100838000Y-157607000D03*
D26*
X100838000Y-154686000D03*
D27*
X93218000Y-154686000D03*
D28*
X101219000Y-114046000D03*
X101219000Y-108046000D03*
X96519000Y-111046000D03*
D29*
X109474000Y-167132000D03*
X118491000Y-118745000D03*
X123063000Y-168656000D03*
X101092000Y-139192000D03*
X115189000Y-129540000D03*
X105537000Y-119126000D03*
X108458000Y-114554000D03*
X115062000Y-189738000D03*
X105918000Y-175387000D03*
X105791000Y-179451000D03*
X75692000Y-123190000D03*
X54102000Y-137287000D03*
X44577000Y-123317000D03*
X53340000Y-135509000D03*
X57150000Y-135509000D03*
X65786000Y-131699000D03*
X75819000Y-131699000D03*
X76962000Y-124587000D03*
X70993000Y-124587000D03*
X44577000Y-121285000D03*
X106680000Y-113411000D03*
X91313000Y-131318000D03*
D30*
X118217000Y-184023000D02*
X118217000Y-183154000D01*
X124059000Y-182987000D02*
X124059000Y-184023000D01*
X123317000Y-182245000D02*
X124059000Y-182987000D01*
X119126000Y-182245000D02*
X123317000Y-182245000D01*
X118217000Y-183154000D02*
X119126000Y-182245000D01*
X124159000Y-187833000D02*
X124159000Y-184123000D01*
X124159000Y-184123000D02*
X124059000Y-184023000D01*
X119106000Y-129540000D02*
X119106000Y-131726000D01*
X119106000Y-131726000D02*
X119206000Y-131826000D01*
X115824000Y-137414000D02*
X115824000Y-142875000D01*
X115824000Y-142875000D02*
X115951000Y-143002000D01*
X115824000Y-137414000D02*
X117983000Y-137414000D01*
X119106000Y-136291000D02*
X119106000Y-134874000D01*
X117983000Y-137414000D02*
X119106000Y-136291000D01*
X109521000Y-168656000D02*
X109521000Y-169719000D01*
X109521000Y-169719000D02*
X110537000Y-170735000D01*
X113792000Y-129587000D02*
X111252000Y-129587000D01*
X111252000Y-129587000D02*
X111205000Y-129540000D01*
X109521000Y-168656000D02*
X109521000Y-167179000D01*
X109521000Y-167179000D02*
X109474000Y-167132000D01*
X119888000Y-118665000D02*
X118571000Y-118665000D01*
X118571000Y-118665000D02*
X118491000Y-118745000D01*
X113745000Y-129540000D02*
X113792000Y-129587000D01*
X114681000Y-170735000D02*
X110537000Y-170735000D01*
X113458000Y-129921000D02*
X113792000Y-129587000D01*
X123063000Y-170608000D02*
X123063000Y-168656000D01*
X101045000Y-140970000D02*
X101045000Y-139239000D01*
X101045000Y-139239000D02*
X101092000Y-139192000D01*
X113792000Y-129587000D02*
X115142000Y-129587000D01*
X115142000Y-129587000D02*
X115189000Y-129540000D01*
X113745000Y-129540000D02*
X113792000Y-129587000D01*
X106981000Y-119126000D02*
X105537000Y-119126000D01*
X108605000Y-115824000D02*
X108458000Y-114554000D01*
X115617000Y-187833000D02*
X115617000Y-189183000D01*
X115617000Y-189183000D02*
X115062000Y-189738000D01*
X101045000Y-145923000D02*
X101045000Y-140970000D01*
X111205000Y-113284000D02*
X111205000Y-115724000D01*
X111205000Y-115724000D02*
X111385000Y-115904000D01*
X111385000Y-115904000D02*
X114935000Y-115904000D01*
D31*
X103886000Y-171196000D02*
X103886000Y-175514000D01*
X107950000Y-179578000D02*
X103886000Y-175514000D01*
X89789000Y-130810000D02*
X90758000Y-129841000D01*
X89789000Y-157099000D02*
X89789000Y-130810000D01*
X90758000Y-129841000D02*
X93091000Y-129841000D01*
X103886000Y-171196000D02*
X89789000Y-157099000D01*
D30*
X108505000Y-179578000D02*
X107950000Y-179578000D01*
X108505000Y-179578000D02*
X108505000Y-180133000D01*
D31*
X108505000Y-180133000D02*
X109601000Y-181229000D01*
X109601000Y-181229000D02*
X111506000Y-181229000D01*
X111506000Y-181229000D02*
X112903000Y-182626000D01*
X112903000Y-182626000D02*
X112903000Y-187833000D01*
X112903000Y-187833000D02*
X112014000Y-188722000D01*
X112014000Y-188722000D02*
X110021000Y-188722000D01*
X97790000Y-129841000D02*
X97790000Y-129286000D01*
X97790000Y-129286000D02*
X99060000Y-128016000D01*
X93091000Y-125729000D02*
X93091000Y-129841000D01*
X94996000Y-129841000D02*
X97790000Y-129841000D01*
X93091000Y-129841000D02*
X94996000Y-129841000D01*
X93092000Y-125730000D02*
X93091000Y-125729000D01*
X92964000Y-125856000D02*
X93091000Y-125729000D01*
X107569000Y-128016000D02*
X107569000Y-124413000D01*
X115904000Y-128016000D02*
X107569000Y-128016000D01*
X107569000Y-128016000D02*
X99060000Y-128016000D01*
X107569000Y-124413000D02*
X107569000Y-124460000D01*
X107268000Y-124714000D02*
X107569000Y-124413000D01*
X115904000Y-128016000D02*
X117602000Y-126318000D01*
D30*
X97790000Y-129841000D02*
X98378000Y-129841000D01*
X97790000Y-129841000D02*
X97790000Y-129493000D01*
X107569000Y-124413000D02*
X107649000Y-124413000D01*
X104521000Y-188722000D02*
X105029000Y-188722000D01*
X105029000Y-188722000D02*
X107188000Y-186563000D01*
X104521000Y-151870000D02*
X108689000Y-147702000D01*
X104521000Y-167767000D02*
X104521000Y-151870000D01*
X105918000Y-169164000D02*
X104521000Y-167767000D01*
X105918000Y-175387000D02*
X105918000Y-169164000D01*
X107188000Y-180848000D02*
X105791000Y-179451000D01*
X107188000Y-186563000D02*
X107188000Y-180848000D01*
X104521000Y-188722000D02*
X105410000Y-188722000D01*
X104521000Y-188722000D02*
X104267000Y-188722000D01*
X99021000Y-188722000D02*
X97409000Y-188722000D01*
X97409000Y-188722000D02*
X94996000Y-186309000D01*
X94996000Y-186309000D02*
X94996000Y-181102000D01*
X94996000Y-181102000D02*
X97410000Y-178688000D01*
X97410000Y-178688000D02*
X100607000Y-178688000D01*
X100607000Y-178688000D02*
X100607000Y-179474000D01*
X100607000Y-178688000D02*
X102361000Y-178688000D01*
X91503500Y-124523500D02*
X104818500Y-124523500D01*
X104818500Y-124523500D02*
X104902000Y-124440000D01*
X88265000Y-127762000D02*
X85471000Y-127762000D01*
X91503500Y-124523500D02*
X88265000Y-127762000D01*
X85725000Y-127762000D02*
X85471000Y-127762000D01*
X123952000Y-125222000D02*
X122555000Y-125222000D01*
X121559000Y-126218000D02*
X119888000Y-126218000D01*
X122555000Y-125222000D02*
X121559000Y-126218000D01*
X120650000Y-170708000D02*
X120650000Y-168402000D01*
X122936000Y-132842000D02*
X121412000Y-134366000D01*
X121412000Y-134366000D02*
X121412000Y-143129000D01*
X121412000Y-143129000D02*
X117729000Y-146812000D01*
X117729000Y-146812000D02*
X117729000Y-165481000D01*
X122936000Y-132842000D02*
X123825000Y-132842000D01*
X117729000Y-165481000D02*
X120650000Y-168402000D01*
X120122000Y-170708000D02*
X120650000Y-170708000D01*
X120650000Y-170708000D02*
X120650000Y-170180000D01*
X116606000Y-129540000D02*
X116713000Y-129540000D01*
X116713000Y-129540000D02*
X118999000Y-127762000D01*
X116606000Y-129540000D02*
X116606000Y-129393000D01*
X118999000Y-127762000D02*
X123825000Y-127762000D01*
X123825000Y-122682000D02*
X122682000Y-122682000D01*
X116760000Y-113204000D02*
X114935000Y-113204000D01*
X121793000Y-118237000D02*
X116760000Y-113204000D01*
X121793000Y-121793000D02*
X121793000Y-118237000D01*
X122682000Y-122682000D02*
X121793000Y-121793000D01*
X114935000Y-113204000D02*
X114982000Y-113204000D01*
X123952000Y-122682000D02*
X123825000Y-122682000D01*
X123952000Y-120142000D02*
X123952000Y-116586000D01*
X116539000Y-110824000D02*
X114935000Y-110824000D01*
X117348000Y-111633000D02*
X116539000Y-110824000D01*
X117348000Y-112522000D02*
X117348000Y-111633000D01*
X118999000Y-114173000D02*
X117348000Y-112522000D01*
X121539000Y-114173000D02*
X118999000Y-114173000D01*
X123952000Y-116586000D02*
X121539000Y-114173000D01*
X114935000Y-110824000D02*
X115269000Y-110824000D01*
X110021000Y-193322000D02*
X110021000Y-193763000D01*
X110021000Y-193763000D02*
X107569000Y-196215000D01*
X107569000Y-196215000D02*
X97409000Y-196215000D01*
X97409000Y-196215000D02*
X92329000Y-191135000D01*
X92329000Y-191135000D02*
X92329000Y-162179000D01*
X92329000Y-162179000D02*
X87630000Y-157480000D01*
X87630000Y-157480000D02*
X87630000Y-135890000D01*
X87630000Y-135890000D02*
X87122000Y-135382000D01*
X87122000Y-135382000D02*
X85471000Y-135382000D01*
X85471000Y-130302000D02*
X86614000Y-130302000D01*
X96802000Y-193322000D02*
X99021000Y-193322000D01*
X93980000Y-190500000D02*
X96802000Y-193322000D01*
X93980000Y-162687000D02*
X93980000Y-190500000D01*
X88519000Y-157226000D02*
X93980000Y-162687000D01*
X88519000Y-132207000D02*
X88519000Y-157226000D01*
X86614000Y-130302000D02*
X88519000Y-132207000D01*
X85471000Y-130302000D02*
X86106000Y-130302000D01*
X112221000Y-168656000D02*
X113284000Y-168656000D01*
X116586000Y-165354000D02*
X116586000Y-146685000D01*
X113284000Y-168656000D02*
X116586000Y-165354000D01*
X120777000Y-133170706D02*
X123825000Y-130302000D01*
X120777000Y-142494000D02*
X120777000Y-133170706D01*
X116586000Y-146685000D02*
X120777000Y-142494000D01*
X97790000Y-137521000D02*
X102215000Y-137521000D01*
X103124000Y-148463000D02*
X101045000Y-148463000D01*
X103632000Y-147955000D02*
X103124000Y-148463000D01*
X103632000Y-138938000D02*
X103632000Y-147955000D01*
X102215000Y-137521000D02*
X103632000Y-138938000D01*
X101045000Y-148463000D02*
X101727000Y-148463000D01*
X95488000Y-145857000D02*
X98279000Y-145857000D01*
X98279000Y-145857000D02*
X98345000Y-145923000D01*
X98318000Y-151892000D02*
X95845000Y-151785000D01*
X95845000Y-151785000D02*
X95738000Y-151892000D01*
X98345000Y-148463000D02*
X95838000Y-148463000D01*
X98345000Y-145923000D02*
X98345000Y-148463000D01*
X95758000Y-151912000D02*
X95838000Y-151832000D01*
X95838000Y-151832000D02*
X95838000Y-148463000D01*
X119888000Y-121365000D02*
X119888000Y-123718000D01*
X117602000Y-123618000D02*
X119788000Y-123618000D01*
X119788000Y-123618000D02*
X119888000Y-123718000D01*
X111948000Y-122190000D02*
X117602000Y-122190000D01*
X117602000Y-123618000D02*
X117602000Y-122190000D01*
X120001000Y-121478000D02*
X119888000Y-121365000D01*
X119638000Y-123968000D02*
X119988000Y-123618000D01*
X93091000Y-122429000D02*
X93091000Y-108966000D01*
X93091000Y-108966000D02*
X94011000Y-108046000D01*
X94011000Y-108046000D02*
X101219000Y-108046000D01*
X93091000Y-122429000D02*
X93091000Y-122047000D01*
X55245000Y-132889000D02*
X59102000Y-132889000D01*
X59102000Y-132889000D02*
X59182000Y-132969000D01*
X110021000Y-184122000D02*
X110021000Y-183300000D01*
X69168000Y-134366000D02*
X69168000Y-132508000D01*
X71628000Y-127254000D02*
X75692000Y-123190000D01*
X71628000Y-130048000D02*
X71628000Y-127254000D01*
X69168000Y-132508000D02*
X71628000Y-130048000D01*
X79121000Y-120777000D02*
X78359000Y-120777000D01*
X78359000Y-120777000D02*
X77089000Y-122047000D01*
X77089000Y-122047000D02*
X77089000Y-122936000D01*
X77089000Y-122936000D02*
X73406000Y-126619000D01*
X73406000Y-126619000D02*
X73406000Y-130429000D01*
X73406000Y-130429000D02*
X74168000Y-131191000D01*
X74168000Y-131191000D02*
X74168000Y-134366000D01*
X79121000Y-118237000D02*
X79121000Y-118364000D01*
X79121000Y-118364000D02*
X70358000Y-127127000D01*
X70358000Y-127127000D02*
X70358000Y-129667000D01*
X70358000Y-129667000D02*
X67564000Y-132461000D01*
X67564000Y-132461000D02*
X67564000Y-135255000D01*
X67564000Y-135255000D02*
X68072000Y-135763000D01*
X68072000Y-135763000D02*
X70271000Y-135763000D01*
X70271000Y-135763000D02*
X71668000Y-134366000D01*
X71668000Y-118872000D02*
X71668000Y-120309000D01*
X78232000Y-115697000D02*
X79121000Y-115697000D01*
X76835000Y-117094000D02*
X78232000Y-115697000D01*
X76835000Y-119253000D02*
X76835000Y-117094000D01*
X75184000Y-120904000D02*
X76835000Y-119253000D01*
X72263000Y-120904000D02*
X75184000Y-120904000D01*
X71668000Y-120309000D02*
X72263000Y-120904000D01*
X55245000Y-135589000D02*
X55245000Y-136144000D01*
X55245000Y-136144000D02*
X54102000Y-137287000D01*
X47919000Y-150241000D02*
X47919000Y-143550000D01*
X46990000Y-125730000D02*
X44577000Y-123317000D01*
X46990000Y-128651000D02*
X46990000Y-125730000D01*
X42164000Y-133477000D02*
X46990000Y-128651000D01*
X42164000Y-137795000D02*
X42164000Y-133477000D01*
X47919000Y-143550000D02*
X42164000Y-137795000D01*
X45419000Y-150241000D02*
X44450000Y-150241000D01*
X42037000Y-115697000D02*
X40513000Y-115697000D01*
X43434000Y-117094000D02*
X42037000Y-115697000D01*
X43434000Y-123571000D02*
X43434000Y-117094000D01*
X46101000Y-126238000D02*
X43434000Y-123571000D01*
X46101000Y-128270000D02*
X46101000Y-126238000D01*
X41021000Y-133350000D02*
X46101000Y-128270000D01*
X41021000Y-146812000D02*
X41021000Y-133350000D01*
X44450000Y-150241000D02*
X41021000Y-146812000D01*
X123952000Y-137922000D02*
X123952000Y-139700000D01*
X123952000Y-139700000D02*
X125222000Y-140970000D01*
X116332000Y-181229000D02*
X123952000Y-181229000D01*
X125222000Y-179959000D02*
X125222000Y-140970000D01*
X123952000Y-181229000D02*
X125222000Y-179959000D01*
X115717000Y-181844000D02*
X115717000Y-184023000D01*
X116332000Y-181229000D02*
X115717000Y-181844000D01*
X124714000Y-179070000D02*
X123571000Y-180213000D01*
X115189000Y-180213000D02*
X123571000Y-180213000D01*
X113919000Y-184912000D02*
X113919000Y-181483000D01*
X114808000Y-185801000D02*
X113919000Y-184912000D01*
X120269000Y-185801000D02*
X114808000Y-185801000D01*
X120797000Y-185273000D02*
X120269000Y-185801000D01*
X121559000Y-184023000D02*
X120797000Y-185273000D01*
X113919000Y-181483000D02*
X115189000Y-180213000D01*
X124714000Y-179070000D02*
X124714000Y-175641000D01*
X117155000Y-176038000D02*
X122713000Y-176038000D01*
X122713000Y-176038000D02*
X123063000Y-175688000D01*
X117155000Y-176038000D02*
X117155000Y-175326000D01*
X117729000Y-174752000D02*
X117729000Y-173208000D01*
X117155000Y-175326000D02*
X117729000Y-174752000D01*
X123063000Y-175688000D02*
X124714000Y-175688000D01*
X124714000Y-175688000D02*
X124714000Y-175641000D01*
X124714000Y-142240000D02*
X124714000Y-175641000D01*
X122682000Y-135382000D02*
X123952000Y-135382000D01*
X121920000Y-136144000D02*
X122682000Y-135382000D01*
X121920000Y-139446000D02*
X121920000Y-136144000D01*
X124714000Y-142240000D02*
X121920000Y-139446000D01*
X123063000Y-175688000D02*
X123063000Y-173308000D01*
X123063000Y-173308000D02*
X122963000Y-173208000D01*
X116606000Y-134874000D02*
X116606000Y-131926000D01*
X116606000Y-131926000D02*
X116506000Y-131826000D01*
X113792000Y-132287000D02*
X113792000Y-137240000D01*
X113792000Y-137240000D02*
X110951000Y-140081000D01*
X105775000Y-131887000D02*
X106868000Y-131887000D01*
X107188000Y-132207000D02*
X108605000Y-132207000D01*
X106868000Y-131887000D02*
X107188000Y-132207000D01*
X116506000Y-131826000D02*
X115824000Y-131826000D01*
X115824000Y-131826000D02*
X115871000Y-132287000D01*
X115871000Y-132287000D02*
X113792000Y-132287000D01*
X108605000Y-132207000D02*
X108605000Y-131298000D01*
X112442000Y-130937000D02*
X113792000Y-132287000D01*
X108966000Y-130937000D02*
X112442000Y-130937000D01*
X108605000Y-131298000D02*
X108966000Y-130937000D01*
X116606000Y-134874000D02*
X116479000Y-134894000D01*
X105791000Y-131903000D02*
X105775000Y-131887000D01*
X113872000Y-132207000D02*
X113792000Y-132287000D01*
X113872000Y-132287000D02*
X113792000Y-132287000D01*
X100838000Y-154686000D02*
X100838000Y-151912000D01*
X100838000Y-151912000D02*
X100818000Y-151892000D01*
X100838000Y-154686000D02*
X100838000Y-157607000D01*
X100838000Y-151912000D02*
X100818000Y-151892000D01*
X114935000Y-108124000D02*
X111285000Y-108124000D01*
X111285000Y-108124000D02*
X111105000Y-108304000D01*
X111105000Y-108304000D02*
X111105000Y-110744000D01*
X79121000Y-128397000D02*
X75819000Y-131699000D01*
X45419000Y-135589000D02*
X45419000Y-134366000D01*
X45974000Y-136144000D02*
X45419000Y-135589000D01*
X52705000Y-136144000D02*
X45974000Y-136144000D01*
X53340000Y-135509000D02*
X52705000Y-136144000D01*
X61976000Y-135509000D02*
X57150000Y-135509000D01*
X65786000Y-131699000D02*
X61976000Y-135509000D01*
X50419000Y-134366000D02*
X50419000Y-134112000D01*
X50419000Y-134112000D02*
X59944000Y-124587000D01*
X78232000Y-125857000D02*
X79121000Y-125857000D01*
X76962000Y-124587000D02*
X78232000Y-125857000D01*
X59944000Y-124587000D02*
X70993000Y-124587000D01*
X47919000Y-134366000D02*
X50419000Y-134366000D01*
X79121000Y-113157000D02*
X77978000Y-113157000D01*
X74168000Y-116967000D02*
X74168000Y-118872000D01*
X77978000Y-113157000D02*
X74168000Y-116967000D01*
X79121000Y-110617000D02*
X79121000Y-110490000D01*
X79121000Y-110490000D02*
X77851000Y-109220000D01*
X77851000Y-109220000D02*
X74295000Y-109220000D01*
X74295000Y-109220000D02*
X69168000Y-114347000D01*
X69168000Y-114347000D02*
X69168000Y-118872000D01*
X50419000Y-150241000D02*
X50419000Y-148971000D01*
X47879000Y-124587000D02*
X44577000Y-121285000D01*
X47879000Y-129159000D02*
X47879000Y-124587000D01*
X43307000Y-133731000D02*
X47879000Y-129159000D01*
X43307000Y-136906000D02*
X43307000Y-133731000D01*
X49276000Y-142875000D02*
X43307000Y-136906000D01*
X49276000Y-147828000D02*
X49276000Y-142875000D01*
X50419000Y-148971000D02*
X49276000Y-147828000D01*
X45419000Y-118872000D02*
X45419000Y-120476000D01*
X45419000Y-120476000D02*
X45593000Y-120650000D01*
X46101000Y-121158000D02*
X45593000Y-120650000D01*
X45593000Y-120650000D02*
X45419000Y-120476000D01*
X40513000Y-110617000D02*
X40513000Y-110363000D01*
X40513000Y-110363000D02*
X42926000Y-107950000D01*
X53340000Y-121158000D02*
X46101000Y-121158000D01*
X56134000Y-118364000D02*
X53340000Y-121158000D01*
X56134000Y-109855000D02*
X56134000Y-118364000D01*
X54229000Y-107950000D02*
X56134000Y-109855000D01*
X42926000Y-107950000D02*
X54229000Y-107950000D01*
X108505000Y-108204000D02*
X107188000Y-108204000D01*
X88138000Y-120142000D02*
X85471000Y-120142000D01*
X91694000Y-123698000D02*
X88138000Y-120142000D01*
X97028000Y-123698000D02*
X91694000Y-123698000D01*
X104394000Y-116332000D02*
X97028000Y-123698000D01*
X104394000Y-110998000D02*
X104394000Y-116332000D01*
X107188000Y-108204000D02*
X104394000Y-110998000D01*
X85471000Y-120142000D02*
X85471000Y-120015000D01*
X104521000Y-193322000D02*
X104521000Y-193294000D01*
X104521000Y-193294000D02*
X106807000Y-191008000D01*
X118317000Y-189277000D02*
X118317000Y-187833000D01*
X116586000Y-191008000D02*
X118317000Y-189277000D01*
X106807000Y-191008000D02*
X116586000Y-191008000D01*
X121459000Y-187833000D02*
X118317000Y-187833000D01*
X40513000Y-113157000D02*
X40894000Y-113157000D01*
X40894000Y-113157000D02*
X43180000Y-115443000D01*
X43180000Y-115443000D02*
X46736000Y-115443000D01*
X46736000Y-115443000D02*
X47919000Y-116626000D01*
X47919000Y-116626000D02*
X47919000Y-118872000D01*
X111205000Y-179578000D02*
X114665000Y-179578000D01*
X114665000Y-179578000D02*
X116205000Y-178038000D01*
X120650000Y-173208000D02*
X120229000Y-173208000D01*
X120229000Y-173208000D02*
X117729000Y-170708000D01*
X116205000Y-178038000D02*
X109839000Y-178038000D01*
X109220000Y-177419000D02*
X109220000Y-176022000D01*
X109839000Y-178038000D02*
X109220000Y-177419000D01*
X116205000Y-178038000D02*
X116205000Y-171069000D01*
X116566000Y-170708000D02*
X117729000Y-170708000D01*
X116205000Y-171069000D02*
X116566000Y-170708000D01*
X109220000Y-176022000D02*
X109220000Y-176149000D01*
X117455000Y-170708000D02*
X117729000Y-170708000D01*
X116205000Y-178038000D02*
X122713000Y-178038000D01*
X122713000Y-178038000D02*
X123063000Y-178388000D01*
X111105000Y-132207000D02*
X111105000Y-134513000D01*
X111105000Y-134513000D02*
X110998000Y-134620000D01*
X110998000Y-134620000D02*
X108204000Y-137414000D01*
X108204000Y-137414000D02*
X110871000Y-134747000D01*
X108204000Y-137414000D02*
X108204000Y-140034000D01*
X108204000Y-140034000D02*
X108331000Y-140161000D01*
X108331000Y-140161000D02*
X108331000Y-143002000D01*
X107743000Y-137508000D02*
X107823000Y-137588000D01*
X108251000Y-140081000D02*
X108251000Y-140128000D01*
X108458000Y-143510000D02*
X107950000Y-143002000D01*
X108251000Y-140081000D02*
X108251000Y-139620000D01*
X108251000Y-140509000D02*
X108251000Y-140081000D01*
X103775000Y-130937000D02*
X103775000Y-134620000D01*
X103775000Y-134620000D02*
X103759000Y-134620000D01*
X110998000Y-132314000D02*
X111105000Y-132207000D01*
X97790000Y-135021000D02*
X100310000Y-135021000D01*
X100711000Y-134620000D02*
X103759000Y-134620000D01*
X103759000Y-134620000D02*
X110998000Y-134620000D01*
X100310000Y-135021000D02*
X100711000Y-134620000D01*
X97790000Y-132541000D02*
X100631000Y-132541000D01*
X97790000Y-132541000D02*
X97790000Y-135021000D01*
X97690000Y-132441000D02*
X97790000Y-132541000D01*
X93218000Y-157607000D02*
X93218000Y-154686000D01*
X93218000Y-154686000D02*
X93238000Y-154666000D01*
X93238000Y-154666000D02*
X93238000Y-151892000D01*
X91313000Y-134239000D02*
X91313000Y-131318000D01*
X106807000Y-113284000D02*
X108505000Y-113284000D01*
X106680000Y-113411000D02*
X106807000Y-113284000D01*
X91313000Y-147447000D02*
X91313000Y-134239000D01*
X91313000Y-134239000D02*
X91313000Y-134112000D01*
X92329000Y-148463000D02*
X91313000Y-147447000D01*
X93138000Y-148463000D02*
X92329000Y-148463000D01*
X92884000Y-132541000D02*
X94996000Y-132541000D01*
X91313000Y-134112000D02*
X92884000Y-132541000D01*
X93488000Y-144907000D02*
X93488000Y-148113000D01*
X93488000Y-148113000D02*
X93138000Y-148463000D01*
X94488000Y-140335000D02*
X93472000Y-141351000D01*
X93472000Y-141351000D02*
X93472000Y-144891000D01*
X93472000Y-144891000D02*
X93488000Y-144907000D01*
X94996000Y-132461000D02*
X94996000Y-132541000D01*
X95114351Y-132342649D02*
X94996000Y-132541000D01*
X93238000Y-151892000D02*
X93238000Y-153905000D01*
X93238000Y-153905000D02*
X92838000Y-154305000D01*
X93138000Y-148463000D02*
X93138000Y-151792000D01*
X93138000Y-151792000D02*
X92838000Y-152092000D01*
X93488000Y-148113000D02*
X93138000Y-148463000D01*
X108605000Y-110744000D02*
X108605000Y-113184000D01*
X108605000Y-113184000D02*
X108505000Y-113284000D01*
X107569000Y-121713000D02*
X107616000Y-121713000D01*
X107616000Y-121713000D02*
X110093000Y-124190000D01*
X110093000Y-124190000D02*
X110998000Y-124190000D01*
X104902000Y-121940000D02*
X107342000Y-121940000D01*
X107342000Y-121940000D02*
X107569000Y-121713000D01*
X110998000Y-124190000D02*
X114189000Y-124190000D01*
X114189000Y-124190000D02*
X114935000Y-123444000D01*
X107569000Y-121713000D02*
X107997000Y-121713000D01*
X110728000Y-124460000D02*
X110998000Y-124190000D01*
X104802000Y-121840000D02*
X104902000Y-121940000D01*
X115255000Y-176038000D02*
X115255000Y-175326000D01*
X114681000Y-174752000D02*
X114681000Y-173435000D01*
X115255000Y-175326000D02*
X114681000Y-174752000D01*
X115255000Y-176038000D02*
X114951000Y-176038000D01*
X114681000Y-173435000D02*
X115015000Y-173435000D01*
X109220000Y-173482000D02*
X114634000Y-173482000D01*
X114634000Y-173482000D02*
X114681000Y-173435000D01*
X114681000Y-173435000D02*
X114761000Y-173435000D01*
X105775000Y-129987000D02*
X101031000Y-129987000D01*
X101031000Y-129987000D02*
X100838000Y-129794000D01*
X105775000Y-129987000D02*
X106868000Y-129987000D01*
X107315000Y-129540000D02*
X108505000Y-129540000D01*
X106868000Y-129987000D02*
X107315000Y-129540000D01*
X105582000Y-129794000D02*
X105775000Y-129987000D01*
X105709000Y-129921000D02*
X105775000Y-129987000D01*
X108439000Y-129606000D02*
X108505000Y-129540000D01*
X98345000Y-140970000D02*
X98345000Y-142955000D01*
X98345000Y-142955000D02*
X97343000Y-143957000D01*
X96139000Y-138303000D02*
X96139000Y-142367000D01*
X95488000Y-143018000D02*
X95488000Y-143957000D01*
X96139000Y-142367000D02*
X95488000Y-143018000D01*
X94488000Y-137795000D02*
X95631000Y-137795000D01*
X95631000Y-137795000D02*
X96139000Y-138303000D01*
X95488000Y-143957000D02*
X97343000Y-143957000D01*
X94488000Y-137795000D02*
X95123000Y-137795000D01*
X98279000Y-141036000D02*
X98345000Y-140970000D01*
X109681000Y-119126000D02*
X113157000Y-119126000D01*
X113157000Y-119126000D02*
X114935000Y-120904000D01*
X110048000Y-122190000D02*
X110048000Y-119493000D01*
X110048000Y-119493000D02*
X109681000Y-119126000D01*
M02*
