G04 #@! TF.FileFunction,Copper,L1,Top,Signal*
%FSLAX46Y46*%
G04 Gerber Fmt 4.6, Leading zero omitted, Abs format (unit mm)*
G04 Created by KiCad (PCBNEW 4.0.6) date Monday, 12 February 2018 'AMt' 00:03:10*
%MOMM*%
%LPD*%
G01*
G04 APERTURE LIST*
%ADD10C,0.100000*%
%ADD11C,0.150000*%
%ADD12C,1.800000*%
%ADD13C,3.000000*%
%ADD14O,5.000000X4.000000*%
%ADD15O,4.000000X3.500000*%
%ADD16R,1.700000X1.700000*%
%ADD17O,1.700000X1.700000*%
%ADD18R,1.500000X1.250000*%
%ADD19R,1.250000X1.500000*%
%ADD20R,1.200000X0.900000*%
%ADD21R,0.900000X1.200000*%
%ADD22R,1.800000X1.800000*%
%ADD23R,0.800000X0.900000*%
%ADD24R,0.900000X0.800000*%
%ADD25R,1.500000X1.300000*%
%ADD26R,1.300000X1.500000*%
%ADD27R,3.500000X3.500000*%
%ADD28C,0.600000*%
%ADD29C,0.250000*%
%ADD30C,0.500000*%
G04 APERTURE END LIST*
D10*
D11*
X80772000Y-105791000D02*
X38862000Y-105791000D01*
X80772000Y-136271000D02*
X80772000Y-105791000D01*
X56896000Y-136271000D02*
X56896000Y-151511000D01*
X56896000Y-136271000D02*
X80772000Y-136271000D01*
X38862000Y-151511000D02*
X38862000Y-105791000D01*
X56896000Y-151511000D02*
X38862000Y-151511000D01*
X125603000Y-190881000D02*
X125603000Y-112903000D01*
X90678000Y-197866000D02*
X118618000Y-197866000D01*
X90678000Y-190881000D02*
X83693000Y-190881000D01*
X83693000Y-112903000D02*
X83693000Y-190881000D01*
X118618000Y-105918000D02*
X90678000Y-105918000D01*
X90678000Y-112903000D02*
X83693000Y-112903000D01*
X90678000Y-105918000D02*
X90678000Y-112903000D01*
X118618000Y-112903000D02*
X125603000Y-112903000D01*
X118618000Y-105918000D02*
X118618000Y-112903000D01*
X118618000Y-190881000D02*
X118618000Y-197866000D01*
X125603000Y-190881000D02*
X118618000Y-190881000D01*
X90678000Y-190881000D02*
X90678000Y-197866000D01*
D12*
X45419000Y-150241000D03*
X47919000Y-150241000D03*
X50419000Y-150241000D03*
D13*
X43519000Y-143241000D03*
X52319000Y-143241000D03*
D14*
X108689000Y-163702000D03*
X108689000Y-147702000D03*
X121689000Y-147702000D03*
X121666000Y-163702000D03*
D15*
X99021000Y-184122000D03*
X104521000Y-184122000D03*
X110021000Y-184122000D03*
X99021000Y-188722000D03*
X104521000Y-188722000D03*
X110021000Y-188722000D03*
X99021000Y-193322000D03*
X104521000Y-193322000D03*
X110021000Y-193322000D03*
D12*
X69168000Y-134366000D03*
X71668000Y-134366000D03*
X74168000Y-134366000D03*
D13*
X67268000Y-127366000D03*
X76068000Y-127366000D03*
D12*
X69168000Y-118872000D03*
X71668000Y-118872000D03*
X74168000Y-118872000D03*
D13*
X67268000Y-111872000D03*
X76068000Y-111872000D03*
D16*
X40513000Y-128397000D03*
D17*
X40513000Y-125857000D03*
X40513000Y-123317000D03*
X40513000Y-120777000D03*
X40513000Y-118237000D03*
X40513000Y-115697000D03*
X40513000Y-113157000D03*
X40513000Y-110617000D03*
D16*
X123952000Y-137922000D03*
D17*
X123952000Y-135382000D03*
X123952000Y-132842000D03*
X123952000Y-130302000D03*
X123952000Y-127762000D03*
X123952000Y-125222000D03*
X123952000Y-122682000D03*
X123952000Y-120142000D03*
D16*
X85471000Y-137922000D03*
D17*
X85471000Y-135382000D03*
X85471000Y-132842000D03*
X85471000Y-130302000D03*
X85471000Y-127762000D03*
X85471000Y-125222000D03*
X85471000Y-122682000D03*
X85471000Y-120142000D03*
D14*
X100607000Y-162688000D03*
X100607000Y-178688000D03*
X87607000Y-178688000D03*
X87630000Y-162688000D03*
D18*
X118217000Y-184023000D03*
X115717000Y-184023000D03*
X124059000Y-184023000D03*
X121559000Y-184023000D03*
D19*
X117729000Y-170708000D03*
X117729000Y-173208000D03*
D18*
X123424000Y-168656000D03*
X120924000Y-168656000D03*
X116479000Y-129540000D03*
X118979000Y-129540000D03*
D19*
X115189000Y-137394000D03*
X115189000Y-134894000D03*
D18*
X108819000Y-132715000D03*
X106319000Y-132715000D03*
D19*
X99441000Y-135148000D03*
X99441000Y-137648000D03*
X97663000Y-154285000D03*
X97663000Y-151785000D03*
D18*
X92222000Y-151892000D03*
X94722000Y-151892000D03*
X108605000Y-110744000D03*
X111105000Y-110744000D03*
X111105000Y-115824000D03*
X108605000Y-115824000D03*
D19*
X119888000Y-121940000D03*
X119888000Y-124440000D03*
X103886000Y-120543000D03*
X103886000Y-123043000D03*
D20*
X93091000Y-120522000D03*
X93091000Y-117222000D03*
X107442000Y-135891000D03*
X107442000Y-139191000D03*
X111379000Y-139191000D03*
X111379000Y-135891000D03*
D21*
X91822000Y-156591000D03*
X95122000Y-156591000D03*
X95122000Y-154305000D03*
X91822000Y-154305000D03*
D22*
X59182000Y-132969000D03*
D12*
X61722000Y-132969000D03*
X45419000Y-134366000D03*
X47919000Y-134366000D03*
X50419000Y-134366000D03*
D13*
X43519000Y-127366000D03*
X52319000Y-127366000D03*
D16*
X79121000Y-128397000D03*
D17*
X79121000Y-125857000D03*
X79121000Y-123317000D03*
X79121000Y-120777000D03*
X79121000Y-118237000D03*
X79121000Y-115697000D03*
X79121000Y-113157000D03*
X79121000Y-110617000D03*
D12*
X45419000Y-118872000D03*
X47919000Y-118872000D03*
X50419000Y-118872000D03*
D13*
X43519000Y-111872000D03*
X52319000Y-111872000D03*
D23*
X117155000Y-176038000D03*
X115255000Y-176038000D03*
X116205000Y-178038000D03*
D24*
X103489000Y-131506000D03*
X103489000Y-129606000D03*
X101489000Y-130556000D03*
X94472000Y-144714000D03*
X94472000Y-142814000D03*
X92472000Y-143764000D03*
D23*
X111948000Y-122190000D03*
X110048000Y-122190000D03*
X110998000Y-124190000D03*
D25*
X118317000Y-187833000D03*
X115617000Y-187833000D03*
X124159000Y-187833000D03*
X121459000Y-187833000D03*
D26*
X121285000Y-170608000D03*
X121285000Y-173308000D03*
X121285000Y-178388000D03*
X121285000Y-175688000D03*
D25*
X117682000Y-168656000D03*
X114982000Y-168656000D03*
D26*
X114173000Y-170735000D03*
X114173000Y-173435000D03*
D25*
X110951000Y-168656000D03*
X108251000Y-168656000D03*
X119079000Y-131826000D03*
X116379000Y-131826000D03*
D26*
X112649000Y-132287000D03*
X112649000Y-129587000D03*
X103505000Y-137494000D03*
X103505000Y-134794000D03*
X99441000Y-129460000D03*
X99441000Y-132160000D03*
D25*
X106219000Y-129540000D03*
X108919000Y-129540000D03*
X99902000Y-148463000D03*
X97202000Y-148463000D03*
X97202000Y-144780000D03*
X99902000Y-144780000D03*
X92122000Y-148463000D03*
X94822000Y-148463000D03*
D26*
X101219000Y-123270000D03*
X101219000Y-120570000D03*
D25*
X97202000Y-140970000D03*
X99902000Y-140970000D03*
X108505000Y-108204000D03*
X111205000Y-108204000D03*
X111205000Y-113284000D03*
X108505000Y-113284000D03*
D26*
X114935000Y-113204000D03*
X114935000Y-115904000D03*
X114935000Y-110824000D03*
X114935000Y-108124000D03*
X117602000Y-126318000D03*
X117602000Y-123618000D03*
D25*
X112061000Y-119126000D03*
X114761000Y-119126000D03*
D26*
X107569000Y-124413000D03*
X107569000Y-121713000D03*
D25*
X109681000Y-119126000D03*
X106981000Y-119126000D03*
D26*
X55245000Y-132889000D03*
X55245000Y-135589000D03*
D27*
X101219000Y-114046000D03*
X101219000Y-108046000D03*
X96519000Y-111046000D03*
D16*
X109220000Y-173482000D03*
D17*
X109220000Y-176022000D03*
D16*
X107188000Y-126873000D03*
D17*
X104648000Y-126873000D03*
D16*
X93599000Y-137922000D03*
D17*
X91059000Y-137922000D03*
D16*
X113538000Y-126365000D03*
D17*
X110998000Y-126365000D03*
D28*
X123444000Y-170561000D03*
X99949000Y-139700000D03*
X114173000Y-129540000D03*
X105537000Y-119126000D03*
X116205000Y-119126000D03*
X108458000Y-114554000D03*
X115443000Y-170688000D03*
X115062000Y-189738000D03*
X112268000Y-157099000D03*
X115062000Y-159893000D03*
X99441000Y-123190000D03*
X98425000Y-120904000D03*
X108712000Y-179959000D03*
X106299000Y-179959000D03*
X96012000Y-124968000D03*
X100330000Y-124714000D03*
X103886000Y-169926000D03*
X99695000Y-169926000D03*
X75692000Y-123190000D03*
X54102000Y-137287000D03*
X44577000Y-123317000D03*
X106299000Y-134493000D03*
X112649000Y-134493000D03*
X53340000Y-135509000D03*
X57150000Y-135509000D03*
X65786000Y-131699000D03*
X75819000Y-131699000D03*
X76962000Y-124587000D03*
X70993000Y-124587000D03*
X44577000Y-121285000D03*
X95504000Y-142748000D03*
D29*
X124059000Y-184023000D02*
X123297000Y-182733000D01*
X118217000Y-182773000D02*
X118217000Y-184023000D01*
X119507000Y-181483000D02*
X118217000Y-182773000D01*
X122047000Y-181483000D02*
X119507000Y-181483000D01*
X123297000Y-182733000D02*
X122047000Y-181483000D01*
X124159000Y-187833000D02*
X124159000Y-184123000D01*
X124159000Y-184123000D02*
X124059000Y-184023000D01*
X118979000Y-129540000D02*
X118979000Y-131726000D01*
X118979000Y-131726000D02*
X119079000Y-131826000D01*
X111379000Y-139191000D02*
X111379000Y-138303000D01*
X112288000Y-137394000D02*
X115189000Y-137394000D01*
X111379000Y-138303000D02*
X112288000Y-137394000D01*
X111779000Y-138791000D02*
X111379000Y-139191000D01*
X111379000Y-139191000D02*
X107442000Y-139191000D01*
X108919000Y-129540000D02*
X112602000Y-129540000D01*
X112602000Y-129540000D02*
X112649000Y-129587000D01*
X114173000Y-170735000D02*
X108886000Y-170735000D01*
X108251000Y-170100000D02*
X108251000Y-168656000D01*
X108886000Y-170735000D02*
X108251000Y-170100000D01*
X112315000Y-129921000D02*
X112649000Y-129587000D01*
X121285000Y-170608000D02*
X123444000Y-170561000D01*
X99902000Y-140970000D02*
X99902000Y-139747000D01*
X99902000Y-139747000D02*
X99949000Y-139700000D01*
X112649000Y-129587000D02*
X114126000Y-129587000D01*
X114126000Y-129587000D02*
X114173000Y-129540000D01*
X112602000Y-129540000D02*
X112649000Y-129587000D01*
X106981000Y-119126000D02*
X105537000Y-119126000D01*
X114761000Y-119126000D02*
X116205000Y-119126000D01*
X108605000Y-115824000D02*
X108458000Y-114554000D01*
X114173000Y-170735000D02*
X115396000Y-170735000D01*
X115396000Y-170735000D02*
X115443000Y-170688000D01*
X115617000Y-187833000D02*
X115617000Y-189183000D01*
X115617000Y-189183000D02*
X115062000Y-189738000D01*
X108999000Y-129460000D02*
X108919000Y-129540000D01*
X99902000Y-144780000D02*
X99902000Y-140970000D01*
X111205000Y-113284000D02*
X111205000Y-115724000D01*
X111205000Y-115724000D02*
X111385000Y-115904000D01*
X111385000Y-115904000D02*
X114935000Y-115904000D01*
D30*
X99441000Y-125603000D02*
X102743000Y-125603000D01*
X102743000Y-125603000D02*
X103632000Y-124714000D01*
X107569000Y-124413000D02*
X107569000Y-124460000D01*
X107569000Y-124460000D02*
X109093000Y-125984000D01*
X109093000Y-125984000D02*
X109093000Y-128016000D01*
X103632000Y-124714000D02*
X107268000Y-124714000D01*
X107268000Y-124714000D02*
X107569000Y-124413000D01*
X109093000Y-128016000D02*
X115904000Y-128016000D01*
X115904000Y-128016000D02*
X117602000Y-126318000D01*
X99441000Y-128016000D02*
X99441000Y-129460000D01*
X115824000Y-163195000D02*
X115189000Y-168449000D01*
X115189000Y-168449000D02*
X114982000Y-168656000D01*
X96901000Y-127762000D02*
X94869000Y-127762000D01*
X88900000Y-155956000D02*
X90297000Y-157353000D01*
X88900000Y-133731000D02*
X88900000Y-155956000D01*
X94869000Y-127762000D02*
X88900000Y-133731000D01*
X94170500Y-160210500D02*
X93662500Y-160718500D01*
X93726000Y-160655000D02*
X93726000Y-160782000D01*
X93662500Y-160718500D02*
X93726000Y-160655000D01*
X90297000Y-157353000D02*
X93726000Y-160782000D01*
X93726000Y-160782000D02*
X101219000Y-168275000D01*
D29*
X97790000Y-181483000D02*
X101346000Y-181483000D01*
X96139000Y-179832000D02*
X97790000Y-181483000D01*
D30*
X96139000Y-176911000D02*
X96139000Y-179832000D01*
X97726500Y-175323500D02*
X101219000Y-171831000D01*
X101219000Y-171831000D02*
X101219000Y-168275000D01*
D29*
X101346000Y-181483000D02*
X101727000Y-181864000D01*
X101727000Y-181864000D02*
X101727000Y-186016000D01*
X101727000Y-186016000D02*
X99021000Y-188722000D01*
D30*
X97726500Y-175323500D02*
X96139000Y-176911000D01*
X115824000Y-160655000D02*
X115824000Y-163195000D01*
X115824000Y-163195000D02*
X115824000Y-163576000D01*
X94170500Y-160210500D02*
X97917000Y-156464000D01*
X111633000Y-156464000D02*
X97917000Y-156464000D01*
X112268000Y-157099000D02*
X111633000Y-156464000D01*
X115824000Y-160655000D02*
X115062000Y-159893000D01*
X96901000Y-120904000D02*
X96901000Y-127762000D01*
X98425000Y-120904000D02*
X96901000Y-120904000D01*
X96901000Y-120904000D02*
X95758000Y-120396000D01*
X95758000Y-120396000D02*
X94234000Y-120904000D01*
X93091000Y-120522000D02*
X94234000Y-120904000D01*
X99441000Y-123190000D02*
X99441000Y-125603000D01*
X99441000Y-125603000D02*
X99441000Y-125857000D01*
X99441000Y-125857000D02*
X99441000Y-128016000D01*
X101219000Y-123270000D02*
X99521000Y-123270000D01*
X99521000Y-123270000D02*
X99441000Y-123190000D01*
D29*
X99441000Y-129460000D02*
X100029000Y-129460000D01*
X99441000Y-129460000D02*
X99441000Y-129112000D01*
X107569000Y-124413000D02*
X107649000Y-124413000D01*
X108689000Y-147702000D02*
X113793000Y-147702000D01*
X115570000Y-149479000D02*
X115570000Y-150622000D01*
X113793000Y-147702000D02*
X115570000Y-149479000D01*
X102235000Y-169164000D02*
X102235000Y-166878000D01*
X105410000Y-188722000D02*
X107315000Y-186817000D01*
X102235000Y-169164000D02*
X102235000Y-174117000D01*
X102235000Y-174117000D02*
X107315000Y-179197000D01*
X107315000Y-179197000D02*
X107315000Y-186817000D01*
X115570000Y-155829000D02*
X115570000Y-150622000D01*
X115570000Y-155829000D02*
X111506000Y-159893000D01*
X102235000Y-166878000D02*
X104648000Y-164465000D01*
X104648000Y-164465000D02*
X104648000Y-162179000D01*
X104648000Y-162179000D02*
X106934000Y-159893000D01*
X106934000Y-159893000D02*
X111506000Y-159893000D01*
X104521000Y-188722000D02*
X105410000Y-188722000D01*
X104521000Y-188722000D02*
X104267000Y-188722000D01*
X100607000Y-178688000D02*
X102361000Y-178688000D01*
X102361000Y-178688000D02*
X104902000Y-179959000D01*
X113030000Y-185713000D02*
X110021000Y-188722000D01*
X113030000Y-182499000D02*
X113030000Y-185713000D01*
X110490000Y-179959000D02*
X113030000Y-182499000D01*
X108712000Y-179959000D02*
X110490000Y-179959000D01*
X104902000Y-179959000D02*
X106299000Y-179959000D01*
X112014000Y-188722000D02*
X110021000Y-188722000D01*
X100330000Y-124714000D02*
X102215000Y-124714000D01*
X102215000Y-124714000D02*
X103886000Y-123043000D01*
X96012000Y-124968000D02*
X89408000Y-124968000D01*
X89408000Y-124968000D02*
X86614000Y-127762000D01*
X86614000Y-127762000D02*
X85471000Y-127762000D01*
X85725000Y-127762000D02*
X85471000Y-127762000D01*
X119888000Y-124440000D02*
X122789000Y-124440000D01*
X122789000Y-124440000D02*
X123825000Y-125222000D01*
X117729000Y-164846000D02*
X117729000Y-165481000D01*
X123424000Y-167620000D02*
X123424000Y-168656000D01*
X122809000Y-167005000D02*
X123424000Y-167620000D01*
X119253000Y-167005000D02*
X122809000Y-167005000D01*
X117729000Y-165481000D02*
X119253000Y-167005000D01*
X123424000Y-168128000D02*
X123424000Y-168656000D01*
X117729000Y-162687000D02*
X117729000Y-164846000D01*
X123424000Y-168128000D02*
X123424000Y-168656000D01*
X123825000Y-132842000D02*
X122174000Y-132842000D01*
X117729000Y-141351000D02*
X117729000Y-162687000D01*
X120523000Y-138557000D02*
X117729000Y-141351000D01*
X120523000Y-134493000D02*
X120523000Y-138557000D01*
X122174000Y-132842000D02*
X120523000Y-134493000D01*
X123424000Y-168656000D02*
X123952000Y-168656000D01*
X116479000Y-129540000D02*
X116479000Y-129393000D01*
X118110000Y-127762000D02*
X123825000Y-127762000D01*
X116479000Y-129393000D02*
X118110000Y-127762000D01*
X123825000Y-122682000D02*
X122682000Y-122682000D01*
X115998000Y-113204000D02*
X114935000Y-113204000D01*
X121793000Y-118999000D02*
X115998000Y-113204000D01*
X121793000Y-121793000D02*
X121793000Y-118999000D01*
X122682000Y-122682000D02*
X121793000Y-121793000D01*
X114935000Y-113204000D02*
X114982000Y-113204000D01*
X123952000Y-122682000D02*
X123825000Y-122682000D01*
X114935000Y-110824000D02*
X115269000Y-110824000D01*
X123571000Y-119126000D02*
X123825000Y-120142000D01*
X115269000Y-110824000D02*
X123571000Y-119126000D01*
X85471000Y-135382000D02*
X87122000Y-135382000D01*
X87983000Y-184122000D02*
X99021000Y-184122000D01*
X84455000Y-180594000D02*
X87983000Y-184122000D01*
X84455000Y-159512000D02*
X84455000Y-180594000D01*
X87503000Y-156464000D02*
X84455000Y-159512000D01*
X87503000Y-135763000D02*
X87503000Y-156464000D01*
X87122000Y-135382000D02*
X87503000Y-135763000D01*
X103886000Y-173863000D02*
X103886000Y-174625000D01*
X103886000Y-174625000D02*
X107950000Y-178689000D01*
X103886000Y-173863000D02*
X103886000Y-169926000D01*
X110021000Y-184122000D02*
X110021000Y-183300000D01*
X110021000Y-183300000D02*
X107950000Y-181229000D01*
X107950000Y-181229000D02*
X107950000Y-178689000D01*
X85471000Y-130302000D02*
X86106000Y-130302000D01*
X86106000Y-130302000D02*
X88138000Y-132334000D01*
X88138000Y-132334000D02*
X88138000Y-156591000D01*
X88138000Y-156591000D02*
X91948000Y-160401000D01*
X91948000Y-160401000D02*
X91948000Y-163068000D01*
X91948000Y-163068000D02*
X99695000Y-169926000D01*
X110951000Y-168656000D02*
X110951000Y-166671000D01*
X112395000Y-160655000D02*
X112903000Y-160147000D01*
X112395000Y-165227000D02*
X112395000Y-160655000D01*
X110951000Y-166671000D02*
X112395000Y-165227000D01*
X119507000Y-134366000D02*
X123825000Y-130302000D01*
X119507000Y-138176000D02*
X119507000Y-134366000D01*
X116967000Y-140716000D02*
X119507000Y-138176000D01*
X116967000Y-156083000D02*
X116967000Y-140716000D01*
X112903000Y-160147000D02*
X116967000Y-156083000D01*
X99902000Y-148463000D02*
X100584000Y-148463000D01*
X100584000Y-148463000D02*
X101981000Y-147066000D01*
X101981000Y-147066000D02*
X101981000Y-145415000D01*
X101981000Y-140188000D02*
X99441000Y-137648000D01*
X101981000Y-145415000D02*
X101981000Y-140188000D01*
X94472000Y-144714000D02*
X97136000Y-144714000D01*
X97136000Y-144714000D02*
X97202000Y-144780000D01*
X97663000Y-151785000D02*
X94829000Y-151785000D01*
X94829000Y-151785000D02*
X94722000Y-151892000D01*
X97202000Y-148463000D02*
X94822000Y-148463000D01*
X97202000Y-144780000D02*
X97202000Y-148463000D01*
X94742000Y-151912000D02*
X94822000Y-151832000D01*
X94822000Y-151832000D02*
X94822000Y-148463000D01*
X117602000Y-123618000D02*
X117602000Y-122190000D01*
X117602000Y-122190000D02*
X117602000Y-122301000D01*
X117602000Y-122301000D02*
X117602000Y-122190000D01*
X111948000Y-122190000D02*
X111948000Y-119239000D01*
X111948000Y-119239000D02*
X112061000Y-119126000D01*
X111948000Y-122190000D02*
X117602000Y-122190000D01*
X117602000Y-122190000D02*
X119638000Y-122190000D01*
X119638000Y-122190000D02*
X119988000Y-121840000D01*
X93091000Y-117222000D02*
X93091000Y-108966000D01*
X94011000Y-108046000D02*
X101219000Y-108046000D01*
X93091000Y-108966000D02*
X94011000Y-108046000D01*
X93091000Y-117222000D02*
X93091000Y-116840000D01*
X55245000Y-132889000D02*
X59102000Y-132889000D01*
X59102000Y-132889000D02*
X59182000Y-132969000D01*
X69168000Y-134366000D02*
X69168000Y-132508000D01*
X71628000Y-127254000D02*
X75692000Y-123190000D01*
X71628000Y-130048000D02*
X71628000Y-127254000D01*
X69168000Y-132508000D02*
X71628000Y-130048000D01*
X79121000Y-120777000D02*
X78359000Y-120777000D01*
X78359000Y-120777000D02*
X77089000Y-122047000D01*
X77089000Y-122047000D02*
X77089000Y-122936000D01*
X77089000Y-122936000D02*
X73406000Y-126619000D01*
X73406000Y-126619000D02*
X73406000Y-130429000D01*
X73406000Y-130429000D02*
X74168000Y-131191000D01*
X74168000Y-131191000D02*
X74168000Y-134366000D01*
X79121000Y-118237000D02*
X79121000Y-118364000D01*
X79121000Y-118364000D02*
X70358000Y-127127000D01*
X70358000Y-127127000D02*
X70358000Y-129667000D01*
X70358000Y-129667000D02*
X67564000Y-132461000D01*
X67564000Y-132461000D02*
X67564000Y-135255000D01*
X67564000Y-135255000D02*
X68072000Y-135763000D01*
X68072000Y-135763000D02*
X70271000Y-135763000D01*
X70271000Y-135763000D02*
X71668000Y-134366000D01*
X71668000Y-118872000D02*
X71668000Y-120309000D01*
X78232000Y-115697000D02*
X79121000Y-115697000D01*
X76835000Y-117094000D02*
X78232000Y-115697000D01*
X76835000Y-119253000D02*
X76835000Y-117094000D01*
X75184000Y-120904000D02*
X76835000Y-119253000D01*
X72263000Y-120904000D02*
X75184000Y-120904000D01*
X71668000Y-120309000D02*
X72263000Y-120904000D01*
X55245000Y-135589000D02*
X55245000Y-136144000D01*
X55245000Y-136144000D02*
X54102000Y-137287000D01*
X47919000Y-150241000D02*
X47919000Y-143550000D01*
X46990000Y-125730000D02*
X44577000Y-123317000D01*
X46990000Y-128651000D02*
X46990000Y-125730000D01*
X42164000Y-133477000D02*
X46990000Y-128651000D01*
X42164000Y-137795000D02*
X42164000Y-133477000D01*
X47919000Y-143550000D02*
X42164000Y-137795000D01*
X45419000Y-150241000D02*
X44450000Y-150241000D01*
X42037000Y-115697000D02*
X40513000Y-115697000D01*
X43434000Y-117094000D02*
X42037000Y-115697000D01*
X43434000Y-123571000D02*
X43434000Y-117094000D01*
X46101000Y-126238000D02*
X43434000Y-123571000D01*
X46101000Y-128270000D02*
X46101000Y-126238000D01*
X41021000Y-133350000D02*
X46101000Y-128270000D01*
X41021000Y-146812000D02*
X41021000Y-133350000D01*
X44450000Y-150241000D02*
X41021000Y-146812000D01*
X123952000Y-137922000D02*
X123952000Y-139700000D01*
X123952000Y-139700000D02*
X125222000Y-140970000D01*
X116967000Y-180594000D02*
X122555000Y-180594000D01*
X125222000Y-177927000D02*
X125222000Y-140970000D01*
X122555000Y-180594000D02*
X125222000Y-177927000D01*
X115717000Y-181844000D02*
X115717000Y-184023000D01*
X116967000Y-180594000D02*
X115717000Y-181844000D01*
X117155000Y-176038000D02*
X117155000Y-175580000D01*
X117729000Y-175006000D02*
X117729000Y-173208000D01*
X117155000Y-175580000D02*
X117729000Y-175006000D01*
X119634000Y-179832000D02*
X122174000Y-179832000D01*
X124206000Y-177800000D02*
X124206000Y-175641000D01*
X122174000Y-179832000D02*
X124206000Y-177800000D01*
X124159000Y-175688000D02*
X124206000Y-175641000D01*
X124206000Y-175641000D02*
X124714000Y-175133000D01*
X124714000Y-175133000D02*
X124714000Y-142240000D01*
X124714000Y-142240000D02*
X121920000Y-139446000D01*
X121920000Y-139446000D02*
X121920000Y-136144000D01*
X121920000Y-136144000D02*
X122682000Y-135382000D01*
X122682000Y-135382000D02*
X123952000Y-135382000D01*
X121285000Y-175688000D02*
X124159000Y-175688000D01*
X124159000Y-175688000D02*
X124079000Y-175768000D01*
X113919000Y-181483000D02*
X115570000Y-179832000D01*
X120015000Y-179832000D02*
X119634000Y-179832000D01*
X119634000Y-179832000D02*
X115570000Y-179832000D01*
X121559000Y-184023000D02*
X120797000Y-185273000D01*
X120797000Y-185273000D02*
X120269000Y-185801000D01*
X120269000Y-185801000D02*
X114808000Y-185801000D01*
X114808000Y-185801000D02*
X113919000Y-184912000D01*
X113919000Y-184912000D02*
X113919000Y-181483000D01*
X121285000Y-175688000D02*
X121285000Y-173308000D01*
X121285000Y-173308000D02*
X121185000Y-173208000D01*
X121185000Y-173208000D02*
X117729000Y-173208000D01*
X116379000Y-131826000D02*
X114935000Y-131826000D01*
X114474000Y-132287000D02*
X112649000Y-132287000D01*
X114935000Y-131826000D02*
X114474000Y-132287000D01*
X103505000Y-134794000D02*
X103505000Y-131522000D01*
X103505000Y-131522000D02*
X103489000Y-131506000D01*
X106319000Y-132715000D02*
X105156000Y-131826000D01*
X105156000Y-131826000D02*
X104836000Y-131506000D01*
X104836000Y-131506000D02*
X103489000Y-131506000D01*
X112729000Y-132207000D02*
X112649000Y-132287000D01*
X112649000Y-132287000D02*
X112649000Y-134493000D01*
X106319000Y-134473000D02*
X106319000Y-132715000D01*
X106299000Y-134493000D02*
X106319000Y-134473000D01*
X115189000Y-134894000D02*
X116479000Y-134894000D01*
X102569000Y-134794000D02*
X103505000Y-134794000D01*
X112729000Y-132287000D02*
X112649000Y-132287000D01*
X101854000Y-135509000D02*
X102569000Y-134794000D01*
X101854000Y-138557000D02*
X101854000Y-135509000D01*
X103759000Y-140462000D02*
X101854000Y-138557000D01*
X115062000Y-140462000D02*
X103759000Y-140462000D01*
X117729000Y-137795000D02*
X115062000Y-140462000D01*
X117729000Y-136144000D02*
X117729000Y-137795000D01*
X116479000Y-134894000D02*
X117729000Y-136144000D01*
X95122000Y-154305000D02*
X97643000Y-154305000D01*
X97643000Y-154305000D02*
X97663000Y-154285000D01*
X95122000Y-156591000D02*
X95122000Y-154305000D01*
X114935000Y-108124000D02*
X111285000Y-108124000D01*
X111285000Y-108124000D02*
X111105000Y-108304000D01*
X111105000Y-108304000D02*
X111105000Y-110744000D01*
X79121000Y-128397000D02*
X75819000Y-131699000D01*
X45419000Y-135589000D02*
X45419000Y-134366000D01*
X45974000Y-136144000D02*
X45419000Y-135589000D01*
X52705000Y-136144000D02*
X45974000Y-136144000D01*
X53340000Y-135509000D02*
X52705000Y-136144000D01*
X61976000Y-135509000D02*
X57150000Y-135509000D01*
X65786000Y-131699000D02*
X61976000Y-135509000D01*
X50419000Y-134366000D02*
X50419000Y-134112000D01*
X50419000Y-134112000D02*
X59944000Y-124587000D01*
X78232000Y-125857000D02*
X79121000Y-125857000D01*
X76962000Y-124587000D02*
X78232000Y-125857000D01*
X59944000Y-124587000D02*
X70993000Y-124587000D01*
X47919000Y-134366000D02*
X50419000Y-134366000D01*
X79121000Y-113157000D02*
X77978000Y-113157000D01*
X74168000Y-116967000D02*
X74168000Y-118872000D01*
X77978000Y-113157000D02*
X74168000Y-116967000D01*
X79121000Y-110617000D02*
X79121000Y-110490000D01*
X79121000Y-110490000D02*
X77851000Y-109220000D01*
X77851000Y-109220000D02*
X74295000Y-109220000D01*
X74295000Y-109220000D02*
X69168000Y-114347000D01*
X69168000Y-114347000D02*
X69168000Y-118872000D01*
X50419000Y-150241000D02*
X50419000Y-148971000D01*
X47879000Y-124587000D02*
X44577000Y-121285000D01*
X47879000Y-129159000D02*
X47879000Y-124587000D01*
X43307000Y-133731000D02*
X47879000Y-129159000D01*
X43307000Y-136906000D02*
X43307000Y-133731000D01*
X49276000Y-142875000D02*
X43307000Y-136906000D01*
X49276000Y-147828000D02*
X49276000Y-142875000D01*
X50419000Y-148971000D02*
X49276000Y-147828000D01*
X45419000Y-120142000D02*
X45419000Y-120476000D01*
X45419000Y-120476000D02*
X45593000Y-120650000D01*
X45720000Y-120777000D02*
X45593000Y-120650000D01*
X45593000Y-120650000D02*
X45419000Y-120476000D01*
X45720000Y-120777000D02*
X46101000Y-121158000D01*
X40513000Y-110617000D02*
X40513000Y-110363000D01*
X40513000Y-110363000D02*
X42926000Y-107950000D01*
X53340000Y-121158000D02*
X46101000Y-121158000D01*
X56134000Y-118364000D02*
X53340000Y-121158000D01*
X56134000Y-109855000D02*
X56134000Y-118364000D01*
X54229000Y-107950000D02*
X56134000Y-109855000D01*
X42926000Y-107950000D02*
X54229000Y-107950000D01*
X45419000Y-120142000D02*
X45419000Y-118872000D01*
X88773000Y-118872000D02*
X86741000Y-118872000D01*
X86741000Y-118872000D02*
X85471000Y-120142000D01*
X106299000Y-108204000D02*
X108505000Y-108204000D01*
X105029000Y-109474000D02*
X106299000Y-108204000D01*
X105029000Y-115316000D02*
X105029000Y-109474000D01*
X101473000Y-118872000D02*
X105029000Y-115316000D01*
X88773000Y-118872000D02*
X101473000Y-118872000D01*
X85471000Y-120142000D02*
X85471000Y-120015000D01*
X101727000Y-189992000D02*
X101727000Y-195453000D01*
X116586000Y-193929000D02*
X116586000Y-191008000D01*
X114046000Y-196469000D02*
X116586000Y-193929000D01*
X102743000Y-196469000D02*
X114046000Y-196469000D01*
X101727000Y-195453000D02*
X102743000Y-196469000D01*
X101727000Y-186916000D02*
X104521000Y-184122000D01*
X101727000Y-189992000D02*
X101727000Y-186916000D01*
X118317000Y-187833000D02*
X118317000Y-189277000D01*
X118317000Y-189277000D02*
X116586000Y-191008000D01*
X121459000Y-187833000D02*
X118317000Y-187833000D01*
X40513000Y-113157000D02*
X40894000Y-113157000D01*
X40894000Y-113157000D02*
X43180000Y-115443000D01*
X43180000Y-115443000D02*
X46736000Y-115443000D01*
X46736000Y-115443000D02*
X47919000Y-116626000D01*
X47919000Y-116626000D02*
X47919000Y-118872000D01*
X116205000Y-178038000D02*
X116205000Y-171958000D01*
X116205000Y-171958000D02*
X117455000Y-170708000D01*
X109220000Y-176022000D02*
X109220000Y-176149000D01*
X109220000Y-176149000D02*
X110347000Y-178038000D01*
X110347000Y-178038000D02*
X116205000Y-178038000D01*
X117729000Y-170708000D02*
X117602000Y-168736000D01*
X117602000Y-168736000D02*
X117682000Y-168656000D01*
X117682000Y-168656000D02*
X120924000Y-168656000D01*
X117455000Y-170708000D02*
X117729000Y-170708000D01*
X116205000Y-178038000D02*
X120935000Y-178038000D01*
X120935000Y-178038000D02*
X121285000Y-178388000D01*
X104648000Y-126873000D02*
X102362000Y-126873000D01*
X101489000Y-127746000D02*
X101489000Y-130556000D01*
X102362000Y-126873000D02*
X101489000Y-127746000D01*
X108819000Y-132715000D02*
X108819000Y-133878000D01*
X107442000Y-135255000D02*
X107442000Y-135891000D01*
X108819000Y-133878000D02*
X107442000Y-135255000D01*
X107442000Y-135891000D02*
X106552000Y-135891000D01*
X106552000Y-135891000D02*
X104949000Y-137494000D01*
X104949000Y-137494000D02*
X103505000Y-137494000D01*
X99441000Y-132160000D02*
X99441000Y-135148000D01*
X101489000Y-130556000D02*
X108458000Y-130556000D01*
X108819000Y-130917000D02*
X108819000Y-132715000D01*
X108458000Y-130556000D02*
X108819000Y-130917000D01*
X101489000Y-130556000D02*
X101489000Y-134096000D01*
X101489000Y-134096000D02*
X100437000Y-135148000D01*
X100437000Y-135148000D02*
X99441000Y-135148000D01*
X99341000Y-132060000D02*
X99441000Y-132160000D01*
X111379000Y-135891000D02*
X107442000Y-135891000D01*
X97790000Y-124079000D02*
X97790000Y-122936000D01*
X92472000Y-143764000D02*
X92472000Y-142224000D01*
X97790000Y-124079000D02*
X97790000Y-136906000D01*
X97790000Y-136906000D02*
X92472000Y-142224000D01*
X100156000Y-120570000D02*
X101219000Y-120570000D01*
X97790000Y-122936000D02*
X100156000Y-120570000D01*
X91059000Y-138176000D02*
X91059000Y-143002000D01*
X91821000Y-143764000D02*
X92472000Y-143764000D01*
X91059000Y-143002000D02*
X91821000Y-143764000D01*
X108505000Y-113284000D02*
X106807000Y-113284000D01*
X101219000Y-120650000D02*
X101219000Y-120570000D01*
X106045000Y-115824000D02*
X101219000Y-120650000D01*
X106045000Y-114046000D02*
X106045000Y-115824000D01*
X106807000Y-113284000D02*
X106045000Y-114046000D01*
X101100649Y-120768351D02*
X101219000Y-120570000D01*
X92222000Y-151892000D02*
X92222000Y-153905000D01*
X92222000Y-153905000D02*
X91822000Y-154305000D01*
X91822000Y-154305000D02*
X91822000Y-156591000D01*
X92122000Y-148463000D02*
X92122000Y-151792000D01*
X92122000Y-151792000D02*
X91822000Y-152092000D01*
X92472000Y-143764000D02*
X92472000Y-148113000D01*
X92472000Y-148113000D02*
X92122000Y-148463000D01*
X108605000Y-110744000D02*
X108605000Y-113184000D01*
X108605000Y-113184000D02*
X108505000Y-113284000D01*
X110998000Y-126365000D02*
X110998000Y-124190000D01*
X107569000Y-121713000D02*
X107997000Y-121713000D01*
X109458000Y-124190000D02*
X110998000Y-124190000D01*
X108966000Y-123698000D02*
X109458000Y-124190000D01*
X108966000Y-123100582D02*
X108966000Y-123698000D01*
X107997000Y-121713000D02*
X108966000Y-123100582D01*
X110728000Y-124460000D02*
X110998000Y-124190000D01*
X107569000Y-121713000D02*
X103786000Y-120443000D01*
X103786000Y-120443000D02*
X103886000Y-120543000D01*
X115255000Y-176038000D02*
X114951000Y-176038000D01*
X114951000Y-176038000D02*
X114173000Y-175260000D01*
X114173000Y-175260000D02*
X114173000Y-173435000D01*
X114173000Y-173435000D02*
X114507000Y-173435000D01*
X109220000Y-173482000D02*
X114126000Y-173482000D01*
X114126000Y-173482000D02*
X114173000Y-173435000D01*
X114173000Y-173435000D02*
X114253000Y-173435000D01*
X107188000Y-126873000D02*
X107188000Y-127508000D01*
X107188000Y-127508000D02*
X106219000Y-128477000D01*
X106219000Y-128477000D02*
X106219000Y-129540000D01*
X103489000Y-129606000D02*
X106153000Y-129606000D01*
X106153000Y-129606000D02*
X106219000Y-129540000D01*
X94472000Y-142814000D02*
X95438000Y-142814000D01*
X95438000Y-142814000D02*
X95504000Y-142748000D01*
X97202000Y-140970000D02*
X95377000Y-140970000D01*
X94472000Y-141875000D02*
X94472000Y-142814000D01*
X95377000Y-140970000D02*
X94472000Y-141875000D01*
X97136000Y-141036000D02*
X97202000Y-140970000D01*
X113538000Y-126365000D02*
X113538000Y-124079000D01*
X110048000Y-122875000D02*
X110048000Y-122190000D01*
X110363000Y-123190000D02*
X110048000Y-122875000D01*
X112649000Y-123190000D02*
X110363000Y-123190000D01*
X113538000Y-124079000D02*
X112649000Y-123190000D01*
X110048000Y-122190000D02*
X110048000Y-119493000D01*
X110048000Y-119493000D02*
X109681000Y-119126000D01*
M02*
