M48
;DRILL file {KiCad 4.0.7} date 02/24/18 21:25:27
;FORMAT={-:-/ absolute / metric / decimal}
FMAT,2
METRIC,TZ
T1C0.400
T2C0.800
T3C0.900
T4C1.000
T5C2.000
T6C2.000
%
G90
G05
M71
T1
X44.704Y-130.683
X44.704Y-132.715
X53.467Y-144.907
X54.229Y-146.685
X57.277Y-144.907
X65.913Y-141.097
X71.12Y-133.985
X75.819Y-132.588
X75.946Y-141.097
X77.089Y-133.985
X91.313Y-131.318
X101.092Y-139.192
X105.537Y-119.126
X105.791Y-179.451
X105.918Y-175.387
X106.807Y-113.538
X106.807Y-116.205
X109.474Y-167.132
X115.062Y-189.738
X115.189Y-129.54
X117.602Y-116.586
X123.063Y-167.767
T2
X93.218Y-154.686
X93.218Y-157.607
X100.838Y-154.686
X100.838Y-157.607
X108.204Y-137.414
X108.331Y-143.51
X115.824Y-137.414
X115.951Y-143.51
T3
X59.309Y-142.367
X61.849Y-142.367
T4
X40.64Y-120.015
X40.64Y-122.555
X40.64Y-125.095
X40.64Y-127.635
X40.64Y-130.175
X40.64Y-132.715
X40.64Y-135.255
X40.64Y-137.795
X45.546Y-128.27
X45.546Y-143.764
X45.546Y-159.639
X48.046Y-128.27
X48.046Y-143.764
X48.046Y-159.639
X50.546Y-128.27
X50.546Y-143.764
X50.546Y-159.639
X69.295Y-128.27
X69.295Y-143.764
X71.795Y-128.27
X71.795Y-143.764
X74.295Y-128.27
X74.295Y-143.764
X79.248Y-120.015
X79.248Y-122.555
X79.248Y-125.095
X79.248Y-127.635
X79.248Y-130.175
X79.248Y-132.715
X79.248Y-135.255
X79.248Y-137.795
X85.471Y-120.142
X85.471Y-122.682
X85.471Y-125.222
X85.471Y-127.762
X85.471Y-130.302
X85.471Y-132.842
X85.471Y-135.382
X85.471Y-137.922
X94.488Y-137.795
X94.488Y-140.335
X100.838Y-129.794
X100.838Y-132.334
X109.22Y-173.482
X109.22Y-176.022
X114.935Y-120.904
X114.935Y-123.444
X123.952Y-120.142
X123.952Y-122.682
X123.952Y-125.222
X123.952Y-127.762
X123.952Y-130.302
X123.952Y-132.842
X123.952Y-135.382
X123.952Y-137.922
T5
X87.607Y-178.688
X87.63Y-162.688
X99.021Y-184.122
X99.021Y-188.722
X99.021Y-193.322
X100.607Y-162.688
X100.607Y-178.688
X104.521Y-184.122
X104.521Y-188.722
X104.521Y-193.322
X108.689Y-147.702
X108.689Y-163.702
X110.021Y-184.122
X110.021Y-188.722
X110.021Y-193.322
X121.666Y-163.702
X121.689Y-147.702
T6
X43.646Y-121.27
X43.646Y-136.764
X43.646Y-152.639
X52.446Y-121.27
X52.446Y-136.764
X52.446Y-152.639
X67.395Y-121.27
X67.395Y-136.764
X76.195Y-121.27
X76.195Y-136.764
T4
X96.519Y-110.046G85X96.519Y-112.046
G05
X102.219Y-108.046G85X100.219Y-108.046
G05
X102.219Y-114.046G85X100.219Y-114.046
G05
T0
M30
