G04 #@! TF.FileFunction,Soldermask,Bot*
%FSLAX46Y46*%
G04 Gerber Fmt 4.6, Leading zero omitted, Abs format (unit mm)*
G04 Created by KiCad (PCBNEW 4.0.7) date 02/24/18 21:29:38*
%MOMM*%
%LPD*%
G01*
G04 APERTURE LIST*
%ADD10C,0.100000*%
%ADD11C,2.200000*%
%ADD12C,3.400000*%
%ADD13O,5.400000X4.400000*%
%ADD14O,4.400000X3.900000*%
%ADD15R,2.100000X2.100000*%
%ADD16O,2.100000X2.100000*%
%ADD17R,2.200000X2.200000*%
%ADD18R,2.000000X2.000000*%
%ADD19O,2.000000X2.000000*%
%ADD20R,3.900000X3.900000*%
G04 APERTURE END LIST*
D10*
D11*
X45546000Y-159639000D03*
X48046000Y-159639000D03*
X50546000Y-159639000D03*
D12*
X43646000Y-152639000D03*
X52446000Y-152639000D03*
D13*
X108689000Y-163702000D03*
X108689000Y-147702000D03*
X121689000Y-147702000D03*
X121666000Y-163702000D03*
D14*
X110021000Y-193322000D03*
X104521000Y-193322000D03*
X99021000Y-193322000D03*
X110021000Y-188722000D03*
X104521000Y-188722000D03*
X99021000Y-188722000D03*
X110021000Y-184122000D03*
X104521000Y-184122000D03*
X99021000Y-184122000D03*
D11*
X69295000Y-143764000D03*
X71795000Y-143764000D03*
X74295000Y-143764000D03*
D12*
X67395000Y-136764000D03*
X76195000Y-136764000D03*
D11*
X69295000Y-128270000D03*
X71795000Y-128270000D03*
X74295000Y-128270000D03*
D12*
X67395000Y-121270000D03*
X76195000Y-121270000D03*
D15*
X40640000Y-137795000D03*
D16*
X40640000Y-135255000D03*
X40640000Y-132715000D03*
X40640000Y-130175000D03*
X40640000Y-127635000D03*
X40640000Y-125095000D03*
X40640000Y-122555000D03*
X40640000Y-120015000D03*
D15*
X123952000Y-137922000D03*
D16*
X123952000Y-135382000D03*
X123952000Y-132842000D03*
X123952000Y-130302000D03*
X123952000Y-127762000D03*
X123952000Y-125222000D03*
X123952000Y-122682000D03*
X123952000Y-120142000D03*
D15*
X85471000Y-137922000D03*
D16*
X85471000Y-135382000D03*
X85471000Y-132842000D03*
X85471000Y-130302000D03*
X85471000Y-127762000D03*
X85471000Y-125222000D03*
X85471000Y-122682000D03*
X85471000Y-120142000D03*
D13*
X100607000Y-162688000D03*
X100607000Y-178688000D03*
X87607000Y-178688000D03*
X87630000Y-162688000D03*
D17*
X59309000Y-142367000D03*
D11*
X61849000Y-142367000D03*
X45546000Y-143764000D03*
X48046000Y-143764000D03*
X50546000Y-143764000D03*
D12*
X43646000Y-136764000D03*
X52446000Y-136764000D03*
D15*
X79248000Y-137795000D03*
D16*
X79248000Y-135255000D03*
X79248000Y-132715000D03*
X79248000Y-130175000D03*
X79248000Y-127635000D03*
X79248000Y-125095000D03*
X79248000Y-122555000D03*
X79248000Y-120015000D03*
D11*
X45546000Y-128270000D03*
X48046000Y-128270000D03*
X50546000Y-128270000D03*
D12*
X43646000Y-121270000D03*
X52446000Y-121270000D03*
D15*
X109220000Y-173482000D03*
D16*
X109220000Y-176022000D03*
D15*
X100838000Y-129794000D03*
D16*
X100838000Y-132334000D03*
D15*
X94488000Y-137795000D03*
D16*
X94488000Y-140335000D03*
D15*
X114935000Y-120904000D03*
D16*
X114935000Y-123444000D03*
D18*
X108331000Y-143510000D03*
D19*
X115951000Y-143510000D03*
D18*
X115824000Y-137414000D03*
D19*
X108204000Y-137414000D03*
D18*
X93218000Y-157607000D03*
D19*
X100838000Y-157607000D03*
D18*
X100838000Y-154686000D03*
D19*
X93218000Y-154686000D03*
D20*
X101219000Y-114046000D03*
X101219000Y-108046000D03*
X96519000Y-111046000D03*
M02*
