M48
;DRILL file {KiCad 4.0.6} date 12/28/17 15:34:22
;FORMAT={-:-/ absolute / inch / decimal}
FMAT,2
INCH,TZ
T1C0.016
T2C0.035
T3C0.039
T4C0.079
T5C0.079
%
G90
G05
M72
T1
X2.324Y-4.742
X2.325Y-5.039
X2.325Y-5.24
X2.385Y-6.01
X2.405Y-6.645
X2.47Y-6.798
X2.52Y-4.663
X2.52Y-4.761
X2.585Y-6.99
X2.585Y-7.235
X2.655Y-6.645
X2.745Y-5.755
X2.795Y-4.93
X2.835Y-5.185
X3.113Y-6.797
X3.134Y-5.985
X3.174Y-5.24
X3.19Y-5.039
X3.21Y-5.755
X3.215Y-5.14
X3.23Y-4.765
X3.5Y-4.64
X3.5Y-4.805
X3.578Y-5.04
X3.581Y-5.14
X3.581Y-5.24
T2
X2.94Y-3.0725
X2.94Y-3.1725
T3
X2.195Y-3.135
X2.195Y-3.235
X2.195Y-3.335
X2.195Y-3.435
X2.195Y-3.535
X2.195Y-3.635
X2.205Y-4.74
X2.205Y-4.84
X2.205Y-4.94
X2.205Y-5.04
X2.205Y-5.14
X2.205Y-5.24
X2.4231Y-3.4025
X2.5216Y-3.4025
X2.62Y-3.4025
X2.8481Y-3.7375
X2.9466Y-3.7375
X3.045Y-3.7375
X3.2731Y-3.3925
X3.3716Y-3.3925
X3.47Y-3.3925
X3.7Y-3.135
X3.7Y-3.235
X3.7Y-3.335
X3.7Y-3.435
X3.7Y-3.535
X3.7Y-3.635
X3.705Y-4.74
X3.705Y-4.84
X3.705Y-4.94
X3.705Y-5.04
X3.705Y-5.14
X3.705Y-5.24
T4
X2.3441Y-6.91
X2.345Y-6.28
X2.7535Y-7.1689
X2.7535Y-7.35
X2.7535Y-7.5311
X2.8559Y-6.28
X2.8559Y-6.91
X2.97Y-7.1689
X2.97Y-7.35
X2.97Y-7.5311
X3.0491Y-5.49
X3.0491Y-6.12
X3.1865Y-7.1689
X3.1865Y-7.35
X3.1865Y-7.5311
X3.56Y-6.12
X3.5609Y-5.49
T5
X2.3483Y-3.1269
X2.6948Y-3.1269
X2.7733Y-3.4619
X3.1198Y-3.4619
X3.1983Y-3.1169
X3.5448Y-3.1169
T3
X2.745Y-4.3325G85X2.745Y-4.4113
G05
X2.9694Y-4.2538G85X2.8906Y-4.2538
G05
X2.9694Y-4.49G85X2.8906Y-4.49
G05
T0
M30
