G04 #@! TF.FileFunction,Soldermask,Bot*
%FSLAX46Y46*%
G04 Gerber Fmt 4.6, Leading zero omitted, Abs format (unit mm)*
G04 Created by KiCad (PCBNEW 4.0.7) date 01/20/18 14:04:05*
%MOMM*%
%LPD*%
G01*
G04 APERTURE LIST*
%ADD10C,0.100000*%
%ADD11C,0.150000*%
%ADD12R,1.200000X1.300000*%
%ADD13R,3.900000X3.900000*%
%ADD14O,5.400000X4.400000*%
%ADD15R,1.300000X1.200000*%
%ADD16O,4.400000X3.900000*%
%ADD17C,2.200000*%
%ADD18C,3.400000*%
%ADD19R,2.200000X2.200000*%
%ADD20R,2.100000X2.100000*%
%ADD21O,2.100000X2.100000*%
%ADD22R,0.850000X1.000000*%
%ADD23R,1.000000X0.850000*%
%ADD24R,1.650000X1.900000*%
%ADD25R,1.900000X1.650000*%
%ADD26R,1.700000X1.900000*%
%ADD27R,1.900000X1.700000*%
G04 APERTURE END LIST*
D10*
D11*
X96012000Y-188849000D02*
X96012000Y-110871000D01*
X61087000Y-195834000D02*
X89027000Y-195834000D01*
X61087000Y-188849000D02*
X54102000Y-188849000D01*
X54102000Y-110871000D02*
X54102000Y-188849000D01*
X89027000Y-103886000D02*
X61087000Y-103886000D01*
X96139000Y-197802500D02*
X54102000Y-197802500D01*
X96139000Y-197802500D02*
X96012000Y-197802500D01*
X96139000Y-219900500D02*
X96139000Y-197802500D01*
X54102000Y-219900500D02*
X54102000Y-197929500D01*
X54102000Y-197802500D02*
X54102000Y-197929500D01*
X54178200Y-219875100D02*
X96189800Y-219875100D01*
X61087000Y-110871000D02*
X54102000Y-110871000D01*
X61087000Y-103886000D02*
X61087000Y-110871000D01*
X89027000Y-110871000D02*
X96012000Y-110871000D01*
X89027000Y-103886000D02*
X89027000Y-110871000D01*
X89027000Y-188849000D02*
X89027000Y-195834000D01*
X96012000Y-188849000D02*
X89027000Y-188849000D01*
X61087000Y-188849000D02*
X61087000Y-195834000D01*
D12*
X57719000Y-182356000D03*
X55819000Y-182356000D03*
X56769000Y-180356000D03*
D13*
X74422000Y-114046000D03*
X74422000Y-108046000D03*
X69722000Y-111046000D03*
D14*
X79110700Y-155447000D03*
X79110700Y-139447000D03*
X92110700Y-139447000D03*
X92087700Y-155447000D03*
X71092200Y-159538400D03*
X71092200Y-175538400D03*
X58092200Y-175538400D03*
X58115200Y-159538400D03*
D15*
X90694000Y-174432000D03*
X90694000Y-172532000D03*
X92694000Y-173482000D03*
D12*
X87310000Y-169656000D03*
X85410000Y-169656000D03*
X86360000Y-167656000D03*
D15*
X72787000Y-123759000D03*
X72787000Y-121859000D03*
X74787000Y-122809000D03*
D16*
X69557000Y-182344000D03*
X75057000Y-182344000D03*
X80557000Y-182344000D03*
X69557000Y-186944000D03*
X75057000Y-186944000D03*
X80557000Y-186944000D03*
X69557000Y-191544000D03*
X75057000Y-191544000D03*
X80557000Y-191544000D03*
D17*
X83392000Y-209232500D03*
X85892000Y-209232500D03*
X88392000Y-209232500D03*
D18*
X81492000Y-202232500D03*
X90292000Y-202232500D03*
D17*
X72597000Y-217995500D03*
X75097000Y-217995500D03*
X77597000Y-217995500D03*
D18*
X70697000Y-210995500D03*
X79497000Y-210995500D03*
D17*
X61802000Y-209486500D03*
X64302000Y-209486500D03*
X66802000Y-209486500D03*
D18*
X59902000Y-202486500D03*
X68702000Y-202486500D03*
D19*
X74930000Y-201104500D03*
D17*
X74930000Y-203644500D03*
D20*
X94234000Y-215392000D03*
D21*
X94234000Y-212852000D03*
X94234000Y-210312000D03*
X94234000Y-207772000D03*
X94234000Y-205232000D03*
X94234000Y-202692000D03*
D20*
X56007000Y-215392000D03*
D21*
X56007000Y-212852000D03*
X56007000Y-210312000D03*
X56007000Y-207772000D03*
X56007000Y-205232000D03*
X56007000Y-202692000D03*
D20*
X94107000Y-133096000D03*
D21*
X94107000Y-130556000D03*
X94107000Y-128016000D03*
X94107000Y-125476000D03*
X94107000Y-122936000D03*
X94107000Y-120396000D03*
D20*
X56007000Y-133096000D03*
D21*
X56007000Y-130556000D03*
X56007000Y-128016000D03*
X56007000Y-125476000D03*
X56007000Y-122936000D03*
X56007000Y-120396000D03*
D22*
X80264000Y-111286000D03*
X80264000Y-109186000D03*
X84328000Y-165388000D03*
X84328000Y-163288000D03*
X81534000Y-163288000D03*
X81534000Y-165388000D03*
D23*
X75091000Y-119634000D03*
X72991000Y-119634000D03*
X72991000Y-117602000D03*
X75091000Y-117602000D03*
D24*
X88709500Y-177820000D03*
X88709500Y-180320000D03*
D25*
X93960000Y-181102000D03*
X91460000Y-181102000D03*
D24*
X94488000Y-168422000D03*
X94488000Y-170922000D03*
X92202000Y-143784000D03*
X92202000Y-146284000D03*
D25*
X89364500Y-160591500D03*
X91864500Y-160591500D03*
X85618000Y-158559500D03*
X88118000Y-158559500D03*
X85260500Y-149161500D03*
X82760500Y-149161500D03*
D24*
X64008000Y-124353000D03*
X64008000Y-126853000D03*
D25*
X69703000Y-129857500D03*
X67203000Y-129857500D03*
X78720000Y-129794000D03*
X76220000Y-129794000D03*
D24*
X81534000Y-124440000D03*
X81534000Y-121940000D03*
D25*
X57233500Y-168783000D03*
X59733500Y-168783000D03*
D24*
X56007000Y-151872000D03*
X56007000Y-149372000D03*
D26*
X85471000Y-179815500D03*
X85471000Y-182515500D03*
D27*
X84756000Y-175196500D03*
X87456000Y-175196500D03*
X94060000Y-177673000D03*
X91360000Y-177673000D03*
X92028000Y-186690000D03*
X89328000Y-186690000D03*
X84756000Y-172593000D03*
X87456000Y-172593000D03*
X85454500Y-143002000D03*
X88154500Y-143002000D03*
D26*
X92202000Y-148573500D03*
X92202000Y-151273500D03*
X89598500Y-148987500D03*
X89598500Y-146287500D03*
D27*
X89201000Y-164147500D03*
X91901000Y-164147500D03*
X82698600Y-152019000D03*
X85398600Y-152019000D03*
D26*
X82169000Y-170354000D03*
X82169000Y-173054000D03*
D27*
X85233500Y-146177000D03*
X82533500Y-146177000D03*
D26*
X67056000Y-127207000D03*
X67056000Y-124507000D03*
D27*
X69930000Y-133794500D03*
X67230000Y-133794500D03*
D26*
X78994000Y-116569500D03*
X78994000Y-119269500D03*
D27*
X69676000Y-121666000D03*
X66976000Y-121666000D03*
D26*
X78994000Y-124540000D03*
X78994000Y-121840000D03*
D27*
X76120000Y-133096000D03*
X78820000Y-133096000D03*
X59960500Y-166243000D03*
X57260500Y-166243000D03*
X61515000Y-182308500D03*
X64215000Y-182308500D03*
X60595500Y-154940000D03*
X57895500Y-154940000D03*
X58022500Y-185801000D03*
X60722500Y-185801000D03*
X73803500Y-198755000D03*
X71103500Y-198755000D03*
M02*
